<svg width="51" height="50" viewBox="0 0 51 50" fill="none" xmlns="http://www.w3.org/2000/svg">
<g clip-path="url(#clip0_145_4527)">
<path d="M11.2161 0C9.99406 0.330158 9.08075 1.20057 8.087 1.89743C7.03747 2.63213 6.8792 3.79877 7.08158 5.01501C7.11142 5.18857 7.15553 5.35952 7.21131 5.58789C6.9726 5.61399 6.75595 5.63878 6.538 5.66096C5.95421 5.72099 5.56112 6.15163 5.59485 6.6932C5.61124 6.94833 5.72636 7.18686 5.91552 7.35762C6.10468 7.52838 6.35283 7.61779 6.60676 7.60668C7.0245 7.60668 7.44223 7.55317 7.89759 7.52186C8.231 9.91648 9.90843 10.5951 12.0257 10.7634C11.7662 11.5072 11.5067 12.2185 11.2784 12.9362C10.0537 16.671 9.28961 20.4854 9.48162 24.4395C9.6827 28.5724 10.9761 32.2472 14.1156 35.0933C15.8385 36.6593 17.8623 37.6785 20.0522 38.4027C20.4341 38.5284 20.7969 38.7067 21.1302 38.9325C23.0607 40.261 24.9846 41.6116 26.9124 42.9545C27.0188 43.0288 27.12 43.1071 27.2497 43.2037C27.2108 43.3094 27.1783 43.4138 27.1329 43.5117C26.5932 44.6574 26.06 45.8058 25.4996 46.9411C25.4527 47.0242 25.3888 47.0963 25.3121 47.1525C25.2354 47.2088 25.1476 47.2479 25.0546 47.2674C23.8637 47.3835 22.6689 47.4657 21.4753 47.5584C20.767 47.6132 20.3454 48.0138 20.3843 48.5958C20.4258 49.204 20.9032 49.5602 21.6375 49.5093C22.6753 49.431 23.7028 49.3553 24.7329 49.2614C25.4646 49.1948 26.1755 49.2 26.8722 49.4976C27.3381 49.6801 27.8147 49.8339 28.2992 49.9582C28.8441 50.1161 29.3475 49.8695 29.5252 49.3775C29.5712 49.255 29.5918 49.1243 29.5858 48.9935C29.5798 48.8626 29.5472 48.7344 29.4901 48.6167C29.433 48.499 29.3525 48.3943 29.2537 48.309C29.1549 48.2238 29.0398 48.1597 28.9154 48.1208C28.4212 47.9355 27.9139 47.7855 27.3587 47.5989C27.7998 46.658 28.2668 45.7862 28.6236 44.8688C28.9284 44.0728 29.3734 43.5639 30.2556 43.483C30.6007 43.449 30.9367 43.2859 31.2675 43.1567C31.5983 43.0275 31.9174 42.8709 32.2911 42.7C32.4429 43.7544 32.6803 44.7775 32.7023 45.8058C32.714 46.427 32.3936 47.0586 32.1925 47.6745C32.1639 47.762 31.9693 47.8285 31.8435 47.8442C31.4258 47.8938 31.0041 47.9042 30.5864 47.9499C30.0247 48.0125 29.6458 48.4392 29.6666 48.9573C29.6853 49.2208 29.8065 49.4663 30.0039 49.6405C30.2014 49.8147 30.4592 49.9035 30.7213 49.8878C31.4802 49.8486 32.2379 49.7847 32.9955 49.7116C33.1997 49.6984 33.3941 49.6188 33.5494 49.4849C33.7048 49.351 33.8127 49.17 33.8569 48.9691C34.0308 48.3805 34.2072 47.7946 34.3953 47.1643C34.9324 47.3365 35.4332 47.5049 35.9404 47.6576C36.5891 47.852 37.0899 47.621 37.2767 47.0586C37.4635 46.4961 37.169 46.0146 36.5268 45.8032C36.0079 45.6296 35.4721 45.4887 34.9635 45.2812C34.8702 45.2386 34.7871 45.1762 34.7199 45.0982C34.6527 45.0203 34.6031 44.9287 34.5744 44.8297C34.3992 43.804 34.2578 42.7718 34.1372 41.7382C34.1386 41.5409 34.2057 41.3498 34.3279 41.1954C34.7521 40.6029 35.1906 40.0209 35.6472 39.4545C35.777 39.2992 35.9768 39.1217 36.1558 39.1074C40.4512 38.7537 43.291 35.0281 43.7516 32.0723C43.8121 31.606 43.9706 31.158 44.2167 30.7581C44.4628 30.3583 44.7907 30.0158 45.1786 29.7534C46.5356 28.7785 47.2258 27.3914 47.2543 25.7079C47.2521 25.5566 47.2816 25.4066 47.3411 25.2676C47.4006 25.1286 47.4886 25.0038 47.5994 24.9015C48.8708 23.6213 49.1004 22.0305 48.8461 20.3341C48.7453 19.7081 48.8519 19.0661 49.1497 18.5071C49.5519 17.6993 49.9826 16.8707 50.1733 15.999C50.6429 13.8575 48.8864 12.1741 46.8003 12.7939C45.6042 13.1502 44.4651 13.7414 43.3494 14.3129C41.4904 15.2629 39.6819 16.3239 37.6711 16.9229C36.7979 17.1611 35.911 17.345 35.0154 17.4736C34.3473 17.5845 33.9776 17.9486 34.0165 18.5515C34.0593 19.1322 34.5251 19.5172 35.1841 19.4206C36.2635 19.2627 37.335 19.0448 38.5441 18.8281C37.6243 19.9804 36.7954 21.1184 35.8613 22.1623C33.7622 24.5113 31.309 26.3617 28.2616 27.2922C26.0899 27.9551 23.8806 28.1691 21.6608 27.5532C18.677 26.7232 17.1929 24.1355 17.9077 21.1105C18.1062 20.274 18.6005 19.6516 19.2686 19.1531C20.2662 18.4145 21.4144 18.036 22.6118 17.792C22.7865 17.7715 22.9635 17.7893 23.1307 17.8442C24.0713 18.0817 25.0053 18.3414 25.9472 18.5697C26.5738 18.7211 27.0836 18.4393 27.2199 17.9173C27.3716 17.3339 27.046 16.8563 26.3701 16.6775C25.6501 16.4883 24.9353 16.286 24.2101 16.1242C23.8533 16.0472 23.721 15.8632 23.6431 15.5226C23.0075 12.7235 22.0007 10.0796 20.3 7.7437C18.8729 5.78624 17.0722 4.34034 14.7332 3.69829C14.7072 3.21154 14.7448 2.74697 14.6488 2.31241C14.3686 1.03354 13.4812 0.339291 12.2773 0.00260851L11.2161 0ZM21.7504 15.9415C21.2133 16.1177 20.7307 16.2508 20.2649 16.4296C18.8379 16.9816 17.5133 17.7254 16.7038 19.0813C15.4713 21.1484 15.4778 23.3446 16.4275 25.4952C17.6872 28.3466 20.1183 29.5198 23.0438 29.7834C26.9656 30.1357 30.4904 28.9769 33.6753 26.7167C36.9394 24.4017 39.3628 21.3441 41.2932 17.8611C41.3922 17.6621 41.5416 17.4928 41.7265 17.3705C42.9914 16.6828 44.2601 16.0003 45.5484 15.3582C46.1255 15.0684 46.7289 14.8351 47.3503 14.6614C47.951 14.4956 48.2727 14.784 48.2974 15.4156C48.2981 15.6103 48.2674 15.8037 48.2066 15.9885C47.6578 17.775 46.5875 18.9965 44.6597 19.2797C44.4677 19.3084 44.2705 19.3253 44.0837 19.3566C43.9585 19.3698 43.8371 19.4078 43.7266 19.4683C43.616 19.5288 43.5184 19.6107 43.4394 19.7093C43.3605 19.8079 43.3017 19.9213 43.2664 20.0428C43.2311 20.1644 43.2201 20.2917 43.234 20.4176C43.2768 20.9317 43.6711 21.2906 44.2173 21.2932C44.4116 21.2966 44.6055 21.2755 44.7946 21.2306C45.5043 21.0492 46.2113 20.8508 46.9248 20.659C47.0792 21.7721 46.9975 22.82 46.114 23.6317C45.9418 23.7957 45.7234 23.9019 45.4887 23.9358C44.5235 24.0141 43.5544 24.0559 42.5866 24.0898C41.9691 24.1107 41.5487 24.4382 41.5072 24.9772C41.4644 25.5448 41.8393 25.9702 42.475 26.0329C42.8455 26.0662 43.2177 26.0766 43.5894 26.0642C44.1499 26.0498 44.7103 26.0081 45.2759 25.9781C45.1462 27.2335 44.3678 28.1965 43.2288 28.5332C42.0897 28.8699 40.9494 28.9521 39.7857 28.6389C38.9502 28.4158 38.299 29.02 38.4948 29.8003C38.609 30.2532 38.9502 30.4802 39.3679 30.5442C40.2397 30.6747 41.1193 30.766 41.9976 30.873C41.7005 33.8823 38.8905 37.1199 36.6488 36.979C36.6436 36.9479 36.6436 36.9161 36.6488 36.885C36.7915 36.4531 36.9381 36.0237 37.0834 35.5918C37.326 34.8702 37.1404 34.3351 36.5735 34.1302C36.0066 33.9254 35.5084 34.2229 35.2593 34.9315C34.9415 35.8345 34.6366 36.7428 34.3175 37.6471C34.0009 38.5548 33.4571 39.3652 32.7386 40C31.7345 40.8926 30.5527 41.4237 29.2618 41.7474C29.1116 41.799 28.9505 41.8094 28.795 41.7775C28.6394 41.7456 28.4952 41.6726 28.3771 41.566C26.2965 39.8316 24.7741 37.5155 24.0025 34.9106C23.8053 34.2581 23.3214 33.9606 22.7649 34.1146C22.2083 34.2686 21.9514 34.8101 22.137 35.4509C22.2667 35.8867 22.4185 36.3148 22.5767 36.7402C22.7065 37.0886 22.857 37.4266 22.9971 37.7698C22.0708 37.0925 21.068 36.6893 20.0236 36.3174C15.1872 34.5883 12.3124 31.198 11.5794 26.0368C11.1474 22.9806 11.4678 19.9687 12.1554 16.9842C12.6414 14.7942 13.3406 12.6577 14.2428 10.6055C14.7773 9.41537 14.3492 8.81117 13.0505 8.81117C12.8884 8.81117 12.7249 8.82552 12.5653 8.81117C11.9906 8.74331 11.3978 8.72113 10.8464 8.57105C10.2561 8.41185 9.90843 7.96033 9.85265 7.3222C9.79297 6.65013 9.98238 6.07203 10.5986 5.75623C10.9697 5.56194 11.3728 5.43724 11.7883 5.38823C13.5539 5.20944 15.1496 5.71708 16.5883 6.73757C18.1762 7.86637 19.2375 9.42973 20.0911 11.1549C20.8393 12.6751 21.3966 14.283 21.7504 15.9415ZM9.01458 4.48127C8.88485 3.96842 9.00161 3.60172 9.36227 3.34464C9.95514 2.92183 10.5571 2.51207 11.1707 2.12188C11.5366 1.88699 11.9816 1.83479 12.3046 2.12188C12.5394 2.33329 12.6691 2.69476 12.7716 3.01448C12.8469 3.25199 12.6912 3.39423 12.411 3.38118C11.1681 3.33029 10.0005 3.55213 9.01458 4.48127Z" fill="#FF671D"/>
<path d="M29.6511 18.3818C29.6483 18.5113 29.672 18.64 29.7206 18.7599C29.7693 18.8798 29.8419 18.9883 29.934 19.0789C30.026 19.1694 30.1356 19.2399 30.2559 19.2862C30.3761 19.3324 30.5046 19.3532 30.6332 19.3475C30.8847 19.3407 31.1237 19.236 31.2999 19.0553C31.4761 18.8747 31.5757 18.6323 31.5776 18.3792C31.5712 18.1178 31.4633 17.8694 31.2772 17.687C31.091 17.5045 30.8412 17.4027 30.5813 17.4031C30.3296 17.4109 30.0911 17.5179 29.9171 17.701C29.7431 17.8841 29.6476 18.1286 29.6511 18.3818Z" fill="#FF671D"/>
</g>
<defs>
<clipPath id="clip0_145_4527">
<rect width="50" height="50" fill="white" transform="matrix(-1 0 0 1 50.25 0)"/>
</clipPath>
</defs>
</svg>
