<svg width="51" height="51" viewBox="0 0 51 51" fill="none" xmlns="http://www.w3.org/2000/svg">
<g clip-path="url(#clip0_145_3912)">
<path d="M27.02 -7.62939e-05C29.11 0.999924 31.2101 2.07992 33.2901 3.12992C33.4613 3.17971 33.6178 3.27037 33.7462 3.3941C33.8746 3.51782 33.9709 3.67089 34.027 3.84013C34.0831 4.00938 34.0972 4.18973 34.0681 4.36564C34.0391 4.54155 33.9677 4.70774 33.8601 4.84992C33.2201 6.14992 32.5701 7.43993 31.9201 8.72993C31.5301 9.49993 31.26 9.63992 30.37 9.51992L29.4601 11.3199C30.2301 11.8799 30.0701 12.5399 29.6701 13.2399C29.4201 13.6899 29.21 14.1699 29 14.5899C29.7408 14.8687 30.4596 15.203 31.1501 15.5899C31.7612 16.0145 32.3128 16.519 32.7901 17.0899C33.0302 17.3907 33.3435 17.6248 33.7 17.7699C37.466 19.1162 40.5913 21.824 42.4601 25.3599C43.8288 27.7824 44.5481 30.5175 44.5481 33.2999C44.5481 36.0823 43.8288 38.8175 42.4601 41.2399C42.3501 41.4499 42.2201 41.6599 42.1101 41.8799C42.1101 41.8799 42.1101 41.9399 42.1101 42.0099C42.2886 42.1043 42.4621 42.2078 42.63 42.3199C43.2162 42.6901 43.6994 43.2022 44.035 43.8087C44.3706 44.4153 44.5478 45.0967 44.55 45.7899C44.55 46.7399 44.55 47.6799 44.55 48.6299C44.55 49.5799 44.18 49.9899 43.2 49.9899H8.54007C7.38007 49.9899 7.05002 49.6699 7.05002 48.5199C7.05002 47.6699 7.05002 46.8299 7.05002 45.9799C7.01164 44.893 7.4005 43.8343 8.13321 43.0306C8.86592 42.2268 9.88424 41.742 10.9701 41.6799C11.0432 41.6869 11.1169 41.6869 11.19 41.6799V39.6299H10.68C9.83002 39.6299 8.99004 39.6299 8.14004 39.6299C8.00215 39.641 7.86347 39.6233 7.73276 39.578C7.60204 39.5328 7.48215 39.4609 7.38064 39.3669C7.27914 39.2729 7.19822 39.1589 7.14303 39.032C7.08785 38.9052 7.05958 38.7683 7.06003 38.6299C7.07551 38.3558 7.19672 38.0984 7.39816 37.9119C7.5996 37.7254 7.86557 37.6243 8.14004 37.6299H22.2C22.3632 37.6199 22.5269 37.6199 22.69 37.6299C22.9552 37.6299 23.2096 37.7353 23.3971 37.9228C23.5847 38.1104 23.69 38.3647 23.69 38.6299C23.69 38.8951 23.5847 39.1495 23.3971 39.337C23.2096 39.5246 22.9552 39.6299 22.69 39.6299C21.85 39.6299 21.0001 39.6299 20.1601 39.6299H19.58V41.6299C19.6397 41.6388 19.7004 41.6388 19.76 41.6299C22.7 41.6299 25.6501 41.6899 28.5901 41.5599C30.5481 41.4173 32.3899 40.5768 33.7809 39.1914C35.1719 37.8059 36.0196 35.9674 36.1701 34.0099C36.3285 32.399 36.003 30.7775 35.2353 29.3525C34.4676 27.9275 33.2925 26.7638 31.8601 26.0099C31.7664 25.9393 31.6523 25.9012 31.5351 25.9012C31.4178 25.9012 31.3037 25.9393 31.2101 26.0099C30.106 26.735 28.7965 27.0821 27.4783 26.9992C26.1601 26.9162 24.9045 26.4077 23.9001 25.5499C23.8137 25.4815 23.7236 25.4181 23.63 25.3599L22.2901 28.0299C22.0501 28.5099 21.82 29.0299 21.57 29.4699C21.5133 29.6115 21.4267 29.7391 21.3161 29.8441C21.2055 29.9491 21.0736 30.0291 20.9293 30.0784C20.785 30.1278 20.6317 30.1454 20.48 30.1302C20.3283 30.1149 20.1816 30.0671 20.05 29.9899C18.05 28.9899 16.03 27.9899 13.99 26.9899C13.26 26.6199 13.14 26.0799 13.55 25.2599L18.63 15.0999C19.63 13.0299 20.7 10.9499 21.75 8.86993C22.1 8.16993 22.44 8.00993 23.26 8.15993L24.1601 6.37992C23.5101 5.62992 23.4801 5.37992 23.9101 4.52992C24.5201 3.32992 25.0901 2.10992 25.7301 0.919922C25.9754 0.556065 26.2605 0.220664 26.58 -0.0800781L27.02 -7.62939e-05ZM9.14004 47.8799H42.4201C42.4201 47.2999 42.4201 46.7499 42.4201 46.1999C42.4692 45.8659 42.4393 45.5251 42.3329 45.2047C42.2265 44.8844 42.0465 44.5934 41.8073 44.3552C41.5681 44.117 41.2764 43.9381 40.9556 43.833C40.6348 43.7279 40.2938 43.6994 39.9601 43.7499H10.9601C10.5096 43.7773 10.0817 43.9563 9.74588 44.2576C9.41002 44.559 9.18595 44.9651 9.11008 45.4099C9.07453 46.2332 9.08452 47.0578 9.14004 47.8799ZM23.19 10.5899L15.69 25.5899L20.08 27.7699C20.74 26.4499 21.37 25.1799 22.01 23.9299C22.0766 23.8035 22.1114 23.6628 22.1114 23.5199C22.1114 23.3771 22.0766 23.2363 22.01 23.1099C21.6408 22.2536 21.4896 21.319 21.57 20.3899C21.6629 19.1068 22.1513 17.8841 22.9679 16.8902C23.7846 15.8962 24.8893 15.1799 26.13 14.8399C26.3 14.8399 26.54 14.7199 26.62 14.5799C26.95 13.9899 27.2301 13.3799 27.5301 12.7899C26.9101 12.1799 26.84 11.7899 27.2101 11.1099C27.7101 10.1099 28.2101 9.10993 28.7301 8.04993C29.0601 7.34993 29.4901 6.87992 30.3601 7.13992L31.6001 4.63992L27.2201 2.44992L25.9801 4.93993C26.1164 5.0263 26.2333 5.13993 26.3236 5.27368C26.4139 5.40743 26.4755 5.55841 26.5046 5.71713C26.5337 5.87585 26.5297 6.03888 26.4928 6.19596C26.4558 6.35305 26.3868 6.5008 26.2901 6.62992C25.7701 7.68992 25.24 8.74992 24.7 9.80992C24.36 10.5599 24.06 10.7199 23.19 10.5899ZM34.14 41.5899C34.2 41.5899 34.22 41.6699 34.25 41.6699C35.99 41.6699 37.7301 41.6699 39.4701 41.6699C39.5527 41.6607 39.6326 41.6346 39.7049 41.5933C39.7771 41.5521 39.8401 41.4964 39.89 41.4299C41.5764 39.0476 42.456 36.1881 42.4001 33.2699C42.4204 30.7082 41.7493 28.1885 40.4575 25.9762C39.1657 23.764 37.301 21.9412 35.06 20.6999C34.75 20.5099 34.42 20.3699 34.06 20.1699C34.2139 21.6271 33.8607 23.0928 33.06 24.3199C34.5506 25.1692 35.8048 26.3783 36.7079 27.8369C37.611 29.2955 38.1343 30.9571 38.2301 32.6699C38.3514 34.3805 38.0404 36.0941 37.3257 37.6529C36.6109 39.2117 35.5154 40.5656 34.14 41.5899ZM23.68 20.8499C23.6905 21.9508 24.1339 23.0033 24.9142 23.7799C25.6945 24.5564 26.7492 24.9947 27.8501 24.9999C28.951 24.9843 30.002 24.5379 30.7778 23.7565C31.5536 22.9752 31.9923 21.921 32 20.8199C31.9895 19.7183 31.5444 18.6653 30.7617 17.89C29.9789 17.1148 28.9217 16.6799 27.82 16.6799C26.7193 16.6878 25.6663 17.1307 24.8908 17.9118C24.1152 18.693 23.68 19.7491 23.68 20.8499ZM17.38 41.6399V39.6399H13.2901V41.6399H17.38Z" fill="#FF671D"/>
</g>
<defs>
<clipPath id="clip0_145_3912">
<rect width="37.53" height="50" fill="white" transform="translate(7)"/>
</clipPath>
</defs>
</svg>
