<svg width="1919" height="1038" viewBox="0 0 1919 1038" fill="none" xmlns="http://www.w3.org/2000/svg">
<mask id="mask0_1596_9552" style="mask-type:alpha" maskUnits="userSpaceOnUse" x="0" y="0" width="1919" height="1038">
<rect width="1919" height="1038" fill="#F3F3F3"/>
</mask>
<g mask="url(#mask0_1596_9552)">
<path d="M1003.34 1217.13L-830.451 -526.152H-548.305C109.096 178.623 626.31 759.718 1003.34 1217.13Z" fill="white" fill-opacity="0.35"/>
<path d="M1003.34 1217.13C687.118 719.831 263.941 138.736 -266.195 -526.152H15.8413C423.284 106.149 752.449 687.244 1003.34 1217.13Z" fill="white" fill-opacity="0.35"/>
<path d="M1003.34 1217.13C821.499 662.349 586.407 81.2545 298.062 -526.152H580.099C752.035 64.4725 893.115 645.567 1003.34 1217.13Z" fill="white" fill-opacity="0.35"/>
<path d="M1003.34 1217.13C966.44 637.107 919.422 56.0117 862.281 -526.152H1144.43C1087.24 55.9885 1040.21 637.083 1003.34 1217.13Z" fill="white" fill-opacity="0.35"/>
<path d="M1003.34 1217.13C1113.54 645.591 1254.6 64.4957 1426.54 -526.152H1708.65C1420.26 81.2778 1185.15 662.373 1003.34 1217.13Z" fill="white" fill-opacity="0.35"/>
<path d="M1003.34 1217.13C1254.22 687.174 1583.36 106.079 1990.76 -526.152H2272.91C1742.72 138.76 1319.53 719.854 1003.34 1217.13Z" fill="white" fill-opacity="0.35"/>
<path d="M1003.34 1217.13C1380.32 759.718 1897.54 178.623 2555.02 -526.152H2837.13L1003.34 1217.13Z" fill="white" fill-opacity="0.35"/>
<path d="M1003.34 1217.13C1484.52 858.783 2095.79 367.095 2837.13 -257.931V10.2563C2137.67 514.228 1526.41 916.52 1003.34 1217.13Z" fill="white" fill-opacity="0.35"/>
<path d="M1003.34 1217.13C1560.81 978.651 2172.07 665.754 2837.13 278.443V546.665C2198.16 820.709 1586.9 1044.2 1003.34 1217.13Z" fill="white" fill-opacity="0.35"/>
<path d="M1003.34 1217.13C1604.55 1112.4 2215.81 978.279 2837.13 814.782V1082.97C2224.71 1137.34 1613.45 1182.06 1003.34 1217.13Z" fill="white" fill-opacity="0.35"/>
<path d="M1003.34 1217.13C393.199 1182.06 -218.064 1137.36 -830.451 1083.04V814.782C-209.213 978.279 402.05 1112.4 1003.34 1217.13Z" fill="white" fill-opacity="0.35"/>
<path d="M1003.34 1217.13C419.703 1044.2 -191.559 820.709 -830.451 546.665V278.443C-165.397 665.754 445.865 978.651 1003.34 1217.13Z" fill="white" fill-opacity="0.35"/>
<path d="M1003.34 1217.13C480.096 916.52 -131.167 514.228 -830.451 10.2563V-257.931C-89.1362 367.072 522.127 858.759 1003.34 1217.13Z" fill="white" fill-opacity="0.35"/>
</g>
</svg>
