<svg width="1257" height="931" viewBox="0 0 1257 931" fill="none" xmlns="http://www.w3.org/2000/svg">
<mask id="mask0_1007_5777" style="mask-type:alpha" maskUnits="userSpaceOnUse" x="0" y="-25" width="1257" height="1257">
<circle cx="628.5" cy="603.5" r="628.5" fill="url(#paint0_radial_1007_5777)"/>
</mask>
<g mask="url(#mask0_1007_5777)">
<path d="M616.063 676.105L-923 -787H-686.2C-134.456 -195.496 299.631 292.206 616.063 676.105Z" fill="white" fill-opacity="0.04"/>
<path d="M616.062 676.105C350.666 258.73 -4.49847 -228.972 -449.431 -787H-212.723C129.236 -256.322 405.497 231.379 616.062 676.105Z" fill="white" fill-opacity="0.04"/>
<path d="M616.063 676.105C463.45 210.486 266.142 -277.215 24.1394 -787H260.847C405.15 -291.3 523.555 196.401 616.063 676.105Z" fill="white" fill-opacity="0.04"/>
<path d="M616.062 676.105C585.096 189.301 545.634 -298.401 497.677 -787H734.477C686.479 -298.421 647.007 189.281 616.062 676.105Z" fill="white" fill-opacity="0.04"/>
<path d="M616.063 676.105C708.551 196.421 826.946 -291.281 971.248 -787H1208.02C965.975 -277.196 768.656 210.506 616.063 676.105Z" fill="white" fill-opacity="0.04"/>
<path d="M616.063 676.105C826.628 231.321 1102.87 -256.381 1444.79 -787H1681.59C1236.61 -228.952 881.439 258.749 616.063 676.105Z" fill="white" fill-opacity="0.04"/>
<path d="M616.063 676.105C932.454 292.206 1366.55 -195.496 1918.36 -787H2155.13L616.063 676.105Z" fill="white" fill-opacity="0.04"/>
<path d="M616.063 676.105C1019.91 375.349 1532.93 -37.3149 2155.13 -561.887V-336.803C1568.09 86.1712 1055.07 423.807 616.063 676.105Z" fill="white" fill-opacity="0.04"/>
<path d="M616.063 676.104C1083.94 475.952 1596.96 213.344 2155.13 -111.719V113.394C1618.86 343.394 1105.83 530.965 616.063 676.104Z" fill="white" fill-opacity="0.04"/>
<path d="M616.063 676.105C1120.65 588.201 1633.67 475.64 2155.13 338.42V563.504C1641.14 609.133 1128.12 646.667 616.063 676.105Z" fill="white" fill-opacity="0.04"/>
<path d="M616.063 676.105C1128.18 705.581 1641.2 743.105 2155.13 788.676V1013.76C1633.69 876.579 1120.67 764.028 616.063 676.105Z" fill="white" fill-opacity="0.04"/>
<path d="M616.063 676.105C1105.85 821.206 1618.88 1008.79 2155.13 1238.84V1463.93C1596.96 1138.87 1083.94 876.257 616.063 676.105Z" fill="white" fill-opacity="0.04"/>
<path d="M616.063 676.105C1055.09 928.441 1568.11 1266.09 2155.13 1689.04V1914.13C1532.91 1389.57 1019.89 976.9 616.063 676.105Z" fill="white" fill-opacity="0.04"/>
<path d="M616.063 676.105L2155.13 2139.21H1918.3C1366.51 1547.74 932.433 1060.04 616.063 676.105Z" fill="white" fill-opacity="0.04"/>
<path d="M616.063 676.105C881.48 1093.46 1236.65 1581.16 1681.59 2139.21H1444.73C1102.81 1608.55 826.587 1120.85 616.063 676.105Z" fill="white" fill-opacity="0.04"/>
<path d="M616.063 676.105C768.697 1141.72 966.016 1629.42 1208.02 2139.21H971.187C826.884 1643.55 708.51 1155.85 616.063 676.105Z" fill="white" fill-opacity="0.04"/>
<path d="M616.063 676.105C647.07 1162.93 686.542 1650.63 734.478 2139.21H497.617C545.574 1650.63 585.056 1162.93 616.063 676.105Z" fill="white" fill-opacity="0.04"/>
<path d="M616.062 676.105C523.596 1155.83 405.211 1643.53 260.908 2139.21H24.0774C266.08 1629.44 463.408 1141.74 616.062 676.105Z" fill="white" fill-opacity="0.04"/>
<path d="M616.063 676.105C405.519 1120.89 129.278 1608.59 -212.661 2139.21H-449.492C-4.53839 1581.18 350.647 1093.48 616.063 676.105Z" fill="white" fill-opacity="0.04"/>
<path d="M616.063 676.105C299.693 1060.02 -134.395 1547.72 -686.2 2139.21H-923L616.063 676.105Z" fill="white" fill-opacity="0.04"/>
<path d="M616.063 676.105C212.213 976.9 -300.808 1389.57 -923 1914.13V1689.04C-336.104 1266.07 176.917 928.422 616.063 676.105Z" fill="white" fill-opacity="0.04"/>
<path d="M616.063 676.105C148.188 876.257 -364.833 1138.87 -923 1463.93V1238.84C-386.77 1008.79 126.251 821.206 616.063 676.105Z" fill="white" fill-opacity="0.04"/>
<path d="M616.063 676.105C111.476 764.028 -401.545 876.579 -923 1013.76V788.676C-409.097 743.086 103.924 705.562 616.063 676.105Z" fill="white" fill-opacity="0.04"/>
<path d="M616.063 676.105C103.986 646.667 -409.035 609.153 -923 563.562V338.42C-401.607 475.64 111.414 588.201 616.063 676.105Z" fill="white" fill-opacity="0.04"/>
<path d="M616.063 676.104C126.23 530.965 -386.791 343.394 -923 113.394V-111.719C-364.833 213.344 148.188 475.952 616.063 676.104Z" fill="white" fill-opacity="0.04"/>
<path d="M616.063 676.105C176.917 423.807 -336.104 86.1712 -923 -336.803V-561.887C-300.829 -37.3345 212.192 375.33 616.063 676.105Z" fill="white" fill-opacity="0.04"/>
</g>
<defs>
<radialGradient id="paint0_radial_1007_5777" cx="0" cy="0" r="1" gradientUnits="userSpaceOnUse" gradientTransform="translate(628.5 603.5) rotate(90) scale(628.5)">
<stop stop-color="#D7A461"/>
<stop offset="1" stop-color="#D7A461" stop-opacity="0"/>
</radialGradient>
</defs>
</svg>
