<svg width="38" height="38" viewBox="0 0 38 38" fill="none" xmlns="http://www.w3.org/2000/svg">
<g clip-path="url(#clip0_1352_14128)">
<path d="M29.2374 32.5314L30.7229 34.017C27.9367 36.1852 24.5979 37.528 21.0863 37.8923C17.5746 38.2566 14.0312 37.628 10.8592 36.0779C7.68724 34.5278 5.01401 32.1184 3.14373 29.124C1.27345 26.1296 0.281222 22.6704 0.279907 19.1399C0.282309 17.2499 0.565246 15.3707 1.11953 13.5637L2.17454 14.6187L2.8204 15.2C2.51658 16.4912 2.36485 17.8135 2.3683 19.1399C2.36788 23.2308 3.8607 27.1811 6.56656 30.2493L12.1859 24.63L13.6499 26.094L8.00908 31.7133C10.9094 34.2702 14.6033 35.7479 18.4669 35.897C22.3305 36.046 26.1272 34.8572 29.2159 32.5314H29.2374Z" fill="#1D1D1B"/>
<path d="M6.91103 9.19318L10.4419 10.4419L9.21473 6.91103C8.36628 4.79836 6.78374 3.06296 4.75805 2.0238L0 0L2.0238 4.75805C3.05758 6.78291 4.79564 8.3602 6.91103 9.19318V9.19318Z" fill="#1D1D1B"/>
<path d="M12.5303 13.3915C10.8037 11.8026 8.58508 10.8528 6.24361 10.7003H0.710449L3.40167 13.3915C5.13596 14.9653 7.35161 15.9061 9.68838 16.0612H15.2215L12.5303 13.3915Z" fill="#1D1D1B"/>
<path d="M29.2591 28.3416L28.4066 29.1942L36.6427 37.4302L37.4952 36.5777L29.2591 28.3416Z" fill="#1D1D1B"/>
<path d="M17.2668 7.27707V12.8317C17.4245 15.172 18.3735 17.389 19.9581 19.1184L22.6493 21.8096V16.2119C22.4954 13.8771 21.5454 11.6658 19.9581 9.94674L17.2668 7.27707Z" fill="#1D1D1B"/>
<path d="M13.8651 23.8549L16.6209 26.5461C18.3552 28.1199 20.5709 29.0608 22.9076 29.2159H28.4407L25.7495 26.5461C24.0229 24.9572 21.8043 24.0075 19.4629 23.8549H13.8651Z" fill="#1D1D1B"/>
<path d="M29.2374 28.3762V22.843C29.0747 20.504 28.1264 18.2886 26.5462 16.5564L23.855 13.8652V19.3983C24.0075 21.7398 24.9573 23.9584 26.5462 25.685L29.2374 28.3762Z" fill="#1D1D1B"/>
<path d="M19.14 0.279907C17.2499 0.282309 15.3707 0.565246 13.5637 1.11953L14.6187 2.17454C14.8345 2.36892 15.0293 2.58538 15.2 2.8204C16.4912 2.51658 17.8135 2.36485 19.14 2.3683C23.2308 2.36788 27.1811 3.8607 30.2493 6.56656L24.63 12.1643L26.094 13.6499L31.6918 8.03063C34.2444 10.9322 35.7211 14.6235 35.874 18.4851C36.0269 22.3466 34.8467 26.1431 32.5315 29.2374L34.017 30.7014C36.18 27.9136 37.5177 24.5749 37.8778 21.0647C38.2379 17.5546 37.6061 14.0138 36.0541 10.8448C34.5022 7.67589 32.0923 5.00582 29.0985 3.13821C26.1047 1.27059 22.647 0.280323 19.1184 0.279907H19.14Z" fill="#1D1D1B"/>
<path d="M7.29858 17.2668L9.9898 19.9581C11.7107 21.5425 13.921 22.4919 16.2549 22.6493H21.8096L19.1184 19.9581C17.389 18.3735 15.1719 17.4245 12.8317 17.2668H7.29858Z" fill="#1D1D1B"/>
<path d="M16.0612 15.2216V9.75299C15.9062 7.41622 14.9653 5.20056 13.3915 3.46627L10.7003 0.775055V6.30822C10.8529 8.64969 11.8026 10.8684 13.3915 12.5949L16.0612 15.2216Z" fill="#1D1D1B"/>
</g>
<defs>
<clipPath id="clip0_1352_14128">
<rect width="38" height="38" fill="white"/>
</clipPath>
</defs>
</svg>
