<svg width="38" height="38" viewBox="0 0 38 38" fill="none" xmlns="http://www.w3.org/2000/svg">
<g clip-path="url(#clip0_1352_14142)">
<g clip-path="url(#clip1_1352_14142)">
<path d="M30.0001 22.2776C29.9239 22.6873 29.8757 23.1045 29.7657 23.5049C29.2152 25.507 27.9931 26.9551 26.1512 27.8648C25.3875 28.2415 24.6043 28.5816 23.8292 28.9322C23.3193 29.164 22.6117 28.7798 22.5516 28.2206C22.4433 27.2152 22.2852 26.207 22.2869 25.1999C22.2915 22.2573 23.6573 20.1423 26.2755 18.8582C26.9693 18.5175 27.6803 18.2127 28.3833 17.8916C28.4331 17.869 28.4847 17.8505 28.5804 17.8111C28.5179 17.927 28.4795 18.0006 28.4383 18.0724C27.5052 19.705 26.5715 21.3366 25.6373 22.9672C25.5101 23.1891 25.4654 23.4128 25.5766 23.6475C25.6226 23.7543 25.6978 23.8456 25.7934 23.9106C25.8891 23.9756 26.0011 24.0116 26.1163 24.0143C26.3861 24.0288 26.5866 23.9053 26.7201 23.6753C27.0129 23.1712 27.3005 22.663 27.5898 22.1565L29.5641 18.7052C29.599 18.6438 29.6363 18.5835 29.7084 18.4636C29.7371 18.718 29.7611 18.9121 29.7801 19.1068C29.8419 19.7535 29.9015 20.4007 29.964 21.048C29.972 21.097 29.9835 21.1454 29.9983 21.1929L30.0001 22.2776Z" fill="#1D1D1B"/>
<path d="M8.00001 17.5051C8.04298 17.1331 8.08938 16.7617 8.1272 16.3891C8.17647 15.9075 8.21886 15.4254 8.26527 14.9439C8.27508 14.8993 8.2881 14.8556 8.30423 14.8129C8.36152 14.9085 8.40277 14.9734 8.44058 15.0407C9.37024 16.6663 10.2997 18.292 11.229 19.918C11.3401 20.1127 11.4719 20.279 11.7022 20.3237C11.9709 20.3764 12.2035 20.3034 12.3645 20.0727C12.5255 19.8421 12.5283 19.5872 12.3868 19.3386C11.8376 18.3747 11.2876 17.4115 10.7368 16.4488C10.3404 15.7534 9.94373 15.0594 9.54688 14.3667C9.51308 14.3088 9.48386 14.2462 9.4323 14.15C9.4781 14.1616 9.52323 14.1758 9.56751 14.1923C10.3868 14.5701 11.2175 14.9236 12.0219 15.331C14.5038 16.589 15.9217 19.1555 15.6971 21.9467C15.6301 22.7817 15.547 23.6156 15.464 24.4495C15.4493 24.604 15.3979 24.7527 15.3141 24.8829C15.2304 25.0131 15.1168 25.1209 14.983 25.1971C14.8493 25.2734 14.6993 25.3158 14.5458 25.3208C14.3923 25.3258 14.2399 25.2933 14.1016 25.2259C13.1878 24.7977 12.2425 24.424 11.3716 23.9198C9.40423 22.7812 8.30251 21.0347 8.0361 18.7568C8.02663 18.7003 8.014 18.6444 7.99829 18.5893L8.00001 17.5051Z" fill="#1D1D1B"/>
<path d="M18.3543 7.01275V7.24453C18.3543 9.14634 18.3543 11.048 18.3543 12.9494C18.3543 13.2461 18.4729 13.4709 18.7421 13.592C18.9862 13.7033 19.22 13.6598 19.4228 13.4842C19.5912 13.3376 19.6462 13.1418 19.6456 12.9204C19.6422 11.8652 19.6456 10.8094 19.6456 9.75362V7.00985C19.6777 7.00985 19.6875 7.00985 19.6897 7.01391C20.4242 8.07954 21.3065 9.05247 21.8256 10.2543C22.8144 12.5426 22.6036 14.7509 21.2595 16.8376C20.78 17.5816 20.2455 18.2903 19.7281 19.01C19.4319 19.4226 18.6109 19.4736 18.3228 19.068C17.6696 18.1547 16.9575 17.2716 16.4264 16.2865C15.1488 13.9211 15.2806 11.554 16.7077 9.28252C17.201 8.49676 17.771 7.76026 18.3056 7.00116L18.3543 7.01275Z" fill="#1D1D1B"/>
</g>
<path d="M12.24 26.04L6.26001 32.02L7.68001 33.43L12.24 28.87V26.04Z" fill="#1D1D1B"/>
<path d="M27.4399 12.69L32.6899 7.43999L31.2799 6.01999L27.4399 9.85999V12.69Z" fill="#1D1D1B"/>
<path d="M19 37.47C15.347 37.47 11.776 36.3868 8.73866 34.3573C5.70128 32.3277 3.33394 29.4431 1.93599 26.0682C0.538037 22.6932 0.172263 18.9795 0.884932 15.3967C1.5976 11.8139 3.3567 8.52282 5.93977 5.93975C8.52285 3.35667 11.8139 1.59757 15.3967 0.884902C18.9795 0.172233 22.6932 0.538004 26.0682 1.93595C29.4431 3.3339 32.3278 5.70125 34.3573 8.73863C36.3868 11.776 37.47 15.347 37.47 19C37.4648 23.8969 35.5171 28.5918 32.0545 32.0544C28.5918 35.5171 23.897 37.4647 19 37.47V37.47ZM19 2.53001C15.7426 2.53001 12.5583 3.49596 9.84981 5.30571C7.14133 7.11545 5.03031 9.68771 3.78374 12.6972C2.53716 15.7067 2.21101 19.0183 2.84651 22.2131C3.48201 25.408 5.05062 28.3427 7.35399 30.6461C9.65736 32.9494 12.592 34.518 15.7869 35.1535C18.9818 35.789 22.2933 35.4629 25.3028 34.2163C28.3123 32.9697 30.8846 30.8587 32.6944 28.1502C34.5041 25.4418 35.47 22.2575 35.47 19C35.4648 14.6335 33.7278 10.4474 30.6402 7.35981C27.5527 4.27223 23.3665 2.5353 19 2.53001V2.53001Z" fill="#1D1D1B"/>
</g>
<defs>
<clipPath id="clip0_1352_14142">
<rect width="38" height="38" fill="white"/>
</clipPath>
<clipPath id="clip1_1352_14142">
<rect width="22" height="22" fill="white" transform="translate(8 7)"/>
</clipPath>
</defs>
</svg>
