<svg width="38" height="38" viewBox="0 0 38 38" fill="none" xmlns="http://www.w3.org/2000/svg">
<g clip-path="url(#clip0_1352_14181)">
<path d="M19 38.0103C15.2393 38.0123 11.5624 36.8989 8.43461 34.8108C5.30681 32.7227 2.8686 29.7538 1.42848 26.2797C-0.0116408 22.8056 -0.388972 18.9824 0.344216 15.2938C1.0774 11.6052 2.88818 8.21696 5.54743 5.55771C8.20669 2.89845 11.5949 1.08769 15.2835 0.3545C18.9721 -0.378688 22.7953 -0.0013534 26.2694 1.43877C29.7435 2.87888 32.7124 5.31707 34.8005 8.44488C36.8886 11.5727 38.0021 15.2495 38 19.0103C37.9946 24.0477 35.991 28.8773 32.429 32.4393C28.867 36.0013 24.0375 38.0049 19 38.0103ZM19 2.0574C15.6466 2.05536 12.368 3.0479 9.57871 4.90947C6.78947 6.77104 4.61495 9.41802 3.33025 12.5156C2.04555 15.6131 1.70836 19.0221 2.36133 22.3113C3.0143 25.6006 4.62809 28.6222 6.99859 30.9942C9.36908 33.3661 12.3898 34.9817 15.6786 35.6367C18.9674 36.2917 22.3766 35.9565 25.475 34.6737C28.5733 33.3909 31.2216 31.218 33.0848 28.4299C34.9481 25.6418 35.9426 22.3637 35.9426 19.0103C35.9399 14.5167 34.1544 10.2078 30.9779 7.02943C27.8014 3.85103 23.4936 2.06285 19 2.0574Z" fill="#1D1D1B"/>
<path d="M31.6299 5.66077L22.2902 15.0005L23.745 16.4553L33.0847 7.11556L31.6299 5.66077Z" fill="#1D1D1B"/>
<path d="M14.3671 23.9197L5.89288 32.3939L7.34768 33.8487L15.8219 25.3745L14.3671 23.9197Z" fill="#1D1D1B"/>
<path d="M18.2079 32.9594C17.7142 32.9741 17.2252 32.8607 16.7883 32.6302C16.319 32.3619 15.9531 31.944 15.7492 31.4433C15.5453 30.9426 15.5151 30.388 15.6635 29.8681C15.8119 29.3482 16.1303 28.8931 16.5677 28.5754C17.0052 28.2578 17.5365 28.0959 18.0768 28.1157C18.617 28.1356 19.1351 28.3359 19.5481 28.6848C19.9611 29.0337 20.2452 29.5109 20.3551 30.0403C20.465 30.5696 20.3942 31.1205 20.1542 31.6049C19.9141 32.0893 19.5186 32.4793 19.0309 32.7125L18.8766 32.8051L18.2079 32.9594ZM16.5723 30.7889C16.5773 30.853 16.5954 30.9155 16.6254 30.9724C16.6554 31.0294 16.6967 31.0796 16.7467 31.1201C16.7968 31.1605 16.8546 31.1903 16.9166 31.2076C16.9785 31.225 17.0434 31.2295 17.1072 31.2209C17.1733 31.2152 17.2374 31.1955 17.2952 31.1629C17.353 31.1302 17.4031 31.0856 17.4421 31.032C17.4811 30.9783 17.5082 30.9169 17.5214 30.8519C17.5346 30.7869 17.5337 30.7198 17.5187 30.6551C17.4911 30.5229 17.5166 30.3851 17.5898 30.2716C17.6629 30.158 17.7778 30.0778 17.9096 30.0482C17.9718 30.033 18.0302 30.0051 18.0811 29.9662C18.1319 29.9272 18.1742 29.8782 18.2051 29.8221C18.236 29.766 18.255 29.7041 18.2608 29.6404C18.2666 29.5766 18.2591 29.5123 18.2388 29.4516C18.22 29.3907 18.1894 29.3341 18.1487 29.2851C18.108 29.2361 18.058 29.1956 18.0016 29.1659C17.9452 29.1363 17.8835 29.1181 17.82 29.1124C17.7566 29.1067 17.6926 29.1136 17.6318 29.1327C17.2782 29.2231 16.9722 29.4444 16.7755 29.7518C16.5788 30.0593 16.5062 30.4299 16.5723 30.7889Z" fill="#1D1D1B"/>
<path d="M5.12292 21.7878C5.1261 21.5401 5.18731 21.2966 5.30165 21.0768C5.41599 20.8571 5.58025 20.6672 5.78127 20.5225C5.94001 20.4085 6.12014 20.3278 6.31085 20.2852C6.50155 20.2425 6.69891 20.2389 6.89106 20.2744C7.08321 20.31 7.26621 20.384 7.42904 20.492C7.59188 20.6001 7.7312 20.7399 7.83866 20.9031C7.95406 21.0613 8.03599 21.2414 8.07942 21.4324C8.12285 21.6233 8.12685 21.8211 8.09122 22.0137C8.0556 22.2063 7.98109 22.3896 7.87222 22.5524C7.76335 22.7151 7.62242 22.854 7.45805 22.9605C7.14103 23.1742 6.75243 23.2542 6.37677 23.1829C6.00111 23.1116 5.66877 22.8949 5.45208 22.5799L5.29779 22.3433L5.12292 21.7878Z" fill="#1D1D1B"/>
<path d="M22.6107 18.1051C22.8004 18.9419 22.7379 19.8162 22.4309 20.6175C22.124 21.4188 21.5866 22.1112 20.8864 22.6072C20.1862 23.1032 19.3547 23.3805 18.4969 23.4042C17.6392 23.4279 16.7937 23.1969 16.0671 22.7403C15.3406 22.2837 14.7657 21.6221 14.415 20.8389C14.0644 20.0558 13.9536 19.1863 14.0968 18.3402C14.2401 17.4942 14.6308 16.7096 15.2197 16.0855C15.8086 15.4614 16.5692 15.0258 17.4055 14.8338C17.9621 14.706 18.5385 14.6893 19.1016 14.7846C19.6647 14.8799 20.2034 15.0854 20.687 15.3893C21.1705 15.6932 21.5893 16.0895 21.9194 16.5555C22.2495 17.0215 22.4845 17.5481 22.6107 18.1051ZM15.0498 19.6687C15.1218 20.039 15.3276 20.2242 15.6259 20.1727C15.9242 20.1213 16.0476 19.895 15.9962 19.5041C15.8851 18.9046 16.0047 18.2853 16.3309 17.7703C16.6571 17.2552 17.1659 16.8824 17.7553 16.7266C17.8493 16.7017 17.9394 16.6636 18.0227 16.6134C18.1129 16.5491 18.1771 16.4546 18.2035 16.347C18.2299 16.2394 18.2169 16.1259 18.1668 16.0271C18.1116 15.9204 18.0201 15.8368 17.9089 15.7916C17.7976 15.7463 17.6738 15.7423 17.5598 15.7802C16.7272 15.9906 16.0052 16.5088 15.5395 17.2304C15.0737 17.9519 14.8987 18.8232 15.0498 19.6687Z" fill="#1D1D1B"/>
<path d="M21.3763 8.00325C21.27 7.53693 21.3045 7.04957 21.4753 6.60284C21.6461 6.15611 21.9456 5.77009 22.3359 5.49362C22.7261 5.21715 23.1897 5.06266 23.6677 5.04969C24.1458 5.03672 24.617 5.16586 25.0217 5.42076C25.4264 5.67567 25.7464 6.04489 25.9412 6.4817C26.1359 6.91851 26.1968 7.40328 26.116 7.87468C26.0351 8.34607 25.8163 8.78291 25.4872 9.12991C25.158 9.4769 24.7334 9.71847 24.2669 9.82404C23.9575 9.89546 23.637 9.90494 23.3239 9.85196C23.0108 9.79898 22.7113 9.68457 22.4426 9.51532C22.1739 9.34608 21.9414 9.12534 21.7583 8.86583C21.5753 8.60632 21.4455 8.31316 21.3763 8.00325ZM22.3021 7.71521C22.3072 7.77975 22.3252 7.84259 22.3551 7.90003C22.385 7.95746 22.426 8.00832 22.4759 8.04957C22.5258 8.09082 22.5835 8.12164 22.6455 8.14019C22.7075 8.15874 22.7727 8.16464 22.837 8.15755C22.9608 8.14455 23.0745 8.08327 23.1535 7.98698C23.2324 7.8907 23.2703 7.76718 23.2588 7.6432C23.2588 7.20087 23.2588 7.17001 23.6805 6.97455C23.7394 6.95398 23.7934 6.92173 23.8395 6.87974C23.8856 6.83776 23.9227 6.7869 23.9486 6.73022C23.9746 6.67355 23.9888 6.61222 23.9904 6.54991C23.9921 6.4876 23.9812 6.4256 23.9583 6.36762C23.9227 6.25309 23.8432 6.15735 23.7371 6.10141C23.631 6.04548 23.5071 6.03393 23.3925 6.0693C23.0245 6.13939 22.6987 6.35109 22.4852 6.65889C22.2717 6.96668 22.1874 7.34598 22.2507 7.71521H22.3021Z" fill="#1D1D1B"/>
<path d="M10.3281 11.9637C9.86122 12.0685 9.37378 12.0324 8.92746 11.86C8.48115 11.6875 8.09602 11.3865 7.82088 10.9951C7.54574 10.6037 7.39297 10.1394 7.38188 9.66103C7.37078 9.1827 7.50188 8.71183 7.75856 8.30805C8.01525 7.90427 8.38596 7.58574 8.8238 7.3928C9.26164 7.19986 9.7469 7.14118 10.2181 7.2242C10.6893 7.30722 11.1253 7.5282 11.4708 7.85916C11.8164 8.19012 12.0559 8.61618 12.1591 9.08337C12.2289 9.39277 12.2368 9.71291 12.1824 10.0254C12.1281 10.3379 12.0125 10.6365 11.8424 10.9042C11.6722 11.1718 11.4508 11.4032 11.1909 11.5851C10.9311 11.7669 10.6378 11.8956 10.3281 11.9637ZM8.38382 9.90632C8.39926 10.0327 8.46193 10.1485 8.55925 10.2306C8.65657 10.3126 8.78133 10.3548 8.90847 10.3487C8.97031 10.3436 9.03049 10.3261 9.08543 10.2972C9.14038 10.2684 9.18896 10.2288 9.2283 10.1808C9.26765 10.1329 9.29697 10.0775 9.31448 10.0179C9.33199 9.9584 9.33734 9.89596 9.33024 9.83432C9.3121 9.76128 9.30899 9.68531 9.3211 9.61104C9.33322 9.53676 9.36031 9.46572 9.40072 9.40222C9.44112 9.33873 9.49399 9.28411 9.55614 9.24168C9.6183 9.19925 9.68843 9.16988 9.76227 9.15538C9.82111 9.1348 9.87518 9.10255 9.92125 9.06057C9.96732 9.01858 10.0044 8.96773 10.0304 8.91105C10.0563 8.85437 10.0705 8.79304 10.0722 8.73073C10.0738 8.66842 10.0629 8.60642 10.04 8.54845C9.9959 8.43312 9.91014 8.33852 9.79969 8.2833C9.68925 8.22808 9.56212 8.21624 9.44338 8.25013C9.09926 8.34224 8.80106 8.55777 8.60565 8.85562C8.41024 9.15348 8.33129 9.51284 8.38382 9.86518V9.90632Z" fill="#1D1D1B"/>
<path d="M31.725 23.4646C31.5385 23.5052 31.3457 23.5083 31.158 23.4738C30.9702 23.4392 30.7912 23.3677 30.6314 23.2634C30.4715 23.159 30.334 23.024 30.2268 22.866C30.1197 22.7081 30.045 22.5304 30.0071 22.3433C29.9672 22.1568 29.9644 21.9644 29.999 21.7769C30.0335 21.5894 30.1046 21.4106 30.2083 21.2506C30.3119 21.0906 30.4461 20.9526 30.603 20.8444C30.76 20.7362 30.9368 20.6601 31.1232 20.6202C31.3096 20.5804 31.5021 20.5776 31.6896 20.6121C31.877 20.6467 32.0559 20.7178 32.2159 20.8214C32.3759 20.9251 32.5139 21.0592 32.6221 21.2162C32.7302 21.3732 32.8064 21.5499 32.8462 21.7363C32.887 21.9235 32.8902 22.1169 32.8558 22.3053C32.8214 22.4937 32.75 22.6734 32.6457 22.8341C32.5415 22.9948 32.4064 23.1332 32.2484 23.2414C32.0904 23.3496 31.9125 23.4255 31.725 23.4646Z" fill="#1D1D1B"/>
<path d="M23.4337 20.7796L23.66 19.8435L29.2046 21.0677L28.9989 22.0038L23.4337 20.7796Z" fill="#1D1D1B"/>
<path d="M9.03194 21.6437L8.83649 20.7488L13.0953 19.7818L13.301 20.6768L9.03194 21.6437Z" fill="#1D1D1B"/>
<path d="M15.019 14.9161L14.3297 15.595L11.6448 12.5089L12.3649 11.8814L15.019 14.9161Z" fill="#1D1D1B"/>
<path d="M21.0883 14.484L20.2242 14.0623L21.8701 10.3487L22.7445 10.7499L21.0883 14.484Z" fill="#1D1D1B"/>
<path d="M17.6216 27.1473L17.7142 24.3492H18.6811L18.5886 27.1473H17.6216Z" fill="#1D1D1B"/>
</g>
<defs>
<clipPath id="clip0_1352_14181">
<rect width="38" height="38" fill="white"/>
</clipPath>
</defs>
</svg>
