<svg width="38" height="38" viewBox="0 0 38 38" fill="none" xmlns="http://www.w3.org/2000/svg">
<g clip-path="url(#clip0_1352_14104)">
<path d="M31.4939 5.94975L24.4476 13.2693L25.8885 14.6564L32.9347 7.3368L31.4939 5.94975Z" fill="#1D1D1B"/>
<path d="M15.4004 23.0173L6.23633 32.1814L7.65054 33.5956L16.8146 24.4315L15.4004 23.0173Z" fill="#1D1D1B"/>
<path d="M19 2.60999C23.3664 2.61528 27.5526 4.35221 30.6402 7.43979C33.7277 10.5274 35.4647 14.7135 35.47 19.08C35.4712 21.9454 34.7158 24.7603 33.28 27.24L34.6799 28.79C36.698 25.5508 37.6613 21.7652 37.437 17.9554C37.2127 14.1456 35.8118 10.4992 33.4276 7.51916C31.0434 4.53914 27.7932 2.3723 24.1255 1.31749C20.4577 0.262677 16.553 0.371865 12.95 1.62999L14.41 3.25999C15.9014 2.82669 17.4469 2.60783 19 2.60999V2.60999Z" fill="#1D1D1B"/>
<path d="M28.85 32.25C25.8301 34.5266 22.1178 35.6925 18.3385 35.5511C14.5593 35.4097 10.9444 33.9697 8.10318 31.4738C5.26193 28.9779 3.36807 25.5786 2.74086 21.8492C2.11365 18.1197 2.79144 14.288 4.65998 11L3.25997 9.48999C1.00316 13.1612 0.103406 17.5068 0.716928 21.7723C1.33045 26.0377 3.41851 29.9536 6.6185 32.8399C9.81849 35.7262 13.9283 37.4006 18.2342 37.5723C22.5402 37.7441 26.7703 36.4023 30.19 33.78L28.85 32.25Z" fill="#1D1D1B"/>
<path d="M31.58 29.85L30.92 30.43C30.5457 30.1593 30.1549 29.9121 29.75 29.69C28.7 29.21 27.62 28.78 26.56 28.32C25.5 27.86 24.17 27.32 23.01 26.76C21.8058 26.1753 20.7725 25.2902 20.01 24.19C19.2956 23.1512 18.3377 22.3032 17.22 21.72C16.092 21.1226 15.1403 20.2399 14.46 19.16C13.7238 18.0725 12.8073 17.1188 11.75 16.34C10.5057 15.4482 9.47993 14.2857 8.74997 12.94C8.3539 12.1571 7.78651 11.4735 7.08997 10.94C6.08511 10.1623 5.24684 9.19064 4.62497 8.0826C4.0031 6.97457 3.61031 5.75283 3.46996 4.48999C3.23996 3.19999 3.04997 1.91 2.83997 0.619995H2.93996L3.17997 1.16999C3.97005 3.20116 5.00431 5.12865 6.25996 6.90999C6.86835 7.65401 7.5373 8.34638 8.25996 8.98C9.25841 9.86057 10.136 10.8693 10.87 11.98C11.5843 12.9991 12.4433 13.9086 13.42 14.68C14.4948 15.5727 15.4704 16.5785 16.33 17.68C17.1245 18.6545 18.0422 19.5217 19.06 20.26C19.8377 20.8055 20.5434 21.4473 21.16 22.17C22.7989 24.1155 24.799 25.7251 27.05 26.91C28.39 27.67 29.69 28.51 31 29.32C31.2047 29.4838 31.3984 29.6608 31.58 29.85V29.85Z" fill="#1D1D1B"/>
<path d="M32.08 29.27C31.45 28.82 30.81 28.37 30.19 27.91C30.0822 27.8051 29.9971 27.6791 29.94 27.54C29.08 25.98 28.24 24.41 27.36 22.87C26.6115 21.6255 25.6541 20.5193 24.53 19.6C23.6604 18.874 22.9052 18.0211 22.29 17.07C21.5518 15.9262 20.6293 14.9124 19.56 14.07C18.5998 13.2798 17.728 12.388 16.96 11.41C16.0253 10.1937 14.9128 9.12504 13.66 8.24001C13.0476 7.84019 12.5011 7.34765 12.04 6.78001C9.93058 4.18993 7.19874 2.17718 4.09995 0.930008C3.95441 0.843833 3.8229 0.735921 3.70996 0.610008L3.77996 0.480011C4.62996 0.640011 5.47995 0.760011 6.31995 0.980011C7.42995 1.26001 8.51996 1.58001 9.60996 1.93001C10.774 2.31711 11.7856 3.06272 12.5 4.06001C13.4815 5.3965 14.7402 6.50512 16.19 7.31001C16.74 7.67419 17.2379 8.11154 17.67 8.61001C17.9613 8.91765 18.2225 9.25252 18.45 9.61001C19.2582 10.8074 20.2742 11.8505 21.45 12.69C22.5239 13.4595 23.3814 14.4927 23.94 15.69C24.3399 16.5747 24.9595 17.3424 25.74 17.92C27.4674 19.2043 28.7533 20.9934 29.42 23.04C29.7133 23.82 29.9933 24.6 30.26 25.38C30.6757 26.7577 31.2888 28.068 32.08 29.27V29.27Z" fill="#1D1D1B"/>
<path d="M13.89 9.40001C14.0532 9.4524 14.2056 9.5337 14.34 9.64001C15.09 10.43 15.84 11.22 16.55 12.04C16.8 12.34 17.24 12.56 17.15 13.04C17.1112 13.3665 17.0016 13.6806 16.8289 13.9604C16.6562 14.2402 16.4245 14.479 16.15 14.66C15.971 14.7594 15.7836 14.8431 15.59 14.91C15.4222 14.9834 15.2357 15.0027 15.0564 14.965C14.8772 14.9274 14.7141 14.8347 14.59 14.7C13.83 13.94 13.03 13.21 12.24 12.49C11.45 11.77 11.62 10.93 12.24 10.14C12.4465 9.9063 12.7005 9.71937 12.9851 9.59175C13.2696 9.46413 13.5782 9.39876 13.89 9.40001Z" fill="#1D1D1B"/>
<path d="M16.79 17.06C16.8049 16.4704 17.0437 15.9086 17.4579 15.4888C17.8721 15.069 18.4307 14.8227 19.0201 14.8C19.1807 14.8004 19.3375 14.8492 19.47 14.94C20.5883 15.927 21.5434 17.0846 22.3 18.37C22.3226 18.4238 22.3342 18.4816 22.3342 18.54C22.3342 18.5984 22.3226 18.6561 22.3 18.71C22.2131 19.1028 22.0182 19.4635 21.7373 19.7515C21.4563 20.0395 21.1006 20.2433 20.71 20.34C20.5755 20.3955 20.4245 20.3955 20.29 20.34C19.0297 19.5328 17.9029 18.5341 16.95 17.38C16.8877 17.2781 16.8342 17.171 16.79 17.06V17.06Z" fill="#1D1D1B"/>
<path d="M8.88001 4.57999C8.98076 4.61745 9.07269 4.67532 9.15001 4.74999C10.02 5.66999 10.89 6.59999 11.74 7.53999C11.773 7.58944 11.7953 7.64519 11.8056 7.70371C11.816 7.76223 11.8141 7.82225 11.8 7.87999C11.732 8.27083 11.5492 8.63259 11.275 8.91928C11.0007 9.20597 10.6474 9.40463 10.26 9.48999C10.1759 9.50826 10.0889 9.5088 10.0045 9.49159C9.92013 9.47437 9.84028 9.43977 9.77002 9.38999C8.91002 8.57999 8.07001 7.73999 7.21001 6.91999C7.05915 6.78933 6.95718 6.61127 6.92084 6.41502C6.8845 6.21878 6.91594 6.01601 7.01001 5.83999C7.15885 5.46627 7.41692 5.14612 7.75052 4.92133C8.08413 4.69655 8.47775 4.57759 8.88001 4.57999V4.57999Z" fill="#1D1D1B"/>
<path d="M22.12 22.15C22.147 21.6524 22.3589 21.1828 22.714 20.8332C23.0692 20.4836 23.542 20.2792 24.04 20.26C24.1746 20.2824 24.2979 20.3493 24.39 20.45C25.3807 21.3307 26.2246 22.3636 26.89 23.51C26.9217 23.5808 26.9381 23.6575 26.9381 23.735C26.9381 23.8126 26.9217 23.8892 26.89 23.96C26.7443 24.2556 26.5518 24.5258 26.32 24.76C25.79 25.25 25.56 25.24 24.96 24.85C23.9784 24.1849 23.0905 23.3912 22.32 22.49C22.2433 22.3829 22.1763 22.2691 22.12 22.15V22.15Z" fill="#1D1D1B"/>
<path d="M34.0201 31.82C34.4201 32.22 34.86 32.62 35.25 33.07C35.5707 33.435 35.7475 33.9042 35.7475 34.39C35.7475 34.8758 35.5707 35.345 35.25 35.71C34.87 36.13 34.42 36.48 34 36.88L33.41 36.22C33.67 35.98 33.96 35.72 34.24 35.44C35.02 34.69 35.04 34.13 34.29 33.37L33.29 32.44L34.0201 31.82Z" fill="#1D1D1B"/>
<path d="M4.40002 1.81L8.16003 3.92C7.72955 4.06166 7.33675 4.29901 7.01114 4.61423C6.68553 4.92944 6.43558 5.31434 6.28003 5.74L4.28003 1.93L4.40002 1.81Z" fill="#1D1D1B"/>
<path d="M32.7101 29.92L33.7101 30.92L32.5601 32L31.5601 30.92L32.7101 29.92Z" fill="#1D1D1B"/>
<path d="M28.78 27.1L26.47 25.79L27.64 24.79L28.85 27.05L28.78 27.1Z" fill="#1D1D1B"/>
<path d="M17.34 14.57L17.84 13.51L18.48 14.07L17.34 14.57Z" fill="#1D1D1B"/>
<path d="M15.59 15.72L16.59 15.26L16.07 16.35L15.59 15.72Z" fill="#1D1D1B"/>
<path d="M12.0699 9.19999L12.5099 8.26999L13.09 8.71999L12.0699 9.19999Z" fill="#1D1D1B"/>
<path d="M10.49 10.25L11.41 9.82999L10.92 10.83L10.49 10.25Z" fill="#1D1D1B"/>
<path d="M22.54 19.99L22.99 19.16L23.42 19.58L22.54 19.99Z" fill="#1D1D1B"/>
<path d="M21.14 21L21.88 20.63L21.49 21.44L21.14 21Z" fill="#1D1D1B"/>
</g>
<defs>
<clipPath id="clip0_1352_14104">
<rect width="38" height="38" fill="white"/>
</clipPath>
</defs>
</svg>
