<svg width="80" height="80" viewBox="0 0 80 80" fill="none" xmlns="http://www.w3.org/2000/svg">
<g clip-path="url(#clip0_971_7156)">
<path d="M40 80C62.0914 80 80 62.0914 80 40C80 17.9086 62.0914 0 40 0C17.9086 0 0 17.9086 0 40C0 62.0914 17.9086 80 40 80Z" fill="#F3F3F3"/>
<path d="M77.3546 25.7386C67.1039 25.7812 65.0879 27.8719 59.6853 27.4932C54.4586 27.1626 54.0586 21.8452 50.2559 20.8639C50.0373 18.8959 49.1519 16.3199 46.0213 16.0639C45.3333 16.0159 44.5066 16.0159 43.6479 16.0159C40.9813 16.0159 37.8239 16.0159 36.7412 13.9732C36.6026 13.6741 36.3508 13.4422 36.0413 13.3287C35.7317 13.2152 35.3898 13.2293 35.0906 13.3679C34.7914 13.5065 34.5596 13.7583 34.4461 14.0679C34.3325 14.3774 34.3466 14.7194 34.4853 15.0186C35.2693 17.0826 36.7839 18.4586 38.3199 19.8506C38.9546 20.4319 39.5946 21.0132 40.1493 21.6266C40.4917 22.0631 40.78 22.5394 41.0079 23.0452L17.4666 52.7519C17.4666 52.7519 16.1493 60.6666 22.9333 60.2932C29.7173 59.9199 26.3253 58.5919 29.7173 58.9706C32.3359 59.2639 55.4932 66.9279 65.7759 70.6292C72.1276 65.276 76.6551 58.0781 78.7299 50.0348C80.8048 41.9914 80.3241 33.5016 77.3546 25.7439V25.7386ZM39.8186 40.8746C38.1119 41.5039 36.2026 40.6132 36.2026 40.6132C36.2026 40.6132 37.0719 38.6932 38.7786 38.0639C40.4852 37.4346 42.3893 38.3252 42.3893 38.3252C42.3893 38.3252 41.5039 40.2452 39.8186 40.8746ZM61.7973 43.6852C61.5786 44.7519 61.0932 45.9679 59.9412 46.3199C57.4559 47.0719 54.1493 42.7306 52.8799 41.0506C51.6106 39.3706 50.3359 37.4719 49.1893 35.6159C49.1292 35.5188 49.0894 35.4106 49.0723 35.2977C49.0551 35.1849 49.0609 35.0697 49.0893 34.9592C49.1176 34.8486 49.168 34.7449 49.2375 34.6543C49.3069 34.5637 49.3939 34.4881 49.4933 34.4319L53.1092 32.4266C53.2695 32.3308 53.4584 32.2949 53.6426 32.3252C55.6204 32.5865 57.4967 33.3565 59.0879 34.5599C61.9573 36.8479 62.5066 40.2079 61.7973 43.6852Z" fill="#1D1D1B"/>
</g>
<defs>
<clipPath id="clip0_971_7156">
<rect width="80" height="80" fill="white"/>
</clipPath>
</defs>
</svg>
