<svg width="80" height="80" viewBox="0 0 80 80" fill="none" xmlns="http://www.w3.org/2000/svg">
<g clip-path="url(#clip0_971_7168)">
<path d="M40 80C62.0914 80 80 62.0914 80 40C80 17.9086 62.0914 0 40 0C17.9086 0 0 17.9086 0 40C0 62.0914 17.9086 80 40 80Z" fill="#F3F3F3"/>
<path d="M32.1972 28.0907C30.9406 27.4317 29.6177 26.9079 28.2506 26.5281C25.6266 29.2427 14.3839 41.2427 17.0506 44.7201C19.7172 48.1974 28.6826 45.3494 31.7652 44.3734C32.0852 44.2721 32.3572 44.1867 32.5972 44.1227C38.9599 37.1574 37.7599 32.7307 34.9332 30.0374C34.4853 30.5069 33.9388 30.8712 33.3332 31.1041C31.4932 31.7814 29.4346 30.8214 29.4346 30.8214C29.4346 30.8214 30.3892 28.7681 32.1972 28.0907Z" fill="#1D1D1B"/>
<path d="M50.784 14.5761C46.272 11.4507 36.032 12.0161 30.5173 17.3974C27.7706 20.0641 27.4026 22.3467 27.52 23.7014C27.7219 23.656 27.9314 23.656 28.1333 23.7014C28.1973 23.7014 50.7893 28.4641 34.5333 46.1014C37.5253 48.9174 42.4693 67.7547 48.5813 79.1094C53.7324 77.9807 58.6095 75.8446 62.932 72.824C67.2546 69.8034 70.9371 65.9579 73.7679 61.5087C76.5987 57.0596 78.5218 52.0946 79.4266 46.8995C80.3314 41.7043 80.2 36.3816 79.04 31.2374C77.7357 31.1167 76.4405 30.9118 75.1626 30.6241C68.5333 28.8481 55.3066 17.7067 50.784 14.5761ZM46.016 26.4747C44.968 27.7167 43.6682 28.722 42.2026 29.4241C41.7649 28.3333 41.1444 27.3251 40.368 26.4427C39.6429 25.6153 38.8022 24.8968 37.872 24.3094C38.208 23.7761 44.864 15.6107 47.904 18.6774C49.3386 20.1387 48.5973 23.5147 46.016 26.4747Z" fill="#1D1D1B"/>
</g>
<defs>
<clipPath id="clip0_971_7168">
<rect width="80" height="80" fill="white"/>
</clipPath>
</defs>
</svg>
