<svg width="80" height="80" viewBox="0 0 80 80" fill="none" xmlns="http://www.w3.org/2000/svg">
<g clip-path="url(#clip0_971_7174)">
<path d="M40 80C62.0914 80 80 62.0914 80 40C80 17.9086 62.0914 0 40 0C17.9086 0 0 17.9086 0 40C0 62.0914 17.9086 80 40 80Z" fill="#F3F3F3"/>
<path d="M46.4054 22.1866L45.1467 25.3066L54.4481 17.7119C57.4081 9.74922 53.9734 7.85055 52.3467 7.39722L46.4054 22.1866Z" fill="#1D1D1B"/>
<path d="M79.968 41.2481C75.9981 38.5803 71.3217 37.1595 66.5387 37.1681C66.5387 37.1681 56.8907 37.3921 53.392 38.9761L48.592 36.0054C59.3013 31.4294 64.784 26.9814 67.3653 23.1147C72.288 15.7441 66.6933 10.4907 66.6933 10.4907L51.2267 23.1147L41.456 31.1147C41.456 31.1147 24.5013 33.2907 20.416 47.4347C20.416 47.4347 22.176 52.8054 33.248 50.7201L33.904 50.0641C33.904 50.0641 33.2213 65.3014 38.5867 69.1414C38.5867 69.1414 23.4613 68.9921 25.3547 77.2214C31.3208 79.5665 37.7631 80.4433 44.139 79.778C50.5149 79.1127 56.6374 76.9248 61.9909 73.3985C67.3443 69.8722 71.7719 65.1109 74.9005 59.5157C78.029 53.9205 79.767 47.6554 79.968 41.2481ZM35.1253 40.4161C34.1724 40.6859 33.1549 40.6123 32.2507 40.2081C32.4268 39.7427 32.7002 39.3203 33.0528 38.9692C33.4053 38.618 33.8288 38.3463 34.2949 38.1721C34.7609 37.9978 35.2589 37.9252 35.7553 37.959C36.2517 37.9928 36.7352 38.1323 37.1733 38.3681C36.7565 39.2729 36.0302 39.9992 35.1253 40.4161Z" fill="#1D1D1B"/>
</g>
<defs>
<clipPath id="clip0_971_7174">
<rect width="80" height="80" fill="white"/>
</clipPath>
</defs>
</svg>
