<svg width="80" height="80" viewBox="0 0 80 80" fill="none" xmlns="http://www.w3.org/2000/svg">
<g clip-path="url(#clip0_971_7161)">
<path d="M40 80C62.0914 80 80 62.0914 80 40C80 17.9086 62.0914 0 40 0C17.9086 0 0 17.9086 0 40C0 62.0914 17.9086 80 40 80Z" fill="#F3F3F3"/>
<path d="M30.7201 34.2188V30.6881C30.7201 30.5121 30.6828 30.0641 30.7201 29.4294C28.5868 30.5494 26.5014 32.1281 26.3361 34.1014L26.1868 35.8988L27.8614 35.2374C28.5708 34.9494 29.6001 34.5814 30.7201 34.2188Z" fill="#1D1D1B"/>
<path d="M39.3868 18.32C39.0694 18.2591 38.7406 18.318 38.4641 18.4854C31.8881 22.368 32.7148 30.5814 32.7148 30.6027V30.688V42.0107C32.7133 42.1667 32.7428 42.3215 32.8013 42.4661C32.8599 42.6107 32.9465 42.7423 33.0561 42.8534C33.2808 43.0747 33.5833 43.1992 33.8988 43.2C34.0551 43.2007 34.2101 43.1705 34.3547 43.1109C34.4994 43.0514 34.6307 42.9638 34.7413 42.8533C34.8519 42.7427 34.9395 42.6113 34.999 42.4667C35.0585 42.3221 35.0888 42.1671 35.0881 42.0107L35.0614 29.952C35.0614 29.952 34.4588 23.8187 39.7334 20.3787C39.8615 20.2966 39.972 20.1898 40.0584 20.0645C40.1448 19.9392 40.2054 19.798 40.2367 19.6491C40.2679 19.5002 40.2693 19.3465 40.2405 19.1971C40.2118 19.0477 40.1537 18.9054 40.0694 18.7787C39.9091 18.544 39.6647 18.3798 39.3868 18.32Z" fill="#1D1D1B"/>
<path d="M80 40C80 39.1253 79.9627 38.2613 79.9093 37.4027C79.7333 37.4347 79.5573 37.4613 79.376 37.4987C71.0667 39.2587 56.4107 45.3493 48.8907 48.6133C49.728 47.6053 50.544 46.5707 51.328 45.5093C52.9991 43.2761 54.4951 40.9171 55.8027 38.4533C56.4629 37.1892 57.0177 35.8727 57.4613 34.5173C58.4373 31.5627 59.008 28.1493 58.608 25.0613C58.1867 21.8187 56.7147 18.9493 53.568 17.2907C53.0333 17.0113 52.4768 16.7759 51.904 16.5867C50.5805 16.1441 49.1979 15.9032 47.8027 15.872C45.608 15.8126 43.4367 16.3352 41.5093 17.3867C41.593 17.4874 41.6714 17.5924 41.744 17.7013C42.1987 18.3994 42.3576 19.2495 42.1855 20.0646C42.0135 20.8798 41.5247 21.5932 40.8267 22.048C36.56 24.8213 37.0507 29.776 37.056 29.7867V32.8907C37.2427 32.8907 37.4293 32.8907 37.5893 32.8907C39.456 32.8373 41.056 33.184 41.7867 34.2773C41.8293 34.528 41.3227 34.0427 40.9653 34.3893C39.9115 35.3613 38.9541 36.433 38.1067 37.5893C37.344 38.656 37.4933 40.0107 37.6587 41.4507C37.792 42.6293 37.936 43.8987 37.424 44.72C36.8231 45.4917 36.1518 46.2059 35.4187 46.8533C34.4661 47.7003 33.6061 48.646 32.8533 49.6747C32.2187 50.688 32.6187 51.76 33.024 52.832C33.2162 53.2292 33.3371 53.657 33.3813 54.096C28.8533 62.1653 32.848 70.5013 38.0693 79.952C38.6987 79.9787 39.328 80 39.9627 80C45.2187 80.0049 50.4241 78.9739 55.2815 76.9659C60.1388 74.9579 64.5528 72.0123 68.2711 68.2975C71.9894 64.5826 74.9391 60.1714 76.9516 55.316C78.9641 50.4605 80 45.256 80 40ZM40.7093 27.0613C40.7093 26.7932 40.7889 26.531 40.938 26.3082C41.0871 26.0853 41.299 25.9116 41.5468 25.8093C41.7947 25.7069 42.0673 25.6804 42.3303 25.7331C42.5932 25.7858 42.8345 25.9153 43.0238 26.1053C43.213 26.2953 43.3416 26.5372 43.3933 26.8003C43.445 27.0635 43.4174 27.336 43.314 27.5834C43.2107 27.8309 43.0362 28.0421 42.8127 28.1903C42.5893 28.3385 42.3268 28.417 42.0587 28.416C41.7007 28.4132 41.3584 28.2694 41.1058 28.0158C40.8532 27.7622 40.7107 27.4193 40.7093 27.0613Z" fill="#1D1D1B"/>
</g>
<defs>
<clipPath id="clip0_971_7161">
<rect width="80" height="80" fill="white"/>
</clipPath>
</defs>
</svg>
