<svg width="11" height="16" viewBox="0 0 11 16" fill="none" xmlns="http://www.w3.org/2000/svg">
<path d="M0.947837 8.58686C0.53772 9.39015 1.00328 9.77415 2.06598 10.4301C2.96937 10.9862 4.21754 11.1894 5.01907 11.2707L4.34714 11.9146C3.39489 12.8179 2.49149 13.6926 1.85982 14.2987C0.940357 15.1767 2.42065 16.5851 3.33945 15.7259L5.82677 13.336C6.77901 14.2487 7.69187 15.1232 8.31408 15.7292C9.23355 16.5919 10.7132 15.1953 9.80362 14.3019L7.31652 11.9179L6.63534 11.274C7.44699 11.1927 8.67646 10.9774 9.56908 10.4334L9.56842 10.4328C10.6311 9.77349 11.0969 9.39015 10.6927 8.58686C10.4485 8.13097 9.78997 7.74959 8.91342 8.40888C8.91342 8.40888 7.72971 9.31212 5.82038 9.31212C3.9104 9.31212 2.72735 8.40888 2.72735 8.40888C1.85058 7.74631 1.18942 8.13097 0.947837 8.58686Z" fill="#414141"/>
<path d="M5.818 8.09427C8.14537 8.09427 10.0459 6.28232 10.0459 4.05174C10.0459 1.81173 8.14537 0 5.818 0C3.48998 0 1.58945 1.81195 1.58945 4.05174C1.58945 6.28232 3.48998 8.09427 5.818 8.09427ZM5.818 2.05261C6.96166 2.05261 7.89455 2.94664 7.89455 4.05196C7.89455 5.14785 6.96166 6.04188 5.818 6.04188C4.67434 6.04188 3.74146 5.14785 3.74146 4.05196C3.7408 2.94598 4.67368 2.05261 5.818 2.05261Z" fill="#414141"/>
</svg>
