<svg width="17" height="16" viewBox="0 0 17 16" fill="none" xmlns="http://www.w3.org/2000/svg">
<path d="M0.686134 7.71083L4.41894 9.10403L5.86376 13.7506C5.95621 14.0482 6.32012 14.1582 6.56166 13.9607L8.64239 12.2644C8.86049 12.0867 9.17115 12.0779 9.39909 12.2433L13.152 14.968C13.4104 15.1558 13.7764 15.0142 13.8412 14.702L16.5904 1.47788C16.6612 1.13682 16.326 0.852293 16.0013 0.977897L0.68176 6.88771C0.303706 7.03351 0.307 7.56876 0.686134 7.71083ZM5.63091 8.3624L12.9262 3.86922C13.0573 3.7887 13.1922 3.96599 13.0796 4.07042L7.05889 9.66698C6.84726 9.86397 6.71075 10.1276 6.67209 10.4137L6.467 11.9336C6.43983 12.1366 6.15477 12.1567 6.09877 11.9603L5.30999 9.18876C5.21965 8.87264 5.3513 8.53498 5.63091 8.3624Z" fill="#414141"/>
</svg>
