<svg width="17" height="18" viewBox="0 0 17 18" fill="none" xmlns="http://www.w3.org/2000/svg">
<g clip-path="url(#clip0_1337_12589)">
<path d="M14.0061 3.25257C12.4828 1.73641 10.4564 0.900879 8.29962 0.900024C6.14773 0.900024 4.11806 1.7348 2.58473 3.25058C1.04869 4.76895 0.201992 6.78679 0.199997 8.925V8.92747V8.92896C0.20025 10.2231 0.540588 11.5287 1.18661 12.7204L0.222135 17.1L4.65646 16.0923C5.77955 16.6578 7.03265 16.9559 8.29655 16.9564H8.29978C10.4513 16.9564 12.481 16.1215 14.0145 14.6056C15.5519 13.086 16.399 11.0707 16.4 8.93118C16.4006 6.8067 15.5506 4.78995 14.0061 3.25257ZM8.29962 15.692H8.29677C7.16193 15.6915 6.03748 15.4069 5.04516 14.8686L4.83547 14.7549L1.88683 15.4249L2.52731 12.517L2.40386 12.3043C1.78998 11.2466 1.4656 10.0792 1.4656 8.9276C1.46795 5.2003 4.53336 2.16442 8.29936 2.16442C10.1187 2.16514 11.8282 2.86978 13.1129 4.14825C14.4169 5.4465 15.1349 7.14497 15.1342 8.93079C15.1328 12.659 12.0668 15.692 8.29962 15.692Z" fill="#414141"/>
<path d="M6.09565 5.38867H5.74059C5.61701 5.38867 5.41634 5.4349 5.24658 5.61943C5.07673 5.80408 4.59805 6.25037 4.59805 7.15808C4.59805 8.06578 5.26204 8.9428 5.35458 9.06604C5.44725 9.18915 6.63628 11.1113 8.51947 11.8508C10.0846 12.4653 10.4032 12.3431 10.7428 12.3123C11.0825 12.2816 11.839 11.8661 11.9934 11.4354C12.1478 11.0047 12.1478 10.6353 12.1015 10.5582C12.0551 10.4813 11.9315 10.4352 11.7463 10.343C11.561 10.2507 10.6529 9.79684 10.483 9.73517C10.3132 9.67376 10.1897 9.64297 10.0661 9.82775C9.94255 10.0122 9.57868 10.4388 9.47056 10.5619C9.36256 10.6851 9.25443 10.7006 9.06909 10.6083C8.88375 10.5157 8.29315 10.3175 7.58537 9.68907C7.03445 9.2 6.65218 8.57633 6.54405 8.39168C6.43605 8.20715 6.53255 8.10729 6.62545 8.01522C6.70871 7.93267 6.82117 7.81968 6.91381 7.71204C7.00635 7.60427 7.0327 7.52739 7.09456 7.40427C7.15629 7.28116 7.12537 7.17339 7.0791 7.08119C7.0327 6.98886 6.67717 6.0766 6.51235 5.71175H6.51248C6.37379 5.40449 6.22766 5.39411 6.09565 5.38867Z" fill="#414141"/>
</g>
<defs>
<clipPath id="clip0_1337_12589">
<rect width="16.2" height="16.2" fill="white" transform="translate(0.199997 0.900024)"/>
</clipPath>
</defs>
</svg>
