<svg width="60" height="60" viewBox="0 0 60 60" fill="none" xmlns="http://www.w3.org/2000/svg">
<g clip-path="url(#clip0_1089_6616)">
<path fill-rule="evenodd" clip-rule="evenodd" d="M27.3338 3.3961C30.9132 3.5459 34.4394 4.31619 37.7553 5.67254C41.4247 7.20612 44.7594 9.44134 47.5723 12.2527C52.9666 17.6615 56.139 24.8947 56.4644 32.5267H59.3811C59.4603 32.5183 59.5401 32.5342 59.61 32.5723C59.6799 32.6105 59.7365 32.669 59.7723 32.7402C59.8167 32.8091 59.8403 32.8894 59.8403 32.9714C59.8403 33.0534 59.8167 33.1336 59.7723 33.2026L55.1484 41.5968C55.1026 41.6696 55.0398 41.7303 54.9655 41.7736C54.8912 41.817 54.8075 41.8418 54.7216 41.8458C54.6393 41.8464 54.5586 41.8232 54.4892 41.779C54.4198 41.7349 54.3646 41.6716 54.3303 41.5968L49.7064 33.2026C49.6717 33.1304 49.6537 33.0514 49.6537 32.9714C49.6537 32.8913 49.6717 32.8123 49.7064 32.7402C49.754 32.6717 49.818 32.6164 49.8926 32.5791C49.9672 32.5418 50.0499 32.5237 50.1332 32.5267H53.0143C52.8785 29.396 52.1922 26.3138 50.9868 23.4212C49.6356 20.15 47.6535 17.1768 45.1536 14.6714C42.6424 12.1786 39.6707 10.1976 36.4038 8.83819C33.5113 7.63282 30.429 6.9465 27.2983 6.81076V9.6918C27.2989 9.77408 27.2757 9.85478 27.2315 9.9242C27.1873 9.99361 27.1241 10.0487 27.0493 10.083C26.9848 10.1381 26.9028 10.1684 26.8181 10.1684C26.7333 10.1684 26.6513 10.1381 26.5869 10.083L18.2282 5.49474C18.1506 5.45442 18.086 5.39292 18.042 5.31737C17.9979 5.24182 17.9761 5.15523 17.9792 5.06782C17.9736 4.98458 17.9948 4.9018 18.0396 4.83141C18.0844 4.76102 18.1504 4.70677 18.2282 4.67662L26.5869 0.0527536C26.659 0.0180687 26.738 0 26.8181 0C26.8981 0 26.9771 0.0180687 27.0493 0.0527536C27.1175 0.0950292 27.1754 0.152171 27.2185 0.219915C27.2616 0.28766 27.2889 0.364208 27.2983 0.443956L27.3338 3.3961ZM24.4883 41.2055C24.5383 41.5169 24.4715 41.8357 24.301 42.101C24.1304 42.3662 23.868 42.5592 23.5639 42.643C23.2599 42.7267 22.9357 42.6953 22.6533 42.5547C22.371 42.4142 22.1506 42.1744 22.0341 41.8813C21.8555 41.1946 21.7482 40.4914 21.714 39.7828C21.709 39.0639 21.7926 38.3471 21.963 37.6486C22.102 36.9585 22.329 36.2891 22.6387 35.6568C22.937 35.0016 23.3069 34.3813 23.7414 33.8073C24.1883 33.2282 24.6756 32.6815 25.1996 32.1712C25.7744 31.6927 26.3805 31.253 27.0137 30.855L28.6498 29.8591L29.0767 29.5746C29.1768 29.5107 29.2617 29.4257 29.3256 29.3256C29.4173 29.2518 29.5008 29.1683 29.5746 29.0766L29.8591 28.6498L30.8551 26.9781C31.2539 26.3476 31.706 25.7526 32.2066 25.1996C32.6875 24.6481 33.2239 24.1476 33.8073 23.7058C34.3951 23.2921 35.0133 22.9235 35.6568 22.6032C36.2975 22.3146 36.9645 22.0883 37.6486 21.9274C38.3152 21.7861 38.9947 21.7146 39.6761 21.714C40.3847 21.7482 41.0879 21.8555 41.7746 22.0341C42.0989 22.1255 42.3741 22.341 42.5406 22.6339C42.7071 22.9269 42.7513 23.2737 42.6638 23.5991C42.6189 23.7591 42.5426 23.9084 42.4391 24.0384C42.3356 24.1684 42.2071 24.2764 42.0613 24.3559C41.9154 24.4355 41.7551 24.4849 41.5898 24.5016C41.4245 24.5182 41.2576 24.5016 41.0988 24.4527L39.6405 24.2393C39.1558 24.1867 38.6669 24.1867 38.1822 24.2393C37.6694 24.3569 37.1691 24.5236 36.6883 24.7372C36.1993 24.9619 35.7345 25.2361 35.3012 25.5553C34.3756 26.2551 33.591 27.1241 32.9892 28.1163L32.5624 28.8277L31.9577 29.8236L31.5664 30.4282L31.104 30.9617L30.5705 31.3886L29.9659 31.8154L28.9699 32.42L28.2586 32.847C27.2675 33.4367 26.408 34.2236 25.7333 35.1589C25.3902 35.5826 25.1032 36.0488 24.8795 36.546C24.6659 37.0268 24.4992 37.5271 24.3816 38.0399C24.2678 38.5299 24.2081 39.0308 24.2037 39.5338C24.2316 40.1003 24.3272 40.6616 24.4883 41.2055ZM46.4341 54.1169L38.3956 46.0784C36.2971 43.9442 31.8866 47.1454 28.1519 43.4463C27.6132 42.8362 27.2266 42.1073 27.0235 41.3191C26.8205 40.531 26.8069 39.706 26.9838 38.9116C27.1607 38.1172 27.5232 37.376 28.0415 36.7485C28.5598 36.1209 29.2192 35.6249 29.9659 35.3011C32.3129 34.2004 34.2005 32.3128 35.3012 29.9658C35.625 29.2191 36.1209 28.5598 36.7485 28.0415C37.376 27.5232 38.1173 27.1607 38.9117 26.9838C39.7061 26.8069 40.5311 26.8205 41.3192 27.0235C42.1074 27.2266 42.8362 27.6132 43.4463 28.1519C47.0032 31.7087 43.9799 36.2971 46.0785 38.3956L54.1169 46.4341C54.2524 46.5695 54.36 46.7303 54.4333 46.9073C54.5066 47.0843 54.5443 47.274 54.5443 47.4656C54.5443 47.6572 54.5066 47.8469 54.4333 48.0238C54.36 48.2008 54.2524 48.3617 54.1169 48.4971L48.4971 54.1169C48.3617 54.2524 48.2008 54.36 48.0238 54.4333C47.8469 54.5066 47.6572 54.5443 47.4656 54.5443C47.274 54.5443 47.0843 54.5066 46.9073 54.4333C46.7303 54.36 46.5695 54.2524 46.4341 54.1169ZM12.9996 5.31683L21.0382 13.3554C23.1723 15.4895 27.5828 12.2883 31.2819 15.9874C31.8215 16.5984 32.2096 17.3278 32.4149 18.1166C32.6203 18.9055 32.6372 19.7316 32.464 20.5281C32.2909 21.3246 31.9326 22.0692 31.4183 22.7015C30.904 23.3339 30.248 23.8364 29.5035 24.1682C27.1409 25.2288 25.2446 27.1124 24.1682 29.4679C23.84 30.2152 23.3401 30.8746 22.7094 31.3927C22.0786 31.9107 21.3346 32.2727 20.5378 32.4494C19.7409 32.626 18.9137 32.6125 18.123 32.4096C17.3324 32.2068 16.6008 31.8204 15.9874 31.2819C12.4305 27.7251 15.4895 23.1723 13.3554 21.0382L5.31683 12.9996C5.05156 12.7218 4.90359 12.3523 4.90359 11.9681C4.90359 11.584 5.05156 11.2146 5.31683 10.9367L10.9367 5.31683C11.0721 5.18132 11.2329 5.07387 11.4099 5.00052C11.5869 4.92718 11.7766 4.88937 11.9681 4.88937C12.1597 4.88937 12.3495 4.92718 12.5265 5.00052C12.7035 5.07387 12.8642 5.18132 12.9996 5.31683ZM6.81076 27.3338C7.12091 34.0348 9.92455 40.378 14.6714 45.118C19.3954 49.8882 25.7481 52.6961 32.4557 52.9787V50.0976C32.4584 50.0203 32.4791 49.9448 32.5161 49.8768C32.5532 49.8089 32.6055 49.7506 32.6691 49.7064C32.7412 49.6717 32.8202 49.6537 32.9003 49.6537C32.9803 49.6537 33.0593 49.6717 33.1315 49.7064L41.5257 54.3303C41.6035 54.3604 41.6696 54.4147 41.7143 54.4851C41.7591 54.5555 41.7802 54.6384 41.7746 54.7216C41.7777 54.809 41.756 54.8955 41.712 54.971C41.6679 55.0466 41.6033 55.1081 41.5257 55.1484L33.2026 59.9146C33.1381 59.9697 33.0561 60 32.9714 60C32.8866 60 32.8047 59.9697 32.7403 59.9146C32.6691 59.8788 32.6105 59.8222 32.5723 59.7523C32.5342 59.6824 32.5183 59.6026 32.5267 59.5234V56.3577C28.9447 56.2287 25.4148 55.4576 22.1052 54.0813C18.4249 52.5485 15.0784 50.3136 12.2527 47.5012C9.44036 44.6964 7.21546 41.359 5.70814 37.6842C4.32761 34.3743 3.54487 30.8459 3.39621 27.2627H0.479559C0.393611 27.2587 0.309867 27.234 0.235546 27.1906C0.161225 27.1472 0.0985491 27.0865 0.0527536 27.0137C0.0180687 26.9415 0 26.8625 0 26.7825C0 26.7024 0.0180687 26.6234 0.0527536 26.5513L4.67662 18.1571C4.71858 18.0915 4.77647 18.0375 4.84487 18.0002C4.91327 17.9629 4.99002 17.9435 5.06793 17.9437C5.15176 17.9371 5.23576 17.9535 5.31097 17.9911C5.38618 18.0287 5.44972 18.0861 5.49474 18.1571L10.1186 26.5513C10.1459 26.626 10.1561 26.7058 10.1486 26.785C10.141 26.8641 10.1159 26.9406 10.075 27.0088C10.0341 27.077 9.97845 27.1352 9.91215 27.1791C9.84585 27.223 9.77055 27.2516 9.6918 27.2627L6.81076 27.3338Z" fill="#FF671D"/>
</g>
<defs>
<clipPath id="clip0_1089_6616">
<rect width="60" height="60" fill="white"/>
</clipPath>
</defs>
</svg>
