<svg width="60" height="60" viewBox="0 0 60 60" fill="none" xmlns="http://www.w3.org/2000/svg">
<g clip-path="url(#clip0_748_3954)">
<path d="M30.4924 0.00184826C30.0456 -0.00577343 29.591 0.00988305 29.1668 0.0542913C28.8454 0.0253743 28.4652 0.0535651 28.0831 0.0845508C21.0532 0.646367 14.5825 4.35187 10.5415 10.6702C10.8354 10.6393 11.1864 10.7587 11.4802 10.64C12.1844 9.63201 12.9721 8.654 13.8518 7.7049C14.6141 6.96338 15.3171 6.25182 16.1376 5.71995C16.8978 6.22394 17.7499 6.63972 18.4795 7.11417C17.5703 8.26878 16.6356 9.42443 15.9621 10.6699C16.1672 10.7577 16.5452 10.7278 16.839 10.6699C17.5687 9.57314 18.3626 8.47636 19.2983 7.49938C20.5586 7.97341 21.7872 8.47636 23.0771 8.83266L23.1946 8.95163L22.4632 10.6722C22.7846 10.73 22.9888 10.699 23.3102 10.6722C23.5755 10.1672 23.7796 9.6033 24.0735 9.10138C25.7726 9.4866 27.5584 9.69408 29.3727 9.75294C29.6084 9.96053 29.4335 10.4052 29.5202 10.6727H30.3094C30.3972 10.3742 30.2808 10.0486 30.3971 9.7832C32.0961 9.69439 33.883 9.51552 35.5249 9.10138L35.6683 9.12962L36.4615 10.6725C36.7238 10.6725 37.0745 10.7298 37.2806 10.612L36.5471 8.89354L36.6069 8.83303C37.9539 8.47674 39.2132 7.94291 40.501 7.40887C41.4092 8.38792 42.2582 9.5446 43.0205 10.6724C43.3409 10.6724 43.6637 10.6986 43.8994 10.6119C43.5483 9.96019 43.1091 9.30749 42.6401 8.74361C42.2585 8.18076 41.8496 7.67574 41.3503 7.14181V6.99454L43.3994 5.78003L43.6923 5.66106C45.4791 7.05527 47.0629 8.74278 48.3201 10.611C48.6711 10.611 48.9659 10.7284 49.2588 10.5808C45.3505 4.53712 38.8706 0.653978 31.8703 0.0880312L31.8424 0.14854L31.7826 0.086007C31.3882 0.0410824 30.9497 0.0109261 30.503 0.00330444L30.4924 0.00184826ZM29.8805 0.838892C31.5683 0.831528 33.2511 1.01704 34.7878 1.41775V1.47826C32.2398 3.37438 28.1131 3.55305 25.4181 1.80306C25.2701 1.68532 24.9793 1.62542 24.9497 1.41784C26.5018 1.0476 28.1927 0.846317 29.8805 0.838985V0.838892ZM35.9614 1.71632C38.4217 2.36695 40.733 3.49471 42.8433 5.03454L42.7855 5.15351L40.763 6.30916H40.6195C39.0664 4.7084 37.25 3.31625 35.406 2.21844C35.4652 2.01086 35.7579 1.8639 35.962 1.71621L35.9614 1.71632ZM23.716 1.74254C23.765 1.74346 23.8162 1.75864 23.8674 1.80305C24.0429 1.95176 24.2457 2.07084 24.3916 2.21852C22.5772 3.3752 20.7915 4.7374 19.1495 6.39806C18.3607 6.10063 17.626 5.65551 16.9209 5.15153V5.09303C18.7679 3.70089 20.818 2.66298 22.9854 1.95244L23.2505 1.77491V1.83341C23.4258 1.87756 23.5678 1.73988 23.7149 1.74264L23.716 1.74254ZM34.4715 2.72489C36.3746 3.70187 38.2217 5.09298 39.7728 6.69478L39.713 6.78353C38.5711 7.28751 37.3996 7.76268 36.1414 8.02799C35.2332 6.45718 34.2393 4.8874 33.126 3.37649C33.5341 3.13896 34.0315 2.96143 34.4709 2.72493L34.4715 2.72489ZM25.2752 2.78137C25.714 2.959 26.1548 3.10834 26.5947 3.31592L26.507 3.55397C25.3936 4.97503 24.5161 6.51693 23.6354 8.02784L23.5179 8.05608C22.3188 7.73076 21.1463 7.34368 20.034 6.84156L20.0918 6.66403C21.7041 5.09115 23.4032 3.78679 25.2757 2.78089L25.2752 2.78137ZM27.561 3.61242L29.4346 3.87867C29.5213 5.41953 29.4625 7.19689 29.4625 8.82657C28.643 8.94533 27.9114 8.79668 27.093 8.73781C26.3021 8.62008 25.3051 8.53023 24.5163 8.26378C25.3654 6.63514 26.3593 5.06536 27.5614 3.61228L27.561 3.61242ZM32.1867 3.64066C33.3286 5.12265 34.4409 6.6346 35.2022 8.26428C33.6225 8.65053 32.0122 8.85935 30.3693 8.85935C30.3111 7.28854 30.3407 5.53803 30.3693 3.90938C30.9561 3.81953 31.6 3.73092 32.1867 3.64107V3.64066ZM47.0241 12.6813C44.9128 12.7467 42.8372 13.2688 41.1208 14.2542C38.9829 15.381 37.5788 17.6014 37.139 19.8817C36.3481 23.6481 36.5528 28.123 39.3656 30.9424C42.6453 33.9064 47.42 34.557 51.662 33.3425C51.862 33.3002 52.5038 33.1344 52.9417 32.8928L53.0652 32.8383C54.3826 32.2755 55.6449 31.3553 56.5807 30.1108C58.7491 26.8494 58.8941 21.9593 57.5773 18.2858C57.0476 16.8637 55.9639 15.5883 54.6475 14.6692C52.5066 13.2677 49.7341 12.5985 47.0197 12.6821L47.0241 12.6813ZM24.3803 12.6955C22.4843 12.7546 20.624 13.259 19.1586 14.3417C17.2555 15.7648 16.6687 18.3126 17.1677 20.566C17.5473 22.6997 19.5382 24.2736 21.4424 25.012C24.0496 25.9601 26.7743 26.6427 29.4111 27.564C29.6744 27.6807 30.0253 27.9456 29.9671 28.2719C29.9671 28.5394 29.7028 28.6897 29.4988 28.8084C26.7466 29.5768 23.7587 28.9855 21.7658 26.8503C21.5311 26.5539 21.3826 26.1976 21.1499 25.9023L17.1957 25.9325C17.1365 28.3337 17.1069 31.089 17.1957 33.4602L21.5887 33.43L21.6485 32.0079C22.1475 32.2454 22.6444 32.5452 23.1414 32.8106C26.1865 34.115 30.1121 34.4104 33.1306 32.8106C35.3256 31.5651 36.4971 29.163 36.1757 26.5842C35.8522 24.0653 33.5092 21.7829 31.1356 21.1623L24.0527 19.0565L23.5226 18.7902C23.2889 18.5816 23.1425 18.3148 23.2016 17.9894C23.7578 17.0104 25.0476 17.3069 26.014 17.3379C28.0641 17.6322 30.1713 18.3446 31.3734 20.2709C32.6612 20.2709 34.1552 20.3005 35.5613 20.2427C35.6195 17.8116 35.5322 15.6758 35.5016 13.2169C34.1831 13.1869 32.5729 13.1872 31.2565 13.2471C31.1953 13.6014 31.3137 14.1071 31.1688 14.4637L29.8218 13.7194C28.2115 13.0233 26.2788 12.6381 24.3828 12.6968L24.3803 12.6955ZM4.88967 12.8917L3.07429 12.9227C3.0447 14.4955 3.0447 16.3328 3.07429 17.9336C4.06923 17.9646 5.00702 17.9335 5.97441 18.0243V28.0998L5.94451 28.5153L3.04439 28.5738C2.9852 30.2334 2.9852 31.8363 3.04439 33.4649H15.9633V28.5738C14.9949 28.5149 13.9112 28.6018 12.9734 28.4851L13.0053 18.0853L13.0611 17.9985L15.9632 17.9683C15.9898 16.2787 16.0191 14.4714 15.9313 12.9274L4.89007 12.8861L4.88967 12.8917ZM47.3812 17.8117C48.5241 17.8127 49.6374 17.9902 50.3405 18.9395C50.7803 19.6201 50.749 20.5092 50.8388 21.3096C50.8082 22.9992 50.9554 25.0141 50.6615 26.7336C50.5145 27.4442 50.0458 28.1867 49.3145 28.4521C48.143 28.9871 46.5623 28.8389 45.4796 28.2161C44.5704 27.5645 44.4541 26.4646 44.3357 25.4287C44.2479 23.3839 44.1024 21.2203 44.6586 19.3531C45.0974 18.1974 46.2984 17.9 47.3811 17.8122L47.3812 17.8117ZM16.584 35.6266C16.3789 35.6301 16.1524 35.6898 15.9901 35.6609C16.6942 36.9653 17.631 38.1189 18.5688 39.3034C17.7769 39.7775 16.9871 40.3151 16.1667 40.6997C14.4105 39.3354 12.7686 37.556 11.541 35.6888C11.1869 35.6289 10.9523 35.6599 10.6023 35.6888C12.7105 39.0669 15.9892 42.0309 19.4179 43.7794L19.4458 43.7531L19.4757 43.8419C21.7891 44.9986 24.2494 45.8258 26.8536 46.1821C35.8458 47.3977 44.4257 43.4567 49.4055 35.6894C49.1423 35.6605 48.7616 35.6605 48.4688 35.6894C47.2391 37.4987 45.687 39.2441 43.988 40.6115L43.695 40.5812C42.9633 40.1072 42.1715 39.7209 41.4684 39.2459C42.4062 38.0912 43.3144 36.9356 44.0175 35.6612H43.1086C42.376 36.758 41.6157 37.9126 40.6494 38.8906C39.3605 38.3567 38.188 37.8823 36.8706 37.5253L36.7251 37.4103C36.9323 36.8165 37.3124 36.2537 37.4287 35.6619H36.6395L35.8463 37.2616C34.1197 36.8743 32.2166 36.6693 30.4593 36.5516C30.3706 36.2852 30.488 35.8995 30.3697 35.6641H29.6123C29.5511 36.0183 29.6971 36.2855 29.5226 36.5819C27.7062 36.6697 25.95 36.876 24.2509 37.2354L23.4597 35.6625C23.1668 35.6625 22.8447 35.6009 22.6406 35.6908L23.372 37.4371L23.2843 37.5259C21.9659 37.9132 20.6781 38.3889 19.4178 38.9222L19.3003 38.8596C18.4809 37.9415 17.69 36.9346 17.0461 35.9266C16.9726 35.6752 16.7889 35.6226 16.5837 35.6261L16.584 35.6266ZM30.4826 37.468C32.152 37.5 33.8235 37.6779 35.3756 38.0631L35.4035 38.1519C34.5841 39.7516 33.5586 41.2935 32.4463 42.7445C31.9473 42.8034 31.4803 42.5948 30.9829 42.567L30.4827 42.5065C30.4245 40.759 30.395 39.2161 30.4827 37.4677L30.4826 37.468ZM29.5757 37.4701L29.6076 42.4769C28.9912 42.6266 28.3177 42.6267 27.732 42.7754C26.5309 41.3223 25.536 39.7515 24.687 38.1219L24.8304 38.0008C26.353 37.7044 27.9347 37.4703 29.5755 37.4703L29.5757 37.4701ZM23.6877 38.2971L23.8053 38.3294C24.6543 39.958 25.7094 41.4979 26.7646 43.0408C26.3533 43.2773 25.8564 43.4265 25.4472 43.6641C23.5124 42.685 21.6664 41.3197 20.1133 39.69V39.6013C21.2562 39.0384 22.4572 38.6225 23.6869 38.2959L23.6877 38.2971ZM36.3413 38.2992C37.6015 38.5966 38.8026 39.0101 39.9149 39.5736C38.9781 40.6693 37.7771 41.6195 36.6637 42.4199C35.9902 42.834 35.3167 43.2779 34.6126 43.6323L33.3554 43.0715L33.4411 42.8618C34.4973 41.4128 35.4331 39.9288 36.2535 38.36L36.3412 38.2995L36.3413 38.2992ZM40.7955 39.9877C41.5844 40.3151 42.3466 40.7595 43.0497 41.2642C41.4088 42.5965 39.5047 43.4856 37.573 44.2272L36.1954 44.6709C35.9617 44.5532 35.7567 44.3766 35.5516 44.1969L35.6094 44.1081C37.4829 42.9814 39.1819 41.6192 40.7953 39.9875L40.7955 39.9877ZM19.213 40.018C20.8804 41.7076 22.6081 42.982 24.4826 44.1975C24.3367 44.3772 24.1027 44.5538 23.8986 44.6716C21.4383 44.0189 19.1525 42.8932 17.0443 41.3513V41.2645C17.7484 40.8174 18.4494 40.3444 19.2127 40.018L19.213 40.018ZM30.1727 43.3951C31.9074 43.4137 33.6371 43.9016 34.9678 44.8802C35.0565 45.0578 34.8216 44.9999 34.7624 45.0577C31.6572 45.7403 28.202 45.7727 25.0957 45.0012C25.0386 44.8515 25.2441 44.8228 25.3329 44.7329C26.6941 43.8293 28.4371 43.3769 30.1718 43.3955L30.1727 43.3951Z" fill="#1462BC"/>
<g clip-path="url(#clip1_748_3954)">
<path d="M14.07 55.23C14.028 55.8243 13.8538 56.4017 13.56 56.92L11.99 60.11H10.99L12.42 57.18C12.2238 57.2613 12.0122 57.2989 11.8 57.29C11.5583 57.2954 11.3181 57.2491 11.0957 57.1542C10.8732 57.0594 10.6736 56.9182 10.51 56.74C10.3311 56.5415 10.1938 56.3091 10.1062 56.0567C10.0186 55.8042 9.98251 55.5367 10 55.27C9.98753 54.9921 10.0306 54.7146 10.1268 54.4536C10.2229 54.1926 10.3702 53.9534 10.56 53.75C10.7536 53.5604 10.9838 53.412 11.2365 53.3141C11.4892 53.2161 11.7592 53.1705 12.03 53.18C12.3002 53.1692 12.5697 53.2132 12.8224 53.3094C13.0751 53.4057 13.3056 53.5522 13.5 53.74C13.6922 53.936 13.842 54.1694 13.94 54.4257C14.0381 54.6821 14.0823 54.9558 14.07 55.23ZM13.07 55.23C13.0881 54.9136 12.9843 54.6023 12.78 54.36C12.6843 54.2539 12.5669 54.1695 12.4358 54.1126C12.3047 54.0557 12.1629 54.0275 12.02 54.03C11.8782 54.0248 11.7371 54.0518 11.6072 54.109C11.4773 54.1662 11.362 54.252 11.27 54.36C11.063 54.6007 10.9588 54.9132 10.98 55.23C10.9665 55.5411 11.066 55.8465 11.26 56.09C11.3531 56.1994 11.47 56.2861 11.6017 56.3433C11.7335 56.4005 11.8766 56.4267 12.02 56.42C12.1622 56.4238 12.3035 56.3972 12.4345 56.342C12.5656 56.2868 12.6834 56.2043 12.78 56.1C12.9858 55.8659 13.0932 55.5614 13.08 55.25L13.07 55.23Z" fill="#1462BC"/>
<path d="M19.1999 58.18C19.212 58.4466 19.1675 58.7128 19.0692 58.961C18.971 59.2092 18.8213 59.4338 18.6299 59.62C18.2433 59.984 17.731 60.1846 17.1999 60.18C16.6788 60.1938 16.1729 60.0037 15.7899 59.65C15.5911 59.4622 15.4354 59.2336 15.3335 58.9798C15.2317 58.726 15.1861 58.4531 15.1999 58.18V55.18C15.188 54.9148 15.2327 54.6502 15.331 54.4036C15.4292 54.157 15.5789 53.9342 15.7699 53.75C15.9588 53.5652 16.1825 53.4197 16.4279 53.3219C16.6733 53.224 16.9357 53.1758 17.1999 53.18C17.7293 53.1635 18.2436 53.3577 18.6299 53.72C18.8249 53.9076 18.9769 54.1353 19.0753 54.3874C19.1737 54.6395 19.2162 54.9099 19.1999 55.18V58.18ZM18.1999 58.18V55.18C18.2123 54.886 18.1162 54.5977 17.9299 54.37C17.84 54.2653 17.7278 54.1822 17.6014 54.1268C17.475 54.0714 17.3378 54.0452 17.1999 54.05C17.0643 54.044 16.9291 54.0688 16.8044 54.1225C16.6797 54.1762 16.5688 54.2574 16.4799 54.36C16.2877 54.5889 16.1879 54.8813 16.1999 55.18V58.18C16.1857 58.4742 16.282 58.7631 16.4699 58.99C16.5608 59.0922 16.6738 59.1723 16.8003 59.2243C16.9268 59.2763 17.0635 59.2987 17.1999 59.29C17.3387 59.2975 17.4773 59.2736 17.6055 59.2199C17.7337 59.1662 17.848 59.0842 17.9399 58.98C18.1219 58.7543 18.2145 58.4695 18.1999 58.18Z" fill="#1462BC"/>
<path d="M24.33 58.18C24.342 58.4467 24.2975 58.7129 24.1992 58.9611C24.101 59.2093 23.9513 59.4339 23.76 59.62C23.3681 59.9625 22.8654 60.1513 22.345 60.1513C21.8245 60.1513 21.3218 59.9625 20.93 59.62C20.7387 59.4339 20.5889 59.2093 20.4907 58.9611C20.3925 58.7129 20.3479 58.4467 20.36 58.18V55.18C20.348 54.9149 20.3927 54.6502 20.491 54.4036C20.5893 54.1571 20.7389 53.9343 20.93 53.75C21.3189 53.4014 21.8227 53.2087 22.345 53.2087C22.8672 53.2087 23.3711 53.4014 23.76 53.75C23.951 53.9343 24.1007 54.1571 24.1989 54.4036C24.2972 54.6502 24.3419 54.9149 24.33 55.18V58.18ZM23.33 58.18V55.18C23.3423 54.886 23.2462 54.5978 23.06 54.37C22.97 54.266 22.8575 54.184 22.731 54.1303C22.6044 54.0765 22.4672 54.0525 22.33 54.06C22.1929 54.054 22.0562 54.0787 21.9298 54.1323C21.8035 54.186 21.6908 54.2672 21.6 54.37C21.4137 54.5978 21.3176 54.886 21.33 55.18V58.18C21.3157 58.4743 21.412 58.7632 21.6 58.99C21.6908 59.0929 21.8035 59.1741 21.9298 59.2277C22.0562 59.2814 22.1929 59.3061 22.33 59.3C22.4672 59.3075 22.6044 59.2835 22.731 59.2298C22.8575 59.176 22.97 59.094 23.06 58.99C23.2515 58.7647 23.3514 58.4756 23.34 58.18H23.33Z" fill="#1462BC"/>
<path d="M28.35 60.11H27.35V54.3L26.02 55.48V54.39L27.37 53.23H28.37L28.35 60.11Z" fill="#1462BC"/>
<path d="M33.55 57.89H30.72V56.97H33.55V57.89Z" fill="#1462BC"/>
<path d="M38.8 60.11H34.8V59.23L37.45 56.01C37.6762 55.7594 37.8071 55.4373 37.82 55.1C37.8273 54.9618 37.8072 54.8235 37.7609 54.6931C37.7145 54.5626 37.6428 54.4426 37.55 54.34C37.453 54.2437 37.3373 54.1682 37.21 54.1183C37.0827 54.0685 36.9466 54.0452 36.81 54.05C36.6788 54.0439 36.5476 54.0638 36.4241 54.1084C36.3006 54.153 36.187 54.2215 36.09 54.31C35.9858 54.4138 35.9058 54.5393 35.8556 54.6776C35.8055 54.8159 35.7865 54.9635 35.8 55.11H34.8C34.7904 54.8505 34.8353 54.5918 34.9317 54.3507C35.0282 54.1096 35.1741 53.8913 35.36 53.71C35.5545 53.53 35.7828 53.3905 36.0318 53.2995C36.2807 53.2085 36.5452 53.1679 36.81 53.18C37.0731 53.1692 37.3357 53.2105 37.5828 53.3014C37.8299 53.3924 38.0566 53.5312 38.25 53.71C38.4359 53.893 38.581 54.1132 38.6758 54.3562C38.7705 54.5992 38.8129 54.8595 38.8 55.12C38.8054 55.3747 38.7542 55.6275 38.65 55.86C38.5139 56.126 38.346 56.3745 38.15 56.6L36 59.23H38.8V60.11Z" fill="#1462BC"/>
<path d="M43.91 58.18C43.922 58.4467 43.8775 58.7129 43.7792 58.9611C43.681 59.2093 43.5313 59.4338 43.34 59.62C42.9593 59.9871 42.4487 60.1884 41.92 60.18C41.3989 60.1938 40.8929 60.0037 40.51 59.65C40.3147 59.4605 40.1627 59.231 40.0644 58.9773C39.966 58.7236 39.9236 58.4516 39.94 58.18V55.18C39.928 54.9149 39.9727 54.6502 40.071 54.4036C40.1693 54.1571 40.3189 53.9343 40.51 53.75C40.8866 53.3817 41.3932 53.1769 41.92 53.18C42.4459 53.1662 42.9561 53.3602 43.34 53.72C43.5349 53.9076 43.6869 54.1353 43.7853 54.3874C43.8837 54.6395 43.9262 54.9099 43.91 55.18V58.18ZM42.91 58.18V55.18C42.9223 54.886 42.8262 54.5978 42.64 54.37C42.5464 54.2701 42.4334 54.1905 42.3078 54.136C42.1822 54.0815 42.0468 54.0535 41.91 54.0535C41.7731 54.0535 41.6377 54.0815 41.5121 54.136C41.3866 54.1905 41.2735 54.2701 41.18 54.37C40.9937 54.5978 40.8976 54.886 40.91 55.18V58.18C40.9038 58.4735 41.0072 58.7587 41.2 58.98C41.2935 59.0799 41.4066 59.1596 41.5321 59.214C41.6577 59.2685 41.7931 59.2966 41.93 59.2966C42.0668 59.2966 42.2022 59.2685 42.3278 59.214C42.4534 59.1596 42.5664 59.0799 42.66 58.98C42.842 58.7543 42.9345 58.4696 42.92 58.18H42.91Z" fill="#1462BC"/>
<path d="M47.93 60.11H46.93V54.3L45.6 55.48V54.39L46.95 53.23H47.95L47.93 60.11Z" fill="#1462BC"/>
<path d="M51.47 59.88H50.47V54.07L49.14 55.25V54.18L50.49 53H51.49L51.47 59.88Z" fill="#1462BC"/>
</g>
</g>
<defs>
<clipPath id="clip0_748_3954">
<rect width="60" height="60" fill="white"/>
</clipPath>
<clipPath id="clip1_748_3954">
<rect width="41.47" height="7.17" fill="white" transform="translate(10 53)"/>
</clipPath>
</defs>
</svg>
