<svg width="146" height="55" viewBox="0 0 146 55" fill="none" xmlns="http://www.w3.org/2000/svg">
<path fill-rule="evenodd" clip-rule="evenodd" d="M72.6768 33.2522V53.8495C72.6758 53.9946 72.7032 54.1386 72.7575 54.273C72.8119 54.4074 72.892 54.5296 72.9934 54.6326C73.0948 54.7356 73.2154 54.8174 73.3482 54.8731C73.481 54.9289 73.6235 54.9577 73.7674 54.9576H77.4131C77.7044 54.9576 77.9838 54.8409 78.1898 54.6331C78.3959 54.4253 78.5116 54.1434 78.5116 53.8495V42.4387L93.6358 54.789C93.7993 54.9086 93.9924 54.9804 94.1938 54.9965C94.3952 55.0126 94.597 54.9724 94.7772 54.8803C94.9574 54.7882 95.1089 54.6477 95.2151 54.4743C95.3213 54.301 95.378 54.1014 95.3791 53.8977V35.5327C95.3791 34.6532 95.0327 33.8096 94.4162 33.1877C93.7997 32.5657 92.9634 32.2163 92.0915 32.2163H90.6348C90.3462 32.2163 90.0692 32.3308 89.8637 32.5352C89.6581 32.7395 89.5405 33.0173 89.5363 33.3084V44.7032L74.4121 32.3528C74.2488 32.2343 74.0561 32.1636 73.8555 32.1487C73.6548 32.1338 73.4539 32.1752 73.2751 32.2683C73.0963 32.3614 72.9465 32.5026 72.8424 32.6762C72.7382 32.8499 72.6836 33.0492 72.6848 33.2522M104.223 37.195H110.814C112.468 37.1333 114.084 37.7073 115.335 38.801C116.497 39.861 117.094 41.9488 117.094 43.6191C117.094 45.2894 116.497 47.3531 115.303 48.4372C114.049 49.5314 112.431 50.1053 110.774 50.0432H104.223V37.195ZM98.4835 33.3084V53.8334C98.4825 53.9786 98.5099 54.1225 98.5642 54.2569C98.6186 54.3913 98.6987 54.5135 98.8001 54.6165C98.9015 54.7195 99.022 54.8013 99.1549 54.8571C99.2877 54.9129 99.4302 54.9416 99.5741 54.9416H111.283C114.343 55.0717 117.335 54.0109 119.642 51.9785C121.823 49.987 122.929 46.6705 122.929 43.5709C122.929 40.4713 121.823 37.1468 119.642 35.1955C117.35 33.1612 114.374 32.0894 111.323 32.2002H99.5741C99.4302 32.2002 99.2877 32.2289 99.1549 32.2847C99.022 32.3405 98.9015 32.4223 98.8001 32.5253C98.6987 32.6283 98.6186 32.7505 98.5642 32.8849C98.5099 33.0193 98.4825 33.1632 98.4835 33.3084ZM26.9619 29.8876V53.8334C26.9608 53.9786 26.9883 54.1225 27.0426 54.2569C27.0969 54.3913 27.1771 54.5135 27.2785 54.6165C27.3798 54.7195 27.5004 54.8013 27.6332 54.8571C27.7661 54.9129 27.9085 54.9416 28.0524 54.9416H43.7896C43.9334 54.9416 44.0759 54.9129 44.2087 54.8571C44.3416 54.8013 44.4621 54.7195 44.5635 54.6165C44.6649 54.5135 44.7451 54.3913 44.7994 54.2569C44.8537 54.1225 44.8811 53.9786 44.8801 53.8334V50.9988C44.8801 50.7049 44.7644 50.423 44.5584 50.2152C44.3523 50.0074 44.0729 49.8906 43.7816 49.8906H33.0832V32.1119C33.0832 31.6774 32.9984 31.2472 32.8336 30.8458C32.6687 30.4444 32.4272 30.0797 32.1226 29.7725C31.8181 29.4653 31.4566 29.2216 31.0587 29.0553C30.6608 28.8891 30.2343 28.8035 29.8036 28.8035H28.0524C27.7632 28.8035 27.4858 28.9194 27.2813 29.1257C27.0768 29.332 26.9619 29.6118 26.9619 29.9036V29.8876ZM128.135 25.5673L134.376 12.5184L137.862 19.6572H132.195C132.083 19.6574 131.974 19.6864 131.877 19.7414C131.779 19.7964 131.698 19.8755 131.64 19.9713C131.581 20.0671 131.548 20.1763 131.544 20.2886C131.539 20.4009 131.563 20.5125 131.614 20.6127L132.218 21.8173C132.493 22.3609 132.911 22.8173 133.427 23.1362C133.942 23.455 134.535 23.6239 135.14 23.624H137.608C138.213 23.6241 138.807 23.7937 139.323 24.1142C139.839 24.4346 140.256 24.8932 140.529 25.4389L140.608 25.5995C140.702 25.7805 140.842 25.9324 141.015 26.0385C141.187 26.1447 141.385 26.2011 141.588 26.2017H144.923C145.109 26.1995 145.291 26.1492 145.453 26.0557C145.614 25.9622 145.749 25.8287 145.845 25.6677C145.941 25.5067 145.994 25.3237 146 25.136C146.006 24.9484 145.964 24.7624 145.878 24.5957L135.331 3.9502C135.236 3.77796 135.096 3.63451 134.928 3.53465C134.759 3.43479 134.567 3.38214 134.372 3.38214C134.176 3.38214 133.984 3.43479 133.816 3.53465C133.647 3.63451 133.508 3.77796 133.413 3.9502L122.873 24.5555C122.787 24.7228 122.746 24.9096 122.752 25.0979C122.758 25.2862 122.812 25.4697 122.909 25.6309C123.005 25.7921 123.141 25.9256 123.304 26.0185C123.466 26.1114 123.65 26.1607 123.836 26.1616H127.164C127.362 26.1619 127.557 26.1084 127.728 26.0067C127.899 25.9049 128.039 25.7587 128.135 25.5834V25.5673ZM33.1071 25.5673L39.3478 12.5184L42.8344 19.6572H37.1747C37.0626 19.656 36.9522 19.684 36.8539 19.7384C36.7557 19.7929 36.673 19.8719 36.6138 19.9679C36.5547 20.0639 36.521 20.1736 36.516 20.2866C36.5111 20.3995 36.5351 20.5119 36.5857 20.6127L37.1906 21.8173C37.4654 22.3542 37.8807 22.805 38.3915 23.1207C38.9023 23.4364 39.4891 23.6049 40.0881 23.608H42.5557C43.1625 23.6083 43.7573 23.7781 44.2743 24.0984C44.7913 24.4187 45.2103 24.8771 45.4851 25.4228L45.5647 25.5834C45.6557 25.7644 45.7946 25.9164 45.966 26.0227C46.1374 26.129 46.3346 26.1854 46.5358 26.1857H49.8711C50.057 26.1826 50.2391 26.1319 50.4003 26.0384C50.5615 25.945 50.6966 25.8118 50.7928 25.6513C50.8891 25.4908 50.9433 25.3083 50.9506 25.1208C50.9578 24.9334 50.9178 24.7472 50.8343 24.5796L40.311 3.9502C40.2146 3.77815 40.0746 3.63502 39.9053 3.53543C39.7361 3.43584 39.5437 3.38336 39.3478 3.38336C39.1519 3.38336 38.9595 3.43584 38.7903 3.53543C38.621 3.63502 38.481 3.77815 38.3846 3.9502L27.8375 24.5555C27.7539 24.7231 27.7139 24.9093 27.7211 25.0968C27.7284 25.2842 27.7827 25.4667 27.8789 25.6272C27.9752 25.7877 28.1102 25.9209 28.2714 26.0144C28.4326 26.1078 28.6147 26.1585 28.8007 26.1616H32.128C32.3281 26.1651 32.5252 26.113 32.6979 26.011C32.8706 25.9091 33.0122 25.7611 33.1071 25.5834V25.5673ZM47.6104 4.5364V7.45134C47.6104 7.59649 47.6389 7.74021 47.6942 7.87421C47.7495 8.00821 47.8305 8.12984 47.9326 8.23211C48.0347 8.33437 48.1559 8.41523 48.2891 8.47005C48.4224 8.52486 48.565 8.55253 48.7089 8.55147H55.682V25.0775C55.6819 25.2251 55.7111 25.3712 55.7678 25.5072C55.8245 25.6433 55.9076 25.7665 56.0121 25.8697C56.1166 25.973 56.2406 26.0541 56.3766 26.1083C56.5127 26.1626 56.6581 26.1889 56.8043 26.1857H60.3466C60.638 26.1857 60.9173 26.0689 61.1234 25.8611C61.3294 25.6533 61.4451 25.3714 61.4451 25.0775V8.56753H66.3167C66.9059 8.56116 67.4824 8.39439 67.9854 8.08485C68.4884 7.77531 68.8992 7.33449 69.1744 6.80893L70.2968 4.7211C70.3714 4.58443 70.4087 4.43026 70.4051 4.27429C70.4015 4.11831 70.357 3.96609 70.2761 3.8331C70.1952 3.70011 70.0809 3.59111 69.9447 3.51718C69.8085 3.44324 69.6553 3.40702 69.5007 3.41218H48.7089C48.5619 3.41212 48.4164 3.44181 48.281 3.4995C48.1456 3.55719 48.0231 3.6417 47.9207 3.74803C47.8183 3.85436 47.738 3.98034 47.6847 4.11852C47.6314 4.25669 47.6062 4.40425 47.6104 4.55246V4.5364ZM73.7674 3.42824C73.6235 3.42824 73.481 3.45696 73.3482 3.51275C73.2154 3.56853 73.0948 3.65029 72.9934 3.7533C72.892 3.85631 72.8119 3.97853 72.7575 4.11293C72.7032 4.24734 72.6758 4.39126 72.6768 4.5364V17.5452C72.6205 18.8498 72.8726 20.1492 73.4124 21.336C73.9522 22.5229 74.7642 23.5631 75.7813 24.3708C77.8509 25.9769 80.3504 26.7799 84.012 26.7799C87.6737 26.7799 90.1572 25.9769 92.2348 24.3708C93.2622 23.57 94.0839 22.5321 94.6311 21.3444C95.1782 20.1566 95.4347 18.8538 95.3791 17.5452V4.55246C95.3791 4.25856 95.2634 3.97669 95.0573 3.76887C94.8513 3.56105 94.5719 3.4443 94.2806 3.4443H90.802C90.512 3.44642 90.2347 3.56411 90.0304 3.7717C89.8261 3.97929 89.7115 4.25994 89.7115 4.55246V16.8787C89.7115 19.9382 87.7772 21.8976 84.0439 21.8976C80.3106 21.8976 78.4081 19.9784 78.4081 16.8787V4.55246C78.4081 4.25994 78.2935 3.97929 78.0892 3.7717C77.8849 3.56411 77.6075 3.44642 77.3176 3.4443L73.7674 3.42824ZM0.000948378 1.12359V25.0775C0.000918068 25.3686 0.114463 25.6481 0.31704 25.8555C0.519618 26.0628 0.794953 26.1814 1.08352 26.1857H4.8407C4.98458 26.1857 5.12705 26.1569 5.25988 26.1012C5.39271 26.0454 5.51329 25.9636 5.61466 25.8606C5.71603 25.7576 5.79619 25.6354 5.85052 25.501C5.90486 25.3666 5.93228 25.2226 5.93123 25.0775V10.6232L23.5311 25.9126C23.6929 26.0403 23.8869 26.1196 24.0911 26.1416C24.2954 26.1635 24.5016 26.1273 24.6865 26.037C24.8714 25.9467 25.0274 25.8059 25.1369 25.6306C25.2465 25.4553 25.3051 25.2526 25.3062 25.0454V3.364C25.3062 2.48442 24.9598 1.64087 24.3433 1.01892C23.7267 0.396965 22.8905 0.0475553 22.0186 0.0475553H20.4266C20.1492 0.0637841 19.8882 0.185484 19.6961 0.388137C19.5041 0.59079 19.3954 0.859331 19.3918 1.13965V15.1522L1.79993 0.264366C1.639 0.125403 1.44145 0.0367324 1.23138 0.00918194C1.02131 -0.0183685 0.80784 0.0163947 0.617039 0.109228C0.426237 0.202061 0.266362 0.348944 0.156954 0.531933C0.0475456 0.714921 -0.00666203 0.926093 0.000948378 1.13965V1.12359ZM116.879 26.1857H120.207C120.372 26.1862 120.534 26.1394 120.674 26.0508C120.815 25.9621 120.927 25.8353 120.999 25.6849C121.07 25.5345 121.098 25.3667 121.079 25.2009C121.06 25.0352 120.995 24.8782 120.891 24.7483L115.582 18.0511C117.148 17.7641 118.565 16.9364 119.592 15.7101C120.619 14.4837 121.191 12.9351 121.21 11.3299C121.172 9.21416 120.308 7.19894 118.805 5.72231C117.303 4.24569 115.283 3.42703 113.186 3.4443H99.5741C99.4302 3.4443 99.2877 3.47302 99.1549 3.52881C99.022 3.5846 98.9015 3.66635 98.8001 3.76936C98.6987 3.87237 98.6186 3.99459 98.5642 4.12899C98.5099 4.2634 98.4825 4.40732 98.4835 4.55246V25.0775C98.4825 25.2226 98.5099 25.3666 98.5642 25.501C98.6186 25.6354 98.6987 25.7576 98.8001 25.8606C98.9015 25.9636 99.022 26.0454 99.1549 26.1012C99.2877 26.1569 99.4302 26.1857 99.5741 26.1857H103.228C103.518 26.1835 103.795 26.0659 103.999 25.8583C104.204 25.6507 104.318 25.37 104.318 25.0775V8.56753H112.708C113.343 8.55034 113.964 8.75412 114.467 9.14461C114.97 9.53509 115.324 10.0884 115.47 10.7116C115.551 11.099 115.545 11.4996 115.452 11.8843C115.36 12.269 115.184 12.6281 114.937 12.9357C114.69 13.2432 114.379 13.4915 114.025 13.6623C113.671 13.8332 113.284 13.9225 112.891 13.9236H106.953C106.83 13.9244 106.709 13.9599 106.605 14.0263C106.5 14.0927 106.416 14.1872 106.362 14.2992C106.309 14.4112 106.287 14.5362 106.3 14.66C106.313 14.7838 106.36 14.9015 106.436 14.9997L114.348 24.9811C114.656 25.357 115.043 25.6598 115.481 25.868C115.918 26.0761 116.396 26.1846 116.879 26.1857ZM52.5298 54.3474L58.7705 41.3385L62.257 48.4372H56.5974C56.4893 48.44 56.3835 48.4695 56.2894 48.5232C56.1953 48.5769 56.1156 48.653 56.0575 48.745C55.9993 48.837 55.9644 48.9419 55.9558 49.0507C55.9473 49.1594 55.9653 49.2686 56.0083 49.3687L56.6133 50.5652C56.8866 51.1121 57.3053 51.5715 57.8226 51.892C58.34 52.2125 58.9355 52.3815 59.5426 52.38H62.0023C62.608 52.3805 63.2019 52.5494 63.7186 52.8681C64.2354 53.1869 64.6551 53.6431 64.9316 54.1868L65.0112 54.3474C65.1004 54.5304 65.2387 54.6846 65.4103 54.7925C65.582 54.9004 65.7801 54.9576 65.9824 54.9576H69.3176C69.5036 54.9546 69.6857 54.9039 69.8469 54.8104C70.0081 54.717 70.1431 54.5838 70.2394 54.4233C70.3356 54.2628 70.3899 54.0803 70.3972 53.8928C70.4044 53.7054 70.3644 53.5192 70.2808 53.3516L59.7337 32.7222C59.639 32.548 59.4996 32.4027 59.3302 32.3015C59.1607 32.2003 58.9674 32.1469 58.7705 32.1469C58.5736 32.1469 58.3803 32.2003 58.2108 32.3015C58.0414 32.4027 57.902 32.548 57.8073 32.7222L47.2522 53.3275C47.1686 53.4951 47.1286 53.6813 47.1359 53.8687C47.1431 54.0562 47.1974 54.2387 47.2936 54.3992C47.3899 54.5597 47.525 54.6929 47.6862 54.7863C47.8474 54.8798 48.0295 54.9305 48.2154 54.9336H51.5427C51.745 54.9378 51.9444 54.8852 52.1187 54.7817C52.293 54.6782 52.4353 54.5278 52.5298 54.3474Z" fill="white"/>
</svg>
