<svg width="168" height="14" viewBox="0 0 168 14" fill="none" xmlns="http://www.w3.org/2000/svg">
<path fill-rule="evenodd" clip-rule="evenodd" d="M55.4726 2.26828C56.0511 2.25871 56.6254 2.36837 57.1596 2.59044C57.6939 2.81252 58.1767 3.14226 58.5779 3.55908C58.9959 3.97916 59.3246 4.47941 59.5443 5.02977C59.7641 5.58014 59.8702 6.16927 59.8565 6.76172C59.8677 7.35566 59.7605 7.94587 59.5409 8.49786C59.3214 9.04986 58.994 9.55253 58.5779 9.97651C58.1709 10.3807 57.6854 10.6973 57.1513 10.9068C56.6173 11.1162 56.046 11.214 55.4726 11.1942C54.8936 11.2083 54.318 11.1007 53.7831 10.8783C53.2482 10.656 52.7659 10.3239 52.3674 9.90345C51.9636 9.47859 51.648 8.97787 51.439 8.43023C51.23 7.88259 51.1316 7.2989 51.1497 6.713C51.13 6.12508 51.2275 5.53912 51.4366 4.98927C51.6457 4.43942 51.9621 3.93667 52.3674 3.51036C52.7711 3.09996 53.2554 2.77773 53.7899 2.56395C54.3244 2.35016 54.8973 2.24948 55.4726 2.26828ZM55.4726 13.2279C56.3403 13.2506 57.2036 13.0984 58.0111 12.7804C58.8187 12.4624 59.5539 11.9851 60.1731 11.3769C60.801 10.7816 61.2968 10.0609 61.6282 9.26162C61.9597 8.46235 62.1194 7.60237 62.0971 6.73738C62.1188 5.87468 61.9611 5.01685 61.6341 4.21822C61.3072 3.4196 60.8179 2.69755 60.1975 2.09778C59.5744 1.48725 58.8353 1.00782 58.0237 0.687812C57.2122 0.367803 56.3447 0.213715 55.4726 0.234655C54.6046 0.216982 53.7418 0.372688 52.9347 0.692606C52.1276 1.01252 51.3924 1.49022 50.7722 2.09778C50.1477 2.69512 49.655 3.41648 49.3258 4.21547C48.9965 5.01447 48.838 5.87349 48.8604 6.73738C48.8371 7.59919 48.9928 8.45644 49.3177 9.25501C49.6426 10.0536 50.1296 10.7761 50.7478 11.3769C51.3703 11.9875 52.1096 12.4662 52.9215 12.7843C53.7334 13.1023 54.6011 13.2532 55.4726 13.2279ZM69.1721 0.453875H66.968V12.9843H74.4693V10.9507H69.1721V0.453875ZM92.4552 13.2279C93.7409 13.2877 95.0146 12.9565 96.1084 12.278C96.5533 11.9875 96.9159 11.5873 97.1612 11.1159C97.4065 10.6446 97.5262 10.118 97.5088 9.58687C97.5153 8.85878 97.2686 8.15103 96.8111 7.58464C96.3535 7.01825 95.7134 6.62835 95.0002 6.48163L91.7002 5.49527C91.3423 5.41823 91.021 5.22221 90.7888 4.93914C90.5566 4.65606 90.4271 4.30266 90.4216 3.93657C90.4216 2.71884 91.2862 2.17088 93.0032 2.17088C94.3196 2.14896 95.6155 2.4993 96.7416 3.18158V1.05055C96.2225 0.770041 95.6642 0.568923 95.0855 0.453875C94.3775 0.298763 93.6548 0.22118 92.9301 0.222503C91.714 0.167644 90.5131 0.509535 89.5083 1.19667C89.0855 1.51026 88.7466 1.92322 88.5215 2.39898C88.2963 2.87475 88.1919 3.39865 88.2175 3.92438C88.1832 4.65094 88.3972 5.36754 88.8243 5.95626C89.2515 6.54499 89.8663 6.97077 90.5677 7.16355L93.9165 8.13776C94.8419 8.46655 95.3047 8.94146 95.3047 9.61121C95.3047 10.6219 94.16 11.2673 92.3578 11.2673C91.6298 11.2519 90.9062 11.1497 90.2024 10.9629C89.4851 10.7721 88.794 10.494 88.1444 10.1348L88.5828 12.3389C89.2084 12.6115 89.8617 12.8156 90.5312 12.9478C91.1618 13.1037 91.8062 13.1976 92.4552 13.2279ZM100.845 0.453875V2.47532H105.156V13.0208H107.36V2.47532H111.61V0.453875H100.845ZM130.29 13.2279C131.93 13.2998 133.551 12.8477 134.918 11.9371V9.84258H134.747C133.526 10.744 132.051 11.2344 130.534 11.243C129.344 11.2752 128.189 10.8378 127.319 10.0252C126.873 9.62242 126.52 9.1273 126.284 8.57423C126.048 8.02117 125.936 7.42342 125.955 6.82259C125.937 6.21436 126.045 5.60901 126.274 5.04505C126.502 4.48109 126.846 3.97088 127.282 3.54689C128.15 2.7309 129.307 2.2929 130.497 2.32916C131.789 2.32427 133.046 2.75307 134.065 3.54689H134.187L135.088 1.86645C133.739 0.872007 132.1 0.349865 130.424 0.380814C128.654 0.334741 126.938 0.991484 125.651 2.20741C125.011 2.8131 124.507 3.54717 124.171 4.36145C123.835 5.17573 123.675 6.05179 123.702 6.93218C123.678 7.7992 123.837 8.66158 124.169 9.46308C124.5 10.2646 124.997 10.9872 125.626 11.5839C126.905 12.7224 128.58 13.3128 130.29 13.2279ZM116.688 0.453875H118.917V12.9843H116.712L116.688 0.453875ZM79.9125 0.453875H82.1166V12.9843H79.9491L79.9125 0.453875ZM167.053 5.84842H144.976V7.84548H167.053V5.84842ZM0.224182 5.84842H22.3016V7.84548H0.224182V5.84842ZM41.7732 5.84842H34.9417V0.453875H32.7376V12.9843H34.9417V7.80895H41.7732V12.9843H43.9894V0.417345H41.7732V5.84842Z" fill="white"/>
</svg>
