<svg width="1920" height="267" viewBox="0 0 1920 267" fill="none" xmlns="http://www.w3.org/2000/svg">
<path d="M1357.17 28.4782C1838.4 10.9624 2056.5 18.5047 2056.5 18.5047L2056.5 176.505C2056.5 176.505 1611.63 197.027 1262 199.299C668.176 203.158 470 198 166.83 188.577C-91.5955 180.545 -207.497 187.577 -207.497 187.577C-207.497 187.577 -204.038 174.768 -207.497 160.506C-5.33164 173.818 108.398 168.835 371.701 141.67C635.003 114.506 911.5 44.6995 1357.17 28.4782Z" fill="#FD671A" fill-opacity="0.5"/>
<path d="M566.817 28.4782C85.5829 10.9624 -132.516 18.5047 -132.516 18.5047L-132.517 176.505C-132.517 176.505 312.354 197.027 661.981 199.299C1255.81 203.158 1453.99 198 1757.16 188.577C2015.58 180.545 2131.48 187.577 2131.48 187.577C2131.48 187.577 2128.02 174.768 2131.48 160.506C1929.32 173.818 1815.59 168.835 1552.29 141.67C1288.98 114.506 1012.49 44.6995 566.817 28.4782Z" fill="#FD671A" fill-opacity="0.65"/>
</svg>
