<svg width="51" height="50" viewBox="0 0 51 50" fill="none" xmlns="http://www.w3.org/2000/svg">
<g clip-path="url(#clip0_2337_1787)">
<path d="M29.9365 14.4634C32.6866 14.6344 35.2055 14.8355 37.7271 14.9327C39.5561 15.0171 41.3849 14.7615 43.1206 14.1788C44.7051 13.6316 46.1521 12.7475 47.3621 11.5874C47.7453 11.1995 48.162 10.8461 48.6072 10.5311C48.8373 10.3829 49.1029 10.2987 49.3764 10.2872C49.65 10.2758 49.9216 10.3375 50.1634 10.4661C50.4051 10.5946 50.6082 10.7853 50.7517 11.0185C50.8952 11.2517 50.9738 11.5189 50.9796 11.7926C50.9974 12.1522 50.9378 12.5114 50.8046 12.8459C50.6715 13.1804 50.468 13.4824 50.208 13.7314C47.7329 16.2243 44.7351 17.6801 41.2845 18.2547C38.3401 18.7432 35.4011 18.5461 32.4554 18.3094C30.0651 18.1165 27.653 18.0276 25.3872 18.9744C21.4823 20.6053 19.118 23.5087 18.5188 27.7488C18.189 30.0843 18.4818 32.4157 18.6761 34.7431C18.8909 37.3153 19.0866 39.8834 18.5256 42.4393C17.9468 45.1045 16.6101 47.3416 14.6946 49.2489C13.9558 49.9836 12.9871 50.1847 12.2113 49.8276C11.3411 49.4267 11.0305 48.614 11.4396 47.7479C11.5522 47.4996 11.7079 47.273 11.8993 47.0789C14.3621 44.7009 15.2952 41.7428 15.1831 38.4044C15.1133 36.4109 14.9368 34.4202 14.7931 32.4294C14.5715 29.3797 14.5072 26.3244 15.77 23.4649C18.0002 18.4175 21.8339 15.3924 27.367 14.6536C28.2851 14.5304 29.2278 14.5126 29.9365 14.4634Z" fill="white"/>
<path d="M19.6216 36.2276C19.5244 35.0372 19.4259 33.8373 19.3206 32.5525C23.194 32.885 26.7089 32.2543 29.5616 29.4057C32.4144 26.557 33.0588 23.0448 32.7263 19.1564L36.3836 19.4081C37.6751 29.2346 30.1103 37.4508 19.6216 36.2276Z" fill="white"/>
<path d="M36.1359 14.0734L32.3336 13.7656C32.4841 12.2961 32.5539 10.865 32.792 9.46255C33.3149 6.20294 34.8697 3.19703 37.2277 0.88659C37.6272 0.492544 38.2183 0.229847 38.7683 0.0656613C39.4866 -0.146412 40.1078 0.187428 40.4813 0.779865C40.8822 1.41335 40.8179 2.02221 40.3637 2.57907C39.8903 3.16056 39.3621 3.69553 38.8778 4.26881C37.1511 6.31155 36.3261 8.71277 36.1414 11.3493C36.0839 12.2263 36.1359 13.1129 36.1359 14.0734Z" fill="white"/>
<path d="M13.9407 32.1777C14.042 33.3995 14.1419 34.5967 14.2445 35.8294C13.834 35.8294 13.4673 35.8404 13.0979 35.8294C10.6023 35.7391 8.1915 36.0538 6.04067 37.4343C5.37025 37.8626 4.77917 38.414 4.15527 38.912C3.98151 39.0488 3.831 39.2158 3.65313 39.3457C2.99775 39.8232 2.29313 39.878 1.74722 39.5099C1.1712 39.12 0.826398 38.2648 1.08636 37.5616C1.26352 37.0542 1.54292 36.5885 1.90729 36.1934C4.99534 33.0615 8.82634 31.9437 13.1266 32.1366C13.3839 32.1407 13.637 32.1599 13.9407 32.1777Z" fill="white"/>
<path d="M39.5947 4.68339L40.4485 3.75574L47.2458 10.5571L46.3332 11.4218L39.5947 4.68339Z" fill="white"/>
<path d="M12.0362 45.7134L11.1331 46.6889L4.3208 39.8807L5.30182 38.9695L12.0362 45.7134Z" fill="white"/>
<path d="M20.047 25.104L25.9153 30.975C25.5048 31.1118 25.0807 31.2705 24.6387 31.3855C24.5614 31.393 24.4833 31.384 24.4097 31.359C24.3361 31.3339 24.2686 31.2935 24.2119 31.2404C22.7324 29.781 21.2624 28.3093 19.8021 26.8252C19.7423 26.7544 19.6983 26.6716 19.6731 26.5824C19.6478 26.4932 19.6419 26.3997 19.6557 26.308C19.7656 25.9003 19.8962 25.4984 20.047 25.104Z" fill="white"/>
<path d="M13.741 42.8182L8.17236 37.2564C8.70186 37.1196 9.19716 36.9828 9.69929 36.8898C9.80738 36.8692 9.97293 37.0061 10.0701 37.1073C11.3535 38.3797 12.6368 39.6536 13.9011 40.9383C13.9692 41.0161 14.0208 41.1069 14.0528 41.2052C14.0848 41.3035 14.0965 41.4073 14.0871 41.5102C13.9957 41.9522 13.8801 42.3889 13.741 42.8182Z" fill="white"/>
<path d="M31.3512 25.2024L25.8086 19.6557C26.323 19.5189 26.8129 19.3821 27.3136 19.2836C27.4217 19.263 27.5873 19.3916 27.6871 19.4915C28.9678 20.7612 30.2484 22.0323 31.5086 23.3225C31.5787 23.4076 31.631 23.5061 31.6622 23.6118C31.6935 23.7176 31.7031 23.8286 31.6905 23.9382C31.603 24.3661 31.4897 24.7882 31.3512 25.2024Z" fill="white"/>
<path d="M37.5725 8.1792L42.8264 13.4345C42.364 13.559 41.9001 13.7081 41.4254 13.7957C41.3472 13.7944 41.2701 13.7774 41.1986 13.7456C41.1272 13.7139 41.0628 13.6681 41.0094 13.611C39.7944 12.4125 38.5863 11.2098 37.3946 9.98935C37.3361 9.91672 37.293 9.83289 37.2681 9.74301C37.2431 9.65313 37.2368 9.5591 37.2496 9.46669C37.3152 9.03297 37.4521 8.61155 37.5725 8.1792Z" fill="white"/>
<path d="M21.9502 22.3525L22.8792 21.3263C23.6167 22.0378 24.3063 22.6863 24.9739 23.3553C25.3146 23.6974 25.1819 24.0244 24.8741 24.3295C24.5662 24.6346 24.2529 24.7017 23.9368 24.3884C23.265 23.7179 22.6097 23.0297 21.9502 22.3525Z" fill="white"/>
<path d="M29.6711 28.0675L28.7325 29.0759C27.9978 28.3754 27.2754 27.7172 26.5913 27.0236C26.2752 26.7007 26.4353 26.3641 26.7281 26.0945C27.0209 25.825 27.3424 25.7155 27.668 26.0425C28.333 26.7007 28.9843 27.3683 29.6711 28.0675Z" fill="white"/>
</g>
<defs>
<clipPath id="clip0_2337_1787">
<rect width="49.9863" height="50" fill="white" transform="translate(0.998779)"/>
</clipPath>
</defs>
</svg>
