<svg width="62" height="46" viewBox="0 0 62 46" fill="none" xmlns="http://www.w3.org/2000/svg">
<path opacity="0.2" d="M51.245 33.9909C51.9739 35.133 52.8719 36.1653 53.9103 37.0548L57.66 40.6002C57.9333 40.8001 58.2384 40.9553 58.5634 41.0598C58.8608 41.2114 59.1345 41.403 59.3766 41.6288C59.4969 41.7384 59.5931 41.8706 59.6591 42.0174C59.7251 42.1641 59.7596 42.3223 59.7607 42.4823C59.7532 42.6456 59.6888 42.8016 59.578 42.9248C59.4672 43.048 59.3166 43.1312 59.1507 43.1607C59.3766 43.1607 59.467 43.4234 59.3089 43.5985C59.2118 43.6736 59.0973 43.7248 58.9754 43.7477C58.8534 43.7705 58.7276 43.7644 58.6087 43.7298C57.5192 43.5133 56.4929 43.0648 55.6044 42.4167L51.4708 39.8561C48.9861 38.3022 46.4789 36.7484 44.0394 35.1289C43.572 34.8424 43.1593 34.4795 42.8197 34.0565C42.2199 34.734 41.6903 35.4671 41.2385 36.245C39.9026 38.5535 39.342 41.2079 39.6347 43.8392C39.8537 43.7518 40.0942 43.728 40.3268 43.7708C40.5595 43.8135 40.7742 43.9209 40.9449 44.0799C41.1914 44.2947 41.3911 44.5552 41.5322 44.8459C41.5664 44.9257 41.5839 45.0112 41.5839 45.0976C41.5839 45.184 41.5664 45.2695 41.5322 45.3493C41.5322 45.5025 41.2838 45.5681 41.1482 45.3493C41.1071 45.4609 41.023 45.5529 40.9136 45.6059C40.8041 45.6589 40.6778 45.6689 40.5609 45.6338C40.335 45.6338 40.3125 45.4149 40.2673 45.1742C39.9393 45.5045 39.5026 45.7136 39.0325 45.7656C38.5625 45.8175 38.0886 45.709 37.6922 45.4587C37.0724 44.9762 36.6549 44.2916 36.5176 43.5328C36.0992 40.5009 36.0084 37.435 36.2466 34.3848C36.3109 33.5539 36.0972 32.725 35.6368 32.0212C34.9754 31.5579 34.1924 31.2848 33.378 31.2333C31.8646 30.9707 30.3738 30.7081 28.8604 30.5549L24.0492 39.309C23.797 39.6721 23.6561 40.097 23.6426 40.5345C23.7641 41.0545 24.0772 41.5137 24.5234 41.8258C25.1243 42.3585 25.7579 42.8555 26.4209 43.3139C26.8297 43.118 27.2902 43.0466 27.7418 43.1091C28.1933 43.1716 28.6148 43.3651 28.9507 43.6641C29.1606 43.8399 29.3037 44.0788 29.3573 44.3425C29.3942 44.4729 29.3948 44.6105 29.3591 44.7411C29.3234 44.8718 29.2526 44.991 29.1539 45.0867C29.0472 45.176 28.911 45.2251 28.77 45.2251C28.629 45.2251 28.4927 45.176 28.386 45.0867C28.0692 45.2679 27.7183 45.3864 27.3538 45.4353C26.9893 45.4841 26.6185 45.4623 26.2627 45.3712C24.0952 44.6578 22.183 43.3594 20.7513 41.6288C20.1064 41.0631 19.5842 40.3787 19.2153 39.6154C19.0189 39.0356 18.9123 38.4308 18.8991 37.8208C18.7861 36.1575 18.6732 34.4942 18.5377 32.8309C18.5377 32.5683 18.5377 32.2838 18.5377 31.9993C17.8601 32.3276 17.1824 32.6559 16.5047 33.0279L8.96045 37.208C7.61628 37.8571 6.40654 38.7398 5.39152 39.8123C4.36152 41.2796 3.66824 42.9438 3.35855 44.6927C3.30902 45.095 3.12686 45.4711 2.83907 45.7651C2.78962 45.8373 2.72254 45.8966 2.64371 45.9376C2.56489 45.9785 2.47674 46 2.38728 46C2.29782 46 2.20982 45.9785 2.13099 45.9376C2.05217 45.8966 1.98495 45.8373 1.9355 45.7651C1.83096 45.8589 1.70404 45.9261 1.56602 45.9605C1.428 45.9948 1.28327 45.9954 1.14498 45.9621C1.00504 45.9311 0.876476 45.8638 0.773013 45.7674C0.669551 45.6711 0.595075 45.5492 0.557667 45.4149C0.523882 45.2928 0.527247 45.1638 0.567318 45.0434C0.607388 44.9231 0.682404 44.8165 0.783491 44.7365C0.655705 44.7767 0.517883 44.7749 0.391263 44.7314C0.264643 44.6878 0.156319 44.605 0.0832709 44.4957C0.0283371 44.3789 0 44.2521 0 44.1237C0 43.9953 0.0283371 43.8685 0.0832709 43.7517C0.15896 43.5029 0.273258 43.2668 0.422145 43.0513C0.828728 42.351 1.48375 41.8258 1.66445 41.0379C2.12765 39.4546 2.89389 37.9698 3.92325 36.6609C5.88839 33.8814 7.53735 30.9707 9.75097 28.3882L12.7326 24.9304C18.8313 17.8177 0.173727 14.2066 2.59064 4.57715C2.90863 3.31019 3.63682 2.17514 4.66869 1.33814C5.70403 0.501198 7.00245 0.0304062 8.35053 0.0031462C8.67681 -0.0149434 9.00261 0.0451792 9.29918 0.178215C9.43935 0.253917 9.55554 0.365275 9.63516 0.500268C9.71478 0.635262 9.75482 0.788776 9.75097 0.94421C9.68525 1.17868 9.53239 1.38133 9.32179 1.51321C9.11034 1.63231 8.88207 1.72079 8.64418 1.77584C7.77965 2.01285 6.99852 2.47451 6.38539 3.11084C6.04696 3.53527 5.8005 4.02156 5.66077 4.54053C5.52104 5.0595 5.49095 5.60047 5.57226 6.13099C6.15954 10.3111 14.1105 14.8851 17.2502 17.8615C17.8914 18.177 18.6249 18.2697 19.3282 18.1241C20.1866 17.949 21.474 17.2924 22.5357 16.986C36.6531 12.9811 40.4253 19.6123 47.134 16.986C47.9245 16.5483 48.557 16.045 49.5283 15.4322C50.4995 14.8194 51.2901 14.7757 51.7871 14.3598C53.0746 13.4407 53.4134 11.7774 54.9042 10.8363C55.6948 11.2302 56.011 12.2807 55.7626 13.9878C56.5757 14.5568 58.315 14.6443 59.2637 15.8042C59.6702 16.2857 59.738 17.0955 60.122 17.5988C60.7771 18.4524 61.9065 18.6931 61.9968 19.5466C62.0872 20.4002 60.2123 22.3917 59.3766 22.8075C58.2128 22.4973 56.9712 22.6223 55.8981 23.1577C54.6106 23.9018 52.2388 24.624 51.6289 25.959C50.9343 27.1735 50.5291 28.5233 50.4431 29.9094C50.3572 31.2954 50.5925 32.6826 51.1321 33.969" fill="#DFE3E3"/>
</svg>
