<svg width="44" height="50" viewBox="0 0 44 50" fill="none" xmlns="http://www.w3.org/2000/svg">
<g clip-path="url(#clip0_2337_1452)">
<path d="M22.4229 41.0824C23.6047 41.0794 24.7393 41.5457 25.5775 42.3787C26.4158 43.2117 26.8891 44.3434 26.8936 45.5251C26.8895 46.7137 26.4139 47.852 25.5713 48.6902C24.7286 49.5285 23.5877 49.998 22.3992 49.9958C21.2186 49.984 20.0901 49.5079 19.2579 48.6705C18.4256 47.833 17.9566 46.7016 17.9523 45.5209C17.9586 44.3401 18.4326 43.21 19.2706 42.378C20.1085 41.5461 21.2421 41.0802 22.4229 41.0824Z" fill="white"/>
<path d="M22.4034 8.91749C21.2228 8.91233 20.0921 8.44038 19.2582 7.60464C18.4243 6.7689 17.9548 5.63724 17.9523 4.45662C17.9608 3.26733 18.4409 2.13001 19.2872 1.29442C20.1336 0.458821 21.2769 -0.00674413 22.4662 -5.08872e-05C23.6478 0.0150378 24.7758 0.4959 25.6048 1.33801C26.4338 2.18013 26.897 3.31543 26.8936 4.49714C26.8832 5.67842 26.4046 6.80733 25.5628 7.63607C24.7209 8.46482 23.5847 8.92568 22.4034 8.91749Z" fill="white"/>
<path d="M9.92326 15.2281C9.87576 17.7247 7.82765 19.7114 5.37857 19.6471C4.19865 19.6164 3.07814 19.1228 2.25896 18.2731C1.43977 17.4233 0.987626 16.2855 1.00013 15.1052C1.02218 13.9244 1.51059 12.8002 2.3587 11.9783C3.20681 11.1564 4.34571 10.7034 5.52666 10.7184C6.7071 10.7353 7.83269 11.2195 8.6568 12.0648C9.48091 12.9101 9.93632 14.0477 9.92326 15.2281Z" fill="white"/>
<path d="M5.40512 39.2803C2.90855 39.223 0.934477 37.1847 1.00154 34.7216C1.03338 33.5417 1.52854 32.4218 2.37985 31.6042C3.23117 30.7866 4.37019 30.3371 5.55042 30.3529C8.00508 30.4088 9.98614 32.4667 9.92327 34.8934C9.85761 37.3747 7.83883 39.3362 5.40512 39.2803Z" fill="white"/>
<path d="M34.9212 15.1093C34.9813 12.6309 37.0056 10.6652 39.4379 10.7197C41.9387 10.777 43.9086 12.8153 43.8443 15.2756C43.7801 17.7359 41.7278 19.7029 39.2954 19.6471C36.8408 19.5912 34.8569 17.5389 34.9212 15.1093Z" fill="white"/>
<path d="M39.382 39.2816C38.2015 39.2813 37.0691 38.8131 36.2331 37.9796C35.397 37.1461 34.9252 36.0153 34.9212 34.8347C34.9182 33.6539 35.3825 32.5198 36.2128 31.68C37.0431 30.8403 38.1719 30.3632 39.3527 30.3529C40.542 30.3525 41.6829 30.8239 42.5252 31.6635C43.3675 32.5032 43.8424 33.6426 43.8457 34.8319C43.8402 36.0128 43.3677 37.1435 42.5314 37.9772C41.6951 38.8108 40.5629 39.2798 39.382 39.2816Z" fill="white"/>
<path d="M16.6866 7.03711L17.6422 8.54316L11.2031 12.6101L10.2502 11.1054L16.6866 7.03711Z" fill="white"/>
<path d="M28.1607 7.0343L34.5999 11.0998L33.6443 12.6058L27.2065 8.54175L28.1607 7.0343Z" fill="white"/>
<path d="M17.6421 41.461L16.6949 42.9629L10.2544 38.896L11.2058 37.3914L17.6421 41.461Z" fill="white"/>
<path d="M33.6429 37.3928L34.5985 38.8989L28.158 42.9672L27.2065 41.4611L33.6429 37.3928Z" fill="white"/>
<path d="M6.3174 28.594H4.599V21.406H6.3174V28.594Z" fill="white"/>
<path d="M38.5284 21.406H40.2455V28.594H38.5284V21.406Z" fill="white"/>
</g>
<defs>
<clipPath id="clip0_2337_1452">
<rect width="42.847" height="50" fill="white" transform="translate(0.998779)"/>
</clipPath>
</defs>
</svg>
