<svg width="12" height="9" viewBox="0 0 12 9" fill="none" xmlns="http://www.w3.org/2000/svg">
<path d="M0 4.3763C0.0516773 4.14704 0.133596 3.93461 0.307126 3.7733C0.715553 3.39344 1.26374 3.42068 1.67217 3.84554C2.52132 4.7283 3.3693 5.6125 4.2161 6.49812C4.25234 6.54198 4.28589 6.58819 4.31652 6.63648C4.36703 6.57036 4.39257 6.52873 4.42546 6.49445C6.39193 4.44241 8.3587 2.3916 10.3258 0.342016C10.6194 0.0359249 10.9585 -0.0776347 11.3617 0.0533723C11.9615 0.248965 12.2017 1.07602 11.8071 1.58566C11.7611 1.64608 11.7121 1.70391 11.6603 1.75891C9.4591 4.055 7.25733 6.35079 5.05498 8.64627C4.75901 8.95665 4.41576 9.08765 4.01292 8.93828C3.86355 8.87949 3.72791 8.78819 3.61506 8.67045C2.51075 7.52965 1.4129 6.38058 0.312997 5.2358C0.153276 5.06719 0.0446366 4.85334 0.000587816 4.62086L0 4.3763Z" fill="white"/>
</svg>
