<svg width="20" height="20" viewBox="0 0 20 20" fill="none" xmlns="http://www.w3.org/2000/svg">
<path d="M18.6708 3.49591C17.8124 2.63739 16.6709 2.16462 15.4569 2.16462C14.2428 2.16462 13.1014 2.63739 12.2428 3.49591L5.07779 10.6609C4.01448 11.7242 4.01448 13.4543 5.07785 14.5178C6.14121 15.5811 7.8714 15.581 8.9347 14.5176L13.6527 9.7996C14.0078 9.44458 14.0078 8.86902 13.6527 8.514C13.2978 8.15898 12.7222 8.15898 12.3671 8.514L7.6491 13.232C7.29469 13.5866 6.71792 13.5865 6.36344 13.2321C6.00897 12.8776 6.00897 12.3009 6.36338 11.9464L13.5284 4.78157C14.0436 4.2665 14.7284 3.98281 15.4569 3.98281C16.1853 3.98281 16.8702 4.2665 17.3852 4.78157C18.4485 5.84493 18.4486 7.57506 17.3854 8.63843L9.57753 16.4461C7.80522 18.2183 4.92161 18.2182 3.14948 16.4461C2.29096 15.5876 1.81813 14.4462 1.81813 13.2321C1.81813 12.018 2.29096 10.8765 3.14948 10.018L10.9571 2.21026C11.3121 1.85524 11.3121 1.27968 10.9571 0.924659C10.6022 0.5697 10.0265 0.569639 9.67153 0.924659L1.86388 8.73242C0.661919 9.93433 0 11.5323 0 13.2321C0 14.9319 0.661919 16.5299 1.86388 17.7317C3.10457 18.9724 4.73374 19.5927 6.36344 19.5925C7.99279 19.5924 9.62268 18.9721 10.8631 17.7317L18.6709 9.92396C20.4431 8.15171 20.443 5.26816 18.6708 3.49591Z" fill="#FF671D"/>
</svg>
