<svg width="33" height="33" viewBox="0 0 33 33" fill="none" xmlns="http://www.w3.org/2000/svg">
<g clip-path="url(#clip0_1352_14211)">
<path d="M19.2555 32.849C16.6389 32.8449 14.1307 31.8036 12.2805 29.9533C10.4304 28.103 9.38934 25.5947 9.3855 22.9781C9.39217 20.3617 10.4358 17.8546 12.2877 16.0063C14.1396 14.1581 16.6487 13.1193 19.2652 13.1178C21.8754 13.1267 24.3761 14.1677 26.2217 16.0135C28.0674 17.8593 29.1081 20.3601 29.1167 22.9703C29.1165 25.5872 28.078 28.0971 26.2292 29.9492C24.3804 31.8013 21.8724 32.8442 19.2555 32.849ZM27.9567 23.0004C27.9567 20.6946 27.0437 18.4826 25.4173 16.848C23.791 15.2135 21.5836 14.2894 19.2778 14.2779C16.9723 14.2755 14.7596 15.186 13.1235 16.8104C11.4874 18.4347 10.5609 20.6407 10.5466 22.9461C10.5414 25.2583 11.4545 27.4779 13.0852 29.1171C14.7159 30.7564 16.9307 31.681 19.2429 31.688C21.5487 31.6857 23.7598 30.7705 25.3927 29.1425C27.0256 27.5145 27.9474 25.3062 27.9567 23.0004Z" fill="white"/>
<path d="M15.1892 7.87873C15.1892 9.87844 14.3969 11.7967 12.9857 13.2135C11.5745 14.6303 9.65943 15.4303 7.65974 15.4382C5.66154 15.4372 3.74502 14.6451 2.32917 13.2351C0.91333 11.825 0.113348 9.9118 0.104126 7.91362C0.104109 5.91408 0.896295 3.99598 2.30727 2.57918C3.71825 1.16239 5.63308 0.362329 7.6326 0.354126C9.63097 0.354873 11.5477 1.14687 12.9638 2.55693C14.3799 3.96698 15.18 5.88038 15.1892 7.87873ZM1.26034 7.87873C1.26033 9.57217 1.93185 11.1965 3.12766 12.3956C4.32346 13.5946 5.94596 14.2706 7.63939 14.2752C9.32681 14.2732 10.9451 13.6045 12.1417 12.4148C13.3383 11.2251 14.0164 9.61069 14.0281 7.92331C14.0325 6.22953 13.3649 4.60316 12.1718 3.40093C10.9786 2.19871 9.35738 1.5188 7.66362 1.51034C5.97068 1.50853 4.34606 2.17793 3.1458 3.37183C1.94554 4.56574 1.26752 6.18677 1.26034 7.8797V7.87873Z" fill="white"/>
<path d="M26.2102 0.354004C27.9035 0.356054 29.5269 1.02941 30.7245 2.22646C31.9221 3.42351 32.5962 5.04657 32.599 6.73984C32.5949 8.43361 31.9191 10.0566 30.72 11.2528C29.5209 12.449 27.8963 13.1208 26.2025 13.1208C24.5151 13.1139 22.8988 12.4406 21.7056 11.2474C20.5124 10.0542 19.839 8.43789 19.8322 6.7505C19.8321 5.05723 20.5035 3.43304 21.6991 2.23399C22.8947 1.03495 24.517 0.358878 26.2102 0.354004ZM20.9932 6.72433C20.9932 8.10515 21.5388 9.43003 22.5113 10.4103C23.4838 11.3906 24.8043 11.9468 26.185 11.9578C27.572 11.9632 28.9045 11.4178 29.8896 10.4414C30.8747 9.46503 31.432 8.1375 31.4389 6.7505C31.4389 5.36951 30.8931 4.04448 29.9204 3.06417C28.9478 2.08387 27.627 1.52774 26.2461 1.517C24.8599 1.51185 23.5283 2.05684 22.5435 3.03237C21.5587 4.00791 21.0012 5.33429 20.9932 6.72045V6.72433Z" fill="white"/>
<path d="M14.0279 20.8623V21.5786C14.0279 22.98 14.0279 24.3817 14.0279 25.7838C14.0279 26.2209 13.8147 26.4622 13.4464 26.4622C13.0781 26.4622 12.8649 26.2209 12.8649 25.7838C12.8649 23.5363 12.8649 21.2888 12.8649 19.0422C12.8649 18.7166 12.9618 18.4666 13.2913 18.3638C13.6208 18.2611 13.8166 18.4307 13.992 18.6788C14.7615 19.7614 15.5359 20.84 16.3422 21.9682C16.4285 21.8557 16.5002 21.7695 16.5651 21.6774C17.2678 20.6956 17.9724 19.7148 18.6692 18.7292C18.8572 18.4646 19.0637 18.2553 19.4174 18.3667C19.7711 18.4782 19.8351 18.7544 19.8351 19.0839C19.8293 21.3062 19.8351 23.5295 19.8351 25.7527C19.8351 26.2247 19.5948 26.4864 19.2071 26.4544C18.8611 26.4253 18.677 26.1937 18.676 25.7653C18.676 24.2431 18.676 22.7209 18.676 21.1986V20.8517L18.6043 20.8313L17.4355 22.4644C17.26 22.7096 17.0875 22.9586 16.9082 23.2009C16.5651 23.6661 16.1329 23.6642 15.7947 23.1893C15.2287 22.4062 14.6704 21.6193 14.1083 20.8342L14.0279 20.8623Z" fill="white"/>
<path d="M23.8901 26.4651C23.5625 26.4651 23.2746 26.4709 22.9868 26.4651C22.4612 26.4564 21.9596 26.2434 21.5882 25.8713C21.2168 25.4992 21.0048 24.9972 20.9971 24.4716C20.977 24.1223 20.9955 23.772 21.0523 23.4268C21.3121 22.1979 22.5458 21.5389 23.7311 21.9585C23.8563 22.0063 23.9951 22.0042 24.1188 21.9527C24.616 21.6755 25.0511 21.9071 25.0569 22.4857C25.0647 23.3793 25.0569 24.2738 25.0569 25.1684C25.0569 25.8933 25.0647 26.6221 25.0569 27.3432C25.0551 27.85 24.8643 28.3379 24.5217 28.7115C24.1792 29.085 23.7096 29.3173 23.2049 29.3629C22.6935 29.405 22.1851 29.2529 21.7808 28.937C21.3765 28.6211 21.1061 28.1645 21.0233 27.6582C21.0018 27.5393 20.9953 27.4182 21.0039 27.2976C21.0036 27.2274 21.0174 27.1578 21.0444 27.093C21.0713 27.0282 21.111 26.9694 21.161 26.9201C21.211 26.8708 21.2704 26.832 21.3356 26.806C21.4008 26.7799 21.4706 26.7672 21.5408 26.7685C21.8567 26.7491 22.07 26.9061 22.1456 27.224C22.162 27.2938 22.1552 27.3684 22.1659 27.4401C22.1941 27.6581 22.303 27.8576 22.4712 27.9992C22.6393 28.1407 22.8544 28.2141 23.074 28.2048C23.2873 28.1931 23.4888 28.1031 23.6398 27.9519C23.7908 27.8008 23.8806 27.5992 23.892 27.3858C23.9056 27.0961 23.8901 26.8063 23.8901 26.4651ZM23.8901 25.3021C23.8901 24.7827 23.9046 24.3126 23.8901 23.8484C23.8875 23.7246 23.8587 23.6028 23.8054 23.4911C23.7522 23.3793 23.6758 23.2802 23.5813 23.2002C23.4867 23.1203 23.3763 23.0614 23.2573 23.0274C23.1382 22.9935 23.0133 22.9852 22.8908 23.0033C22.3588 23.0915 22.1417 23.483 22.1543 24.3339C22.162 24.8776 22.445 25.2556 22.9296 25.3031C23.2339 25.3205 23.546 25.2973 23.892 25.2973L23.8901 25.3021Z" fill="white"/>
<path d="M24.6808 4.99226C24.2282 4.99226 23.8212 4.99226 23.4141 4.99226C22.979 4.98742 22.7357 4.77517 22.7357 4.41076C22.7357 4.04636 22.979 3.83702 23.4141 3.83508C24.0925 3.83508 24.771 3.83508 25.4494 3.83508C26.1278 3.83508 26.3749 4.21499 26.0735 4.82266C25.5327 5.91588 24.9852 7.00619 24.4405 8.09747C24.3881 8.20311 24.3436 8.31263 24.2641 8.47739C24.708 8.47739 25.1111 8.47739 25.5143 8.47739C25.9572 8.47739 26.1995 8.68091 26.2073 9.04338C26.215 9.40585 25.965 9.63457 25.5056 9.63651C24.8165 9.63651 24.1274 9.64135 23.4374 9.63651C22.8317 9.63166 22.5797 9.23721 22.8462 8.69642C23.3899 7.59157 23.9452 6.49253 24.4938 5.39059C24.5548 5.27139 24.6062 5.15315 24.6808 4.99226Z" fill="white"/>
<path d="M26.7965 7.56836C26.7965 7.13417 26.7965 6.69611 26.7965 6.26483C26.8024 5.69496 27.1542 5.46139 27.6814 5.65522C27.7901 5.68817 27.9061 5.68817 28.0148 5.65522C29.1875 5.33152 30.2594 6.12914 30.2758 7.35029C30.2826 7.89303 30.2817 8.43673 30.2758 8.97946C30.271 9.39039 30.0597 9.62589 29.7079 9.63268C29.3561 9.63946 29.1264 9.39523 29.1177 8.96589C29.1128 8.44642 29.1177 7.92792 29.1177 7.40844C29.1128 6.9917 28.8735 6.73003 28.5226 6.73875C28.1718 6.74747 27.9644 7.00139 27.9605 7.40457C27.9547 7.92404 27.9605 8.44254 27.9605 8.96202C27.9605 9.39426 27.7386 9.64043 27.3742 9.63268C27.0098 9.62492 26.8053 9.38748 26.8024 8.94748C26.7927 8.48616 26.7965 8.02677 26.7965 7.56836Z" fill="white"/>
<path d="M7.07018 7.89399C7.07018 7.09831 7.06436 6.30263 7.07599 5.50791C7.08037 5.36097 7.12206 5.21756 7.19714 5.09117C7.26087 4.99807 7.35278 4.92787 7.45937 4.89089C7.56596 4.8539 7.6816 4.85209 7.7893 4.88571C7.90092 4.91324 8.00131 4.97456 8.07677 5.06129C8.15222 5.14802 8.19906 5.25594 8.21089 5.37029C8.21639 5.42114 8.21898 5.47227 8.21864 5.52342C8.21864 7.10509 8.21864 8.68807 8.21864 10.2723C8.21864 10.6125 8.07811 10.8248 7.8019 10.9052C7.72333 10.9281 7.64073 10.9338 7.55978 10.9217C7.47884 10.9096 7.40147 10.8801 7.33302 10.8353C7.26457 10.7904 7.20666 10.7312 7.16329 10.6618C7.11992 10.5924 7.09212 10.5144 7.08181 10.4332C7.07505 10.3688 7.07214 10.3041 7.07309 10.2394C7.07115 9.45758 7.07018 8.67579 7.07018 7.89399Z" fill="white"/>
</g>
<defs>
<clipPath id="clip0_1352_14211">
<rect width="32.5" height="32.5" fill="white" transform="translate(0.0999756 0.349976)"/>
</clipPath>
</defs>
</svg>
