<svg width="57" height="41" viewBox="0 0 57 41" fill="none" xmlns="http://www.w3.org/2000/svg">
<path fill-rule="evenodd" clip-rule="evenodd" d="M15.6117 12.3929C14.9741 12.7112 14.268 12.8679 13.5555 12.8494C12.8431 12.8309 12.1461 12.6377 11.5258 12.2867C10.0149 10.7631 8.81353 8.96104 7.98817 6.98032C7.0114 4.94199 5.42204 3.25986 3.44233 2.16915C2.5933 1.76233 1.03674 1.46161 0.559163 2.39908C0.081584 3.33655 2.5933 4.99924 3.76072 6.50273C4.16412 7.05775 4.51357 7.65005 4.80431 8.27154C6.29011 11.4554 7.52827 16.1958 11.5435 17.1156C10.5316 18.3015 9.91351 19.7727 9.77466 21.3254C9.36784 26.3488 8.74876 26.9856 6.52006 30.7708C4.75125 33.654 3.47771 38.1821 4.64512 40.5877H11.7204C12.4986 40.3047 11.968 38.1821 11.7204 37.8991C10.9067 37.2093 9.12021 37.4038 9.04946 36.6256C8.92564 35.3166 13.2239 31.2307 13.6837 31.0892C13.4371 32.6278 13.307 34.1829 13.2946 35.7412C13.5713 37.427 14.102 39.0611 14.8688 40.5877H21.3781C22.121 40.287 21.7318 38.0583 21.0066 37.7753C20.2814 37.4923 18.7072 37.4569 18.035 36.8025C17.8072 36.3027 17.6893 35.7598 17.6893 35.2105C17.6893 34.6613 17.8072 34.1184 18.035 33.6186C19.0609 31.4783 21.4488 30.2932 22.8992 26.5434C25.6755 28.0099 28.7813 28.7406 31.9202 28.6659C31.814 31.3014 33.176 39.0489 35.3517 40.6762H41.8786C42.533 40.3755 41.8786 38.2883 41.1534 38.0229C39.9152 37.5984 37.6158 37.3685 37.4035 35.582C37.4308 33.4144 37.6081 31.2512 37.9341 29.1081C42.5861 30.5409 45.54 38.2882 51.0764 37.3154C52.0312 37.1977 52.9768 37.0145 53.9065 36.7671C53.9949 35.3343 52.8452 33.6893 51.8724 33.6363C50.8876 33.5908 49.9271 33.3161 49.0673 32.834C48.2075 32.3519 47.4721 31.6757 46.9197 30.8593C45.5187 28.7868 44.2996 26.5972 43.2759 24.3147C44.6026 22.8487 45.3997 20.9804 45.54 19.0082C45.5703 18.2501 45.7628 17.5073 46.1046 16.8299C46.4463 16.1525 46.9293 15.5563 47.5211 15.0815C48.8123 14.3739 53.9772 18.2123 56.3651 11.5439C56.7719 10.4472 56.259 9.89885 54.7732 9.10288C53.0044 8.11235 53.2343 -0.0595537 45.4693 0.506466C45.0402 0.17799 44.515 0 43.9746 0C43.4343 0 42.909 0.17799 42.48 0.506466C40.5697 1.6385 36.979 3.93795 37.7926 5.08768C38.2579 5.63097 38.4924 6.33459 38.4462 7.04839C38.3999 7.76218 38.0765 8.42963 37.545 8.90831C36.002 10.1721 34.0554 10.8377 32.0617 10.7832C26.8968 11.3316 21.8733 9.79273 15.541 12.2867" fill="#CACACA"/>
</svg>
