<svg width="99" height="111" viewBox="0 0 99 111" fill="none" xmlns="http://www.w3.org/2000/svg">
<path d="M25.6484 91.4566L59.0705 43.7606L82.2123 77.5833L25.6484 91.4566Z" fill="url(#paint0_linear_1358_15014)"/>
<path d="M29.6647 56.9751C29.4171 56.9632 29.1686 56.952 28.9196 56.9408C27.5626 56.8796 26.1891 56.8177 24.859 56.6447C12.7141 55.0678 2.81531 45.0585 1.24907 32.8625L29.6647 56.9751ZM29.6647 56.9751C29.0633 60.7288 28.4604 64.4914 27.8566 68.2594C26.8377 74.6182 25.8164 80.9922 24.7957 87.3635L24.6725 88.133L25.3885 88.4406L25.5401 88.5057L26.2601 88.8149L26.7326 88.1897C26.7591 88.1545 26.7904 88.1139 26.8245 88.0696C26.9228 87.9421 27.0445 87.7841 27.1442 87.6386L27.1492 87.6314L27.154 87.6241C28.8785 85.0137 30.6311 82.4125 32.3865 79.8073C36.8271 73.2167 41.2856 66.5997 45.3522 59.7379L44.4919 59.2281L45.3522 59.7379C48.8187 53.8887 52.2164 47.8971 54.4064 41.2837C55.9947 36.4894 56.8649 31.5197 56.3425 26.4014C55.4746 17.8683 51.5442 10.9087 44.4386 6.08729L44.4386 6.08726C35.7411 0.186207 26.3096 -0.622015 16.8122 3.87663L16.8122 3.87663C5.64594 9.1659 -0.324687 20.638 1.24903 32.8622L29.6647 56.9751Z" fill="#FD671A" stroke="white" stroke-width="2"/>
<path d="M28.7471 49.3221C40.1102 49.3221 49.3218 40.1105 49.3218 28.7474C49.3218 17.3843 40.1102 8.17266 28.7471 8.17266C17.384 8.17266 8.17242 17.3843 8.17242 28.7474C8.17242 40.1105 17.384 49.3221 28.7471 49.3221Z" fill="white"/>
<path d="M28.7472 39.0347C34.4287 39.0347 39.0345 34.4289 39.0345 28.7474C39.0345 23.0658 34.4287 18.46 28.7472 18.46C23.0656 18.46 18.4598 23.0658 18.4598 28.7474C18.4598 34.4289 23.0656 39.0347 28.7472 39.0347Z" fill="#FD671A"/>
<defs>
<linearGradient id="paint0_linear_1358_15014" x1="25.6484" y1="91.4566" x2="53.4367" y2="71.9543" gradientUnits="userSpaceOnUse">
<stop stop-color="#858585"/>
<stop offset="1" stop-color="#C4C4C4" stop-opacity="0"/>
</linearGradient>
</defs>
</svg>
