<svg width="18" height="16" viewBox="0 0 18 16" fill="none" xmlns="http://www.w3.org/2000/svg">
<g clip-path="url(#clip0_25_4097)">
<path d="M9.05244 6.61035C10.4179 6.66578 11.3622 7.31601 11.9052 8.51612C12.2302 9.23397 12.7164 9.74284 13.4329 10.0893C14.8011 10.7506 15.4597 12.3121 15.0313 13.7744C14.8244 14.4709 14.3756 15.0732 13.7636 15.4753C13.1516 15.8775 12.4157 16.0539 11.6851 15.9734C11.3032 15.9337 10.9302 15.8342 10.5801 15.6785C9.53135 15.1979 8.51064 15.2035 7.4641 15.6863C5.87465 16.4202 4.04545 15.8238 3.25325 14.341C2.4195 12.7822 3.05394 10.8221 4.66417 10.0699C5.37833 9.73729 5.87464 9.23175 6.21207 8.53552C6.5961 7.74339 7.16654 7.11534 8.03229 6.82543C8.35624 6.71623 8.70883 6.6802 9.05244 6.61035Z" fill="#FF671D"/>
<path d="M14.2526 2.72527C14.2111 3.65654 13.868 4.64102 13.0174 5.39933C12.4296 5.92372 11.7502 6.16485 10.9693 5.8633C10.3578 5.62827 10.0148 5.14268 9.81212 4.54789C9.29278 3.02904 9.9929 1.05565 11.3247 0.284034C12.2488 -0.251442 13.2746 0.00243735 13.8338 0.905431C14.1055 1.34667 14.2638 1.95587 14.2526 2.72527Z" fill="#FF671D"/>
<path d="M3.76923 2.54957C3.79281 1.93261 3.91857 1.35279 4.26667 0.831171C4.82811 -0.000314169 5.79605 -0.242554 6.67303 0.255228C7.59605 0.779064 8.07665 1.61776 8.30123 2.61277C8.48538 3.43815 8.43878 4.24968 8.01377 5.00578C7.45737 5.99636 6.38894 6.27352 5.41595 5.6743C4.56985 5.15379 4.12462 4.35667 3.90004 3.42541C3.83098 3.14325 3.81133 2.84281 3.76923 2.54957Z" fill="#FF671D"/>
<path d="M0.0518963 6.81811C0.060318 6.20392 0.206857 5.6374 0.677349 5.20059C1.2388 4.67953 2.0529 4.61523 2.80018 5.04926C3.78889 5.62243 4.31609 6.51489 4.52102 7.60414C4.61236 8.06107 4.58317 8.53351 4.43624 8.97609C4.1033 9.9711 3.14491 10.4312 2.1562 10.0493C1.20511 9.68396 0.630748 8.94671 0.290511 8.03152C0.147342 7.64793 0.0940058 7.23219 0.000244141 6.83086L0.0518963 6.81811Z" fill="#FF671D"/>
<path d="M18.0002 6.84168C17.9076 8.10886 17.4012 9.14656 16.3018 9.85277C15.8583 10.1371 15.3625 10.2602 14.8376 10.1366C14.0931 9.96086 13.7085 9.44257 13.5463 8.73691C13.2094 7.29567 14.1639 5.45199 15.5113 4.92871C16.6488 4.48525 17.701 5.05565 17.9306 6.24467C17.9665 6.4409 17.9795 6.64157 18.0002 6.84168Z" fill="#FF671D"/>
</g>
<defs>
<clipPath id="clip0_25_4097">
<rect width="18" height="16" fill="white" transform="translate(0.000244141)"/>
</clipPath>
</defs>
</svg>
