<svg width="51" height="50" viewBox="0 0 51 50" fill="none" xmlns="http://www.w3.org/2000/svg">
<g clip-path="url(#clip0_2337_1771)">
<g clip-path="url(#clip1_2337_1771)">
<path d="M17.3044 44.5249V42.9883C18.728 42.9883 20.1543 42.9398 21.5752 43.0071C22.3085 43.0421 22.6961 42.8147 23.0553 42.1702C24.5704 39.4427 26.1434 36.7489 27.711 34.0524C27.8913 33.7429 27.9142 33.5141 27.7258 33.1899C26.0716 30.3489 24.4323 27.4999 22.8077 24.6428C22.7469 24.5099 22.6458 24.3995 22.5188 24.327C22.3919 24.2546 22.2454 24.2239 22.1 24.2391C18.8096 24.2508 15.5188 24.2508 12.2275 24.2391C11.8723 24.2391 11.6893 24.3616 11.5252 24.6563C9.89702 27.5124 8.25856 30.3624 6.60979 33.206C6.52384 33.3253 6.47759 33.4687 6.47759 33.6157C6.47759 33.7628 6.52384 33.9061 6.60979 34.0255C7.41713 35.3952 8.20698 36.7798 9.03181 38.1967L7.70104 38.9758C6.73358 37.2979 5.75132 35.6388 4.8296 33.9474C4.7085 33.724 4.81076 33.2746 4.95608 33.0243C6.68559 29.9744 8.43483 26.9356 10.2038 23.9081C10.3976 23.5744 10.4097 23.3363 10.2038 22.9999C9.39646 21.6543 8.62141 20.2737 7.81138 18.8663L9.13542 18.0872C9.8553 19.3305 10.6155 20.5375 11.2587 21.801C11.6045 22.4737 12.0055 22.6958 12.7658 22.6837C15.8713 22.6312 18.9783 22.6554 22.0838 22.6702C22.4539 22.6702 22.6463 22.5518 22.8266 22.2329C24.452 19.3758 26.0905 16.5263 27.742 13.6845C27.8238 13.5727 27.8685 13.4381 27.87 13.2996C27.8714 13.1611 27.8295 13.0256 27.75 12.9121C26.0833 10.0416 24.4287 7.16252 22.7862 4.27492C22.6194 3.98159 22.431 3.9022 22.1134 3.9022C18.8222 3.91476 15.5309 3.91476 12.2397 3.9022C11.8804 3.9022 11.7014 4.03676 11.54 4.32606C10.7582 5.71199 9.95487 7.08716 9.14484 8.49732L7.84098 7.75322C7.88864 7.6321 7.94252 7.51353 8.00245 7.39799C8.84881 5.92997 9.70863 4.47003 10.5402 2.99529C10.6378 2.79153 10.7941 2.62163 10.9891 2.50749C11.184 2.39334 11.4087 2.34016 11.6341 2.35479C15.3793 2.36466 19.124 2.36466 22.8683 2.35479C23.4065 2.35479 23.7308 2.57681 23.9918 3.02758C25.5985 5.81964 27.2212 8.59958 28.8359 11.3836C28.918 11.5262 29.0095 11.6634 29.1413 11.872L33.178 6.45071L34.42 7.39261L30.6282 12.5838H31.2754C34.3312 12.5838 37.3883 12.5932 40.4441 12.5757C41.0146 12.5757 41.3793 12.7682 41.6619 13.2701C42.5392 14.8349 43.4501 16.3797 44.3651 17.9594L43.0491 18.7277C42.9603 18.5931 42.8621 18.4397 42.7733 18.2877C42.0602 17.0538 41.3389 15.8239 40.6446 14.5779C40.4778 14.2779 40.3001 14.1541 39.9449 14.1554C36.5702 14.1698 33.1951 14.1698 29.8195 14.1554C29.4683 14.1554 29.2894 14.2752 29.1198 14.5739C27.4854 17.4445 25.8384 20.3092 24.1789 23.1681C24.103 23.2732 24.0622 23.3996 24.0622 23.5293C24.0622 23.659 24.103 23.7854 24.1789 23.8906C25.8528 26.7782 27.5168 29.6712 29.1709 32.5695C29.2199 32.6816 29.3026 32.7755 29.4076 32.8382C29.5125 32.901 29.6344 32.9293 29.7563 32.9194C33.1148 32.9086 36.4733 32.9086 39.8319 32.9194C39.9622 32.9295 40.0925 32.8985 40.2043 32.8307C40.3161 32.7628 40.4037 32.6616 40.4549 32.5413C41.2474 31.1419 42.0575 29.7519 42.8769 28.3337L44.1915 29.0778C44.1216 29.2191 44.0637 29.3469 43.9924 29.4815C43.1635 30.9199 42.3198 32.3502 41.5085 33.7994C41.2394 34.2811 40.8895 34.4803 40.3338 34.4722C37.239 34.4547 34.1549 34.4628 31.0655 34.4628H30.3927C31.8015 36.5901 33.1525 38.634 34.5129 40.6887L33.1834 41.5378L28.9933 35.1073C28.8588 35.3307 28.7484 35.511 28.6435 35.6886C27.0745 38.4039 25.4962 41.1153 23.9448 43.8414C23.6622 44.3365 23.3191 44.5639 22.7432 44.5559C21.0975 44.5317 19.4519 44.5478 17.8063 44.5465C17.6394 44.5451 17.4914 44.533 17.3044 44.5249Z" fill="white"/>
<path d="M5.52522 17.7332C3.03323 17.7332 1.00411 15.7485 0.998723 13.2928C0.995527 12.7081 1.10808 12.1284 1.3299 11.5874C1.55172 11.0463 1.87841 10.5544 2.29116 10.1402C2.70392 9.72594 3.19457 9.39745 3.73484 9.17367C4.27511 8.94989 4.85432 8.83524 5.4391 8.83631C7.89207 8.83631 9.97905 10.8802 9.98174 13.2848C9.98281 13.8699 9.86821 14.4495 9.64453 14.9902C9.42085 15.531 9.09249 16.0221 8.67835 16.4355C8.2642 16.8489 7.77243 17.1764 7.23131 17.3991C6.69019 17.6218 6.11038 17.7353 5.52522 17.7332Z" fill="white"/>
<path d="M6.93947 43.7606C6.93787 43.177 7.05164 42.5989 7.27422 42.0594C7.4968 41.52 7.82381 41.0298 8.23646 40.6172C8.64911 40.2046 9.13925 39.8775 9.6787 39.655C10.2182 39.4324 10.7963 39.3186 11.3798 39.3202C12.5568 39.3308 13.6823 39.804 14.5132 40.6377C15.3441 41.4713 15.8136 42.5984 15.8202 43.7754C15.8177 44.9523 15.3491 46.0803 14.5169 46.9125C13.6847 47.7447 12.5567 48.2133 11.3798 48.2158C10.2044 48.2004 9.0817 47.7256 8.25186 46.893C7.42202 46.0603 6.95097 44.9361 6.93947 43.7606Z" fill="white"/>
<path d="M46.5719 27.8922C45.3934 27.8887 44.264 27.4204 43.4288 26.589C42.5936 25.7576 42.1202 24.6303 42.1113 23.4519C42.12 22.2818 42.5868 21.1616 43.4115 20.3316C44.2363 19.5015 45.3534 19.0276 46.5235 19.0115C47.7028 19.0093 48.8352 19.4734 49.6738 20.3027C50.5124 21.132 50.9892 22.2591 51.0002 23.4384C51.0046 24.0224 50.8933 24.6014 50.6726 25.1421C50.452 25.6828 50.1264 26.1745 49.7146 26.5886C49.3029 27.0027 48.8131 27.3312 48.2737 27.5549C47.7343 27.7787 47.1559 27.8933 46.5719 27.8922Z" fill="white"/>
<path d="M36.4585 6.24479C36.0468 6.24412 35.6393 6.16172 35.2596 6.00238C34.88 5.84304 34.5358 5.60992 34.2469 5.31654C33.958 5.02315 33.7302 4.67535 33.5768 4.29328C33.4233 3.91121 33.3473 3.50247 33.353 3.09078C33.3657 2.26696 33.7013 1.48106 34.2877 0.902252C34.874 0.323439 35.6642 -0.00200989 36.4881 -0.00402832C37.3199 0.00696757 38.1137 0.346422 38.6962 0.940293C39.2787 1.53416 39.6028 2.33427 39.5977 3.16613C39.5868 3.98973 39.2506 4.77558 38.6625 5.3523C38.0744 5.92903 37.2822 6.24984 36.4585 6.24479Z" fill="white"/>
<path d="M36.3576 48.0543C35.5345 48.0437 34.7486 47.7098 34.1696 47.1247C33.5906 46.5397 33.2649 45.7503 33.2628 44.9272C33.2709 43.2143 34.7295 41.7785 36.4303 41.8108C36.8421 41.8177 37.2485 41.9057 37.6262 42.0698C38.0039 42.2339 38.3455 42.4709 38.6315 42.7673C38.9175 43.0636 39.1422 43.4135 39.2928 43.7968C39.4433 44.1802 39.5168 44.5894 39.5089 45.0012C39.4958 45.8239 39.1565 46.6078 38.5655 47.1803C37.9745 47.7529 37.1804 48.0672 36.3576 48.0543Z" fill="white"/>
</g>
</g>
<defs>
<clipPath id="clip0_2337_1771">
<rect width="50" height="50" fill="white" transform="matrix(-1 0 0 1 50.9988 0)"/>
</clipPath>
<clipPath id="clip1_2337_1771">
<rect width="50" height="48.2239" fill="white" transform="translate(0.998779)"/>
</clipPath>
</defs>
</svg>
