<svg width="20" height="21" viewBox="0 0 20 21" fill="none" xmlns="http://www.w3.org/2000/svg">
<path d="M0.353259 9.64455L4.96166 11.3646L6.74539 17.101C6.85953 17.4684 7.30879 17.6042 7.60699 17.3604L10.1758 15.2663C10.4451 15.0469 10.8286 15.036 11.11 15.2402L15.7432 18.604C16.0622 18.8359 16.5141 18.6611 16.5941 18.2756L19.9882 1.94955C20.0755 1.52849 19.6618 1.17722 19.2609 1.33229L0.347859 8.62835C-0.118874 8.80835 -0.114808 9.46915 0.353259 9.64455ZM6.45793 10.449L15.4645 4.90182C15.6263 4.80242 15.7929 5.02129 15.6539 5.15022L8.22086 12.0596C7.95959 12.3028 7.79106 12.6282 7.74333 12.9815L7.49013 14.8579C7.45659 15.1084 7.10466 15.1333 7.03553 14.8908L6.06173 11.4692C5.95019 11.0789 6.11273 10.662 6.45793 10.449Z" fill="white"/>
</svg>
