<svg width="20" height="12" viewBox="0 0 20 12" fill="none" xmlns="http://www.w3.org/2000/svg">
<path d="M16.5967 6.85488C16.2734 6.44821 16.3657 6.26699 16.5967 5.90344C16.6008 5.89935 19.2701 2.2249 19.5452 0.978707L19.5468 0.977888C19.6836 0.523733 19.5468 0.189941 18.886 0.189941H16.6991C16.1424 0.189941 15.8857 0.476244 15.7482 0.796936C15.7482 0.796936 14.6347 3.45199 13.0596 5.17281C12.5514 5.67009 12.3163 5.82948 12.0388 5.82948C11.9021 5.82948 11.6895 5.67009 11.6895 5.21593V0.977888C11.6895 0.433394 11.5336 0.189941 11.0728 0.189941H7.63435C7.28503 0.189941 7.07763 0.444038 7.07763 0.680667C7.07763 1.19705 7.86504 1.31577 7.94696 2.76858V5.92091C7.94696 6.6117 7.8212 6.73861 7.54202 6.73861C6.79872 6.73861 4.99432 4.07291 3.92526 1.02183C3.70937 0.429845 3.49868 0.19076 2.93785 0.19076H0.750148C0.126029 0.19076 0 0.477062 0 0.797754C0 1.36381 0.743298 4.17908 3.45676 7.89829C5.26528 10.4371 7.81189 11.8126 10.1286 11.8126C11.5213 11.8126 11.6911 11.5072 11.6911 10.9816C11.6911 8.55577 11.5654 8.32651 12.2629 8.32651C12.5862 8.32651 13.1429 8.4859 14.4429 9.71054C15.9287 11.1625 16.1731 11.8126 17.0046 11.8126H19.1915C19.8148 11.8126 20.1307 11.5072 19.949 10.9043C19.5334 9.63684 16.7232 7.02928 16.5967 6.85488Z" fill="white"/>
</svg>
