<svg width="62" height="32" viewBox="0 0 62 32" fill="none" xmlns="http://www.w3.org/2000/svg">
<g clip-path="url(#clip0_820_7622)">
<path d="M1.86922 31.9912C1.03838 31.6965 0.291766 31.2446 0.087701 30.3425C-0.0522517 29.7818 -0.0315051 29.1931 0.147604 28.6436C1.69104 24.6352 3.29441 20.6511 4.8832 16.6589C5.34639 15.496 6.25175 15.0393 7.46156 15.0393C12.5913 15.0458 17.7199 15.0458 22.8474 15.0393H54.2328C55.9366 15.0393 56.5796 15.4733 57.208 17.054C58.8048 21.0597 60.4007 25.0655 61.9954 29.0712V30.0429C61.8626 30.505 61.6146 30.9257 61.2747 31.2657C60.9347 31.6056 60.514 31.8536 60.0519 31.9864L1.86922 31.9912Z" fill="#CACACA"/>
<path d="M12.5338 13.3807C13.457 12.5577 14.5406 11.9346 15.7163 11.5506C16.1033 11.4194 16.3236 11.2591 16.437 10.8202C16.9779 8.72448 18.3497 7.40941 20.4211 6.84094C20.792 6.73729 20.9815 6.59962 21.1078 6.22388C22.2415 2.87139 24.5526 0.743297 28.0314 0.147298C31.6139 -0.466515 34.555 0.848565 36.6831 3.77835C37.1868 4.47152 37.5155 4.71122 38.4225 4.5525C42.5459 3.82694 46.1802 7.0531 46.0652 11.2413C46.0539 11.6073 46.1575 11.7741 46.4879 11.9215C47.3011 12.284 48.0499 12.7763 48.7051 13.3791L12.5338 13.3807Z" fill="#CACACA"/>
</g>
<defs>
<clipPath id="clip0_820_7622">
<rect width="62" height="31.9912" fill="white"/>
</clipPath>
</defs>
</svg>
