<svg width="20" height="21" viewBox="0 0 20 21" fill="none" xmlns="http://www.w3.org/2000/svg">
<path d="M18.9789 5.31496C18.7628 4.5117 18.1295 3.87849 17.3264 3.6622C15.8591 3.26074 9.99 3.26074 9.99 3.26074C9.99 3.26074 4.12113 3.26074 2.65388 3.64698C1.86619 3.86304 1.21742 4.51181 1.00136 5.31496C0.615234 6.78209 0.615234 9.82473 0.615234 9.82473C0.615234 9.82473 0.615234 12.8827 1.00136 14.3345C1.21765 15.1376 1.85074 15.7708 2.654 15.9871C4.13658 16.3887 9.99023 16.3887 9.99023 16.3887C9.99023 16.3887 15.8591 16.3887 17.3264 16.0025C18.1296 15.7863 18.7628 15.1531 18.9791 14.35C19.3651 12.8827 19.3651 9.84018 19.3651 9.84018C19.3651 9.84018 19.3806 6.78209 18.9789 5.31496ZM8.12141 12.6356V7.01383L13.0019 9.82473L8.12141 12.6356Z" fill="white"/>
</svg>
