<svg width="80" height="80" viewBox="0 0 80 80" fill="none" xmlns="http://www.w3.org/2000/svg">
<g clip-path="url(#clip0_971_7150)">
<path d="M40 80C62.0914 80 80 62.0914 80 40C80 17.9086 62.0914 0 40 0C17.9086 0 0 17.9086 0 40C0 62.0914 17.9086 80 40 80Z" fill="#FF671D"/>
<path d="M35.616 19.5307C36.4392 18.9643 37.3365 18.5138 38.2826 18.1921C39.3555 17.8188 40.4662 17.5648 41.5946 17.4347C43.6173 17.1559 45.6715 17.2009 47.68 17.5681C49.3816 17.9083 51.0078 18.5533 52.48 19.4721C53.328 19.3921 55.84 18.8001 57.8133 14.6294C57.8936 14.4937 57.9359 14.339 57.936 14.1814C57.8986 14.0054 57.52 13.8294 56.9173 13.6481C55.6584 13.3627 54.3668 13.2479 53.0773 13.3067C47.8346 13.3974 40.7253 14.9067 38.2666 16.3201C36.9927 16.9969 36.0393 18.1516 35.616 19.5307Z" fill="#1D1D1B"/>
<path d="M67.0134 45.5999C65.0187 44.3306 63.3494 42.4906 61.68 39.3866C60.8747 37.8826 60.3787 35.8879 59.872 33.8666C59.088 30.7199 58.272 27.5093 56.2134 25.2853C54.0214 22.9386 51.9467 21.3173 49.568 20.3626C47.1894 19.4079 44.5814 19.1359 41.3867 19.5146C40.3291 19.642 39.2884 19.8834 38.2827 20.2346C37.3557 20.5544 36.4793 21.0052 35.68 21.5733C34.9836 22.1033 34.3422 22.7018 33.7654 23.3599C33.2085 23.9929 32.5762 24.5553 31.8827 25.0346C29.3494 26.6346 22.9707 26.9119 22.9707 32.9226C23.9574 31.5199 30.512 29.6799 34.24 33.3866C31.312 34.9866 25.3227 38.8799 29.3014 41.7173C33.28 44.5546 34.6347 37.6693 35.1147 34.4319C35.344 34.7716 35.5473 35.1282 35.7227 35.4986C37.3227 38.8586 35.408 44.2826 33.7067 49.0399C32.9845 50.9219 32.3754 52.8453 31.8827 54.7999C30.5713 60.4818 30.1432 66.3317 30.6134 72.1439C30.8173 74.4979 31.197 76.8333 31.7494 79.1306C36.9451 80.2311 42.3079 80.2858 47.525 79.2917C52.742 78.2976 57.7089 76.2745 62.1358 73.3404C66.5627 70.4064 70.361 66.6201 73.3091 62.2025C76.2572 57.7849 78.296 52.8245 79.3067 47.6106C75.2214 47.0453 68.4 46.4799 67.0134 45.5999ZM38.896 28.9919C38.6192 28.994 38.348 28.9139 38.1168 28.7616C37.8856 28.6094 37.7049 28.3919 37.5975 28.1368C37.4901 27.8816 37.4609 27.6003 37.5136 27.3286C37.5663 27.0568 37.6985 26.8069 37.8935 26.6104C38.0885 26.4139 38.3375 26.2797 38.6088 26.2249C38.8802 26.1702 39.1617 26.1972 39.4176 26.3026C39.6736 26.4081 39.8924 26.5872 40.0464 26.8172C40.2005 27.0472 40.2827 27.3178 40.2827 27.5946C40.2827 27.9634 40.137 28.3172 39.8772 28.5789C39.6175 28.8407 39.2648 28.9891 38.896 28.9919Z" fill="#1D1D1B"/>
</g>
<defs>
<clipPath id="clip0_971_7150">
<rect width="80" height="80" fill="white"/>
</clipPath>
</defs>
</svg>
