<svg width="50" height="50" viewBox="0 0 50 50" fill="none" xmlns="http://www.w3.org/2000/svg">
<g clip-path="url(#clip0_145_3965)">
<path d="M15.4752 2C15.6231 2.15375 15.8179 2.28403 15.9118 2.46947C16.1852 2.99763 15.7944 3.57742 15.1501 3.59268C14.2921 3.61263 13.433 3.59268 12.568 3.59973H12.0304V9.96107H31.206C31.206 9.75333 31.206 9.54324 31.206 9.33315C31.2224 8.69702 31.51 8.40829 32.172 8.39421C32.8902 8.38247 33.6085 8.39421 34.4019 8.39421V6.80153C34.4019 6.28628 34.3902 5.76986 34.4019 5.25579C34.4137 4.74172 34.6965 4.426 35.2153 4.42013C36.7927 4.40135 38.3702 4.40135 39.9476 4.42013C40.5063 4.42013 40.7762 4.74172 40.7821 5.32973C40.7903 6.32618 40.7821 7.32499 40.7821 8.39773C41.4757 8.39773 42.14 8.39773 42.8043 8.39773C43.0064 8.39319 43.2082 8.4137 43.4052 8.45877C43.8583 8.57613 43.985 8.92823 43.9839 9.35897C43.9839 10.7956 43.9839 12.2318 43.9839 13.6676C43.9839 15.245 43.9839 16.822 43.9839 18.3987C43.9839 19.3716 43.7691 19.5899 42.8102 19.6052C42.6928 19.6052 42.5649 19.6181 42.383 19.6287V20.1451C42.383 22.2687 42.383 24.3923 42.383 26.5158C42.383 28.2282 41.4241 29.1836 39.7187 29.1883C39.2997 29.1883 38.8819 29.1883 38.3972 29.1883C38.3972 30.0334 38.3972 30.8397 38.3972 31.6448C38.4053 31.9254 38.3939 32.2062 38.3631 32.4852C38.3458 32.6825 38.2533 32.8657 38.1048 32.9967C37.9562 33.1278 37.763 33.1968 37.565 33.1894C37.3663 33.186 37.1768 33.1048 37.0372 32.9633C36.8976 32.8217 36.8191 32.6311 36.8186 32.4324C36.788 31.5744 36.8009 30.7153 36.7963 29.8573C36.7963 29.6566 36.7963 29.4559 36.7963 29.1907C36.2916 29.1907 35.8303 29.1907 35.3691 29.1907C33.7869 29.1801 32.8057 28.1989 32.801 26.6086C32.801 24.4701 32.801 22.3305 32.801 20.192V19.7226C32.3316 19.5958 31.7753 19.6052 31.4854 19.3282C31.1955 19.0512 31.2119 18.5231 31.0652 18.0043H30.5851C23.1831 18.0043 15.7803 18.0043 8.37676 18.0043C6.95543 18.0043 5.74184 17.5759 4.84397 16.4245C4.22075 15.6264 4.00011 14.7086 4.00245 13.7098C4.01184 10.5409 4.00245 7.37194 4.00245 4.203V3.59855H0.876956C0.454431 3.59855 0.150428 3.40724 0.0354075 2.99175C-0.0972184 2.50937 0.210281 2.24061 0.558864 2.00352L15.4752 2ZM5.61626 3.61851V4.08798C5.61626 7.28978 5.61626 10.4912 5.61626 13.6922C5.61626 15.4292 6.57163 16.3917 8.3075 16.3917C15.7737 16.3917 23.2395 16.3917 30.7049 16.3917C30.868 16.3917 31.03 16.3717 31.1837 16.3611V11.5843H11.5328C10.6584 11.5843 10.4119 11.339 10.4119 10.4775C10.4119 8.35469 10.4119 6.23111 10.4119 4.10675V3.61264L5.61626 3.61851ZM32.8456 10.0127V17.9703H42.3595V10.0127H32.8456ZM40.7727 23.564V19.6275H34.4465V23.564H40.7727ZM34.4231 25.2166C34.4231 25.7811 34.3914 26.3257 34.4325 26.8597C34.4665 27.3069 34.7705 27.5698 35.2176 27.5733C36.8092 27.5858 38.4007 27.5858 39.9922 27.5733C40.4417 27.5733 40.7586 27.2869 40.7809 26.8691C40.8114 26.328 40.7879 25.7835 40.7879 25.2142L34.4231 25.2166ZM39.18 6.04215H36.0345V8.36252H39.18V6.04215Z" fill="#FF671D"/>
<path d="M48.0012 44.3582C47.7242 45.1458 47.5576 45.9955 47.1515 46.7056C45.9355 48.8417 44.0389 49.9367 41.5765 49.9719C39.3125 50.0036 37.0473 49.979 34.7821 49.979C25.3785 49.979 15.9754 49.979 6.57264 49.979C3.39079 49.979 0.86739 47.9837 0.15614 44.9322C-0.706515 41.228 2.11853 37.4382 5.90717 37.2187C6.3117 37.1945 6.71742 37.1823 7.12429 37.1823C18.48 37.1823 29.8358 37.18 41.1915 37.1753C42.965 37.1753 44.5518 37.6354 45.8792 38.8419C46.9762 39.8168 47.6958 41.1461 47.912 42.5977C47.9333 42.6883 47.9619 42.777 47.9977 42.863L48.0012 44.3582ZM24.0288 38.7938H6.87546C6.61021 38.7938 6.34495 38.8008 6.0797 38.8173C3.66896 38.9628 1.6972 40.9921 1.61152 43.4134C1.51293 46.1798 3.72413 48.3875 6.61726 48.3886C18.2085 48.3886 29.7998 48.3886 41.3911 48.3886C42.347 48.3964 43.2872 48.1449 44.1116 47.661C46.5001 46.276 47.1409 42.8207 45.4027 40.6846C44.3464 39.3818 42.9919 38.7797 41.3195 38.7844C35.5567 38.7938 29.7927 38.7938 24.0288 38.7938Z" fill="#FF671D"/>
<path d="M27.1942 43.5964C27.1872 45.3428 25.7248 46.797 23.9912 46.7829C23.1461 46.7709 22.3394 46.4273 21.7451 45.8262C21.1508 45.2251 20.8165 44.4146 20.8141 43.5694C20.8197 42.7245 21.1602 41.9164 21.7609 41.3223C22.3616 40.7282 23.1734 40.3967 24.0182 40.4004C24.8631 40.4035 25.6721 40.7419 26.2676 41.3411C26.8631 41.9404 27.1964 42.7515 27.1942 43.5964ZM25.598 43.6034C25.6043 43.1852 25.4447 42.7815 25.1542 42.4806C24.8636 42.1797 24.4658 42.0061 24.0476 41.9978C23.8366 41.9906 23.6263 42.0257 23.4291 42.101C23.2319 42.1763 23.0517 42.2903 22.8992 42.4364C22.7468 42.5824 22.6251 42.7574 22.5413 42.9512C22.4575 43.145 22.4134 43.3536 22.4115 43.5647C22.4102 43.9908 22.5774 44.4001 22.8766 44.7035C23.1758 45.0069 23.5828 45.1797 24.0088 45.1843C24.4266 45.1778 24.8255 45.0097 25.122 44.7154C25.4185 44.4211 25.5895 44.0234 25.5992 43.6057L25.598 43.6034Z" fill="#FF671D"/>
<path d="M11.1945 43.5788C11.1913 44.4216 10.8575 45.2295 10.2649 45.8288C9.67235 46.4282 8.86832 46.7712 8.0256 46.7841C6.28503 46.7993 4.78507 45.2982 4.80737 43.5647C4.81908 42.721 5.16216 41.9157 5.76254 41.3228C6.36291 40.7299 7.1724 40.3969 8.0162 40.3958C8.85938 40.3976 9.66743 40.7337 10.2632 41.3304C10.859 41.927 11.1939 42.7356 11.1945 43.5788ZM7.9939 41.9978C7.57603 42.0021 7.17643 42.1698 6.88071 42.4651C6.585 42.7604 6.41667 43.1597 6.41179 43.5776C6.4182 44.0037 6.59096 44.4104 6.89315 44.7108C7.19534 45.0112 7.60302 45.1816 8.02912 45.1855C8.24018 45.1813 8.4483 45.1353 8.64152 45.0503C8.83474 44.9653 9.00924 44.8429 9.15498 44.6902C9.30071 44.5375 9.41483 44.3574 9.49072 44.1605C9.5666 43.9635 9.60276 43.7534 9.59714 43.5424C9.59425 43.3354 9.55037 43.1311 9.46805 42.9411C9.38573 42.7512 9.2666 42.5795 9.11753 42.4359C8.96845 42.2923 8.7924 42.1796 8.59954 42.1044C8.40668 42.0292 8.20085 41.993 7.9939 41.9978Z" fill="#FF671D"/>
<path d="M12.819 43.5693C12.8233 42.7268 13.1613 41.9202 13.759 41.3263C14.3567 40.7324 15.1653 40.3995 16.0079 40.4004C16.8501 40.4043 17.6571 40.7384 18.2556 41.331C18.8541 41.9235 19.1962 42.7272 19.2085 43.5693C19.2191 45.3111 17.7167 46.8064 15.9809 46.7805C15.1384 46.7658 14.3352 46.4212 13.744 45.8208C13.1528 45.2203 12.8207 44.412 12.819 43.5693ZM14.4199 43.5787C14.4191 43.7897 14.4601 43.9987 14.5404 44.1938C14.6207 44.3889 14.7389 44.5661 14.888 44.7154C15.0371 44.8646 15.2143 44.9829 15.4093 45.0633C15.6043 45.1438 15.8133 45.1849 16.0243 45.1843C16.4422 45.1723 16.8395 45 17.1338 44.7031C17.4282 44.4061 17.597 44.0073 17.6052 43.5893C17.6043 43.3783 17.5617 43.1696 17.4798 42.9752C17.3979 42.7807 17.2783 42.6044 17.128 42.4564C16.9777 42.3084 16.7995 42.1915 16.6039 42.1126C16.4082 42.0337 16.1989 41.9943 15.9879 41.9966C15.7809 41.9969 15.576 42.0381 15.3849 42.1179C15.1939 42.1977 15.0206 42.3145 14.8748 42.4615C14.7291 42.6086 14.6139 42.783 14.5358 42.9747C14.4577 43.1664 14.4183 43.3717 14.4199 43.5787Z" fill="#FF671D"/>
<path d="M35.1869 43.5166C35.2386 45.2665 33.8067 46.75 32.0344 46.7829C30.3162 46.8158 28.8561 45.3898 28.8033 43.6257C28.7505 41.9145 30.1894 40.4392 31.9487 40.4004C32.3663 40.3912 32.7815 40.4647 33.1706 40.6165C33.5596 40.7684 33.9148 40.9956 34.2157 41.2852C34.5167 41.5748 34.7574 41.921 34.9241 42.3039C35.0907 42.6869 35.1801 43.099 35.1869 43.5166ZM33.5907 43.5635C33.5901 43.3564 33.5486 43.1515 33.4685 42.9605C33.3885 42.7696 33.2715 42.5963 33.1242 42.4507C32.977 42.3051 32.8024 42.19 32.6105 42.1121C32.4187 42.0342 32.2133 41.9949 32.0063 41.9966C31.7957 41.9969 31.5873 42.0389 31.393 42.12C31.1987 42.2012 31.0223 42.3199 30.8741 42.4695C30.7259 42.619 30.6086 42.7964 30.5292 42.9914C30.4498 43.1864 30.4097 43.3952 30.4112 43.6058C30.4229 44.0238 30.5951 44.4212 30.8922 44.7156C31.1892 45.01 31.5881 45.1787 32.0063 45.1867C32.2169 45.1842 32.425 45.1403 32.6187 45.0574C32.8123 44.9745 32.9877 44.8542 33.1349 44.7035C33.282 44.5527 33.398 44.3744 33.4762 44.1788C33.5545 43.9832 33.5934 43.7741 33.5907 43.5635Z" fill="#FF671D"/>
<path d="M36.8183 43.5155C36.8257 43.0941 36.917 42.6785 37.0869 42.2929C37.2569 41.9072 37.502 41.5594 37.8081 41.2696C38.1141 40.9799 38.4748 40.7541 38.8691 40.6055C39.2635 40.4569 39.6835 40.3884 40.1046 40.404C41.8475 40.4698 43.2559 41.9298 43.202 43.6281C43.1456 45.3887 41.6856 46.817 39.9673 46.783C38.195 46.7478 36.7655 45.2654 36.8183 43.5155ZM38.4169 43.5988C38.4202 44.0168 38.587 44.4169 38.8816 44.7135C39.1762 45.01 39.5752 45.1795 39.9931 45.1856C40.4192 45.1795 40.826 45.0071 41.1267 44.7051C41.4273 44.4031 41.598 43.9956 41.6022 43.5695C41.5984 43.3581 41.5528 43.1496 41.468 42.956C41.3832 42.7623 41.2609 42.5874 41.1081 42.4413C40.9554 42.2952 40.7752 42.1808 40.5779 42.1047C40.3807 42.0286 40.1704 41.9923 39.9591 41.9979C39.7525 42.001 39.5485 42.0449 39.3589 42.1271C39.1693 42.2094 38.9979 42.3283 38.8546 42.4772C38.7112 42.626 38.5987 42.8017 38.5236 42.9942C38.4485 43.1867 38.4122 43.3922 38.4169 43.5988Z" fill="#FF671D"/>
</g>
<defs>
<clipPath id="clip0_145_3965">
<rect width="48" height="47.9906" fill="white" transform="translate(0 2)"/>
</clipPath>
</defs>
</svg>
