<svg width="51" height="50" viewBox="0 0 51 50" fill="none" xmlns="http://www.w3.org/2000/svg">
<g clip-path="url(#clip0_145_3931)">
<g clip-path="url(#clip1_145_3931)">
<path d="M6.65 23.47H8.52V14H6.65V17.9H1.87V14H0V23.47H1.87V19.57H6.65V23.47Z" fill="#FF671D"/>
<path d="M11.12 22.22L11.3399 22.44C12.1327 23.2027 13.1899 23.6291 14.29 23.63C15.4089 23.6406 16.4869 23.2094 17.29 22.43C18.0519 21.5588 18.4463 20.426 18.39 19.27V14H16.52V19.27C16.52 20.89 15.7 21.89 14.37 21.89C13.04 21.89 12.17 20.89 12.17 19.31V14H10.38V19.22C10.3221 20.2973 10.6481 21.3603 11.3 22.22H11.12Z" fill="#FF671D"/>
<path d="M22.1 17.87L25.23 21.97H25.68L28.81 17.87V23.47H30.7V14H29.57L25.47 19.51L21.34 14H20.23V23.47H22.1V17.87Z" fill="#FF671D"/>
<path d="M36.9501 14H35.78L31.29 23.47H33.29L34.1801 21.47H38.72L39.6201 23.47H41.4501L36.98 14.07L36.9501 14ZM37.9501 19.9H34.9501L36.4501 16.68L37.9501 19.9Z" fill="#FF671D"/>
<path d="M48.36 14V19.85L43 14.04L42.97 14H42.22V23.47H44.09V17.72L49.49 23.47H50.23V14H48.36Z" fill="#FF671D"/>
<path d="M7.66 32.22H10.47C10.3268 32.7864 9.9997 33.2894 9.54001 33.65C9.00744 34.0652 8.34474 34.2779 7.67001 34.25C7.25896 34.2623 6.84996 34.1873 6.47 34.03C6.09568 33.8795 5.75556 33.655 5.47 33.37C4.8711 32.7626 4.53679 31.943 4.54001 31.09C4.53679 30.237 4.8711 29.4174 5.47 28.81C5.75568 28.5227 6.09559 28.2949 6.47 28.14C6.85618 27.9791 7.27177 27.9008 7.69003 27.91C8.16747 27.8908 8.64377 27.9691 9.08999 28.14C9.53095 28.315 9.93228 28.5769 10.27 28.91H10.48L11.48 27.63L11.4001 27.56C10.3893 26.6316 9.06238 26.1237 7.69003 26.14C7.03016 26.1216 6.37321 26.2341 5.75705 26.471C5.14088 26.7079 4.57768 27.0644 4.1 27.52C3.6078 27.9677 3.21887 28.5171 2.96005 29.13C2.71038 29.742 2.59113 30.3993 2.61001 31.06C2.5888 31.7153 2.71167 32.3673 2.97 32.97C3.21946 33.5772 3.60222 34.1206 4.08999 34.56C5.02002 35.4461 6.25543 35.9403 7.54001 35.94H7.67001C8.29678 35.9523 8.91949 35.8366 9.50003 35.6C10.0814 35.3797 10.6096 35.0389 11.05 34.6C11.4929 34.1397 11.8337 33.591 12.05 32.99C12.2894 32.3895 12.4017 31.746 12.38 31.1V30.62H7.57003L7.66 32.22Z" fill="#FF671D"/>
<path d="M26.62 26.3H25.43L21.16 35.37L18.21 32.27C18.837 32.1174 19.3981 31.7668 19.81 31.27C20.2783 30.728 20.5372 30.0363 20.54 29.32C20.558 28.8926 20.4722 28.4671 20.29 28.08C20.1126 27.687 19.8413 27.3435 19.5 27.08C18.7088 26.489 17.7364 26.192 16.75 26.24H13.65V35.73H15.47V32.39H16.07L19.14 35.69H22.87L23.76 33.74H28.26L29.16 35.69H31.16L26.69 26.27L26.62 26.3ZM27.51 32.22H24.51L26.01 29L27.51 32.22ZM18.69 29.4C18.69 30.31 17.89 30.9 16.69 30.9H15.5V27.97H16.69C17.93 27.97 18.69 28.51 18.69 29.4Z" fill="#FF671D"/>
<path d="M38.99 27.62C38.5415 27.1816 38.0069 26.8411 37.42 26.62C36.8347 26.3912 36.2077 26.289 35.58 26.32H31.75V35.81H35.75C36.3071 35.8102 36.8595 35.7085 37.38 35.51C37.9611 35.2833 38.4913 34.9433 38.94 34.51C39.3763 34.0522 39.7163 33.5115 39.94 32.92C40.1601 32.3326 40.2587 31.7066 40.23 31.08C40.2595 30.4501 40.1609 29.8207 39.94 29.23C39.7334 28.6356 39.4104 28.0883 38.99 27.62ZM38.4 31.07C38.4393 31.8744 38.1589 32.6616 37.62 33.26C37.3582 33.536 37.0414 33.7541 36.69 33.9C36.3418 34.0435 35.9661 34.1084 35.59 34.09H33.59V28.03H35.59C35.9671 28.011 36.3437 28.0795 36.69 28.23C37.0405 28.3675 37.3551 28.5829 37.61 28.86C38.1491 29.4669 38.4322 30.2589 38.4 31.07Z" fill="#FF671D"/>
<path d="M47.45 28.01L47.4 26.3H41.58V35.79H47.4V34.08H43.51V31.93H47.21V30.32H43.54V28.01H47.45Z" fill="#FF671D"/>
</g>
</g>
<defs>
<clipPath id="clip0_145_3931">
<rect width="50" height="50" fill="white" transform="translate(0.25)"/>
</clipPath>
<clipPath id="clip1_145_3931">
<rect width="50.23" height="21.95" fill="white" transform="translate(0 14)"/>
</clipPath>
</defs>
</svg>
