<svg width="654" height="416" viewBox="0 0 654 416" fill="none" xmlns="http://www.w3.org/2000/svg">
<mask id="mask0_1535_11703" style="mask-type:alpha" maskUnits="userSpaceOnUse" x="0" y="0" width="654" height="416">
<rect width="654" height="416" rx="200" fill="#F3F3F3"/>
</mask>
<g mask="url(#mask0_1535_11703)">
<path d="M262.179 415.091L-363.217 -179.439H-266.994C-42.7937 60.9176 133.597 259.094 262.179 415.091Z" fill="white" fill-opacity="0.35"/>
<path d="M262.178 415.091C154.335 245.492 10.0143 47.3148 -170.784 -179.439H-74.5976C64.357 36.201 176.616 234.378 262.178 415.091Z" fill="white" fill-opacity="0.35"/>
<path d="M262.179 415.091C200.164 225.888 119.989 27.7111 21.6512 -179.439H117.837C176.474 21.9877 224.588 220.165 262.179 415.091Z" fill="white" fill-opacity="0.35"/>
<path d="M262.178 415.091C249.595 217.279 233.56 19.1023 214.073 -179.439H310.296C290.792 19.0944 274.753 217.271 262.178 415.091Z" fill="white" fill-opacity="0.35"/>
<path d="M262.179 415.091C299.761 220.173 347.87 21.9957 406.508 -179.439H502.719C404.365 27.719 324.185 225.896 262.179 415.091Z" fill="white" fill-opacity="0.35"/>
<path d="M262.179 415.091C347.741 234.354 459.991 36.1772 598.929 -179.439H695.153C514.338 47.3227 370.014 245.5 262.179 415.091Z" fill="white" fill-opacity="0.35"/>
<path d="M262.179 415.091C390.743 259.094 567.139 60.9176 791.364 -179.439H887.575L262.179 415.091Z" fill="white" fill-opacity="0.35"/>
<path d="M262.179 415.091C426.283 292.88 634.748 125.194 887.575 -87.9648V3.49777C649.032 175.373 440.567 312.57 262.179 415.091Z" fill="white" fill-opacity="0.35"/>
<path d="M262.179 415.091C452.299 333.76 660.764 227.049 887.575 94.9604V186.435C669.662 279.895 461.196 356.114 262.179 415.091Z" fill="white" fill-opacity="0.35"/>
<path d="M262.179 415.091C467.217 379.372 675.682 333.633 887.575 277.874V369.336C678.717 387.878 470.252 403.129 262.179 415.091Z" fill="white" fill-opacity="0.35"/>
<path d="M262.179 415.091C470.277 427.069 678.742 442.317 887.575 460.834V552.297C675.691 496.554 467.225 450.819 262.179 415.091Z" fill="white" fill-opacity="0.35"/>
<path d="M262.179 415.091C461.205 474.053 669.67 550.276 887.575 643.76V735.222C660.764 603.133 452.299 496.423 262.179 415.091Z" fill="white" fill-opacity="0.35"/>
<path d="M262.179 415.091C440.575 517.628 649.04 654.83 887.575 826.697V918.159C634.74 705.008 426.274 537.319 262.179 415.091Z" fill="white" fill-opacity="0.35"/>
<path d="M262.179 415.091L887.575 1009.62H791.339C567.122 769.281 390.735 571.104 262.179 415.091Z" fill="white" fill-opacity="0.35"/>
<path d="M262.179 415.091C370.03 584.683 514.355 782.86 695.153 1009.62H598.904C459.966 793.989 347.725 595.813 262.179 415.091Z" fill="white" fill-opacity="0.35"/>
<path d="M262.179 415.091C324.201 604.295 404.381 802.471 502.719 1009.62H406.483C347.845 808.211 299.744 610.034 262.179 415.091Z" fill="white" fill-opacity="0.35"/>
<path d="M262.179 415.091C274.778 612.911 290.818 811.088 310.297 1009.62H214.048C233.535 811.088 249.579 612.911 262.179 415.091Z" fill="white" fill-opacity="0.35"/>
<path d="M262.178 415.091C224.605 610.026 176.499 808.203 117.862 1009.62H21.626C119.963 802.479 200.147 604.303 262.178 415.091Z" fill="white" fill-opacity="0.35"/>
<path d="M262.179 415.091C176.624 595.829 64.3742 794.005 -74.5721 1009.62H-170.808C9.99809 782.868 154.327 584.691 262.179 415.091Z" fill="white" fill-opacity="0.35"/>
<path d="M262.179 415.091C133.622 571.096 -42.7687 769.273 -266.994 1009.62H-363.217L262.179 415.091Z" fill="white" fill-opacity="0.35"/>
<path d="M262.179 415.091C98.0746 537.319 -110.391 705.008 -363.217 918.159V826.697C-124.733 654.822 83.7322 517.62 262.179 415.091Z" fill="white" fill-opacity="0.35"/>
<path d="M262.179 415.091C72.0582 496.423 -136.407 603.133 -363.217 735.222V643.76C-145.321 550.276 63.1442 474.053 262.179 415.091Z" fill="white" fill-opacity="0.35"/>
<path d="M262.179 415.091C57.1404 450.819 -151.325 496.554 -363.217 552.297V460.834C-154.394 442.309 54.0717 427.061 262.179 415.091Z" fill="white" fill-opacity="0.35"/>
<path d="M262.179 415.091C54.0968 403.129 -154.369 387.885 -363.217 369.36V277.874C-151.35 333.633 57.1154 379.372 262.179 415.091Z" fill="white" fill-opacity="0.35"/>
<path d="M262.179 415.091C63.1358 356.114 -145.329 279.895 -363.217 186.435V94.9604C-136.407 227.049 72.0582 333.76 262.179 415.091Z" fill="white" fill-opacity="0.35"/>
<path d="M262.179 415.091C83.7322 312.57 -124.733 175.373 -363.217 3.49777V-87.9648C-110.399 125.186 98.0663 292.872 262.179 415.091Z" fill="white" fill-opacity="0.35"/>
</g>
</svg>
