<svg width="50" height="50" viewBox="0 0 50 50" fill="none" xmlns="http://www.w3.org/2000/svg">
<g clip-path="url(#clip0_2337_1823)">
<path d="M14.7192 50C13.5907 49.7769 12.4243 49.6673 11.3375 49.3137C5.28258 47.3437 1.46121 43.2405 0.2831 36.9794C-1.15986 29.3145 3.0229 22.1375 10.329 19.3103C10.419 19.2751 10.5065 19.2333 10.5534 19.2125C10.1164 18.1687 9.61537 17.1641 9.26833 16.1087C8.3094 13.1888 8.23895 10.1881 8.72689 7.18346C8.96826 5.69744 9.37923 4.23622 9.75889 2.7776C9.93763 2.09526 10.4399 1.82911 11.0636 2.04438C15.3142 3.50952 19.0533 5.7418 21.8492 9.35051C22.8144 10.6029 23.5567 12.012 24.0437 13.5163C24.0867 13.6468 24.1454 13.7772 24.225 13.9834C24.4116 13.5072 24.5629 13.1053 24.7286 12.7087C26.2577 9.05565 28.8566 6.31585 32.1248 4.17098C35.1025 2.23441 38.398 0.837103 41.8602 0.0430226C42.5438 -0.118756 43.0174 0.129129 43.1648 0.787985C44.386 6.38761 44.4265 11.9233 42.1668 17.309C41.7754 18.234 41.2535 19.1016 40.7721 20.037C40.8765 20.0996 41.0239 20.191 41.1726 20.2771C45.8459 22.9856 48.6092 27.0039 49.2798 32.3648C50.2948 40.5385 44.5126 48.2961 36.4354 49.7169C35.8444 49.8199 35.2494 49.9034 34.6571 49.9974H32.3087C32.2183 49.9634 32.1248 49.938 32.0295 49.9217C29.5135 49.7034 27.0894 48.871 24.97 47.4976C24.7351 47.3463 24.5786 47.3802 24.3646 47.5185C23.005 48.4092 21.5056 49.0655 19.9288 49.4598C18.9881 49.6908 18.0226 49.8212 17.0676 49.9974L14.7192 50ZM29.7712 34.1626C29.7691 30.4813 28.3063 26.9511 25.7039 24.3473C23.1015 21.7434 19.5722 20.2786 15.8908 20.2745C8.21677 20.2471 1.94133 26.4873 1.93089 34.1483C1.93089 41.7793 8.17241 48.0286 15.823 48.0456C23.5101 48.0625 29.7685 41.8275 29.7712 34.1626ZM26.3855 46.0351C31.0393 49.0619 38.7694 49.028 43.8107 43.4688C48.788 37.9801 48.617 29.7411 43.4532 24.4533C38.2436 19.1185 30.6192 19.4499 26.4077 22.268C33.5586 28.5056 33.4373 39.8523 26.3921 46.039L26.3855 46.0351ZM25.0209 20.7572C26.5866 19.7831 28.3022 19.0739 30.0986 18.658C30.2526 18.6215 30.4078 18.4401 30.49 18.2875C31.1867 17.0572 31.8651 15.8164 32.5553 14.5822C32.9063 13.9521 33.4386 13.7459 33.9604 14.0238C34.5045 14.3148 34.6128 14.8771 34.2527 15.5424C34.0035 15.9991 33.7465 16.4557 33.496 16.9071C33.2455 17.3585 33.0067 17.8047 32.7132 18.3423C34.8094 18.2346 36.9064 18.5409 38.8842 19.2438C42.3625 13.9286 42.4147 8.13977 41.4936 2.15266C41.0956 2.26617 40.7812 2.34576 40.472 2.44491C36.6715 3.66738 33.1463 5.38954 30.2134 8.16717C26.6308 11.5593 25.24 15.8647 25.0209 20.7611V20.7572ZM17.2725 18.2783C17.2725 18.2718 17.2829 18.2522 17.2725 18.2405C16.8054 17.3116 16.3331 16.3853 15.8686 15.455C15.562 14.8405 15.6951 14.2965 16.2052 14.0199C16.7154 13.7433 17.2829 13.9495 17.6077 14.5731C18.0813 15.4863 18.611 16.367 18.992 17.3129C19.4173 18.3697 20.0501 19.0468 21.2165 19.2542C21.7879 19.356 22.3202 19.6795 22.8838 19.9066C22.898 19.8451 22.908 19.7828 22.9138 19.72C22.9138 19.3612 22.9256 19.0037 22.9138 18.6462C22.8447 15.4472 21.9914 12.5143 19.8961 10.0355C17.6286 7.34524 14.7257 5.56828 11.4967 4.27536C11.4423 4.26654 11.3868 4.26654 11.3323 4.27536C10.8483 5.91233 10.5537 7.59942 10.4543 9.30354C10.2716 12.3043 10.633 15.2111 12.1503 17.8843C12.5809 18.6423 12.577 18.6423 13.4028 18.4975C13.5321 18.4725 13.6628 18.4556 13.7942 18.4466C14.9488 18.3944 16.0996 18.3436 17.2725 18.2849V18.2783Z" fill="white"/>
<path d="M12.3968 32.4196C12.4347 31.8416 12.5273 31.2585 12.4973 30.6844C12.4386 29.7829 11.9963 29.0431 11.2905 28.4821C10.886 28.1599 10.6381 27.7972 10.8104 27.2662C10.9826 26.7352 11.3922 26.6139 11.8815 26.5838C13.3636 26.4834 14.3603 25.7162 14.9044 24.3463C15.0844 23.8923 15.3715 23.6079 15.8803 23.617C16.3669 23.6249 16.6409 23.9067 16.8131 24.3398C17.3624 25.7293 18.3787 26.4977 19.8804 26.5865C20.3788 26.6165 20.7715 26.7978 20.9241 27.3066C21.0702 27.7959 20.8406 28.1416 20.4714 28.4456C19.3468 29.3758 18.9554 30.567 19.3115 31.9786C19.4329 32.4653 19.412 32.8919 18.988 33.2024C18.564 33.5129 18.1491 33.4112 17.7238 33.1463C16.4726 32.3635 15.2084 32.374 13.9624 33.1659C13.5893 33.4033 13.1914 33.5286 12.8287 33.2533C12.5808 33.0667 12.4373 32.7484 12.2416 32.4901L12.3968 32.4196ZM13.7863 28.2447L14.5861 30.687H17.1288C17.4041 29.8507 17.6781 29.0144 17.9299 28.2447L15.8594 26.7365L13.7863 28.2447Z" fill="white"/>
<path d="M44.0051 34.7249C43.9137 34.8619 43.7859 35.1751 43.5576 35.3695C42.3834 36.3636 41.962 37.5796 42.3625 39.0747C42.4825 39.5196 42.4029 39.9253 42.005 40.2032C41.6071 40.4811 41.2157 40.4263 40.8217 40.1719C39.5444 39.3474 38.2567 39.3409 36.9768 40.1615C36.5646 40.4224 36.1523 40.4877 35.7531 40.185C35.376 39.9006 35.3016 39.5144 35.4217 39.0525C35.8 37.5874 35.4217 36.3558 34.2344 35.3916C33.8756 35.1007 33.6786 34.7497 33.83 34.2827C33.9813 33.8156 34.3388 33.6108 34.8307 33.5821C36.301 33.496 37.3474 32.7836 37.8979 31.4059C38.0845 30.9414 38.3546 30.597 38.8777 30.5944C39.4009 30.5918 39.6788 30.9114 39.868 31.3837C40.4264 32.7745 41.4779 33.4986 42.9718 33.5873C43.5732 33.6238 43.9855 34.0074 44.0051 34.7249ZM37.6122 37.6774H40.2294C40.3181 37.286 40.3833 36.8516 40.5177 36.4406C40.6521 36.0296 40.8647 35.6095 41.0096 35.2664L38.8947 33.719L36.8072 35.2272C37.0695 36.0166 37.3434 36.8542 37.6122 37.6774Z" fill="white"/>
<path d="M13.7864 28.2487L15.8621 26.7405L17.9326 28.2487C17.6808 29.0184 17.4107 29.8547 17.1315 30.691H14.5861L13.7864 28.2487Z" fill="white"/>
<path d="M37.6123 37.6774C37.3435 36.8541 37.0695 36.0165 36.8125 35.2324L38.9 33.7242L41.0044 35.2716C40.8596 35.6095 40.6521 36.0139 40.5125 36.4458C40.3729 36.8776 40.3129 37.2925 40.2242 37.6826L37.6123 37.6774Z" fill="white"/>
</g>
<defs>
<clipPath id="clip0_2337_1823">
<rect width="49.3868" height="50" fill="white"/>
</clipPath>
</defs>
</svg>
