<svg width="36" height="36" viewBox="0 0 36 36" fill="none" xmlns="http://www.w3.org/2000/svg">
<g clip-path="url(#clip0_1913_13574)">
<path d="M27.6985 30.8193L29.1058 32.2266C26.4663 34.2808 23.3032 35.5528 19.9764 35.898C16.6495 36.2431 13.2926 35.6476 10.2876 34.1791C7.28255 32.7106 4.75001 30.428 2.97817 27.5912C1.20633 24.7544 0.266321 21.4772 0.265076 18.1326C0.267351 16.342 0.535397 14.5617 1.06051 12.8499L2.05999 13.8493L2.67186 14.4C2.38402 15.6232 2.24029 16.8759 2.24355 18.1326C2.24316 22.0081 3.65741 25.7506 6.22085 28.6572L11.5444 23.3337L12.9313 24.7207L7.58745 30.0442C10.3352 32.4665 13.8346 33.8664 17.4948 34.0077C21.1551 34.1489 24.752 33.0226 27.6781 30.8193H27.6985Z" fill="#1D1D1B"/>
<path d="M6.54729 8.70932L9.89236 9.89236L8.72974 6.54729C7.92595 4.54581 6.4267 2.90175 4.50763 1.91729L0 0L1.91729 4.50763C2.89665 6.42591 4.54324 7.92018 6.54729 8.70932Z" fill="#1D1D1B"/>
<path d="M11.8709 12.6868C10.2352 11.1815 8.13334 10.2817 5.9151 10.1372H0.673157L3.22273 12.6868C4.86574 14.1777 6.96479 15.0691 9.17857 15.2159H14.4205L11.8709 12.6868Z" fill="#1D1D1B"/>
<path d="M27.7193 26.8501L26.9116 27.6577L34.7142 35.4603L35.5219 34.6527L27.7193 26.8501Z" fill="#1D1D1B"/>
<path d="M16.3579 6.89404V12.1563C16.5073 14.3734 17.4064 16.4738 18.9075 18.1122L21.4571 20.6617V15.3586C21.3112 13.1467 20.4113 11.0517 18.9075 9.4232L16.3579 6.89404Z" fill="#1D1D1B"/>
<path d="M13.1355 22.5994L15.7463 25.1489C17.3893 26.6399 19.4883 27.5313 21.7021 27.6782H26.944L24.3944 25.1489C22.7587 23.6436 20.6569 22.7439 18.4386 22.5994H13.1355Z" fill="#1D1D1B"/>
<path d="M27.6987 26.8828V21.6408C27.5446 19.4249 26.6461 17.3261 25.1491 15.6851L22.5995 13.1355V18.3774C22.7441 20.5957 23.6438 22.6975 25.1491 24.3332L27.6987 26.8828Z" fill="#1D1D1B"/>
<path d="M18.1327 0.265137C16.3421 0.267412 14.5618 0.535458 12.8499 1.06057L13.8494 2.06005C14.0538 2.24421 14.2384 2.44927 14.4001 2.67192C15.6233 2.38409 16.8761 2.24035 18.1327 2.24361C22.0082 2.24322 25.7506 3.65747 28.6573 6.22091L23.3338 11.524L24.7208 12.9314L30.0239 7.60793C32.4421 10.3568 33.8411 13.8538 33.9859 17.5121C34.1308 21.1704 33.0127 24.7671 30.8194 27.6985L32.2267 29.0855C34.2759 26.4444 35.5431 23.2814 35.8843 19.956C36.2255 16.6306 35.6269 13.2762 34.1566 10.274C32.6863 7.27186 30.4033 4.74232 27.5671 2.973C24.7308 1.20368 21.4551 0.265531 18.1123 0.265137H18.1327Z" fill="#1D1D1B"/>
<path d="M6.91473 16.3579L9.46431 18.9075C11.0947 20.4085 13.1886 21.308 15.3997 21.4571H20.662L18.1124 18.9075C16.474 17.4064 14.3737 16.5073 12.1566 16.3579H6.91473Z" fill="#1D1D1B"/>
<path d="M15.2156 14.4203V9.23954C15.0687 7.02576 14.1774 4.92672 12.6864 3.28371L10.1368 0.734131V5.97607C10.2813 8.19431 11.1811 10.2962 12.6864 11.9319L15.2156 14.4203Z" fill="#1D1D1B"/>
</g>
<defs>
<clipPath id="clip0_1913_13574">
<rect width="36" height="36" fill="white"/>
</clipPath>
</defs>
</svg>
