<svg width="10" height="7" viewBox="0 0 10 7" fill="none" xmlns="http://www.w3.org/2000/svg">
<path fill-rule="evenodd" clip-rule="evenodd" d="M8.71362 0.0354951C8.6545 0.0538927 8.56654 0.088092 8.51817 0.111493C8.45484 0.142137 7.77192 0.787126 6.08007 2.41411L3.72991 4.67416L2.66945 3.65631C2.00011 3.01388 1.57448 2.61942 1.51543 2.58684C1.28992 2.46236 0.956108 2.42101 0.724167 2.48883C0.476921 2.56112 0.251898 2.73059 0.124523 2.94044C0.00602073 3.13564 -0.0318772 3.41368 0.0280481 3.64824C0.0988014 3.92525 0.0560171 3.8787 1.64668 5.40965C3.21419 6.91833 3.18237 6.8909 3.45466 6.96788C3.71052 7.04021 4.0525 6.98733 4.2814 6.84004C4.33804 6.8036 5.60831 5.59464 7.10424 4.15346C9.53457 1.81205 9.83053 1.52066 9.8847 1.41577C10.1702 0.863011 9.90564 0.23057 9.31047 0.0429444C9.13843 -0.0112891 8.87455 -0.014581 8.71362 0.0354951Z" fill="#FF671D"/>
</svg>
