<svg width="12" height="12" viewBox="0 0 12 12" fill="none" xmlns="http://www.w3.org/2000/svg">
<path d="M11.0541 12.0001H10.82C10.6064 11.9363 10.4557 11.7864 10.3037 11.6338C8.90373 10.2309 7.50282 8.8287 6.101 7.42736C6.07114 7.39143 6.04469 7.3528 6.02197 7.31197H5.96887C5.94627 7.35287 5.91981 7.39151 5.88984 7.42736C4.49189 8.82809 3.09383 10.228 1.69567 11.6271C1.54097 11.7822 1.38839 11.9351 1.17113 12.0001H0.936785C0.514324 11.8219 0.178174 11.4856 0 11.063V10.8288C0.0637746 10.6152 0.213599 10.4644 0.364644 10.3124C1.7683 8.91244 3.17022 7.51141 4.57041 6.10926C4.60641 6.07935 4.64513 6.05288 4.68606 6.03019V5.97708C4.64515 5.95435 4.60644 5.92789 4.57041 5.89802C3.16818 4.49749 1.76677 3.09646 0.36617 1.69492C0.213599 1.54229 0.0653003 1.39119 0 1.17842V0.943983C0.113208 0.573705 0.412247 0.352087 0.688705 0.124975C0.945939 -0.0865684 1.29472 -0.0184953 1.56294 0.249521C3.00727 1.69278 4.45069 3.13635 5.8932 4.58022C5.92555 4.61227 5.95942 4.6431 6.01526 4.69591C6.03917 4.65661 6.066 4.61917 6.09551 4.58388C7.52988 3.14795 8.96486 1.71252 10.4004 0.277605C10.4413 0.235718 10.4843 0.19598 10.5292 0.158553C10.7465 -0.0175808 11.048 -0.0636739 11.2683 0.10605C11.5033 0.285433 11.7131 0.495719 11.892 0.731218C12.0864 0.992519 12.0082 1.31121 11.7458 1.57343L7.41494 5.90595C7.38443 5.93801 7.35391 5.97128 7.30875 6.01707C7.35483 6.05553 7.39328 6.083 7.42623 6.11597C8.85918 7.54824 10.2915 8.98092 11.7232 10.414C11.7678 10.4577 11.8099 10.5038 11.8493 10.5523C12.0241 10.7739 12.054 11.0999 11.8728 11.3136C11.6421 11.5853 11.4242 11.8872 11.0541 12.0001Z" fill="#333333" fill-opacity="0.6"/>
</svg>
