<svg width="62" height="43" viewBox="0 0 62 43" fill="none" xmlns="http://www.w3.org/2000/svg">
<path opacity="0.2" fill-rule="evenodd" clip-rule="evenodd" d="M43.5308 40.8458C42.8449 40.3487 42.6441 38.5757 42.6106 37.6974C42.7873 34.5176 43.2012 31.3551 43.8486 28.2357C44.0412 32.2541 44.5332 36.253 45.3208 40.1996L45.6554 41.2104C44.9221 41.1794 44.1962 41.0512 43.4973 40.8293M31.5023 13.4714C27.2697 13.3223 21.6319 12.9578 17.6001 14.416C15.3751 15.2445 13.3675 16.5038 10.9083 17.4318C9.23534 18.0615 7.56239 18.6414 5.88945 19.238C4.60929 19.6685 3.22142 19.6685 1.94126 19.238C1.363 18.9996 0.755504 18.8381 0.134503 18.7574C0.134503 18.7574 0.0173681 18.9563 0.000638581 19.0225C-0.0160909 19.0888 0.335261 19.6357 0.452367 19.7516C0.960717 20.2037 1.52245 20.5932 2.12531 20.9116C2.85058 21.3203 3.63479 21.6165 4.45069 21.7898C7.51218 22.2538 9.87102 20.8619 12.6983 20.1328L13.6519 19.9008C12.8963 21.2179 12.3917 22.6615 12.163 24.1594V24.3582C12.2132 25.2468 12.2132 26.1375 12.163 27.0261C12.0728 28.9219 11.4971 30.7637 10.4901 32.3783C9.11823 34.3171 8.73341 33.7371 7.77983 36.8192C7.46197 37.8466 6.49167 42.0223 7.21104 42.8509H11.4603C12.1462 40.9784 10.0049 41.1938 9.51971 41.1938C9.58699 39.7915 10.0255 38.4314 10.7912 37.25C11.2931 36.3884 11.1425 36.4878 12.0793 35.9741C12.6186 35.6334 13.1772 35.3236 13.7523 35.0462C13.7523 36.4878 13.6352 37.8797 13.7523 39.3048C13.8035 40.5286 14.0288 41.7391 14.4214 42.9006H18.5369C18.5369 42.9006 18.654 42.9006 18.6707 42.9006C19.2061 41.9229 18.3027 41.2435 17.3993 41.2435C16.8807 41.2435 16.5796 41.2435 16.4457 40.7464C16.2502 39.2627 16.3411 37.7557 16.7134 36.3055C17.0815 35.0627 16.8974 35.0793 17.9681 34.6485C19.6341 33.8261 21.0809 32.6263 22.1912 31.1465C23.3016 29.6667 24.0441 27.9485 24.3587 26.1313C29.1768 26.1313 33.3257 28.4677 38.997 27.7883C39.1614 31.9515 39.6536 36.0957 40.4692 40.183L41.473 43H50.6073C50.7913 42.9006 50.8582 42.6852 50.808 42.2875C50.6909 41.4424 50.0385 41.3429 49.1351 41.3098C48.2317 41.2767 48.1983 40.6967 47.9808 39.9842C47.0607 37.1009 47.9808 31.8812 48.65 29.0477C48.6892 26.5704 49.1883 24.1214 50.1222 21.823C52.0963 18.0283 51.8788 15.5262 52.665 12.6429C52.9662 11.4996 53.0331 10.5053 53.903 10.1242C54.7424 9.95857 55.6065 9.95857 56.4459 10.1242C57.1147 10.2525 57.8037 10.2342 58.4647 10.0706C59.1256 9.90709 59.7424 9.60221 60.2717 9.17743C60.801 8.75265 61.23 8.21825 61.5286 7.61176C61.8272 7.00528 61.9881 6.34141 62.0001 5.66675C62.0001 4.67252 61.816 4.53996 60.3271 4.34111C59.8536 4.3361 59.3866 4.2316 58.9569 4.0345C58.5272 3.8374 58.1446 3.55219 57.8344 3.19774C57.0653 2.09557 56.0088 1.22067 54.7773 0.666246C53.5459 0.111817 52.1856 -0.101372 50.8415 0.0493668C50.4868 0.0909782 50.1417 0.191816 49.821 0.347623C49.5696 0.162175 49.273 0.0460798 48.9615 0.0111492C48.6499 -0.0237813 48.3346 0.0237096 48.0477 0.148785C47.6964 0.529906 43.3969 3.26403 43.4806 4.87136C43.4806 5.60046 44.0995 5.79931 44.4341 6.82668C43.1459 11.3836 35.7515 13.6537 31.5357 13.488L31.5023 13.4714Z" fill="#DFE3E3"/>
</svg>
