<svg width="62" height="32" viewBox="0 0 62 32" fill="none" xmlns="http://www.w3.org/2000/svg">
<g clip-path="url(#clip0_820_7631)">
<path d="M1.86922 31.225C1.03838 30.9287 0.291766 30.4768 0.087701 29.5747C-0.0522517 29.014 -0.0315051 28.4252 0.147604 27.8758C1.69104 23.869 3.29441 19.8849 4.8832 15.891C5.34639 14.7282 6.25175 14.2715 7.46156 14.2715C12.5913 14.278 17.7199 14.278 22.8474 14.2715H54.2328C55.9366 14.2715 56.5796 14.7055 57.208 16.2862C58.8048 20.2919 60.4007 24.2976 61.9954 28.3033V29.2751C61.8622 29.7369 61.6141 30.1575 61.2742 30.4973C60.9343 30.8372 60.5138 31.0854 60.0519 31.2186L1.86922 31.225Z" fill="#CACACA"/>
<path d="M48.36 12.2294H13.5831C13.2511 10.2859 14.7168 8.18048 16.7445 7.6525C19.1739 7.02249 21.1999 8.28252 22.251 11.1945C22.583 9.81624 23.2471 8.7781 24.3953 8.11732C25.5436 7.45654 26.7939 7.35451 28.1964 7.79341C26.5445 6.09449 26.0732 4.26276 27.1615 2.24803C28.0248 0.649524 29.4694 -0.134336 31.2801 0.0179024C33.4422 0.200913 34.7233 1.4998 35.3144 3.68135C36.0108 1.31193 37.449 -0.043644 39.8702 0.0146602C41.6372 0.05191 42.9474 0.970203 43.66 2.58814C44.4989 4.50894 44.0066 6.2111 42.4615 7.77074C44.3597 7.23304 45.9485 7.55533 47.2506 8.919C47.6707 9.35307 47.9884 9.87566 48.1804 10.4485C48.3724 11.0213 48.4337 11.6298 48.36 12.2294ZM33.9831 7.68004C34.4336 7.59609 34.8892 7.54199 35.3468 7.51808C35.7911 7.54181 36.2331 7.59593 36.67 7.68004L35.3306 5.33168C34.9144 6.05724 34.4334 6.89779 33.9831 7.68004ZM30.9659 10.8932L32.2713 8.6048H29.654C30.0703 9.33199 30.5529 10.1709 30.9659 10.8932ZM38.3867 8.60642C38.8013 9.33199 39.2904 10.192 39.6824 10.89L41.0039 8.60642H38.3867Z" fill="#CACACA"/>
</g>
<defs>
<clipPath id="clip0_820_7631">
<rect width="62" height="31.2251" fill="white"/>
</clipPath>
</defs>
</svg>
