<svg width="20" height="14" viewBox="0 0 20 14" fill="none" xmlns="http://www.w3.org/2000/svg">
<path d="M9.99987 11.1363C12.2615 11.1363 14.1014 9.28068 14.1014 6.99989C14.1014 4.7191 12.2615 2.86353 9.99987 2.86353C7.73827 2.86353 5.89832 4.7191 5.89832 6.99989C5.89832 9.28068 7.73827 11.1363 9.99987 11.1363ZM9.99987 4.04534C11.6153 4.04534 12.9295 5.37075 12.9295 6.99989C12.9295 8.62903 11.6153 9.95443 9.99987 9.95443C8.38444 9.95443 7.07019 8.62903 7.07019 6.99989C7.07019 5.37075 8.38444 4.04534 9.99987 4.04534Z" fill="#414141"/>
<path d="M9.99987 8.77275C10.9691 8.77275 11.7577 7.9775 11.7577 7.00002C11.7577 6.02254 10.9691 5.22729 9.99987 5.22729C9.03062 5.22729 8.24207 6.02254 8.24207 7.00002C8.24207 7.9775 9.03062 8.77275 9.99987 8.77275ZM9.99987 6.40911C10.323 6.40911 10.5858 6.6742 10.5858 7.00002C10.5858 7.32585 10.323 7.59093 9.99987 7.59093C9.67679 7.59093 9.41394 7.32585 9.41394 7.00002C9.41394 6.6742 9.67679 6.40911 9.99987 6.40911Z" fill="#414141"/>
<path d="M2.96967 10.4029C4.94591 12.1139 7.38673 13.5 10 13.5C12.6134 13.5 15.0542 12.1137 17.0303 10.4029C18.7692 8.89741 19.844 7.40883 19.8889 7.34619C20.037 7.13953 20.037 6.86039 19.8889 6.65377C19.844 6.59113 18.7692 5.10255 17.0303 3.59707C15.0541 1.88612 12.6133 0.5 10 0.5C7.38661 0.5 4.94576 1.88627 2.96967 3.59711C1.23077 5.10259 0.156044 6.59117 0.111123 6.65381C-0.0370409 6.86047 -0.0370409 7.13961 0.111123 7.34623C0.156044 7.40883 1.23081 8.89745 2.96967 10.4029ZM10 1.68182C12.4872 1.68182 14.7701 3.20175 16.2474 4.47686C17.4041 5.4753 18.2633 6.48599 18.6729 6.9998C18.2689 7.5059 17.4269 8.49508 16.2891 9.48442C14.6598 10.9011 12.4242 12.3182 10 12.3182C7.51278 12.3182 5.22986 10.7982 3.75264 9.52314C2.59584 8.52462 1.73655 7.51389 1.32713 7.0002C1.73108 6.4941 2.57315 5.50496 3.71096 4.51558C5.34017 3.0989 7.57579 1.68182 10 1.68182Z" fill="#414141"/>
</svg>
