<svg xmlns="http://www.w3.org/2000/svg" width="56" height="28" fill="none"><g clip-path="url(#a)"><path fill="#fff" stroke="#1D1D1B" stroke-width="1.593" d="M51.312 4.677A13.222 13.222 0 0 1 55.203 14a13.222 13.222 0 0 1-3.89 9.323 13.311 13.311 0 0 1-9.358 3.88H14.032a13.311 13.311 0 0 1-9.349-3.884A13.222 13.222 0 0 1 .797 14a13.222 13.222 0 0 1 3.886-9.319 13.31 13.31 0 0 1 9.35-3.884h27.922a13.311 13.311 0 0 1 9.357 3.88Z"/><path fill="#1D1D1B" d="M14.793 6.532h1.703v6.395h-1.702V10.51h-2.725v2.417h-1.703V6.491h1.703v2.54h2.724v-2.5Zm2.766-.001h1.689v3.572c0 .882.45 1.44 1.212 1.44.763 0 1.213-.544 1.213-1.467V6.53h1.689v3.504a2.953 2.953 0 0 1-.804 2.213 2.819 2.819 0 0 1-2.111.815 2.732 2.732 0 0 1-2.098-.815 3 3 0 0 1-.79-2.213V6.53Zm13.336.001h1.062v6.395h-1.703V9.668l-1.948 2.458h-.218l-1.961-2.458v3.26h-1.621V6.49h1.049l2.724 3.449 2.616-3.408Zm7.083 6.395-.477-1.154H34.6l-.477 1.154H32.42l2.875-6.436h1.47l2.902 6.436h-1.689Zm-2.833-2.471h1.784l-.885-2.145-.9 2.145Zm9.004-3.924h1.703v6.395h-.436L41.82 9.668v3.26h-1.69V6.49h.409l3.61 3.408V6.532ZM15.46 17.91h3.38v.395a3.263 3.263 0 0 1-.968 2.376 3.217 3.217 0 0 1-2.343.964 3.562 3.562 0 0 1-2.506-.937 3.328 3.328 0 0 1-1.009-2.383 3.318 3.318 0 0 1 1.009-2.383 3.576 3.576 0 0 1 2.52-.937c.462 0 .922.074 1.362.217.417.129.806.336 1.144.611l-.763 1.25a2.525 2.525 0 0 0-1.716-.584 1.778 1.778 0 0 0-1.294.516 1.793 1.793 0 0 0-.531 1.357 1.734 1.734 0 0 0 .53 1.358 1.717 1.717 0 0 0 1.268.503 1.584 1.584 0 0 0 1.512-1.019H15.46v-1.303Zm9.659 3.464-.095.163h-1.717l-1.62-1.983h-.505v1.983H19.59v-6.423h2.574a2.73 2.73 0 0 1 1.839.61 2.01 2.01 0 0 1 .722 1.576 2.154 2.154 0 0 1-1.362 2.01l1.757 2.064Zm-3.937-4.889v1.874h.722c.75 0 1.199-.394 1.199-.937s-.45-.923-1.199-.923l-.722-.014Zm9.386 5.052-.477-1.141h-2.86l-.477 1.14H25.05l2.874-6.423h1.471l2.902 6.424h-1.73Zm-2.82-2.472h1.784l-.94-2.064-.844 2.064Zm7.805-3.952a3.211 3.211 0 0 1 2.384.883 3.443 3.443 0 0 1 0 4.658 3.257 3.257 0 0 1-2.37.882h-2.888v-6.423h2.874Zm-.068 4.957a1.517 1.517 0 0 0 1.172-.476c.31-.35.471-.809.45-1.276a1.598 1.598 0 0 0-.97-1.609 1.611 1.611 0 0 0-.652-.13h-1.062v3.49h1.062Zm8.528-3.49H41.37v1.14h2.493v1.25H41.37v1.1h2.643v1.466h-4.346v-6.423h4.346v1.467Z"/></g><defs><clipPath id="a"><path fill="#fff" d="M0 0h56v28H0z"/></clipPath></defs></svg>