<svg width="51" height="50" viewBox="0 0 51 50" fill="none" xmlns="http://www.w3.org/2000/svg">
<g clip-path="url(#clip0_2337_1505)">
<path d="M30.4689 49.9985C26.4434 49.9921 22.5845 48.3901 19.7382 45.5435C16.8919 42.6969 15.2902 38.8379 15.2843 34.8124C15.2946 30.7871 16.9002 26.9301 19.7493 24.0866C22.5984 21.2431 26.4585 19.6451 30.4838 19.6427C34.4995 19.6565 38.3468 21.2579 41.1862 24.0976C44.0256 26.9373 45.6267 30.7847 45.6401 34.8004C45.6397 38.8264 44.042 42.6878 41.1977 45.5372C38.3534 48.3865 34.4949 49.991 30.4689 49.9985ZM43.8553 34.8467C43.8554 31.2993 42.4508 27.8962 39.9487 25.3815C37.4466 22.8668 34.0505 21.4452 30.5032 21.4275C26.9563 21.4238 23.5522 22.8246 21.0351 25.3236C18.518 27.8225 17.0926 31.2163 17.0705 34.7632C17.0626 38.3204 18.4674 41.7352 20.9762 44.2571C23.4849 46.7789 26.8923 48.2015 30.4495 48.2122C33.9969 48.2087 37.3986 46.8007 39.9107 44.2961C42.4229 41.7915 43.8411 38.394 43.8553 34.8467Z" fill="white"/>
<path d="M24.2128 11.5825C24.2128 14.659 22.9939 17.6102 20.8228 19.7899C18.6517 21.9696 15.7055 23.2003 12.629 23.2125C9.55488 23.211 6.60638 21.9924 4.42815 19.8231C2.24993 17.6538 1.01919 14.7103 1.005 11.6362C1.00498 8.56 2.22373 5.60907 4.39446 3.42939C6.5652 1.24971 9.51109 0.018846 12.5873 0.00622559C15.6617 0.00737531 18.6106 1.22582 20.7891 3.39515C22.9677 5.56447 24.1986 8.50816 24.2128 11.5825ZM2.7838 11.5825C2.78379 14.1878 3.81689 16.6868 5.65659 18.5315C7.49629 20.3763 9.99244 21.4162 12.5977 21.4233C15.1937 21.4202 17.6834 20.3914 19.5244 18.5611C21.3653 16.7307 22.4085 14.2471 22.4265 11.6511C22.4333 9.04531 21.4062 6.54319 19.5706 4.69362C17.735 2.84405 15.2408 1.79804 12.635 1.78502C10.0305 1.78223 7.53106 2.81207 5.6845 4.64885C3.83794 6.48563 2.79484 8.97953 2.7838 11.584V11.5825Z" fill="white"/>
<path d="M41.1685 0.00598145C43.7735 0.00913544 46.271 1.04507 48.1135 2.88668C49.9559 4.72829 50.993 7.22532 50.9973 9.83034C50.991 12.4361 49.9514 14.933 48.1066 16.7734C46.2618 18.6137 43.7624 19.6473 41.1566 19.6472C38.5606 19.6366 36.0739 18.6007 34.2383 16.765C32.4026 14.9294 31.3667 12.4427 31.3561 9.84674C31.3561 7.24171 32.389 4.74296 34.2283 2.89827C36.0677 1.05358 38.5635 0.0134808 41.1685 0.00598145ZM33.1423 9.80648C33.1423 11.9308 33.9817 13.9691 35.4779 15.4772C36.974 16.9854 39.0055 17.8411 41.1297 17.858C43.2636 17.8663 45.3135 17.0272 46.8291 15.5251C48.3446 14.0229 49.2019 11.9806 49.2126 9.84674C49.2126 7.72215 48.373 5.68364 46.8765 4.17548C45.3801 2.66731 43.3482 1.81173 41.2237 1.79521C39.0911 1.78728 37.0425 2.62572 35.5274 4.12655C34.0123 5.62737 33.1546 7.66796 33.1423 9.80052V9.80648Z" fill="white"/>
<path d="M22.4263 31.5576V32.6594C22.4263 34.8154 22.4263 36.972 22.4263 39.129C22.4263 39.8014 22.0983 40.1727 21.5317 40.1727C20.9651 40.1727 20.6371 39.8014 20.6371 39.129C20.6371 35.6713 20.6371 32.2136 20.6371 28.7574C20.6371 28.2564 20.7862 27.8717 21.2931 27.7137C21.8001 27.5556 22.1013 27.8166 22.3711 28.1983C23.555 29.8638 24.7463 31.5233 25.9869 33.2588C26.1196 33.0859 26.2299 32.9532 26.3298 32.8115C27.4108 31.3011 28.4948 29.7922 29.5668 28.2758C29.8561 27.8688 30.1737 27.5467 30.7179 27.7182C31.2621 27.8896 31.3605 28.3146 31.3605 28.8215C31.3516 32.2404 31.3605 35.6609 31.3605 39.0813C31.3605 39.8074 30.9908 40.21 30.3943 40.1608C29.8621 40.116 29.5788 39.7597 29.5773 39.1006C29.5773 36.7587 29.5773 34.4168 29.5773 32.0749V31.5412L29.4669 31.5098L27.6688 34.0222C27.3989 34.3994 27.1335 34.7826 26.8576 35.1554C26.3298 35.8711 25.6648 35.8681 25.1445 35.1375C24.2737 33.9328 23.4149 32.722 22.5501 31.5143L22.4263 31.5576Z" fill="white"/>
<path d="M37.599 40.1772C37.095 40.1772 36.6522 40.1861 36.2094 40.1772C35.4007 40.1637 34.629 39.836 34.0577 39.2636C33.4863 38.6911 33.1602 37.9188 33.1483 37.1101C33.1174 36.5728 33.1459 36.0338 33.2333 35.5028C33.6329 33.6122 35.5309 32.5983 37.3545 33.2439C37.5471 33.3174 37.7605 33.3142 37.9509 33.2349C38.7158 32.8085 39.3852 33.1649 39.3942 34.055C39.4061 35.4297 39.3942 36.8059 39.3942 38.1822C39.3942 39.2974 39.4061 40.4187 39.3942 41.528C39.3914 42.3077 39.0978 43.0584 38.5708 43.6331C38.0438 44.2078 37.3214 44.5651 36.5448 44.6353C35.7582 44.7 34.976 44.4661 34.354 43.98C33.7321 43.494 33.3159 42.7916 33.1885 42.0126C33.1556 41.8297 33.1456 41.6434 33.1587 41.4579C33.1583 41.3499 33.1795 41.2429 33.221 41.1431C33.2625 41.0434 33.3235 40.953 33.4005 40.8771C33.4774 40.8013 33.5687 40.7416 33.6691 40.7015C33.7694 40.6615 33.8767 40.6419 33.9848 40.6438C34.4708 40.614 34.7988 40.8556 34.9151 41.3446C34.9405 41.452 34.9301 41.5668 34.9465 41.6771C34.9898 42.0125 35.1574 42.3194 35.4161 42.5372C35.6747 42.755 36.0057 42.8679 36.3436 42.8535C36.6717 42.8356 36.9817 42.6971 37.214 42.4645C37.4463 42.232 37.5845 41.9218 37.602 41.5936C37.6229 41.1478 37.599 40.702 37.599 40.1772ZM37.599 38.3879C37.599 37.5887 37.6214 36.8656 37.599 36.1514C37.5951 35.961 37.5507 35.7736 37.4688 35.6017C37.3869 35.4297 37.2693 35.2772 37.1239 35.1542C36.9785 35.0312 36.8086 34.9406 36.6255 34.8884C36.4423 34.8361 36.2502 34.8235 36.0617 34.8512C35.2432 34.9869 34.9092 35.5893 34.9286 36.8984C34.9405 37.7349 35.3759 38.3164 36.1214 38.3894C36.5896 38.4163 37.0697 38.3805 37.602 38.3805L37.599 38.3879Z" fill="white"/>
<path d="M38.8156 7.14197C38.1193 7.14197 37.4931 7.14197 36.8668 7.14197C36.1974 7.13452 35.8231 6.80798 35.8231 6.24736C35.8231 5.68673 36.1974 5.36468 36.8668 5.36169C37.9106 5.36169 38.9543 5.36169 39.998 5.36169C41.0417 5.36169 41.4219 5.94617 40.9582 6.88104C40.1262 8.56292 39.2838 10.2403 38.4458 11.9192C38.3653 12.0817 38.2967 12.2502 38.1745 12.5037C38.8574 12.5037 39.4776 12.5037 40.0979 12.5037C40.7793 12.5037 41.152 12.8168 41.164 13.3745C41.1759 13.9321 40.7912 14.284 40.0845 14.287C39.0244 14.287 37.9642 14.2944 36.9026 14.287C35.9707 14.2795 35.5831 13.6727 35.9931 12.8407C36.8296 11.1409 37.6839 9.45008 38.5278 7.75479C38.6218 7.57139 38.7008 7.38948 38.8156 7.14197Z" fill="white"/>
<path d="M42.0705 11.1051C42.0705 10.4371 42.0705 9.76318 42.0705 9.09968C42.0795 8.22295 42.6207 7.86362 43.4318 8.16183C43.599 8.21251 43.7775 8.21251 43.9447 8.16183C45.7489 7.66382 47.3979 8.89094 47.4233 10.7696C47.4337 11.6046 47.4322 12.4411 47.4233 13.276C47.4158 13.9082 47.0908 14.2705 46.5495 14.281C46.0083 14.2914 45.6549 13.9157 45.6415 13.2552C45.6341 12.456 45.6415 11.6583 45.6415 10.8591C45.6341 10.2179 45.2658 9.81537 44.726 9.82879C44.1863 9.84221 43.8672 10.2329 43.8612 10.8531C43.8523 11.6523 43.8612 12.45 43.8612 13.2492C43.8612 13.9142 43.5198 14.2929 42.9592 14.281C42.3985 14.2691 42.0839 13.9038 42.0795 13.2268C42.0645 12.5171 42.0705 11.8104 42.0705 11.1051Z" fill="white"/>
<path d="M11.7222 11.6061C11.7222 10.382 11.7133 9.15788 11.7312 7.93525C11.7379 7.70918 11.802 7.48855 11.9175 7.29411C12.0156 7.15088 12.157 7.04288 12.321 6.98598C12.4849 6.92908 12.6629 6.92629 12.8285 6.97801C13.0003 7.02037 13.1547 7.11471 13.2708 7.24814C13.3869 7.38157 13.459 7.5476 13.4771 7.72352C13.4856 7.80176 13.4896 7.88041 13.4891 7.9591C13.4891 10.3925 13.4891 12.8278 13.4891 15.2651C13.4891 15.7885 13.2729 16.115 12.8479 16.2388C12.7271 16.274 12.6 16.2827 12.4754 16.2641C12.3509 16.2455 12.2319 16.2002 12.1266 16.1312C12.0213 16.0621 11.9322 15.9711 11.8655 15.8643C11.7987 15.7575 11.756 15.6375 11.7401 15.5126C11.7297 15.4136 11.7252 15.314 11.7267 15.2144C11.7237 14.0117 11.7222 12.8089 11.7222 11.6061Z" fill="white"/>
</g>
<defs>
<clipPath id="clip0_2337_1505">
<rect width="50" height="50" fill="white" transform="translate(0.998779)"/>
</clipPath>
</defs>
</svg>
