<svg width="40" height="40" viewBox="0 0 40 40" fill="none" xmlns="http://www.w3.org/2000/svg">
<g clip-path="url(#clip0_1027_6345)">
<path d="M20 40C31.0457 40 40 31.0457 40 20C40 8.95431 31.0457 0 20 0C8.95431 0 0 8.95431 0 20C0 31.0457 8.95431 40 20 40Z" fill="#EA0029"/>
<path d="M38.6773 12.8694C33.552 12.8907 32.544 13.9361 29.8426 13.7467C27.2293 13.5814 27.0293 10.9227 25.128 10.4321C25.0186 9.44807 24.576 8.16007 23.0106 8.03207C22.6666 8.00807 22.2533 8.00807 21.824 8.00807C20.4906 8.00807 18.912 8.00807 18.3706 6.98674C18.3013 6.83715 18.1754 6.72123 18.0206 6.66447C17.8659 6.60771 17.6949 6.61476 17.5453 6.68407C17.3957 6.75338 17.2798 6.87927 17.223 7.03405C17.1663 7.18883 17.1733 7.35982 17.2426 7.5094C17.6346 8.5414 18.392 9.2294 19.16 9.9254C19.4773 10.2161 19.7973 10.5067 20.0746 10.8134C20.2458 11.0317 20.39 11.2698 20.504 11.5227L8.7333 26.3761C8.7333 26.3761 8.07464 30.3334 11.4666 30.1467C14.8586 29.9601 13.1626 29.2961 14.8586 29.4854C16.168 29.6321 27.7466 33.4641 32.888 35.3147C36.0638 32.6381 38.3275 29.0392 39.365 25.0175C40.4024 20.9958 40.1621 16.7509 38.6773 12.8721V12.8694ZM19.9093 20.4374C19.056 20.7521 18.1013 20.3067 18.1013 20.3067C18.1013 20.3067 18.536 19.3467 19.3893 19.0321C20.2426 18.7174 21.1946 19.1627 21.1946 19.1627C21.1946 19.1627 20.752 20.1227 19.9093 20.4374ZM30.8986 21.8427C30.7893 22.3761 30.5466 22.9841 29.9706 23.1601C28.728 23.5361 27.0746 21.3654 26.44 20.5254C25.8053 19.6854 25.168 18.7361 24.5946 17.8081C24.5646 17.7595 24.5447 17.7054 24.5361 17.649C24.5275 17.5926 24.5304 17.535 24.5446 17.4797C24.5588 17.4244 24.584 17.3726 24.6187 17.3273C24.6534 17.282 24.6969 17.2442 24.7466 17.2161L26.5546 16.2134C26.6347 16.1655 26.7292 16.1476 26.8213 16.1627C27.8102 16.2934 28.7484 16.6784 29.544 17.2801C30.9786 18.4241 31.2533 20.1041 30.8986 21.8427Z" fill="#1D1D1B"/>
</g>
<defs>
<clipPath id="clip0_1027_6345">
<rect width="40" height="40" fill="white"/>
</clipPath>
</defs>
</svg>
