<svg width="13" height="21" viewBox="0 0 13 21" fill="none" xmlns="http://www.w3.org/2000/svg">
<path d="M0.184811 10.7349C-0.327834 11.7391 0.254117 12.2191 1.58248 13.0391C2.71173 13.7341 4.27194 13.9881 5.27385 14.0897L4.43393 14.8947C3.24362 16.0237 2.11438 17.1171 1.32479 17.8747C0.175461 18.9722 2.02582 20.7328 3.17432 19.6588L6.28346 16.6714C7.47377 17.8122 8.61484 18.9054 9.39261 19.6629C10.5419 20.7413 12.3915 18.9955 11.2545 17.8788L8.14565 14.8988L7.29418 14.0939C8.30874 13.9922 9.84557 13.7232 10.9613 13.0432L10.9605 13.0423C12.2889 12.2182 12.8711 11.7391 12.3659 10.7349C12.0606 10.1651 11.2375 9.68837 10.1418 10.5125C10.1418 10.5125 8.66214 11.6415 6.27549 11.6415C3.88801 11.6415 2.4092 10.5125 2.4092 10.5125C1.31323 9.68426 0.486787 10.1651 0.184811 10.7349Z" fill="white"/>
<path d="M6.2725 10.1193C9.18171 10.1193 11.5574 7.85435 11.5574 5.06613C11.5574 2.26612 9.18171 0.00146484 6.2725 0.00146484C3.36248 0.00146484 0.986816 2.2664 0.986816 5.06613C0.986816 7.85435 3.36248 10.1193 6.2725 10.1193ZM6.2725 2.56722C7.70208 2.56722 8.86818 3.68476 8.86818 5.0664C8.86818 6.43627 7.70208 7.5538 6.2725 7.5538C4.84293 7.5538 3.67683 6.43627 3.67683 5.0664C3.676 3.68393 4.8421 2.56722 6.2725 2.56722Z" fill="white"/>
</svg>
