<svg width="63" height="42" viewBox="0 0 63 42" fill="none" xmlns="http://www.w3.org/2000/svg">
<path d="M51.5672 5.88111C52.0058 5.87337 52.4415 5.95505 52.8475 6.12117C53.3876 6.38123 55.8482 6.92136 56.1983 7.5515C56.5483 8.18165 57.1985 7.71154 57.4485 8.3917C57.6986 9.07186 57.5486 9.62198 57.6886 9.76202C57.8286 9.90205 58.9589 10.8323 59.0089 10.8923C59.0589 10.9523 60.6493 11.5324 61.0094 11.7325C61.3694 11.9325 62.4697 12.5227 62.4697 12.5227C62.4487 12.8189 62.4053 13.1132 62.3397 13.4029C62.2722 13.4888 62.1911 13.5632 62.0996 13.6229L62.0196 13.923C61.863 14.3273 61.6082 14.6862 61.2782 14.9674C60.9481 15.2485 60.5532 15.443 60.1292 15.5334C59.0895 15.8041 57.9951 15.7799 56.9684 15.4633C57.5239 16.087 58.1115 16.6813 58.7289 17.2438C58.9872 17.3296 59.213 17.4926 59.3757 17.7108C59.5385 17.929 59.6304 18.1919 59.6391 18.464C59.6391 19.2742 59.269 19.5343 59.0489 19.3042C58.8289 19.0742 58.3988 18.164 58.2388 18.144C58.1706 18.1211 58.0968 18.1211 58.0287 18.144C58.0287 18.144 58.2687 18.344 58.2087 18.444C58.1752 18.5134 58.1234 18.5722 58.0587 18.6141C58.0587 18.6141 57.9687 18.9041 57.4485 19.0442C56.6112 19.125 55.7701 18.9357 55.048 18.504C54.5332 18.0457 53.9043 17.7347 53.2276 17.6038H51.7772C51.2545 18.2756 50.5707 18.8047 49.7892 19.1422C49.0077 19.4796 48.1537 19.6145 47.3062 19.5343C47.3539 20.0234 47.2416 20.5148 46.9861 20.9346C46.5761 21.4847 45.9859 21.8548 46.266 22.545C46.546 23.2351 46.1859 24.1454 45.0157 24.9756C44.8324 25.5511 44.5213 26.0778 44.1055 26.5159C43.7816 26.8296 43.5463 27.2233 43.4233 27.6571C43.3004 28.0909 43.2941 28.5495 43.4053 28.9865C43.976 30.1898 44.6451 31.344 45.4058 32.4373C46.3404 33.4816 47.1525 34.6293 47.8263 35.8581C48.3064 36.8583 49.9568 37.8585 50.1469 38.1086C50.3369 38.3587 51.5772 38.8588 51.8873 39.2889C52.1132 39.6061 52.3139 39.9405 52.4874 40.2891C52.4874 40.2891 52.2774 41.4594 51.2271 41.3794C50.9412 41.5064 50.6294 41.5647 50.3169 41.5494C49.7579 41.5419 49.2013 41.4749 48.6565 41.3494C48.5287 41.2197 48.4085 41.0827 48.2965 40.9393C47.7807 40.6526 47.3494 40.2352 47.0462 39.729C46.6281 39.056 46.0968 38.4605 45.4758 37.9686C44.7656 37.2984 44.4755 36.3782 43.2753 35.348C41.8101 33.9573 40.4432 32.4667 39.1843 30.8869C39.0142 30.5969 37.4739 29.6166 37.4239 29.4566C37.3739 29.2966 37.2939 29.7167 37.2939 29.7167C37.2939 29.7167 35.5234 34.3377 35.4434 34.6178C35.3634 34.8979 35.5735 37.5285 35.5735 37.5285C36.0107 37.4577 36.4565 37.4577 36.8938 37.5285C37.0838 37.6785 37.1239 37.8685 37.4839 37.9686C37.7035 38.0208 37.8966 38.151 38.0272 38.335C38.1579 38.5191 38.2172 38.7443 38.1941 38.9688C38.1941 39.5889 37.1938 39.4989 37.1938 39.4989C36.6911 39.6551 36.1696 39.7426 35.6435 39.759C35.0934 39.759 34.5832 39.5189 34.0731 39.4789C33.563 39.4389 33.2629 38.7688 33.2629 38.7688V38.6287C33.2761 38.2923 33.2425 37.9557 33.1629 37.6285C33.0829 37.3984 33.1029 37.4885 33.1029 37.4885C33.1029 37.4885 33.343 35.9781 32.8629 35.648C32.3828 35.318 32.2327 35.2379 32.3628 34.7178C32.4928 34.1977 32.9729 32.2572 32.9729 32.2572C32.9729 32.2572 32.9729 32.3173 32.9729 31.9572C32.9729 31.5971 33.1929 28.8264 33.1929 28.8264C32.6366 28.7671 32.0986 28.5934 31.6126 28.3163C30.8824 27.8662 29.452 28.0663 28.3818 27.7662C27.3944 27.3917 26.4597 26.8908 25.6012 26.2759C25.6012 26.2759 23.0006 25.0256 21.7303 24.3554C20.8235 23.9106 19.8755 23.5555 18.8996 23.2952C18.7598 24.4363 18.5391 25.566 18.2394 26.6759C17.8896 27.5151 17.6347 28.3908 17.4793 29.2866C17.4793 29.6366 16.9792 30.5668 17.1092 30.9169C17.2489 31.4709 17.336 32.0369 17.3692 32.6073C17.6695 33.4293 18.0621 34.2145 18.5395 34.9479C18.8396 35.288 19.3697 36.3082 19.5398 36.3882C20.1488 36.4828 20.7394 36.6718 21.2902 36.9483C21.6212 37.2899 21.8738 37.6995 22.0303 38.1486C21.9521 38.2172 21.8645 38.2744 21.7703 38.3186C21.7703 38.3186 21.7703 38.6587 21.4602 38.7387C21.0357 38.7932 20.6076 38.8133 20.1799 38.7988C20.1799 38.7988 19.2797 38.8688 18.8496 38.8588C18.5564 38.8422 18.2701 38.7638 18.0094 38.6287C18.0094 38.6287 17.5993 38.7487 17.4292 38.5287C17.2592 38.3086 16.359 36.0981 15.9489 35.2679C15.6425 34.674 15.3053 34.0964 14.9387 33.5375C14.8186 33.2975 13.9384 32.4673 13.9384 31.5371C13.9384 30.6069 14.2185 29.3266 13.4383 28.4564C12.9853 27.9694 12.6258 27.4032 12.3781 26.786C11.7102 27.4166 10.9388 27.9275 10.0976 28.2963C9.24919 28.6373 8.54319 29.2586 8.09711 30.0567C7.65701 30.6369 6.27666 31.8171 5.75654 32.6573C5.33269 33.2938 5.09059 34.0339 5.05637 34.7978C5.1764 34.9079 5.80658 35.2879 5.96661 35.608C6.04297 36.028 6.04297 36.4583 5.96661 36.8783C5.79925 36.9774 5.61675 37.0483 5.42645 37.0884C5.31642 37.0884 4.70628 37.2384 4.61626 37.2384C4.52624 37.2384 4.97634 37.2384 4.48623 37.2384C3.99611 37.2384 2.68583 36.6783 2.63582 36.1481C2.58581 35.618 2.16572 35.338 2.26574 34.9879C2.36576 34.6378 3.60608 31.7771 3.60608 31.7771C4.2218 30.9108 4.74479 29.9821 5.16644 29.0065C5.13821 28.6762 5.2017 28.3445 5.34995 28.048C5.4982 27.7515 5.72543 27.5017 6.0066 27.3261C6.54515 26.9807 7.00277 26.5231 7.34804 25.9844C7.69331 25.4458 7.91809 24.8389 8.00706 24.2054C8.14826 22.3106 8.05422 20.4057 7.72703 18.5341C7.38695 16.8837 7.42691 13.7629 9.11731 12.1126C8.17381 11.5572 7.26219 10.9495 6.38669 10.2921C6.21665 10.0321 4.08614 10.5122 3.17592 9.21189L3.56603 9.16188C2.60042 8.52431 1.83971 7.62118 1.37552 6.56127H1.94566C1.94566 6.56127 0.165253 4.05069 0.515331 1.86018L0.855438 2.08023C0.855438 2.08023 1.35554 0.429846 2.52581 0.149781C3.69608 -0.130284 4.04617 0.779927 4.15619 1.90019C4.26622 3.02045 4.97634 6.65129 8.42714 7.28144C11.8779 7.91159 10.8277 9.47195 14.3685 8.8418C17.928 8.35343 21.5393 8.38038 25.091 8.92182C27.7817 9.31191 28.5818 10.3121 31.2525 9.86204C34.2058 9.18989 37.2257 8.85434 40.2545 8.86181C40.6658 8.54663 41.1517 8.34332 41.6649 8.27167C42.6651 8.10163 44.0954 7.5415 45.0056 7.34145C46.5075 7.17415 47.9887 6.8558 49.4267 6.39123C50.0785 6.02447 50.82 5.84775 51.5672 5.88111Z" fill="#CACACA"/>
</svg>
