<svg width="40" height="50" viewBox="0 0 40 50" fill="none" xmlns="http://www.w3.org/2000/svg">
<g clip-path="url(#clip0_2337_1443)">
<path d="M17.0513 28.5846V32.1618H18.3451C19.925 32.1618 21.5049 32.1618 23.0848 32.1618C23.7526 32.1618 24.1282 32.4957 24.1282 33.0561C24.1282 33.6165 23.7511 33.9504 23.0848 33.9504C21.0965 33.9504 19.1082 33.9504 17.0722 33.9504V37.5276H17.6594C19.448 37.5276 21.2327 37.5276 23.0133 37.5276C23.7377 37.5276 24.1207 37.8257 24.1297 38.4025C24.1386 38.9793 23.7481 39.3102 22.9894 39.3102C20.7954 39.3102 18.6019 39.3102 16.4089 39.3102C15.54 39.3102 15.2404 39.0121 15.2389 38.1342C15.2389 34.7508 15.2389 31.3674 15.2389 27.984C15.2389 27.1046 15.537 26.8169 16.4149 26.8154C18.664 26.8154 20.9147 26.8154 23.1638 26.8154C23.7764 26.8154 24.1446 27.1836 24.1341 27.7246C24.1237 28.2403 23.7645 28.5712 23.1802 28.5966C23.0506 28.5966 22.9194 28.5966 22.7897 28.5966H17.0513V28.5846Z" fill="white"/>
<path d="M36.2324 23.0161C36.2682 22.9848 36.3815 22.8671 36.5156 22.7717C39.0733 20.6582 41.008 16.4565 39.118 12.2429C38.1782 10.1396 37.025 8.1383 35.6765 6.27049C34.3351 4.40588 32.8952 2.59791 31.4688 0.789948C30.6267 -0.275753 30.2213 -0.253396 29.3389 0.807833C29.3151 0.837643 29.2897 0.864475 29.2674 0.894285L25.1208 6.15571C24.8391 5.80098 24.553 5.4373 24.2608 5.07959C23.0029 3.53842 21.7538 1.99278 20.4795 0.459064C19.9742 -0.147566 19.4585 -0.129681 18.9293 0.448629C18.7907 0.597678 18.6536 0.746727 18.5284 0.913662C15.6309 4.66076 12.6544 8.35121 9.85971 12.1743C7.0397 16.0317 4.564 20.1142 2.65468 24.5171C1.273 27.7008 0.627612 30.9471 1.21636 34.4452C2.6517 42.9753 10.207 49.693 18.8742 49.9836C24.7184 50.1788 29.6803 48.1264 33.5749 43.7876C37.8004 39.0792 39.3521 33.5718 37.8064 27.352C37.4442 25.8928 36.7824 24.5051 36.2324 23.0161ZM22.7167 15.4564C22.7167 15.2999 22.7331 15.1434 22.7525 14.9899C22.7331 15.1434 22.7212 15.2999 22.7167 15.4564ZM22.8285 14.5323C22.8598 14.3832 22.897 14.2342 22.9388 14.0851C23.0029 13.863 23.0759 13.638 23.1594 13.4263C23.0759 13.6439 23.0103 13.863 22.9388 14.0851C22.897 14.2327 22.8598 14.3817 22.827 14.5323H22.8285ZM23.143 18.0141C23.0094 17.6159 22.9058 17.2084 22.8329 16.7948C22.9058 17.2084 23.0094 17.6159 23.143 18.0141ZM32.1545 23.0176C32.0054 23.0504 31.8564 23.0787 31.7073 23.1026C31.2825 23.1713 30.8529 23.2066 30.4225 23.2084C30.8529 23.2066 31.2825 23.1713 31.7073 23.1026C31.8608 23.0787 32.0084 23.0504 32.1545 23.0176ZM33.4154 22.6167C33.1457 22.73 32.8695 22.827 32.5882 22.9073C32.8675 22.8268 33.1417 22.7298 33.4095 22.6167H33.4154ZM24.8988 9.94752C24.6702 10.338 24.4491 10.7355 24.2355 11.1399C24.0218 11.5443 23.8177 11.9507 23.6229 12.3591C23.4888 12.6408 23.3606 12.9255 23.2428 13.2132C23.3606 12.9255 23.4888 12.6408 23.6229 12.3591C23.8216 11.9468 24.0258 11.5404 24.2355 11.1399C24.4451 10.7395 24.6662 10.3425 24.8988 9.94902V9.94752ZM24.2534 20.144C24.0172 19.8238 23.8059 19.4859 23.6214 19.1334C23.8058 19.4865 24.0171 19.8248 24.2534 20.1455V20.144ZM28.7338 45.5852C18.588 51.8884 5.53133 46.2872 3.06755 34.5898C2.41472 31.4896 2.87378 28.5459 4.08853 25.6618C5.65951 21.9281 7.73575 18.4791 9.98341 15.1285C12.9076 10.7998 16.0584 6.62852 19.4227 2.6322C19.5047 2.53383 19.5971 2.4444 19.7327 2.29684L24.082 7.70135C23.3651 9.0428 22.6481 10.3231 21.9953 11.6303C20.4482 14.7246 20.5391 17.7696 22.4558 20.6761C24.933 24.4336 30.0573 26.2252 34.338 24.1504C34.4172 24.1192 34.4984 24.0933 34.581 24.0729C35.3806 25.4575 35.9504 26.9625 36.2682 28.5295C37.6037 35.1174 34.578 41.9558 28.7338 45.5866V45.5852Z" fill="white"/>
</g>
<defs>
<clipPath id="clip0_2337_1443">
<rect width="38.878" height="50" fill="white" transform="translate(0.998779)"/>
</clipPath>
</defs>
</svg>
