<svg width="169" height="21" viewBox="0 0 169 21" fill="none" xmlns="http://www.w3.org/2000/svg">
<g clip-path="url(#clip0_1664_11625)">
<path d="M5.15748 20.0993L6.10352e-05 0.844238H3.38339L7.34612 15.633L11.5928 0.844238H14.7477L19.0091 15.7113L22.9898 0.849132L26.3731 0.844238L21.214 20.096L17.2921 20.0911L13.1711 5.71346L9.0484 20.096L5.15748 20.0993Z" fill="white"/>
<path d="M31.9271 0.854004H28.707V20.0862H31.9271V0.854004Z" fill="white"/>
<path d="M38.8129 17.0701H46.6535V20.0862H35.6597V0.854004H38.8129V17.0701Z" fill="white"/>
<path d="M56.5603 17.0913C58.3817 17.0913 59.8702 16.4714 60.98 15.2284C62.1356 13.987 62.7133 12.3901 62.7133 10.4978C62.7133 8.56809 62.1356 7.01516 60.98 5.76727C59.8245 4.51938 58.3589 3.9044 56.5603 3.9044H52.1618V17.0799L56.5603 17.0913ZM56.5603 0.854004C59.2027 0.854004 61.4028 1.80827 63.1344 3.64993C64.8661 5.49159 65.7735 7.77531 65.7735 10.4815C65.7735 13.1877 64.884 15.4503 63.1295 17.3131C61.375 19.176 59.1978 20.0862 56.5554 20.0862H48.9858V0.854004H56.5603Z" fill="white"/>
<path d="M76.9941 17.1386C78.463 17.1386 79.6153 15.9396 79.6153 14.4307C79.622 14.0823 79.5592 13.7359 79.4306 13.4119C79.3019 13.088 79.11 12.7928 78.866 12.5438C78.622 12.2948 78.3308 12.0968 78.0094 11.9615C77.688 11.8261 77.3429 11.7561 76.9941 11.7555H71.9085V17.1386H76.9941ZM71.9085 3.82285V8.87967H76.3952C77.7939 8.87967 78.8613 7.7688 78.8613 6.34963C78.8613 4.93046 77.7939 3.81959 76.3952 3.81959L71.9085 3.82285ZM82.7701 14.589C82.7701 16.1647 82.2152 17.4746 81.0809 18.517C79.9726 19.5623 78.4964 20.1285 76.9729 20.0927H68.7325V0.855645H76.3723C77.8531 0.829268 79.2864 1.37774 80.371 2.38574C80.9035 2.86184 81.3262 3.44783 81.61 4.1032C81.8938 4.75858 82.0318 5.46771 82.0145 6.18161C82.0145 7.8683 81.3486 9.15535 80.056 10.1096C80.8858 10.5243 81.5812 11.1654 82.0615 11.9587C82.5419 12.752 82.7876 13.6651 82.7701 14.5922V14.589Z" fill="white"/>
<path d="M88.9232 17.0782H97.4509V20.096H85.7683V0.854004H97.3187V3.87341H88.9232V8.86661H96.6299V11.8632H88.9232V17.0782Z" fill="white"/>
<path d="M103.449 3.82945V10.2646H107.979C109.667 10.2646 111 8.84385 111 7.04623C111 5.24862 109.646 3.82945 107.979 3.82945H103.449ZM111.267 20.0961L107.186 13.0818H103.449V20.0961H100.294V0.855713H108.002C109.734 0.855713 111.201 1.45437 112.378 2.67453C112.967 3.23833 113.432 3.91774 113.746 4.67007C114.059 5.42241 114.214 6.2314 114.199 7.04623C114.193 8.25024 113.826 9.42471 113.145 10.4178C112.464 11.4109 111.5 12.1769 110.379 12.6169L114.754 20.0961H111.267Z" fill="white"/>
<path d="M120.33 3.81951V10.2596H124.855C126.543 10.2596 127.876 8.83881 127.876 7.03956C127.876 5.24031 126.522 3.81951 124.855 3.81951H120.33ZM128.12 20.0959L124.054 13.0816H120.33V20.0959H117.175V0.847412H124.883C126.615 0.847412 128.082 1.4477 129.259 2.66949C129.848 3.23354 130.313 3.91322 130.627 4.66584C130.94 5.41846 131.095 6.22773 131.08 7.04282C131.074 8.24728 130.707 9.42228 130.026 10.4159C129.345 11.4096 128.381 12.1762 127.259 12.6167L131.635 20.0992L128.12 20.0959Z" fill="white"/>
<path d="M137.099 0.847412H133.945V20.0976H137.099V0.847412Z" fill="white"/>
<path d="M143.985 17.0783H152.513V20.0961H140.83V0.855713H152.381V3.87349H143.985V8.86668H151.692V11.8633H143.985V17.0783Z" fill="white"/>
<path d="M154.713 15.7161L157.445 14.1191C158.222 16.2936 159.799 17.3588 162.221 17.3588C164.643 17.3588 165.797 16.3376 165.797 14.8287C165.811 14.4755 165.73 14.125 165.562 13.8139C165.394 13.5029 165.145 13.2426 164.842 13.0605C164.22 12.638 163.065 12.1731 161.415 11.6853C159.57 11.1307 158.66 10.7751 157.372 9.93176C156.128 9.04437 155.506 7.78017 155.506 6.05107C155.506 4.32196 156.105 3.01208 157.328 2.01377C158.55 1.01546 159.993 0.504883 161.703 0.504883C164.791 0.504883 167.168 2.10186 168.411 4.74608L165.746 6.27781C164.946 4.50303 163.592 3.5928 161.703 3.5928C159.859 3.5928 158.682 4.52423 158.682 5.98908C158.682 7.40825 159.616 8.07379 162.57 8.98402C163.303 9.22707 163.835 9.40487 164.17 9.537C164.504 9.66913 164.986 9.84857 165.589 10.0916C166.093 10.2773 166.566 10.5391 166.99 10.8681C168.011 11.6674 168.966 12.9397 168.966 14.8173C168.966 16.548 168.344 17.9444 167.078 18.9655C165.811 19.9867 164.191 20.4728 162.147 20.4728C158.423 20.4418 155.712 18.667 154.713 15.7161Z" fill="white"/>
</g>
<defs>
<clipPath id="clip0_1664_11625">
<rect width="168.973" height="19.963" fill="white" transform="translate(6.10352e-05 0.5)"/>
</clipPath>
</defs>
</svg>
