<svg width="21" height="21" viewBox="0 0 21 21" fill="none" xmlns="http://www.w3.org/2000/svg">
<g clip-path="url(#clip0_2010_16222)">
<path d="M0.54656 10.2949C0.855381 10.3028 1.16378 10.3095 1.47261 10.3183C2.44783 10.3458 3.42264 10.3837 4.38994 10.5058C5.23847 10.6129 6.07491 10.7754 6.86509 11.1193C8.21123 11.7057 9.10435 12.7092 9.58905 14.087C9.82744 14.7647 9.95872 15.4661 10.0475 16.1767C10.2013 17.427 10.2267 18.6831 10.2496 19.9396C10.2496 19.9563 10.2463 19.973 10.2429 20.0021C10.0979 19.9955 9.95705 19.993 9.8166 19.9817C7.48607 19.7933 5.45018 18.9177 3.73854 17.3257C2.07441 15.7783 1.05876 13.8699 0.678674 11.6286C0.620744 11.2868 0.601989 10.9388 0.56448 10.5942C0.560313 10.5566 0.552394 10.5196 0.546143 10.4825L0.54656 10.2949Z" fill="white"/>
<path d="M10.2568 0C10.2485 0.318823 10.2418 0.638063 10.2322 0.958553C10.2014 2.02046 10.1589 3.08404 10.0063 4.13511C9.8913 4.92696 9.71918 5.70381 9.38118 6.43522C8.82522 7.64008 7.92002 8.47444 6.69057 8.96205C6.04167 9.2192 5.36485 9.36548 4.67677 9.46217C3.4194 9.64054 2.15328 9.67847 0.886321 9.69764C0.772545 9.69764 0.659186 9.69389 0.54541 9.6918V9.5251C0.551245 9.49468 0.558746 9.46467 0.562913 9.43425C0.625845 8.94997 0.660019 8.45986 0.756708 7.98183C1.14846 6.04305 2.05701 4.3735 3.44232 2.96485C4.2911 2.10115 5.29198 1.4015 6.39467 0.90104C7.36381 0.455804 8.39923 0.171998 9.45995 0.0608476C9.6625 0.0395927 9.86588 0.0191712 10.0688 0.000833702L10.2568 0Z" fill="white"/>
<path d="M11.0284 -0.000286356C11.2276 0.0193015 11.4272 0.0380557 11.6264 0.0588938C12.6664 0.166664 13.6823 0.440626 14.6354 0.87033C15.7577 1.36928 16.7764 2.0741 17.639 2.94831C19.1194 4.44865 20.0513 6.23739 20.4051 8.31787C20.4776 8.74422 20.5001 9.17932 20.5451 9.60983C20.5476 9.63651 20.5451 9.66401 20.5451 9.69318C20.3659 9.69318 20.1934 9.69985 20.0213 9.69318C19.1044 9.65151 18.1825 9.62567 17.266 9.55732C16.3496 9.48897 15.4415 9.3381 14.57 9.0222C13.3956 8.59668 12.4824 7.85901 11.8777 6.7571C11.5489 6.15862 11.3518 5.51389 11.2155 4.84874C11.0138 3.86268 10.9371 2.86329 10.8983 1.86056C10.875 1.26375 10.8637 0.66695 10.8479 0.0684791C10.8495 0.0445525 10.854 0.0209062 10.8612 -0.00195312L11.0284 -0.000286356Z" fill="white"/>
<path d="M20.5423 10.3087C20.4151 15.702 15.9037 19.9297 10.8584 19.9934C10.8584 19.8176 10.8513 19.6413 10.8584 19.4658C10.9 18.5535 10.9251 17.6404 10.993 16.7302C11.0634 15.7879 11.2168 14.8548 11.5514 13.965C12.1453 12.3813 13.2756 11.3748 14.8789 10.8809C15.6631 10.6422 16.4728 10.4971 17.2911 10.4487C18.3509 10.3808 19.4133 10.35 20.4743 10.3037C20.4971 10.304 20.5197 10.3057 20.5423 10.3087Z" fill="white"/>
</g>
<defs>
<clipPath id="clip0_2010_16222">
<rect width="20" height="20.0025" fill="white" transform="translate(0.546387)"/>
</clipPath>
</defs>
</svg>
