<svg width="60" height="60" viewBox="0 0 60 60" fill="none" xmlns="http://www.w3.org/2000/svg">
<path d="M49.3313 38.8554C50.0473 39.9891 50.9212 41.015 51.9268 41.9021L55.5378 45.4284C55.8068 45.6262 56.1009 45.7875 56.4123 45.908C56.7035 46.0535 56.9701 46.244 57.2022 46.4723C57.3209 46.5784 57.4152 46.709 57.4785 46.8552C57.5419 47.0013 57.5727 47.1594 57.5689 47.3186C57.5594 47.4812 57.4959 47.636 57.3887 47.7586C57.2814 47.8812 57.1364 47.9646 56.9764 47.9956C57.2021 47.9956 57.2868 48.2496 57.1457 48.4188C57.05 48.4904 56.9398 48.5401 56.8229 48.5644C56.7059 48.5888 56.585 48.5872 56.4687 48.5599C55.4481 48.3287 54.4872 47.8867 53.6476 47.2622L49.6416 44.695C47.2437 43.1434 44.8458 41.5918 42.4761 39.9838C42.0299 39.6876 41.6304 39.3263 41.2913 38.9117C40.7268 39.5845 40.2174 40.3015 39.7678 41.0558C38.4873 43.3571 37.9456 45.9966 38.2163 48.6163C38.4308 48.5377 38.6628 48.5198 38.8868 48.5646C39.1108 48.6094 39.3181 48.7151 39.4858 48.8701C39.7284 49.0788 39.9211 49.3391 40.05 49.6319C40.0852 49.7069 40.1035 49.7888 40.1035 49.8717C40.1035 49.9545 40.0852 50.0364 40.05 50.1114C40.05 50.2807 39.8243 50.3371 39.7115 50.1114C39.6726 50.2301 39.5889 50.329 39.4782 50.3869C39.3676 50.4449 39.2388 50.4574 39.119 50.4218C38.8934 50.4218 38.8651 50.1961 38.8369 49.9704C38.5163 50.2918 38.0961 50.4948 37.6451 50.546C37.194 50.5973 36.7389 50.4938 36.3544 50.2525C35.769 49.7499 35.3713 49.0637 35.2259 48.306C34.8163 45.2864 34.7312 42.2316 34.9721 39.1939C35.0298 38.3662 34.8115 37.5428 34.3514 36.8524C33.7422 36.3812 33.0045 36.1058 32.2356 36.0625C30.7687 35.7804 29.4146 35.5547 27.863 35.3854L23.2081 44.0744C22.9767 44.4373 22.8498 44.857 22.8414 45.2874C22.9638 45.8053 23.2631 46.2643 23.6877 46.5851C24.261 47.1198 24.874 47.6102 25.5214 48.0521C25.9153 47.8476 26.3629 47.7703 26.8025 47.8309C27.2421 47.8916 27.652 48.0871 27.9758 48.3906C28.1663 48.5875 28.3025 48.8305 28.3707 49.0959C28.3914 49.2273 28.3817 49.3616 28.3426 49.4887C28.3035 49.6158 28.2359 49.7323 28.145 49.8294C28.0405 49.9118 27.9113 49.9565 27.7783 49.9565C27.6452 49.9565 27.5161 49.9118 27.4116 49.8294C26.7861 50.1821 26.0495 50.2829 25.3522 50.1114C23.261 49.3945 21.4134 48.1042 20.0203 46.3877C19.4189 45.8101 18.9226 45.1323 18.5534 44.3846C18.3727 43.7996 18.2777 43.1915 18.2712 42.5792C18.1302 40.943 18.0173 39.2785 17.9045 37.6141C17.9045 37.3602 17.9045 37.078 17.9045 36.7959C17.2556 37.1063 16.5787 37.4448 15.958 37.8116L8.65135 41.9867C7.35126 42.628 6.18364 43.5085 5.20963 44.5821C4.2182 46.0401 3.55422 47.6954 3.26316 49.4344C3.18752 49.829 3.01271 50.1979 2.7553 50.5064C2.70275 50.5765 2.6346 50.6333 2.55626 50.6725C2.47791 50.7117 2.39151 50.7321 2.30392 50.7321C2.21633 50.7321 2.13001 50.7117 2.05167 50.6725C1.97333 50.6333 1.90518 50.5765 1.85262 50.5064C1.75566 50.6056 1.63344 50.6763 1.49921 50.7111C1.36499 50.7459 1.22379 50.7435 1.09088 50.7039C0.95649 50.6659 0.83408 50.594 0.735316 50.4952C0.636552 50.3965 0.564775 50.2741 0.526714 50.1397C0.499839 50.0212 0.506703 49.8976 0.546601 49.7829C0.586499 49.6682 0.65779 49.567 0.752362 49.4908C0.62731 49.5291 0.493103 49.5251 0.370628 49.4792C0.248153 49.4332 0.144324 49.348 0.0753309 49.2369C0.0256618 49.121 0 48.9962 0 48.8701C0 48.7441 0.0256618 48.6194 0.0753309 48.5035C0.149611 48.2566 0.253783 48.0198 0.385608 47.7982C0.80877 47.0929 1.42939 46.5851 1.59865 45.7952C2.05881 44.2641 2.79504 42.8299 3.77094 41.5636C5.66106 38.7425 7.26907 35.9214 9.41309 33.2978C10.3723 32.1412 11.3314 31.0127 12.2342 29.8561C18.1302 22.747 0.131742 19.1642 2.44503 9.57254C2.75031 8.30548 3.45199 7.16894 4.44797 6.32832C5.45756 5.49327 6.72074 5.02578 8.03071 5.00241C8.34074 4.98709 8.65004 5.04507 8.93347 5.17166C9.06861 5.24586 9.18007 5.35673 9.25494 5.4915C9.32981 5.62626 9.36501 5.77939 9.35662 5.93332C9.3324 6.0492 9.28495 6.15901 9.21706 6.256C9.14917 6.35298 9.0623 6.43516 8.96171 6.49757C8.74926 6.62067 8.52168 6.71553 8.28468 6.7797C7.46876 7.01392 6.73543 7.47348 6.16887 8.10561C5.84135 8.52446 5.60241 9.00552 5.46662 9.51959C5.33082 10.0337 5.30102 10.57 5.37897 11.0959C5.94319 15.2711 13.6165 19.9259 16.6633 22.8034C17.2844 23.1066 17.9855 23.2054 18.6662 23.0855C19.4843 22.8881 20.7256 22.2392 21.7694 21.9289C35.3952 17.9229 39.0344 24.5525 45.5229 21.9289C46.2846 21.4775 46.9052 20.9697 47.8362 20.3773C48.5768 19.9768 49.3398 19.6188 50.1212 19.3053C51.3625 18.3743 51.701 16.7381 53.1116 15.8071C53.9015 16.2021 54.1836 17.2459 53.958 18.9385C54.7479 19.5028 56.4122 19.5873 57.3432 20.744C57.7381 21.2236 57.7946 22.0417 58.1896 22.5495C58.5845 23.0573 59.8822 23.6215 59.995 24.4678C60.1079 25.3142 58.2742 27.2889 57.4561 27.7121C56.331 27.4041 55.131 27.5352 54.099 28.0788C52.8577 28.8123 50.5444 29.5176 49.9802 30.8999C49.3037 32.1079 48.9068 33.4523 48.8189 34.8341C48.731 36.2158 48.9543 37.5996 49.4724 38.8836" fill="#FF671D"/>
</svg>
