<svg width="60" height="60" viewBox="0 0 60 60" fill="none" xmlns="http://www.w3.org/2000/svg">
<path fill-rule="evenodd" clip-rule="evenodd" d="M37.6167 42.1567C37.2564 41.0758 36.9682 39.9589 36.716 38.8419C36.4637 37.7249 36.3917 37.3286 36.2836 36.5719C36.2559 36.4317 36.2606 36.2868 36.2975 36.1487C36.3343 36.0105 36.4023 35.8827 36.4962 35.7749C36.5901 35.6671 36.7075 35.5822 36.8392 35.5268C36.971 35.4713 37.1137 35.4467 37.2564 35.455H40.3191C40.4475 35.4491 40.5755 35.4719 40.694 35.5218C40.8124 35.5717 40.9182 35.6473 41.0037 35.7432C41.0959 35.8316 41.169 35.9379 41.2186 36.0557C41.2681 36.1734 41.2931 36.3 41.2919 36.4278C41.2919 37.4006 41.2919 38.3734 41.2919 39.3102C41.3845 40.616 41.553 41.9154 41.7964 43.2017C42.0411 44.1732 42.5676 45.0507 43.3097 45.7238C43.9108 46.2797 44.6417 46.6761 45.4355 46.8768C46.2134 47.0935 47.0357 47.0935 47.8136 46.8768C48.6532 46.6631 49.4075 46.198 49.9755 45.5437C50.5044 44.9531 50.8653 44.2314 51.0204 43.4539C51.153 42.6292 51.0659 41.7841 50.7682 41.0037C50.4682 40.0736 50.2393 39.1221 50.0836 38.1573C49.9552 37.5624 49.8591 36.961 49.7954 36.3557C49.7816 36.219 49.7969 36.0807 49.8403 35.9503C49.8838 35.8199 49.9545 35.7001 50.0476 35.599C50.1352 35.4937 50.2456 35.4099 50.3705 35.3537C50.4953 35.2975 50.6313 35.2705 50.7682 35.2747H59.0914C59.2455 35.2733 59.3977 35.3085 59.5355 35.3774C59.6733 35.4463 59.7928 35.547 59.8841 35.6711C59.96 35.8026 60 35.9517 60 36.1035C60 36.2553 59.96 36.4044 59.8841 36.5359C56.6053 46.5526 55.2361 59.2716 41.0037 55.7766L34.2659 54.1192C33.087 53.8286 31.8769 53.6834 30.6627 53.6868C29.4483 53.6786 28.2376 53.8238 27.0596 54.1192L20.3217 55.7766C5.9092 59.3797 4.72009 46.5526 1.44123 36.5359C1.37176 36.4023 1.33556 36.254 1.33556 36.1035C1.33556 35.953 1.37176 35.8047 1.44123 35.6711C1.61604 35.5227 1.83623 35.4382 2.06547 35.4316C2.29471 35.4251 2.51935 35.4968 2.70235 35.6351H11.1697C11.2928 35.6302 11.4156 35.6497 11.5311 35.6924C11.6466 35.735 11.7526 35.8001 11.8429 35.8838C11.9333 35.9675 12.0062 36.0681 12.0577 36.18C12.1091 36.2919 12.1379 36.4128 12.1426 36.5359C12.1426 37.0763 12.1426 37.6528 12.3228 38.2293C12.5029 38.8058 12.5749 39.9228 12.7191 40.7516V40.9317C12.99 41.998 13.566 42.9621 14.3765 43.7061C15.0111 44.316 15.7933 44.7505 16.6465 44.9672C17.5166 45.2049 18.4356 45.1961 19.301 44.9416C20.1663 44.687 20.9439 44.1969 21.5468 43.5259C22.1295 42.8782 22.5167 42.0786 22.6638 41.2199C22.8052 40.3331 22.7056 39.4247 22.3754 38.5897L21.907 37.1484V36.8962C21.8375 36.7626 21.8013 36.6144 21.8013 36.4638C21.8013 36.3133 21.8375 36.1649 21.907 36.0314C21.9983 35.9072 22.1179 35.8067 22.2557 35.7378C22.3935 35.6689 22.5456 35.6336 22.6997 35.6351H25.1859C25.4378 35.6349 25.6799 35.7324 25.8614 35.9071C26.0428 36.0818 26.1495 36.3202 26.1588 36.5719C26.1588 37.797 26.1588 38.986 26.375 40.1751C26.5912 41.3641 26.7352 43.1656 26.9875 44.6429V44.823C27.2515 45.9072 27.7986 46.902 28.5728 47.7056C29.3061 48.4566 30.2472 48.9711 31.2752 49.1829C32.2072 49.4355 33.1897 49.4355 34.1217 49.1829C35.0363 48.9211 35.8599 48.4095 36.4998 47.7056C37.1089 47.0289 37.5093 46.1905 37.6528 45.2914C37.8214 44.3609 37.7342 43.402 37.4006 42.5171M15.3133 40.4633C12.2146 24.069 19.493 11.9985 29.7259 2.48617C22.5196 12.7191 14.2684 25.2941 19.6731 39.7427C21.0063 42.3009 16.4303 43.4538 15.5295 40.1029L15.3133 40.4633ZM44.4266 43.0936C41.8684 29.4377 48.0299 19.385 56.4612 11.4581C50.6601 19.7453 44.0663 29.87 48.0658 42.481C49.2549 44.6069 45.3635 45.4716 44.6429 42.8413L44.4266 43.0936ZM17.1149 15.9979L9.40413 15.2774L6.30549 22.3034L7.02616 14.6288L0 11.3859L7.6747 12.1066L10.9175 4.90032L10.1968 12.611L17.1149 15.9979ZM30.0141 43.9583C26.4109 25.0058 34.8784 11.0256 46.7327 0C38.9499 11.5661 29.1134 24.7535 35.0586 43.2376C36.2836 46.4444 30.987 47.9217 29.9421 43.9583H30.0141ZM13.5118 29.5458H8.21515L5.54886 34.1217V28.8251L0.972807 26.1588H6.30549L8.97177 21.5829V26.8795L13.5118 29.5458Z" fill="#FF671D"/>
</svg>
