<svg width="1920" height="931" viewBox="0 0 1920 931" fill="none" xmlns="http://www.w3.org/2000/svg">
<mask id="mask0_1007_5773" style="mask-type:alpha" maskUnits="userSpaceOnUse" x="0" y="0" width="1919" height="931">
<rect width="1919" height="931" fill="#F3F3F3"/>
</mask>
<g mask="url(#mask0_1007_5773)">
<circle cx="1263.5" cy="603.5" r="628.5" fill="url(#paint0_radial_1007_5773)"/>
<mask id="mask1_1007_5773" style="mask-type:alpha" maskUnits="userSpaceOnUse" x="635" y="-25" width="1257" height="1257">
<circle cx="1263.5" cy="603.5" r="628.5" fill="url(#paint1_radial_1007_5773)"/>
</mask>
<g mask="url(#mask1_1007_5773)">
<path d="M1251.06 676.105L-288 -787H-51.1998C500.544 -195.496 934.631 292.206 1251.06 676.105Z" fill="white" fill-opacity="0.04"/>
<path d="M1251.06 676.105C985.666 258.73 630.502 -228.972 185.569 -787H422.277C764.236 -256.322 1040.5 231.379 1251.06 676.105Z" fill="white" fill-opacity="0.04"/>
<path d="M1251.06 676.105C1098.45 210.486 901.142 -277.215 659.139 -787H895.847C1040.15 -291.3 1158.56 196.401 1251.06 676.105Z" fill="white" fill-opacity="0.04"/>
<path d="M1251.06 676.105C1220.1 189.301 1180.63 -298.401 1132.68 -787H1369.48C1321.48 -298.421 1282.01 189.281 1251.06 676.105Z" fill="white" fill-opacity="0.04"/>
<path d="M1251.06 676.105C1343.55 196.421 1461.95 -291.281 1606.25 -787H1843.02C1600.97 -277.196 1403.66 210.506 1251.06 676.105Z" fill="white" fill-opacity="0.04"/>
<path d="M1251.06 676.105C1461.63 231.321 1737.87 -256.381 2079.79 -787H2316.59C1871.61 -228.952 1516.44 258.749 1251.06 676.105Z" fill="white" fill-opacity="0.04"/>
<path d="M1251.06 676.105C1567.45 292.206 2001.55 -195.496 2553.36 -787H2790.13L1251.06 676.105Z" fill="white" fill-opacity="0.04"/>
<path d="M1251.06 676.105C1654.91 375.349 2167.93 -37.3149 2790.13 -561.887V-336.803C2203.09 86.1712 1690.07 423.807 1251.06 676.105Z" fill="white" fill-opacity="0.04"/>
<path d="M1251.06 676.104C1718.94 475.952 2231.96 213.344 2790.13 -111.719V113.394C2253.86 343.394 1740.83 530.965 1251.06 676.104Z" fill="white" fill-opacity="0.04"/>
<path d="M1251.06 676.105C1755.65 588.201 2268.67 475.64 2790.13 338.42V563.504C2276.14 609.133 1763.12 646.667 1251.06 676.105Z" fill="white" fill-opacity="0.04"/>
<path d="M1251.06 676.105C1763.18 705.581 2276.2 743.105 2790.13 788.676V1013.76C2268.69 876.579 1755.67 764.028 1251.06 676.105Z" fill="white" fill-opacity="0.04"/>
<path d="M1251.06 676.105C1740.85 821.206 2253.88 1008.79 2790.13 1238.84V1463.93C2231.96 1138.87 1718.94 876.257 1251.06 676.105Z" fill="white" fill-opacity="0.04"/>
<path d="M1251.06 676.105C1690.09 928.441 2203.11 1266.09 2790.13 1689.04V1914.13C2167.91 1389.57 1654.89 976.9 1251.06 676.105Z" fill="white" fill-opacity="0.04"/>
<path d="M1251.06 676.105L2790.13 2139.21H2553.3C2001.51 1547.74 1567.43 1060.04 1251.06 676.105Z" fill="white" fill-opacity="0.04"/>
<path d="M1251.06 676.105C1516.48 1093.46 1871.65 1581.16 2316.59 2139.21H2079.73C1737.81 1608.55 1461.59 1120.85 1251.06 676.105Z" fill="white" fill-opacity="0.04"/>
<path d="M1251.06 676.105C1403.7 1141.72 1601.02 1629.42 1843.02 2139.21H1606.19C1461.88 1643.55 1343.51 1155.85 1251.06 676.105Z" fill="white" fill-opacity="0.04"/>
<path d="M1251.06 676.105C1282.07 1162.93 1321.54 1650.63 1369.48 2139.21H1132.62C1180.57 1650.63 1220.06 1162.93 1251.06 676.105Z" fill="white" fill-opacity="0.04"/>
<path d="M1251.06 676.105C1158.6 1155.83 1040.21 1643.53 895.908 2139.21H659.077C901.08 1629.44 1098.41 1141.74 1251.06 676.105Z" fill="white" fill-opacity="0.04"/>
<path d="M1251.06 676.105C1040.52 1120.89 764.278 1608.59 422.339 2139.21H185.508C630.462 1581.18 985.647 1093.48 1251.06 676.105Z" fill="white" fill-opacity="0.04"/>
<path d="M1251.06 676.105C934.693 1060.02 500.605 1547.72 -51.1998 2139.21H-288L1251.06 676.105Z" fill="white" fill-opacity="0.04"/>
<path d="M1251.06 676.105C847.213 976.9 334.192 1389.57 -288 1914.13V1689.04C298.896 1266.07 811.917 928.422 1251.06 676.105Z" fill="white" fill-opacity="0.04"/>
<path d="M1251.06 676.105C783.188 876.257 270.167 1138.87 -288 1463.93V1238.84C248.23 1008.79 761.251 821.206 1251.06 676.105Z" fill="white" fill-opacity="0.04"/>
<path d="M1251.06 676.105C746.476 764.028 233.455 876.579 -288 1013.76V788.676C225.903 743.086 738.924 705.562 1251.06 676.105Z" fill="white" fill-opacity="0.04"/>
<path d="M1251.06 676.105C738.986 646.667 225.965 609.153 -288 563.562V338.42C233.393 475.64 746.414 588.201 1251.06 676.105Z" fill="white" fill-opacity="0.04"/>
<path d="M1251.06 676.104C761.23 530.965 248.209 343.394 -288 113.394V-111.719C270.167 213.344 783.188 475.952 1251.06 676.104Z" fill="white" fill-opacity="0.04"/>
<path d="M1251.06 676.105C811.917 423.807 298.896 86.1712 -288 -336.803V-561.887C334.171 -37.3345 847.192 375.33 1251.06 676.105Z" fill="white" fill-opacity="0.04"/>
</g>
</g>
<path fill-rule="evenodd" clip-rule="evenodd" d="M1920 931H0V605.98C142.825 621.064 256.184 628.808 402.516 613.238C535.114 599.126 646.773 597.534 777.86 617.313C875.676 632.073 970.092 651.879 1067.75 651.879H1096.56C1240.39 651.879 1354.15 628.889 1501.32 613.238C1606.56 602.04 1690.94 598.073 1786.24 606.6C1814.82 609.083 1844.34 612.591 1875.58 617.394C1890.48 619.633 1905.27 622.008 1920 624.383V931Z" fill="#090908"/>
<path opacity="0.45" fill-rule="evenodd" clip-rule="evenodd" d="M1604.57 600.004C1518.94 608.629 1439.91 576.733 1334.33 587.213C1301.52 590.845 1269.11 597.491 1237.51 607.067C1274.26 616.278 1312.32 625.847 1364.97 630.436C1437.4 621.518 1510.87 610.908 1592.93 602.152L1604.57 600.916V600.004Z" fill="#3E2E1B"/>
<path opacity="0.6" fill-rule="evenodd" clip-rule="evenodd" d="M1364.97 630.436C1280.96 640.753 1198.29 648.76 1105.21 648.76H1070.57C971.207 648.76 874.612 631.738 776 615.725C894.679 634.407 970.785 587.864 1082.8 585C1202.65 585 1247.53 620.249 1364.97 630.436Z" fill="#3E2E1B"/>
<defs>
<radialGradient id="paint0_radial_1007_5773" cx="0" cy="0" r="1" gradientUnits="userSpaceOnUse" gradientTransform="translate(1263.5 603.5) rotate(90) scale(628.5)">
<stop stop-color="#D7A461" stop-opacity="0.55"/>
<stop offset="1" stop-opacity="0.24"/>
</radialGradient>
<radialGradient id="paint1_radial_1007_5773" cx="0" cy="0" r="1" gradientUnits="userSpaceOnUse" gradientTransform="translate(1263.5 603.5) rotate(90) scale(628.5)">
<stop stop-color="#D7A461"/>
<stop offset="1" stop-color="#D7A461" stop-opacity="0"/>
</radialGradient>
</defs>
</svg>
