<svg width="38" height="38" viewBox="0 0 38 38" fill="none" xmlns="http://www.w3.org/2000/svg">
<g clip-path="url(#clip0_1352_14198)">
<path d="M19 37.51C15.3474 37.508 11.7774 36.4231 8.74132 34.3924C5.70526 32.3617 3.33946 29.4764 1.94304 26.1012C0.546627 22.7261 0.182311 19.0127 0.896109 15.4306C1.60991 11.8484 3.36976 8.55829 5.95324 5.97622C8.53671 3.39414 11.8278 1.63604 15.4103 0.924181C18.9929 0.212322 22.7061 0.578672 26.0804 1.97692C29.4548 3.37516 32.3388 5.74251 34.3679 8.77967C36.397 11.8168 37.48 15.3874 37.48 19.04C37.4747 23.9387 35.5257 28.635 32.0608 32.098C28.596 35.5609 23.8986 37.5074 19 37.51ZM19 2.57001C15.743 2.57199 12.5596 3.53962 9.85247 5.35057C7.14531 7.16152 5.03586 9.73447 3.79082 12.7441C2.54578 15.7538 2.22103 19.0651 2.85766 22.2593C3.49428 25.4535 5.06368 28.3872 7.36745 30.6896C9.67122 32.992 12.6059 34.5596 15.8005 35.1943C18.9951 35.829 22.3062 35.5022 25.3151 34.2554C28.324 33.0085 30.8957 30.8975 32.705 28.1892C34.5143 25.481 35.48 22.297 35.48 19.04C35.4852 16.872 35.0629 14.7242 34.2372 12.7196C33.4115 10.715 32.1986 8.89284 30.6679 7.35749C29.1372 5.82215 27.3187 4.60372 25.3166 3.77193C23.3145 2.94014 21.168 2.51132 19 2.51001V2.57001Z" fill="#1D1D1B"/>
<path d="M16.36 13.51H17.9C18.06 13.51 18.18 13.4 18.17 13.23C18.1701 13.1928 18.1625 13.156 18.1477 13.1218C18.1329 13.0877 18.1112 13.057 18.084 13.0316C18.0567 13.0063 18.0246 12.9868 17.9895 12.9745C17.9544 12.9622 17.9171 12.9572 17.88 12.96H16.37V11.96H17.88C18.06 11.96 18.18 11.86 18.17 11.67C18.1702 11.6332 18.1627 11.5967 18.1478 11.563C18.1329 11.5294 18.111 11.4992 18.0835 11.4747C18.0561 11.4501 18.0238 11.4316 17.9887 11.4205C17.9536 11.4093 17.9165 11.4057 17.88 11.41H16.37V10.61H17.8C17.99 10.61 18.15 10.55 18.15 10.33C18.15 10.11 17.98 10.06 17.79 10.06H16.35V8.98999H21.64V29.1C21.666 29.7289 21.506 30.3516 21.18 30.89C20.9509 31.2998 20.6105 31.6365 20.1983 31.8612C19.786 32.086 19.3186 32.1895 18.85 32.16C18.3676 32.1319 17.9029 31.9689 17.5086 31.6895C17.1143 31.4102 16.8064 31.0257 16.62 30.58C16.4179 30.1486 16.3186 29.6762 16.33 29.2V13.7C16.33 13.7 16.36 13.6 16.36 13.51ZM17.14 22.6V29.19C17.1212 29.4464 17.1555 29.7039 17.2407 29.9465C17.3259 30.189 17.4602 30.4114 17.6352 30.5997C17.8102 30.788 18.0222 30.9382 18.2579 31.0409C18.4936 31.1436 18.7479 31.1966 19.005 31.1966C19.2621 31.1966 19.5164 31.1436 19.7521 31.0409C19.9877 30.9382 20.1997 30.788 20.3747 30.5997C20.5498 30.4114 20.6841 30.189 20.7693 29.9465C20.8545 29.7039 20.8888 29.4464 20.87 29.19V18.19C20.87 17.75 20.87 17.72 20.4 17.69C19.9861 17.6897 19.5771 17.6003 19.2009 17.4277C18.8247 17.2552 18.4902 17.0035 18.22 16.69C18.01 16.42 17.87 16.09 17.68 15.81C17.62 15.72 17.46 15.61 17.37 15.63C17.28 15.65 17.21 15.81 17.15 15.92C17.1348 15.9892 17.1348 16.0608 17.15 16.13L17.14 22.6Z" fill="#1D1D1B"/>
<path d="M18.98 8.41999H15.62C15.16 8.41999 14.96 8.19999 15.01 7.73999C15.0124 7.61781 15.0614 7.50117 15.1469 7.41384C15.2323 7.3265 15.3479 7.27506 15.47 7.26999H22.39C22.8 7.26999 22.99 7.43999 23.01 7.79999C23.0271 7.88371 23.0238 7.97033 23.0002 8.05247C22.9766 8.1346 22.9335 8.20981 22.8746 8.27169C22.8156 8.33357 22.7426 8.38029 22.6617 8.40785C22.5808 8.43542 22.4944 8.44301 22.41 8.42999L18.98 8.41999Z" fill="#1D1D1B"/>
<path d="M17.8 17.51C18.4417 18.2224 19.3338 18.6594 20.29 18.73C20.29 18.81 20.29 18.89 20.29 18.97V29.17C20.2916 29.4853 20.175 29.7898 19.9631 30.0233C19.7512 30.2568 19.4594 30.4023 19.1454 30.4312C18.8315 30.4601 18.5181 30.3702 18.2671 30.1793C18.0162 29.9884 17.8459 29.7103 17.79 29.4V17.51H17.8Z" fill="#1D1D1B"/>
<path d="M31.28 6.01999L23 14.3V16.9L23.11 17.01L32.69 7.43999L31.28 6.01999Z" fill="#1D1D1B"/>
<path d="M14.99 23.29L6.26001 32.02L7.68001 33.43L14.99 26.11V23.29Z" fill="#1D1D1B"/>
</g>
<defs>
<clipPath id="clip0_1352_14198">
<rect width="38" height="38" fill="white"/>
</clipPath>
</defs>
</svg>
