<svg width="38" height="38" viewBox="0 0 38 38" fill="none" xmlns="http://www.w3.org/2000/svg">
<g clip-path="url(#clip0_1352_14160)">
<path d="M19 37.47C15.347 37.47 11.776 36.3868 8.73866 34.3573C5.70128 32.3277 3.33394 29.4431 1.93599 26.0682C0.538037 22.6932 0.172263 18.9795 0.884932 15.3967C1.5976 11.8139 3.3567 8.52282 5.93977 5.93975C8.52285 3.35667 11.8139 1.59757 15.3967 0.884902C18.9795 0.172233 22.6932 0.538004 26.0682 1.93595C29.4431 3.3339 32.3278 5.70125 34.3573 8.73863C36.3868 11.776 37.47 15.347 37.47 19C37.4648 23.8969 35.5171 28.5918 32.0545 32.0544C28.5918 35.5171 23.897 37.4647 19 37.47ZM19 2.53001C15.7426 2.53001 12.5583 3.49596 9.84981 5.30571C7.14133 7.11545 5.03031 9.68771 3.78374 12.6972C2.53716 15.7067 2.21101 19.0183 2.84651 22.2131C3.48201 25.408 5.05062 28.3427 7.35399 30.6461C9.65736 32.9494 12.592 34.518 15.7869 35.1535C18.9818 35.789 22.2933 35.4629 25.3028 34.2163C28.3123 32.9697 30.8846 30.8587 32.6944 28.1502C34.5041 25.4418 35.47 22.2575 35.47 19C35.4648 14.6335 33.7278 10.4474 30.6402 7.35981C27.5527 4.27223 23.3665 2.5353 19 2.53001Z" fill="#1D1D1B"/>
<path d="M19.61 14.31L19.88 14.62C20.94 15.9 22.03 17.17 23.07 18.47C23.8951 19.4809 24.5874 20.5933 25.13 21.78C25.4875 22.5258 25.6689 23.3438 25.6602 24.1708C25.6516 24.9979 25.453 25.8118 25.08 26.55C24.4825 27.8535 23.438 28.9 22.1355 29.4999C20.8331 30.0997 19.3589 30.2133 17.98 29.82C16.9153 29.5234 15.9533 28.9386 15.2 28.13C14.2476 27.1316 13.6684 25.8355 13.56 24.46C13.506 23.7326 13.6118 23.0022 13.87 22.32C14.3313 21.1244 14.9646 20.0026 15.75 18.99C16.75 17.59 17.89 16.3 19.02 14.99C19.22 14.78 19.4 14.55 19.61 14.31ZM15.06 24.31C15.11 24.6 15.14 24.89 15.21 25.17C15.4561 26.1529 16.0218 27.0261 16.8183 27.6525C17.6148 28.2788 18.5968 28.6226 19.61 28.63C19.6662 28.6355 19.7231 28.6294 19.7768 28.6119C19.8306 28.5944 19.8802 28.566 19.9224 28.5284C19.9647 28.4908 19.9987 28.4449 20.0224 28.3936C20.0461 28.3422 20.0589 28.2865 20.06 28.23C20.0613 28.174 20.0514 28.1183 20.0309 28.0662C20.0104 28.0141 19.9797 27.9666 19.9406 27.9265C19.9014 27.8865 19.8547 27.8546 19.8031 27.8329C19.7514 27.8112 19.696 27.8 19.64 27.8C19.44 27.8 19.24 27.8 19.04 27.74C18.3965 27.6459 17.7899 27.381 17.2834 26.973C16.7769 26.565 16.389 26.0287 16.16 25.42C15.9909 24.9895 15.8994 24.5324 15.89 24.07C15.8993 24.0101 15.8956 23.9489 15.879 23.8906C15.8624 23.8323 15.8334 23.7782 15.794 23.7322C15.7546 23.6862 15.7056 23.6492 15.6506 23.6238C15.5955 23.5985 15.5356 23.5854 15.475 23.5854C15.4144 23.5854 15.3545 23.5985 15.2994 23.6238C15.2443 23.6492 15.1954 23.6862 15.156 23.7322C15.1165 23.7782 15.0875 23.8323 15.071 23.8906C15.0544 23.9489 15.0507 24.0101 15.06 24.07V24.31Z" fill="#1D1D1B"/>
<path d="M12.71 8.63C12.7658 8.68492 12.816 8.74522 12.86 8.81001C13.47 9.54001 14.09 10.26 14.68 11C15.1452 11.573 15.5381 12.2011 15.85 12.87C16.0597 13.2927 16.1688 13.7582 16.1688 14.23C16.1688 14.7019 16.0597 15.1673 15.85 15.59C15.5267 16.2754 14.986 16.8349 14.3121 17.1815C13.6381 17.5281 12.8686 17.6425 12.1229 17.5068C11.3773 17.3711 10.6974 16.993 10.1887 16.4312C9.68004 15.8694 9.37114 15.1554 9.30998 14.4C9.27572 13.9858 9.33376 13.5691 9.47996 13.18C9.74518 12.5024 10.1055 11.8661 10.55 11.29C11.12 10.5 11.77 9.76 12.41 9.02L12.71 8.63ZM10.13 14.29C10.1469 14.4548 10.1736 14.6184 10.21 14.78C10.3458 15.3453 10.6665 15.8491 11.1212 16.2114C11.5759 16.5737 12.1386 16.7738 12.72 16.78C12.7847 16.7828 12.8479 16.7604 12.8964 16.7175C12.9449 16.6746 12.9748 16.6145 12.98 16.55C12.98 16.4854 12.9551 16.4233 12.9103 16.3767C12.8656 16.3301 12.8045 16.3026 12.74 16.3C12.62 16.3 12.51 16.3 12.4 16.3C12.0335 16.2468 11.6881 16.0962 11.3996 15.8641C11.1112 15.6319 10.8903 15.3266 10.76 14.98C10.6642 14.7344 10.6134 14.4736 10.61 14.21C10.6115 14.1772 10.606 14.1445 10.5939 14.114C10.5817 14.0835 10.5632 14.0559 10.5395 14.0332C10.5158 14.0105 10.4876 13.9931 10.4566 13.9822C10.4256 13.9713 10.3927 13.9671 10.36 13.97C10.22 13.97 10.13 14.07 10.14 14.24L10.13 14.29Z" fill="#1D1D1B"/>
<path d="M22.49 7.92999L22.6 8.05999C23.03 8.56999 23.47 9.05999 23.89 9.59999C24.2212 10.0049 24.4969 10.4522 24.71 10.93C24.858 11.2284 24.9351 11.5569 24.9351 11.89C24.9351 12.2231 24.858 12.5516 24.71 12.85C24.4663 13.3699 24.0463 13.7866 23.5247 14.0264C23.003 14.2662 22.4132 14.3135 21.86 14.16C21.432 14.0387 21.045 13.8037 20.74 13.48C20.3601 13.0797 20.1305 12.5603 20.09 12.01C20.0645 11.7179 20.1055 11.4239 20.21 11.15C20.3982 10.6714 20.6505 10.2207 20.96 9.80999C21.37 9.24999 21.83 8.73 22.28 8.21L22.49 7.92999ZM20.67 11.93C20.67 12.04 20.67 12.16 20.73 12.27C20.8242 12.6721 21.0511 13.0308 21.374 13.2884C21.6968 13.546 22.097 13.6874 22.51 13.69C22.556 13.6901 22.6004 13.6725 22.6338 13.6409C22.6673 13.6092 22.6874 13.566 22.69 13.52C22.6876 13.4757 22.6689 13.4338 22.6375 13.4025C22.6062 13.3711 22.5643 13.3524 22.52 13.35H22.28C22.0211 13.3131 21.7768 13.2073 21.5727 13.0437C21.3687 12.8801 21.2123 12.6647 21.12 12.42C21.0538 12.2438 21.0167 12.0581 21.01 11.87C21.0133 11.8469 21.0113 11.8233 21.0039 11.8012C20.9965 11.779 20.9841 11.7589 20.9676 11.7424C20.9511 11.7259 20.931 11.7134 20.9088 11.7061C20.8867 11.6987 20.8631 11.6966 20.84 11.7C20.74 11.7 20.68 11.78 20.68 11.89L20.67 11.93Z" fill="#1D1D1B"/>
<path d="M12.24 26.04L6.26001 32.02L7.68001 33.43L12.24 28.87V26.04Z" fill="#1D1D1B"/>
<path d="M27.4399 12.69L32.6899 7.43999L31.2799 6.01999L27.4399 9.85999V12.69Z" fill="#1D1D1B"/>
</g>
<defs>
<clipPath id="clip0_1352_14160">
<rect width="38" height="38" fill="white"/>
</clipPath>
</defs>
</svg>
