<svg width="38" height="38" viewBox="0 0 38 38" fill="none" xmlns="http://www.w3.org/2000/svg">
<g clip-path="url(#clip0_1352_14170)">
<path d="M31.2748 6.01388L21.2975 15.9911L22.7117 17.4054L32.689 7.4281L31.2748 6.01388Z" fill="#1D1D1B"/>
<path d="M16.8006 21.4778L6.25763 32.0208L7.67184 33.435L18.2148 22.892L16.8006 21.4778Z" fill="#1D1D1B"/>
<path d="M27.54 35.73C27.1822 35.663 26.8432 35.5192 26.5462 35.3086C26.2493 35.098 26.0016 34.8255 25.82 34.51C25.6758 34.2577 25.5829 33.9794 25.5469 33.691C25.5108 33.4027 25.5323 33.11 25.61 32.83C26.1881 31.0544 26.9313 29.3369 27.83 27.7H27.88L27.95 27.78C28.7445 29.315 29.4425 30.8981 30.04 32.52C30.1648 32.8433 30.2171 33.19 30.1934 33.5358C30.1696 33.8815 30.0703 34.2178 29.9025 34.521C29.7347 34.8242 29.5025 35.0869 29.2221 35.2906C28.9418 35.4943 28.6202 35.6341 28.28 35.7C28.28 35.7 28.23 35.7 28.2 35.7L27.54 35.73Z" fill="#1D1D1B"/>
<path d="M12.39 7.47C12.85 7.22 13.22 7.00001 13.6 6.80001C13.6936 6.74186 13.806 6.7219 13.9139 6.74423C14.0218 6.76656 14.1171 6.82948 14.18 6.92C15.18 7.92 16.08 8.83001 17.05 9.78C17.1471 9.85204 17.2128 9.95875 17.2333 10.078C17.2538 10.1972 17.2275 10.3197 17.16 10.42C16.89 10.86 16.61 11.31 16.32 11.74C16.15 11.99 15.95 12.21 15.75 12.46L16 12.73C18.43 15.16 20.85 17.59 23.29 20.01C23.5416 20.2265 23.7453 20.493 23.8882 20.7926C24.0311 21.0922 24.11 21.4182 24.12 21.75C24.1399 21.8878 24.2114 22.0129 24.32 22.1L27.39 25.18C27.5213 25.3067 27.6264 25.4581 27.6992 25.6254C27.772 25.7927 27.8112 25.9728 27.8144 26.1553C27.8177 26.3377 27.785 26.519 27.7181 26.6889C27.6513 26.8587 27.5517 27.0137 27.425 27.145C27.2982 27.2763 27.1469 27.3814 26.9796 27.4542C26.8122 27.5271 26.6322 27.5662 26.4497 27.5695C26.2672 27.5727 26.0859 27.54 25.9161 27.4732C25.7463 27.4063 25.5913 27.3067 25.46 27.18C24.64 26.38 23.84 25.57 23.03 24.76L22.68 24.41C22.5573 24.2424 22.3981 24.1049 22.2145 24.0079C22.0308 23.9109 21.8275 23.8569 21.62 23.85C21.1138 23.7834 20.6523 23.5258 20.33 23.13L13.01 15.81C12.9305 15.7119 12.8633 15.6044 12.81 15.49L11.32 16.58L11.14 16.71C10.46 17.14 10.35 17.13 9.77997 16.57C8.91997 15.7 8.05997 14.83 7.18997 13.98C7.09391 13.9097 7.0281 13.8056 7.00583 13.6887C6.98355 13.5717 7.00648 13.4507 7.06998 13.35C7.26998 12.98 7.47996 12.61 7.73996 12.16C7.64184 12.1132 7.55093 12.0526 7.46997 11.98C6.16997 10.68 4.85998 9.39 3.56998 8.08C3.25349 7.77271 3.00063 7.40609 2.82583 7.00107C2.65104 6.59606 2.55771 6.16058 2.55121 5.7195C2.54471 5.27842 2.62514 4.84038 2.78793 4.43039C2.95072 4.0204 3.19267 3.64649 3.49997 3.33C3.80726 3.01352 4.17387 2.76066 4.57889 2.58586C4.9839 2.41106 5.41939 2.31775 5.86047 2.31125C6.30155 2.30475 6.73957 2.38519 7.14957 2.54798C7.55956 2.71076 7.93348 2.95271 8.24997 3.26C9.56997 4.57 10.87 5.88 12.18 7.19C12.2572 7.27767 12.3275 7.37129 12.39 7.47ZM13.12 15.26L20.72 22.93C20.8937 23.1038 21.1016 23.2397 21.3305 23.3292C21.5594 23.4187 21.8044 23.4598 22.05 23.45C22.2062 23.4526 22.3559 23.5132 22.47 23.62L24.74 25.88C25.09 26.24 25.44 26.6 25.8 26.94C25.9319 27.0627 26.0963 27.1448 26.2736 27.1768C26.4508 27.2087 26.6335 27.189 26.8 27.12C26.9653 27.0582 27.1091 26.9497 27.2139 26.8077C27.3186 26.6656 27.3798 26.4962 27.39 26.32C27.4027 26.1521 27.3748 25.9835 27.3086 25.8286C27.2425 25.6737 27.1401 25.537 27.01 25.43L23.87 22.26C23.771 22.1691 23.7102 22.044 23.7 21.91C23.7147 21.6209 23.6639 21.3322 23.5514 21.0656C23.4388 20.7989 23.2674 20.5611 23.05 20.37C20.59 17.93 18.15 15.48 15.7 13.03L15.47 12.82L15.52 12.91L13.12 15.26Z" fill="#1D1D1B"/>
<path d="M16.47 18.01C17.01 17.82 16.99 17.37 16.92 16.91C16.85 16.45 16.83 16.24 16.8 15.91C16.7762 15.7492 16.792 15.585 16.846 15.4316C16.9001 15.2783 16.9907 15.1404 17.11 15.03C17.19 15.11 17.27 15.17 17.34 15.25L22.77 20.67C22.9661 20.8367 23.1154 21.0516 23.2031 21.2936C23.2908 21.5357 23.3138 21.7964 23.27 22.05C23.2802 22.184 23.341 22.3091 23.44 22.4C24.5 23.47 25.58 24.54 26.65 25.61L26.81 25.78C26.8716 25.8293 26.9226 25.8906 26.9597 25.9602C26.9968 26.0298 27.0193 26.1063 27.0259 26.1849C27.0324 26.2636 27.0229 26.3427 26.9978 26.4175C26.9727 26.4923 26.9326 26.5612 26.88 26.62C26.8216 26.6774 26.7516 26.7216 26.6746 26.7495C26.5976 26.7774 26.5156 26.7885 26.434 26.7818C26.3524 26.7752 26.2731 26.751 26.2017 26.711C26.1303 26.671 26.0683 26.6161 26.02 26.55C24.91 25.44 23.8 24.34 22.69 23.22C22.63 23.1398 22.5478 23.079 22.4536 23.0452C22.3593 23.0114 22.2572 23.0061 22.16 23.03C21.9807 23.0611 21.7965 23.0493 21.6227 22.9954C21.4488 22.9415 21.2902 22.8471 21.16 22.72L16.47 18.01Z" fill="#1D1D1B"/>
<path d="M19 35.47C16.1573 35.4698 13.3631 34.7333 10.8896 33.3324C8.41611 31.9315 6.34758 29.9139 4.88548 27.476C3.42337 25.0382 2.61754 22.2632 2.54649 19.4214C2.47543 16.5796 3.14157 13.7679 4.48002 11.26L3.02 9.76001C1.12527 13.0094 0.270138 16.7607 0.569436 20.5102C0.868734 24.2597 2.30814 27.8278 4.69434 30.7354C7.08054 33.6431 10.2993 35.751 13.9183 36.7761C17.5374 37.8012 21.3834 37.6944 24.94 36.47L24.19 34.62C22.5165 35.1788 20.7643 35.4658 19 35.47Z" fill="#1D1D1B"/>
<path d="M19 0.519999C15.9224 0.519785 12.8937 1.28985 10.19 2.76L11.72 4.26C15.1904 2.52074 19.1643 2.06559 22.938 2.97513C26.7118 3.88468 30.042 6.10024 32.3389 9.22953C34.6359 12.3588 35.7515 16.2 35.4881 20.0728C35.2247 23.9457 33.5994 27.6005 30.9 30.39L31.72 32.39C34.4086 29.8534 36.2734 26.5676 37.0725 22.9587C37.8716 19.3497 37.5683 15.5839 36.2018 12.1494C34.8353 8.71485 32.4687 5.76996 29.4087 3.6964C26.3487 1.62285 22.7364 0.516231 19.04 0.519999H19Z" fill="#1D1D1B"/>
</g>
<defs>
<clipPath id="clip0_1352_14170">
<rect width="38" height="38" fill="white"/>
</clipPath>
</defs>
</svg>
