<svg width="38" height="38" viewBox="0 0 38 38" fill="none" xmlns="http://www.w3.org/2000/svg">
<g clip-path="url(#clip0_1352_14081)">
<path d="M31.5086 5.87183L24.3951 12.9853L25.8094 14.3995L32.9228 7.28604L31.5086 5.87183Z" fill="#1D1D1B"/>
<path d="M14.1063 24.2406L6.23621 32.1107L7.65042 33.5249L15.5205 25.6548L14.1063 24.2406Z" fill="#1D1D1B"/>
<path d="M25.58 33.5C25.6039 33.3577 25.6039 33.2124 25.58 33.07C25.49 32.68 25.7101 32.48 25.9801 32.26C27.8201 30.7467 29.6534 29.2267 31.4801 27.7C31.5472 27.6183 31.639 27.5605 31.7418 27.5352C31.8445 27.51 31.9527 27.5187 32.05 27.56C32.2255 27.6112 32.4072 27.6382 32.5901 27.64L25.58 33.5Z" fill="#1D1D1B"/>
<path d="M17.04 27.01C16.5512 26.4399 16.2056 25.7615 16.0316 25.031C15.8577 24.3006 15.8606 23.5391 16.04 22.81C16.4336 21.1751 17.0388 19.5985 17.84 18.12C18.5471 16.843 19.1362 15.5041 19.6 14.12C19.7446 13.6265 19.8154 13.1142 19.81 12.6C19.802 12.1486 19.6415 11.7132 19.3546 11.3646C19.0678 11.016 18.6714 10.7747 18.23 10.68C17.5729 10.5201 16.8871 10.5201 16.23 10.68C14.8 11.01 13.37 11.38 11.94 11.75C10.5804 12.1627 9.17785 12.4177 7.75999 12.51C6.84965 12.5698 5.93876 12.4014 5.10999 12.02C4.95025 11.9696 4.80321 11.8855 4.67879 11.7733C4.55437 11.6612 4.45549 11.5236 4.38881 11.37C4.32213 11.2163 4.28923 11.0501 4.29231 10.8827C4.2954 10.7152 4.3344 10.5503 4.40669 10.3992C4.47899 10.2482 4.58288 10.1143 4.71135 10.0069C4.83982 9.89939 4.98987 9.82074 5.15135 9.77626C5.31283 9.73177 5.48198 9.72247 5.64737 9.74899C5.81276 9.77551 5.97051 9.83724 6.10999 9.92999C6.82644 10.2714 7.63849 10.3561 8.40999 10.17C9.77999 9.87999 11.14 9.53999 12.5 9.16999C13.9838 8.6959 15.5172 8.39392 17.07 8.26999C18.2533 8.16299 19.4355 8.48607 20.4 9.17999C21.0147 9.6342 21.4965 10.2447 21.7955 10.9481C22.0945 11.6516 22.1996 12.4222 22.1 13.18C21.9493 14.5477 21.5493 15.8763 20.92 17.1C20.3 18.45 19.61 19.78 19 21.1C18.727 21.75 18.4998 22.4183 18.32 23.1C18.2511 23.3474 18.2174 23.6032 18.22 23.86C18.1954 24.1413 18.2283 24.4246 18.3168 24.6928C18.4052 24.9609 18.5473 25.2082 18.7344 25.4197C18.9216 25.6311 19.1498 25.8023 19.4052 25.9227C19.6606 26.0431 19.9378 26.1102 20.22 26.12C21.271 26.1791 22.3241 26.0504 23.33 25.74C24.98 25.33 26.62 24.87 28.27 24.47C29.2476 24.2094 30.2665 24.1415 31.27 24.27C31.868 24.3661 32.4522 24.5339 33.01 24.77C33.1599 24.8261 33.2965 24.9129 33.411 25.0249C33.5254 25.1368 33.6152 25.2714 33.6747 25.4201C33.7341 25.5687 33.7619 25.7282 33.7561 25.8882C33.7504 26.0482 33.7114 26.2052 33.6414 26.3492C33.5715 26.4933 33.4723 26.6211 33.3501 26.7246C33.228 26.828 33.0855 26.9049 32.9319 26.9501C32.7784 26.9954 32.617 27.0081 32.4583 26.9874C32.2995 26.9667 32.1468 26.9131 32.01 26.83C31.3654 26.5376 30.6512 26.4336 29.95 26.53C28.6323 26.7032 27.3335 26.9977 26.07 27.41C24.5693 27.8917 23.0254 28.2266 21.46 28.41C20.697 28.4905 19.9259 28.4398 19.18 28.26C18.3555 28.0722 17.6085 27.6359 17.04 27.01V27.01Z" fill="#1D1D1B"/>
<path d="M25.25 24.51C25.54 23.75 25.86 23.01 26.12 22.25C26.2654 21.8095 26.356 21.3527 26.39 20.89C26.4231 20.6117 26.3995 20.3296 26.3204 20.0607C26.2413 19.7918 26.1084 19.5418 25.9298 19.3258C25.7512 19.1098 25.5306 18.9324 25.2814 18.8042C25.0322 18.676 24.7595 18.5997 24.48 18.58C23.6805 18.5131 22.8754 18.5841 22.1 18.79L20.71 19.11C21.1 18.27 21.47 17.44 21.85 16.62C21.8688 16.5798 21.8967 16.5445 21.9313 16.5167C21.966 16.489 22.0066 16.4696 22.05 16.46C23.3222 16.1561 24.6532 16.2045 25.9 16.6C26.7464 16.9176 27.4719 17.4927 27.9742 18.2444C28.4765 18.9961 28.7304 19.8864 28.7 20.79C28.6623 21.7927 28.4491 22.781 28.07 23.71C28.0559 23.7463 28.0344 23.7793 28.0068 23.8069C27.9793 23.8344 27.9463 23.8559 27.91 23.87L25.25 24.51Z" fill="#1D1D1B"/>
<path d="M17.34 17.62C17.12 18.08 16.92 18.48 16.73 18.89C16.54 19.3 16.38 19.63 16.23 20.02C16.206 20.1016 16.1577 20.174 16.0916 20.2275C16.0256 20.2811 15.9448 20.3133 15.86 20.32C14.7252 20.5469 13.5546 20.523 12.43 20.25C11.4438 19.9661 10.5898 19.3426 10.0188 18.4899C9.44787 17.6371 9.19681 16.61 9.31 15.59C9.3872 14.7244 9.59279 13.8751 9.92 13.07C9.93821 13.0261 9.96541 12.9865 9.99986 12.9538C10.0343 12.9211 10.0752 12.8959 10.12 12.88C10.99 12.65 11.87 12.44 12.79 12.21C12.61 12.61 12.42 12.98 12.28 13.37C12.05 14.05 11.82 14.74 11.64 15.43C11.5079 15.9493 11.5646 16.4986 11.8 16.98C11.965 17.3155 12.2175 17.6003 12.5307 17.8044C12.844 18.0085 13.2064 18.1245 13.58 18.14C14.591 18.2089 15.6063 18.1006 16.58 17.82L17.34 17.62Z" fill="#1D1D1B"/>
<path d="M12.01 8.61001C12.25 8.02001 12.52 7.47001 12.72 6.88001C12.9157 6.29578 13.0662 5.69734 13.17 5.09001C13.1973 4.75337 13.1634 4.41458 13.07 4.09001C12.983 3.78901 13.0182 3.46583 13.1679 3.19061C13.3177 2.9154 13.57 2.71037 13.87 2.62001C14.0224 2.57829 14.1817 2.56787 14.3383 2.58939C14.4948 2.61091 14.6454 2.66392 14.7809 2.74522C14.9164 2.82652 15.034 2.93443 15.1267 3.06244C15.2193 3.19044 15.2851 3.33589 15.32 3.49001C15.5648 4.39033 15.5648 5.33969 15.32 6.24001C15.2 6.76001 15.02 7.24001 14.85 7.77001C14.832 7.81793 14.8039 7.86145 14.7677 7.89767C14.7315 7.93388 14.6879 7.96195 14.64 7.98C13.8 8.21 12.96 8.42001 12.13 8.63001L12.01 8.61001Z" fill="#1D1D1B"/>
<path d="M25.98 28.14C25.71 28.77 25.45 29.38 25.21 30C24.809 30.8801 24.7106 31.8681 24.93 32.81C24.9642 32.9512 24.97 33.0978 24.9472 33.2412C24.9244 33.3847 24.8734 33.5222 24.7972 33.6459C24.721 33.7696 24.621 33.8769 24.503 33.9617C24.3851 34.0465 24.2515 34.1071 24.11 34.14C23.8277 34.2166 23.5267 34.1827 23.2685 34.0452C23.0102 33.9078 22.8141 33.677 22.72 33.4C22.449 32.573 22.411 31.6873 22.61 30.84C22.74 30.22 22.94 29.61 23.13 29C23.1441 28.9543 23.1686 28.9124 23.2015 28.8777C23.2345 28.843 23.2751 28.8164 23.32 28.8C24.19 28.57 25.1 28.36 25.98 28.14Z" fill="#1D1D1B"/>
<path d="M12.39 3.26999C12.39 3.50999 12.39 3.73999 12.39 3.96999C12.3766 4.05786 12.3344 4.13878 12.27 4.19999L6.26996 9.13999C6.18565 9.18994 6.08734 9.21101 5.98996 9.19999C5.77996 9.19999 5.56996 9.12999 5.32996 9.08999L12.39 3.26999Z" fill="#1D1D1B"/>
<path d="M18.56 11.56L18.81 11.78C18.98 11.95 18.99 12.08 18.81 12.25C16.89 13.83 14.9766 15.4167 13.07 17.01C12.86 17.19 12.75 17.15 12.6 17.01C12.45 16.87 12.42 16.72 12.6 16.54C14.53 14.96 16.45 13.36 18.37 11.77L18.56 11.56Z" fill="#1D1D1B"/>
<path d="M25.1801 19.51L25.61 20.03L25.3801 20.22L19.6701 24.96C19.6192 25.0071 19.5562 25.0389 19.4881 25.0519C19.4201 25.0649 19.3497 25.0585 19.2851 25.0335C19.2205 25.0085 19.1642 24.9659 19.1227 24.9104C19.0811 24.855 19.056 24.789 19.05 24.72C19.05 24.64 19.14 24.53 19.22 24.47L22.55 21.7L25.1801 19.51Z" fill="#1D1D1B"/>
<path d="M25.58 21.79C25.5388 22.1064 25.4354 22.4116 25.2758 22.6879C25.1162 22.9642 24.9035 23.2062 24.65 23.4C23.98 23.88 23.36 24.45 22.72 24.98C22.5084 25.1652 22.26 25.3037 21.9912 25.3864C21.7224 25.4691 21.4392 25.4942 21.16 25.46L25.58 21.79Z" fill="#1D1D1B"/>
<path d="M12.35 5.85001C12.3069 6.16811 12.2006 6.47439 12.0375 6.75087C11.8744 7.02735 11.6576 7.26844 11.4 7.46C10.7334 7.94526 10.0987 8.47302 9.50002 9.04C9.04035 9.39467 8.47005 9.57532 7.89001 9.55L12.35 5.85001Z" fill="#1D1D1B"/>
<path d="M14.55 17.45L18.9301 13.79C18.8922 14.3218 18.6525 14.8191 18.2601 15.18C17.5001 15.75 16.7901 16.39 16.0601 16.99C15.8553 17.1693 15.6148 17.3031 15.3545 17.3824C15.0942 17.4617 14.82 17.4847 14.55 17.45V17.45Z" fill="#1D1D1B"/>
<path d="M30.0999 27.18L25.7 30.79C25.7395 30.2707 25.967 29.7836 26.34 29.42C27.08 28.86 27.7999 28.27 28.4799 27.64C28.9546 27.3126 29.524 27.1509 30.0999 27.18V27.18Z" fill="#1D1D1B"/>
<path d="M12.4399 14.92C12.5206 14.3212 12.8241 13.7748 13.2899 13.39C13.9294 12.9499 14.5345 12.4618 15.0999 11.93C15.3338 11.7119 15.6094 11.5436 15.9103 11.4353C16.2111 11.327 16.5308 11.281 16.8499 11.3L12.4399 14.92Z" fill="#1D1D1B"/>
<path d="M23.47 19.24L19.03 22.92C19.1141 22.3574 19.3854 21.8395 19.8 21.45C20.4723 20.9526 21.1166 20.4184 21.73 19.85C21.9655 19.6386 22.2405 19.4759 22.5391 19.3712C22.8377 19.2665 23.1541 19.2219 23.47 19.24V19.24Z" fill="#1D1D1B"/>
<path d="M19 35.47C16.2969 35.4783 13.6334 34.8199 11.2455 33.5531C8.85754 32.2864 6.8188 30.4503 5.3098 28.2076C3.8008 25.9648 2.8681 23.3846 2.59428 20.6954C2.32047 18.0061 2.714 15.2909 3.74002 12.79L2.28001 11.17C0.75772 14.4049 0.208092 18.0124 0.697937 21.5538C1.18778 25.0953 2.69601 28.4182 5.03923 31.1184C7.38245 33.8186 10.4597 35.7798 13.8969 36.7637C17.334 37.7475 20.983 37.7115 24.4 36.66L22.9 34.98C21.6248 35.3015 20.3151 35.4661 19 35.47V35.47Z" fill="#1D1D1B"/>
<path d="M18.9999 0.529999C17.5479 0.534136 16.1013 0.708659 14.6899 1.05L16.2399 2.79C17.1514 2.63016 18.0746 2.54653 18.9999 2.54C21.664 2.53102 24.2903 3.16999 26.6525 4.40186C29.0147 5.63372 31.0419 7.42151 32.5594 9.61116C34.0769 11.8008 35.0391 14.3266 35.3633 16.9709C35.6874 19.6152 35.3637 22.2987 34.42 24.79L35.9099 26.45C36.9395 24.1189 37.4709 21.5984 37.4699 19.05C37.4739 16.621 36.9992 14.2151 36.073 11.9696C35.1468 9.72412 33.7873 7.68314 32.072 5.96327C30.3568 4.2434 28.3195 2.87833 26.0766 1.94607C23.8336 1.01381 21.4289 0.532623 18.9999 0.529999V0.529999Z" fill="#1D1D1B"/>
</g>
<defs>
<clipPath id="clip0_1352_14081">
<rect width="38" height="38" fill="white"/>
</clipPath>
</defs>
</svg>
