<svg width="21" height="18" viewBox="0 0 21 18" fill="none" xmlns="http://www.w3.org/2000/svg">
<path d="M0.853259 8.64291L5.46166 10.3629L7.24539 16.0994C7.35953 16.4668 7.80879 16.6026 8.10699 16.3588L10.6758 14.2646C10.9451 14.0452 11.3286 14.0343 11.61 14.2386L16.2432 17.6024C16.5622 17.8342 17.0141 17.6594 17.0941 17.274L20.4882 0.947905C20.5755 0.526838 20.1618 0.175571 19.7609 0.330638L0.847859 7.6267C0.381126 7.8067 0.385192 8.46751 0.853259 8.64291ZM6.95793 9.4473L15.9645 3.90017C16.1263 3.80077 16.2929 4.01964 16.1539 4.14857L8.72086 11.0579C8.45959 11.3011 8.29106 11.6266 8.24333 11.9798L7.99013 13.8562C7.95659 14.1068 7.60466 14.1316 7.53553 13.8892L6.56173 10.4675C6.45019 10.0772 6.61273 9.66037 6.95793 9.4473Z" fill="white"/>
</svg>
