<svg width="21" height="13" viewBox="0 0 21 13" fill="none" xmlns="http://www.w3.org/2000/svg">
<path d="M17.0967 7.51125C16.7734 7.10458 16.8657 6.92336 17.0967 6.55982C17.1008 6.55572 19.7701 2.88127 20.0452 1.63508L20.0468 1.63426C20.1836 1.18011 20.0468 0.846313 19.386 0.846313H17.1991C16.6424 0.846313 16.3857 1.13262 16.2482 1.45331C16.2482 1.45331 15.1347 4.10837 13.5596 5.82918C13.0514 6.32646 12.8163 6.48585 12.5388 6.48585C12.4021 6.48585 12.1895 6.32646 12.1895 5.87231V1.63426C12.1895 1.08977 12.0336 0.846313 11.5728 0.846313H8.13435C7.78503 0.846313 7.57763 1.10041 7.57763 1.33704C7.57763 1.85342 8.36504 1.97215 8.44696 3.42495V6.57728C8.44696 7.26807 8.3212 7.39498 8.04202 7.39498C7.29872 7.39498 5.49432 4.72928 4.42526 1.6782C4.20937 1.08622 3.99868 0.847132 3.43785 0.847132H1.25015C0.626029 0.847132 0.5 1.13343 0.5 1.45413C0.5 2.02018 1.2433 4.83545 3.95676 8.55466C5.76528 11.0934 8.31189 12.469 10.6286 12.469C12.0213 12.469 12.1911 12.1636 12.1911 11.6379C12.1911 9.21214 12.0654 8.98288 12.7629 8.98288C13.0862 8.98288 13.6429 9.14227 14.9429 10.3669C16.4287 11.8189 16.6731 12.469 17.5046 12.469H19.6915C20.3148 12.469 20.6307 12.1636 20.449 11.5607C20.0334 10.2932 17.2232 7.68565 17.0967 7.51125Z" fill="white"/>
</svg>
