<svg width="50" height="49" viewBox="0 0 50 49" fill="none" xmlns="http://www.w3.org/2000/svg">
<g clip-path="url(#clip0_2365_1552)">
<path d="M46.8108 49.0291C46.8685 48.9871 46.921 48.9486 46.963 48.9136C47.0617 48.8315 47.1552 48.7433 47.2429 48.6495C47.2813 48.6093 47.3163 48.569 47.3513 48.5271C47.3585 48.5201 47.3649 48.5125 47.3706 48.5043L47.4055 48.4571C47.4638 48.3717 47.5159 48.2823 47.5612 48.1894L47.57 48.1737C47.57 48.1562 47.584 48.1387 47.5892 48.1212C47.605 48.074 47.6207 48.0268 47.633 47.9778C47.6452 47.9288 47.6487 47.9078 47.6557 47.8728C47.6627 47.8378 47.6557 47.7714 47.6557 47.7224C47.6557 47.6734 47.6557 47.6367 47.6557 47.5947C47.6557 47.5807 47.6382 47.5002 47.6347 47.4845C47.5885 47.2859 47.5041 47.0981 47.3863 46.9317C46.7769 46.6579 46.1143 46.5229 45.4463 46.5364C45.1659 46.5473 44.8866 46.4947 44.6294 46.3824C42.5128 45.3049 40.4055 44.2098 38.3075 43.0972C38.2073 43.0336 38.1216 42.9496 38.0559 42.8508C37.9903 42.752 37.946 42.6405 37.9261 42.5235C37.8404 41.7223 37.8072 40.9141 37.7739 40.1077C37.7407 39.3013 37.9909 39.0336 38.7938 39.0424C39.7751 39.0529 40.7582 39.0581 41.7378 39.1194C43.3892 39.2226 44.6994 38.5841 45.8014 37.3981C47.5056 35.577 48.8142 33.4227 49.6446 31.0709C50.5438 28.5256 49.7374 26.5892 47.2988 25.4067C44.4387 24.016 41.5839 22.6078 38.7186 21.2311C38.3105 21.048 37.9432 20.7849 37.6386 20.4574C37.3339 20.1299 37.098 19.7446 36.9448 19.3244C36.5389 18.2433 36.1086 17.1727 35.6765 16.1022C35.143 14.7797 34.1687 13.9698 32.7587 13.7686C30.9465 13.5097 29.1307 13.2648 27.3079 13.1004C25.9085 12.9727 24.9744 12.3587 24.4076 11.0415C23.0082 7.80179 21.5405 4.59184 20.1061 1.36789C19.723 0.508992 19.081 0.0104451 18.1346 -5.06402e-05C17.1883 -0.0105464 16.4448 0.405786 16.1125 1.28568C14.5836 5.30905 13.0005 9.33242 11.6343 13.4135C10.9346 15.5249 10.6389 17.7483 9.57012 19.7792C5.61847 27.2802 3.09774 35.2307 2.35429 43.713C2.28607 44.5089 2.56595 45.018 3.18345 45.1124C3.80095 45.2069 4.22079 44.7853 4.2995 43.9684C4.72693 39.4083 5.65858 34.9096 7.07738 30.5548C8.3806 26.5612 10.2786 22.8335 12.0576 19.0497C12.4967 18.1139 12.7433 17.0853 13.0302 16.0847C13.2051 15.4602 13.2156 14.7797 13.4361 14.1727C14.874 10.2018 16.3486 6.24492 17.8093 2.27753C17.8989 2.12745 18.0063 1.98882 18.1294 1.86469C18.2851 2.17432 18.4075 2.38948 18.5107 2.62913C19.9102 5.77086 21.3096 8.91434 22.709 12.0596C23.4402 13.7022 24.6735 14.7027 26.463 14.9511C28.3838 15.2194 30.308 15.4614 32.2357 15.6771C33.0666 15.7716 33.5931 16.1669 33.8853 16.9471C34.2736 17.9862 34.7127 19.0078 35.1098 20.0468C35.3455 20.6944 35.7081 21.2884 36.1764 21.7939C36.6447 22.2995 37.2093 22.7064 37.8369 22.9909C39.2364 23.6574 40.6113 24.3571 42.0142 25.0078C42.4935 25.23 42.6527 25.4451 42.5548 26.0294C41.981 29.4493 43.6218 32.3601 46.0096 33.5146C46.0883 33.5531 46.1845 33.5759 46.3595 33.6423C45.4848 34.6622 44.7536 35.5508 43.9857 36.408C43.7527 36.6664 43.4637 36.8682 43.1408 36.9979C42.818 37.1277 42.4697 37.182 42.1227 37.1567C41.0329 37.1147 39.9413 37.0919 38.8515 37.0779C36.8888 37.0517 35.7518 38.2167 35.8112 40.1654C35.827 40.6815 35.8112 41.1975 35.8112 41.8325C35.136 41.2745 34.1459 41.32 33.9937 40.1514C33.245 34.37 30.3045 29.9881 25.3137 27.0073C23.951 26.1921 22.7073 25.279 21.6735 24.0685C20.8933 23.1571 20.0729 22.2789 19.2489 21.4078C18.3166 20.4212 16.9749 20.255 15.7119 20.932C14.4489 21.609 13.8576 22.8247 14.1533 24.1489C14.3632 25.083 14.5696 26.0207 14.818 26.9478C14.9247 27.3501 14.8582 27.5828 14.4821 27.7997C13.7474 28.2248 13.0337 28.6883 12.327 29.1624C10.7369 30.226 9.87799 31.7164 9.7433 33.6318C9.71459 33.9739 9.60095 34.3034 9.41268 34.5904C8.84066 35.4406 8.21267 36.2523 7.61966 37.0884C6.7835 38.271 6.86571 39.499 7.86806 40.5258C8.82317 41.5071 9.76079 42.5182 10.7946 43.4314C11.2883 43.8449 11.8756 44.1313 12.5054 44.2658C13.5025 44.4774 14.5364 44.5194 15.5579 44.6156C16.123 44.6699 16.3609 44.9777 16.3539 45.5253C16.3381 46.4751 16.2664 46.5503 15.3218 46.5503C10.98 46.5503 6.63656 46.5416 2.29482 46.5503C1.32921 46.5503 0.545525 46.8722 0.00149536 47.4337C0.00149536 47.4617 0.00149536 47.4897 0.00149536 47.5177C0.00236353 47.5334 0.00236353 47.5492 0.00149536 47.5649C0.00149536 47.5964 0.0137405 47.6279 0.0207377 47.6577C0.0277348 47.6874 0.0487256 47.7416 0.0609706 47.7836C0.0615366 47.7865 0.0615366 47.7895 0.0609706 47.7923V47.8046C0.0919161 47.8694 0.126369 47.9325 0.164178 47.9935C0.186919 48.0302 0.211408 48.0652 0.234149 48.1002L0.248143 48.1212C0.298873 48.1807 0.349604 48.2402 0.405581 48.2961C0.461559 48.3521 0.536777 48.4256 0.606749 48.4868L0.701212 48.5673L0.758936 48.6128C0.900629 48.716 1.04757 48.8139 1.19976 48.9031L1.28372 48.9486C1.4709 48.6128 1.83475 48.5026 2.49773 48.5026H45.595C46.2755 48.5043 46.6394 48.6408 46.8108 49.0291ZM44.5367 26.1886C45.5583 26.7641 46.5764 27.2382 47.4755 27.8802C48.079 28.3122 48.1752 29.0907 47.9846 29.8044C47.7939 30.5181 47.5053 31.1496 47.2429 31.8668C45.2382 31.0971 44.1274 28.795 44.5297 26.1833L44.5367 26.1886ZM40.3384 46.5119H18.2431C18.2676 46.1952 18.2921 45.9206 18.3113 45.6372C18.4215 44.0629 17.3982 42.8296 15.8378 42.6634C15.1661 42.5917 14.4926 42.4395 13.8244 42.4623C12.7591 42.5007 12.0226 42.0267 11.3561 41.2622C10.7404 40.5625 10.0512 39.9135 9.37245 39.2663C8.98411 38.8989 8.94562 38.5666 9.27449 38.1328C9.86925 37.3526 10.499 36.5864 10.987 35.7415C11.3492 35.1324 11.5871 34.4576 11.6868 33.756C11.8355 32.4965 12.3462 31.5082 13.3888 30.8085C14.1673 30.2837 14.9754 29.8096 15.7609 29.2988C16.7072 28.6813 17.0291 27.8732 16.7772 26.7676C16.5585 25.8107 16.3364 24.8574 16.1002 23.9058C15.9603 23.3425 16.109 22.9122 16.625 22.641C17.1411 22.3699 17.5819 22.4801 17.9702 22.9139C18.7102 23.7448 19.4869 24.5443 20.2076 25.3892C21.3691 26.7501 22.7668 27.7857 24.3027 28.6953C28.905 31.4225 31.4887 35.4948 32.1167 40.7987C32.1474 41.2234 32.2905 41.6324 32.5311 41.9837C32.7718 42.335 33.1015 42.6161 33.4864 42.7981C35.6503 43.9212 37.8089 45.06 39.9693 46.1917C40.1005 46.2617 40.2335 46.3282 40.3646 46.3964L40.3384 46.5119Z" fill="white"/>
<path d="M31.3856 18.6912C31.3856 19.5658 30.7016 20.1029 30.0858 19.7863C29.024 19.2387 27.957 18.9868 26.7622 19.1967C26.2374 19.2895 25.8456 18.9169 25.7651 18.3711C25.7388 18.2521 25.737 18.1291 25.76 18.0095C25.7829 17.8898 25.8301 17.7761 25.8986 17.6754C25.967 17.5747 26.0554 17.489 26.1582 17.4236C26.261 17.3582 26.376 17.3146 26.4963 17.2953C27.249 17.1146 28.0308 17.0908 28.7931 17.2254C29.5554 17.3599 30.2818 17.6498 30.9272 18.0772C31.1687 18.2416 31.2963 18.567 31.3856 18.6912Z" fill="white"/>
<path d="M17.1078 33.3502C16.9348 33.5778 16.7466 33.7935 16.5446 33.9957C16.1947 34.3123 15.7924 34.5572 15.467 34.8879C15.0577 35.3024 14.5766 35.4249 14.1305 35.138C14.0239 35.0716 13.9314 34.9848 13.8586 34.8824C13.7857 34.7801 13.7338 34.6643 13.706 34.5418C13.6782 34.4193 13.675 34.2925 13.6965 34.1687C13.718 34.045 13.7639 33.9267 13.8314 33.8208C14.0352 33.4355 14.3135 33.0946 14.6501 32.8177C14.9868 32.5409 15.375 32.3336 15.7924 32.2079C16.5078 31.9875 17.1078 32.4301 17.1078 33.3502Z" fill="white"/>
</g>
<defs>
<clipPath id="clip0_2365_1552">
<rect width="50" height="49.0239" fill="white" transform="translate(-0.000244141)"/>
</clipPath>
</defs>
</svg>
