<svg width="50" height="22" viewBox="0 0 50 22" fill="none" xmlns="http://www.w3.org/2000/svg">
<path d="M6.64706 0H8.26497V9.22027H6.64706V5.32163H1.61779V9.22027H-0.00012207V0H1.61779V3.89864H6.64706V0Z" fill="white"/>
<path d="M11.3839 8.22612C10.6562 7.36952 10.28 6.26901 10.3312 5.1462V0H11.8712V5.18519C11.8712 6.82262 12.7679 7.89474 14.1909 7.89474C15.6139 7.89474 16.4716 6.82261 16.4716 5.1462V0H18.0895V5.1462C18.1433 6.27277 17.7592 7.37648 17.0174 8.22612C16.2507 8.96578 15.2269 9.37913 14.1616 9.37913C13.0963 9.37913 12.0726 8.96578 11.3059 8.22612H11.3839Z" fill="white"/>
<path d="M29.5125 0H30.4482V9.22027H28.8108V3.37231L25.4969 7.71931H25.1656L21.8517 3.37231V9.22027H20.2338V0H21.15L25.341 5.59453L29.5125 0Z" fill="white"/>
<path d="M39.571 9.22027L38.6743 7.27095H33.9765L33.0798 9.22027H31.3644L35.7308 0H36.7445L41.1305 9.22027H39.571ZM34.6198 5.90643H38.0311L36.3157 2.26122L34.6198 5.90643Z" fill="white"/>
<path d="M48.3624 0H49.9804V9.22027H49.4151L43.84 3.27487V9.22027H42.2221V0H42.7874L48.3624 6.0429V0Z" fill="white"/>
<path d="M7.64117 16.5887H12.2026V16.9396C12.2231 17.5699 12.1144 18.1977 11.8831 18.7843C11.6517 19.371 11.3027 19.9042 10.8576 20.3509C10.4308 20.7899 9.91777 21.136 9.35087 21.3675C8.78397 21.5989 8.17539 21.7107 7.56324 21.6959C6.26793 21.7272 5.01307 21.2435 4.07394 20.3509C3.59924 19.9219 3.22414 19.3942 2.97495 18.8049C2.72577 18.2156 2.60854 17.579 2.63147 16.9396C2.60809 16.2943 2.72491 15.6517 2.97394 15.0561C3.22298 14.4604 3.59829 13.9258 4.07394 13.4893C5.02021 12.5954 6.28143 12.112 7.58269 12.1442C8.92344 12.1269 10.2203 12.6219 11.2085 13.5282L10.3507 14.6589H10.2533C9.9023 14.3134 9.48423 14.0435 9.02493 13.8658C8.56563 13.6882 8.07479 13.6065 7.58269 13.6257C7.15032 13.6195 6.72106 13.699 6.31957 13.8596C5.91809 14.0202 5.55237 14.2587 5.24355 14.5614C4.62558 15.1949 4.27966 16.0448 4.27966 16.9298C4.27966 17.8148 4.62558 18.6647 5.24355 19.2982C5.54677 19.5962 5.90635 19.8307 6.30131 19.988C6.69627 20.1454 7.11866 20.2223 7.54373 20.2144C8.24561 20.2348 8.93338 20.0147 9.49305 19.5906C10.0148 19.1743 10.3735 18.5878 10.5067 17.9337H7.66068L7.64117 16.5887Z" fill="white"/>
<path d="M20.9746 21.3646L20.8771 21.54H19.1032L16.0038 18.2067H15.2241V21.54H13.6451V12.3002H16.6276C17.586 12.2532 18.5307 12.5429 19.2981 13.1189C19.6204 13.369 19.8786 13.692 20.0514 14.0614C20.2243 14.4309 20.3068 14.8361 20.2923 15.2437C20.29 15.9311 20.0406 16.5948 19.5897 17.1136C19.1389 17.6325 18.5165 17.972 17.8361 18.0702L20.9746 21.3646ZM15.2241 13.7232V16.9006H16.5301C17.8362 16.9006 18.6938 16.2573 18.6938 15.2827C18.6938 14.308 17.8557 13.7232 16.5301 13.7232H15.2241Z" fill="white"/>
<path d="M29.1227 21.5399L28.226 19.5906H23.5671L22.6704 21.5399H21.033L25.38 12.3002H26.4131L30.7991 21.5399H29.1227ZM24.1714 18.2261H27.5827L25.8673 14.5809L24.1714 18.2261Z" fill="white"/>
<path d="M35.458 12.3002C36.0694 12.2727 36.6799 12.3729 37.2504 12.5944C37.821 12.8159 38.3391 13.1539 38.7718 13.5868C39.1925 14.0304 39.5198 14.5541 39.7341 15.1268C39.9484 15.6994 40.0454 16.3093 40.0194 16.9201C40.049 17.536 39.9518 18.1513 39.7338 18.728C39.5159 19.3048 39.1818 19.8306 38.7523 20.2729C38.3195 20.6989 37.8037 21.0312 37.2369 21.2492C36.6702 21.4672 36.0646 21.5662 35.458 21.54H31.7543V12.3002H35.458ZM35.458 20.0975C35.8546 20.1146 36.2502 20.045 36.6172 19.8935C36.9842 19.742 37.3137 19.5123 37.5827 19.2203C38.1425 18.5959 38.4363 17.7775 38.4014 16.9396C38.4282 16.103 38.1355 15.2875 37.5827 14.6589C37.3121 14.369 36.9823 14.1407 36.6157 13.9893C36.2491 13.838 35.8543 13.7672 35.458 13.7817H33.3137V20.0975H35.458Z" fill="white"/>
<path d="M47.1928 13.7622H43.2942V16.3158H46.9589V17.6803H43.2552V20.078H47.1539V21.5399H41.5788V12.3002H47.1539L47.1928 13.7622Z" fill="white"/>
</svg>
