<svg width="50" height="50" viewBox="0 0 50 50" fill="none" xmlns="http://www.w3.org/2000/svg">
<g clip-path="url(#clip0_2365_2193)">
<path d="M29.6785 8.5026C29.8363 8.58088 29.9667 8.70498 30.0527 8.85865C30.1387 9.01232 30.1763 9.18839 30.1605 9.36378C30.1906 9.74526 30.1404 10.1288 30.0131 10.4897C29.8858 10.8505 29.6842 11.1807 29.4215 11.4589C29.2686 11.6259 29.1502 11.8215 29.073 12.0343C28.9958 12.2471 28.9614 12.4731 28.9716 12.6993V17.198C28.9923 18.273 29.2215 19.3337 29.6464 20.3214C31.9343 25.8912 34.218 31.446 36.4973 36.9859C36.6871 37.4099 36.7827 37.8699 36.7776 38.3344C36.7724 38.7989 36.6666 39.2568 36.4675 39.6764C36.2684 40.0961 35.9806 40.4676 35.624 40.7653C35.2675 41.063 34.8506 41.2799 34.4022 41.4011C34.0997 41.4778 33.7888 41.5167 33.4767 41.5167H16.523C15.9761 41.533 15.4341 41.4094 14.9483 41.1575C14.4626 40.9057 14.0492 40.534 13.7473 40.0776C13.4454 39.6213 13.2651 39.0954 13.2234 38.5499C13.1817 38.0043 13.2799 37.4571 13.5089 36.9602C15.7839 31.4075 18.0611 25.8612 20.3405 20.3214C20.7966 19.2305 21.0282 18.059 21.0217 16.8766C21.0217 15.5013 21.0217 14.126 21.0217 12.7507C21.0419 12.2411 20.8593 11.7442 20.514 11.3689C20.24 11.0589 20.0398 10.6908 19.9285 10.2923C19.8172 9.89383 19.7976 9.47529 19.8713 9.06815C19.8713 8.7661 20.1091 8.63113 20.3212 8.48975L29.6785 8.5026ZM14.55 38.027C14.5049 38.3019 14.5216 38.5834 14.5989 38.851C14.6761 39.1186 14.812 39.3657 14.9966 39.5743C15.1812 39.7829 15.4099 39.9478 15.6661 40.057C15.9224 40.1662 16.1997 40.217 16.478 40.2057C22.1464 40.2057 27.8169 40.2057 33.4896 40.2057C33.8637 40.2057 34.2314 40.1083 34.5564 39.9229C34.9789 39.6742 35.2881 39.271 35.4188 38.7985C35.5495 38.326 35.4915 37.8213 35.2569 37.3908C33.7788 33.7918 32.2985 30.1928 30.8161 26.5939C30.6939 26.2854 30.6297 25.8741 30.3983 25.7134C30.167 25.5527 29.7557 25.662 29.4215 25.662H19.8456C19.7364 25.662 19.5629 25.662 19.5371 25.7391C19.2801 26.2982 14.55 38.0399 14.55 38.0399V38.027ZM29.9035 24.3445C29.8521 24.2224 29.8199 24.1131 29.7749 24.0039C29.3208 22.9071 28.8666 21.8081 28.4125 20.707C27.9949 19.7586 27.7573 18.7409 27.712 17.7057C27.6798 16.1825 27.7119 14.6594 27.667 13.1363C27.6283 12.6376 27.6922 12.1362 27.8547 11.6632C28.0171 11.1901 28.2748 10.7553 28.6117 10.3856C28.7348 10.2074 28.8321 10.0126 28.9009 9.80723H21.0474C21.1885 10.0685 21.3474 10.3197 21.523 10.5592C22.0566 11.173 22.3429 11.9632 22.3263 12.7764V17.0309C22.3388 18.1278 22.147 19.2175 21.7608 20.2442C21.2595 21.4975 20.7454 22.7507 20.2377 23.9975L20.1027 24.3445H29.9035Z" fill="white"/>
<path d="M24.9999 50C20.0553 50 15.2218 48.5338 11.1106 45.7867C6.99937 43.0397 3.79507 39.1352 1.90288 34.5671C0.010689 29.9989 -0.484407 24.9723 0.480223 20.1227C1.44485 15.2732 3.82589 10.8187 7.3222 7.32234C10.8185 3.82603 15.2731 1.44501 20.1226 0.480379C24.9721 -0.484251 29.9988 0.0108323 34.5669 1.90302C39.1351 3.79521 43.0396 6.99953 45.7866 11.1108C48.5336 15.222 49.9998 20.0555 49.9998 25C49.993 31.6283 47.3569 37.9832 42.67 42.6702C37.9831 47.3571 31.6282 49.9932 24.9999 50ZM24.9999 1.7995C20.4112 1.7995 15.9256 3.16018 12.1103 5.70949C8.29504 8.25879 5.32137 11.8822 3.56538 16.1216C1.80939 20.3609 1.34995 25.0257 2.24514 29.5262C3.14034 34.0267 5.34997 38.1606 8.59462 41.4052C11.8393 44.6499 15.9732 46.8595 20.4737 47.7547C24.9741 48.6499 29.639 48.1905 33.8783 46.4345C38.1176 44.6785 41.7411 41.7048 44.2904 37.8895C46.8397 34.0742 48.2004 29.5886 48.2004 25C48.1936 18.8489 45.747 12.9517 41.3976 8.60228C37.0481 4.25282 31.1509 1.8063 24.9999 1.7995Z" fill="white"/>
<path d="M41.0042 7.72614L7.73022 41.0001L9.00265 42.2725L42.2766 8.99856L41.0042 7.72614Z" fill="white"/>
<path d="M30.8418 32.3586C30.8444 32.4843 30.8203 32.6092 30.7711 32.7249C30.7248 32.841 30.6548 32.9461 30.5654 33.0334C30.4789 33.1222 30.3734 33.1903 30.2569 33.2326C30.1424 33.2771 30.0197 33.2969 29.897 33.2904C29.7764 33.2888 29.6574 33.2629 29.547 33.2143C29.4366 33.1658 29.337 33.0955 29.2543 33.0077C29.0829 32.8376 28.9858 32.6065 28.9844 32.365C28.9975 32.1222 29.1006 31.8931 29.2736 31.7223C29.4463 31.5548 29.6758 31.4584 29.9163 31.4524C30.1594 31.4586 30.3902 31.5601 30.559 31.7352C30.7218 31.9098 30.8135 32.1391 30.816 32.3778L30.8418 32.3586Z" fill="white"/>
<path d="M32.6991 36.0861C32.7012 36.2118 32.6771 36.3366 32.6284 36.4525C32.5822 36.5685 32.5121 36.6736 32.4227 36.761C32.3345 36.8476 32.2295 36.9154 32.1143 36.9602C31.9987 37.01 31.8737 37.0342 31.7479 37.0309C31.5049 37.0247 31.274 36.9231 31.1053 36.7481C30.9338 36.578 30.8367 36.3469 30.8353 36.1054C30.8465 35.8622 30.9499 35.6324 31.1245 35.4628C31.2951 35.2912 31.5254 35.1922 31.7672 35.1864C31.8882 35.1892 32.0074 35.2163 32.1178 35.266C32.2282 35.3156 32.3275 35.3869 32.4099 35.4756C32.5738 35.6496 32.6657 35.8792 32.667 36.1183L32.6991 36.0861Z" fill="white"/>
</g>
<defs>
<clipPath id="clip0_2365_2193">
<rect width="50" height="50" fill="white"/>
</clipPath>
</defs>
</svg>
