<svg width="45" height="50" viewBox="0 0 45 50" fill="none" xmlns="http://www.w3.org/2000/svg">
<path d="M5.96601 0C4.74393 0.330158 3.83062 1.20057 2.83688 1.89743C1.78735 2.63213 1.62907 3.79877 1.83146 5.01501C1.86129 5.18857 1.9054 5.35952 1.96119 5.58789C1.72248 5.61399 1.50583 5.63878 1.28788 5.66096C0.704086 5.72099 0.310997 6.15163 0.344727 6.6932C0.361115 6.94833 0.476234 7.18686 0.665398 7.35762C0.854561 7.52838 1.10271 7.61779 1.35664 7.60668C1.77438 7.60668 2.19211 7.55317 2.64746 7.52186C2.98088 9.91648 4.65831 10.5951 6.77554 10.7634C6.51607 11.5072 6.25661 12.2185 6.02829 12.9362C4.80362 16.671 4.03949 20.4854 4.23149 24.4395C4.43258 28.5724 5.72601 32.2472 8.86552 35.0933C10.5884 36.6593 12.6122 37.6785 14.802 38.4027C15.184 38.5284 15.5468 38.7067 15.8801 38.9325C17.8105 40.261 19.7345 41.6116 21.6623 42.9545C21.7686 43.0288 21.8698 43.1071 21.9996 43.2037C21.9607 43.3094 21.9282 43.4138 21.8828 43.5117C21.3431 44.6574 20.8099 45.8058 20.2495 46.9411C20.2026 47.0242 20.1387 47.0963 20.062 47.1525C19.9852 47.2088 19.8975 47.2479 19.8045 47.2674C18.6136 47.3835 17.4187 47.4657 16.2252 47.5584C15.5169 47.6132 15.0952 48.0138 15.1342 48.5958C15.1757 49.204 15.6531 49.5602 16.3874 49.5093C17.4252 49.431 18.4527 49.3553 19.4828 49.2614C20.2145 49.1948 20.9254 49.2 21.6221 49.4976C22.088 49.6801 22.5646 49.8339 23.0491 49.9582C23.594 50.1161 24.0973 49.8695 24.2751 49.3775C24.3211 49.255 24.3417 49.1243 24.3357 48.9935C24.3297 48.8626 24.2971 48.7344 24.24 48.6167C24.1829 48.499 24.1024 48.3943 24.0036 48.309C23.9048 48.2238 23.7897 48.1597 23.6653 48.1208C23.171 47.9355 22.6638 47.7855 22.1085 47.5989C22.5496 46.658 23.0167 45.7862 23.3734 44.8688C23.6783 44.0728 24.1233 43.5639 25.0055 43.483C25.3505 43.449 25.6865 43.2859 26.0174 43.1567C26.3482 43.0275 26.6673 42.8709 27.0409 42.7C27.1927 43.7544 27.4301 44.7775 27.4522 45.8058C27.4639 46.427 27.1434 47.0586 26.9424 47.6745C26.9138 47.762 26.7192 47.8285 26.5934 47.8442C26.1756 47.8938 25.754 47.9042 25.3363 47.9499C24.7745 48.0125 24.3957 48.4392 24.4165 48.9573C24.4351 49.2208 24.5563 49.4663 24.7538 49.6405C24.9512 49.8147 25.209 49.9035 25.4712 49.8878C26.2301 49.8486 26.9878 49.7847 27.7454 49.7116C27.9496 49.6984 28.1439 49.6188 28.2993 49.4849C28.4546 49.351 28.5626 49.17 28.6068 48.9691C28.7807 48.3805 28.9571 47.7946 29.1452 47.1643C29.6823 47.3365 30.1831 47.5049 30.6903 47.6576C31.339 47.852 31.8397 47.621 32.0265 47.0586C32.2134 46.4961 31.9189 46.0146 31.2767 45.8032C30.7578 45.6296 30.222 45.4887 29.7134 45.2812C29.6201 45.2386 29.537 45.1762 29.4698 45.0982C29.4026 45.0203 29.353 44.9287 29.3242 44.8297C29.1491 43.804 29.0077 42.7718 28.887 41.7382C28.8885 41.5409 28.9556 41.3498 29.0777 41.1954C29.502 40.6029 29.9405 40.0209 30.3971 39.4545C30.5268 39.2992 30.7266 39.1217 30.9057 39.1074C35.2011 38.7537 38.0409 35.0281 38.5015 32.0723C38.562 31.606 38.7205 31.158 38.9666 30.7581C39.2126 30.3583 39.5406 30.0158 39.9285 29.7534C41.2855 28.7785 41.9757 27.3914 42.0042 25.7079C42.0019 25.5566 42.0315 25.4066 42.091 25.2676C42.1505 25.1286 42.2385 25.0038 42.3493 24.9015C43.6207 23.6213 43.8503 22.0305 43.596 20.3341C43.4951 19.7081 43.6018 19.0661 43.8996 18.5071C44.3018 17.6993 44.7325 16.8707 44.9232 15.999C45.3928 13.8575 43.6362 12.1741 41.5502 12.7939C40.354 13.1502 39.215 13.7414 38.0993 14.3129C36.2402 15.2629 34.4318 16.3239 32.4209 16.9229C31.5478 17.1611 30.6609 17.345 29.7653 17.4736C29.0972 17.5845 28.7275 17.9486 28.7664 18.5515C28.8092 19.1322 29.2749 19.5172 29.934 19.4206C31.0133 19.2627 32.0849 19.0448 33.294 18.8281C32.3742 19.9804 31.5452 21.1184 30.6112 22.1623C28.5121 24.5113 26.0589 26.3617 23.0115 27.2922C20.8398 27.9551 18.6304 28.1691 16.4107 27.5532C13.4269 26.7232 11.9428 24.1355 12.6576 21.1105C12.8561 20.274 13.3503 19.6516 14.0185 19.1531C15.0161 18.4145 16.1642 18.036 17.3617 17.792C17.5364 17.7715 17.7134 17.7893 17.8806 17.8442C18.8211 18.0817 19.7552 18.3414 20.6971 18.5697C21.3237 18.7211 21.8335 18.4393 21.9697 17.9173C22.1215 17.3339 21.7959 16.8563 21.12 16.6775C20.4 16.4883 19.6852 16.286 18.96 16.1242C18.6032 16.0472 18.4709 15.8632 18.393 15.5226C17.7573 12.7235 16.7506 10.0796 15.0498 7.7437C13.6228 5.78624 11.8221 4.34034 9.48304 3.69829C9.4571 3.21154 9.49472 2.74697 9.39872 2.31241C9.1185 1.03354 8.23112 0.339291 7.02721 0.00260851L5.96601 0ZM16.5002 15.9415C15.9631 16.1177 15.4805 16.2508 15.0148 16.4296C13.5878 16.9816 12.2632 17.7254 11.4537 19.0813C10.2212 21.1484 10.2277 23.3446 11.1773 25.4952C12.437 28.3466 14.8682 29.5198 17.7937 29.7834C21.7155 30.1357 25.2403 28.9769 28.4252 26.7167C31.6892 24.4017 34.1126 21.3441 36.043 17.8611C36.142 17.6621 36.2915 17.4928 36.4763 17.3705C37.7412 16.6828 39.01 16.0003 40.2982 15.3582C40.8753 15.0684 41.4788 14.8351 42.1002 14.6614C42.7009 14.4956 43.0226 14.784 43.0473 15.4156C43.048 15.6103 43.0173 15.8037 42.9564 15.9885C42.4077 17.775 41.3374 18.9965 39.4096 19.2797C39.2176 19.3084 39.0204 19.3253 38.8336 19.3566C38.7084 19.3698 38.587 19.4078 38.4764 19.4683C38.3659 19.5288 38.2683 19.6107 38.1893 19.7093C38.1103 19.8079 38.0515 19.9213 38.0163 20.0428C37.981 20.1644 37.97 20.2917 37.9838 20.4176C38.0266 20.9317 38.421 21.2906 38.9672 21.2932C39.1615 21.2966 39.3554 21.2755 39.5445 21.2306C40.2541 21.0492 40.9612 20.8508 41.6747 20.659C41.8291 21.7721 41.7473 22.82 40.8639 23.6317C40.6917 23.7957 40.4732 23.9019 40.2386 23.9358C39.2734 24.0141 38.3043 24.0559 37.3365 24.0898C36.7189 24.1107 36.2986 24.4382 36.2571 24.9772C36.2143 25.5448 36.5892 25.9702 37.2249 26.0329C37.5954 26.0662 37.9675 26.0766 38.3393 26.0642C38.8997 26.0498 39.4602 26.0081 40.0258 25.9781C39.8961 27.2335 39.1177 28.1965 37.9786 28.5332C36.8396 28.8699 35.6993 28.9521 34.5356 28.6389C33.7001 28.4158 33.0488 29.02 33.2447 29.8003C33.3589 30.2532 33.7001 30.4802 34.1178 30.5442C34.9896 30.6747 35.8692 30.766 36.7475 30.873C36.4504 33.8823 33.6404 37.1199 31.3986 36.979C31.3934 36.9479 31.3934 36.9161 31.3986 36.885C31.5413 36.4531 31.6879 36.0237 31.8332 35.5918C32.0758 34.8702 31.8903 34.3351 31.3234 34.1302C30.7565 33.9254 30.2583 34.2229 30.0092 34.9315C29.6914 35.8345 29.3865 36.7428 29.0674 37.6471C28.7508 38.5548 28.207 39.3652 27.4885 40C26.4844 40.8926 25.3025 41.4237 24.0117 41.7474C23.8615 41.799 23.7004 41.8094 23.5448 41.7775C23.3893 41.7456 23.2451 41.6726 23.1269 41.566C21.0464 39.8316 19.524 37.5155 18.7524 34.9106C18.5552 34.2581 18.0713 33.9606 17.5147 34.1146C16.9582 34.2686 16.7013 34.8101 16.8868 35.4509C17.0166 35.8867 17.1684 36.3148 17.3266 36.7402C17.4564 37.0886 17.6068 37.4266 17.747 37.7698C16.8207 37.0925 15.8178 36.6893 14.7735 36.3174C9.9371 34.5883 7.06224 31.198 6.32926 26.0368C5.89725 22.9806 6.21769 19.9687 6.90527 16.9842C7.39129 14.7942 8.09046 12.6577 8.99265 10.6055C9.52715 9.41537 9.09903 8.81117 7.80042 8.81117C7.63825 8.81117 7.47479 8.82552 7.31522 8.81117C6.74051 8.74331 6.14764 8.72113 5.59628 8.57105C5.006 8.41185 4.65831 7.96033 4.60253 7.3222C4.54285 6.65013 4.73226 6.07203 5.34848 5.75623C5.71954 5.56194 6.12267 5.43724 6.53813 5.38823C8.30378 5.20944 9.89948 5.71708 11.3382 6.73757C12.9261 7.86637 13.9873 9.42973 14.841 11.1549C15.5891 12.6751 16.1465 14.283 16.5002 15.9415ZM3.76446 4.48127C3.63473 3.96842 3.75149 3.60172 4.11214 3.34464C4.70502 2.92183 5.30697 2.51207 5.9206 2.12188C6.28645 1.88699 6.73143 1.83479 7.05446 2.12188C7.28928 2.33329 7.419 2.69476 7.52149 3.01448C7.59674 3.25199 7.44106 3.39423 7.16084 3.38118C5.91801 3.33029 4.75042 3.55213 3.76446 4.48127Z" fill="white"/>
<path d="M24.401 18.3818C24.3982 18.5113 24.4219 18.64 24.4706 18.7599C24.5192 18.8798 24.5918 18.9883 24.6839 19.0789C24.776 19.1694 24.8855 19.2399 25.0058 19.2862C25.1261 19.3324 25.2545 19.3532 25.3831 19.3475C25.6346 19.3407 25.8737 19.236 26.0499 19.0553C26.2261 18.8747 26.3256 18.6323 26.3276 18.3792C26.3211 18.1178 26.2133 17.8694 26.0271 17.687C25.8409 17.5045 25.5911 17.4027 25.3312 17.4031C25.0795 17.4109 24.841 17.5179 24.667 17.701C24.493 17.8841 24.3975 18.1286 24.401 18.3818Z" fill="white"/>
</svg>
