<svg width="17" height="18" viewBox="0 0 17 18" fill="none" xmlns="http://www.w3.org/2000/svg">
<g clip-path="url(#clip0_1337_12582)">
<path d="M15.6296 10.2778C16.1129 6.20958 15.3974 3.6412 14.1068 2.47953L14.1075 2.47885C12.0245 0.495029 4.98961 0.201404 2.49751 2.56795C1.37836 3.72558 0.984164 5.42455 0.940964 7.52785C0.897764 9.63183 0.846464 13.5732 4.51914 14.6424H4.52251L4.51914 16.2752C4.51914 16.2752 4.49416 16.9367 4.91671 17.0697C5.40001 17.2263 5.61871 16.9191 7.12194 15.1236C9.63564 15.3417 11.5661 14.8422 11.7855 14.7693C12.2931 14.5992 15.1652 14.2191 15.6296 10.2778ZM7.36966 13.9748C7.36966 13.9748 5.77869 15.9586 5.28391 16.4736C5.12191 16.641 4.94439 16.6255 4.94709 16.2934C4.94709 16.0754 4.95924 13.5826 4.95924 13.5826C1.84546 12.6903 2.02906 9.33416 2.06281 7.57848C2.09656 5.82213 2.41786 4.3837 3.36556 3.41508C5.55189 1.3651 11.7194 1.82343 13.2908 3.30033C15.2118 5.00335 14.528 9.81475 14.5321 9.97878C14.1372 13.2687 11.8098 13.4773 11.3819 13.6197C11.1989 13.6805 9.50131 14.1172 7.36966 13.9748Z" fill="#414141"/>
<path d="M8.24987 3.80054C7.98999 3.80054 7.98999 4.20554 8.24987 4.20891C10.2661 4.22444 11.9266 5.62979 11.9448 8.20761C11.9448 8.47964 12.3431 8.47626 12.3397 8.20424H12.339C12.3174 5.42661 10.5044 3.81606 8.24987 3.80054Z" fill="#414141"/>
<path d="M10.9019 7.78023C10.8959 8.04888 11.2934 8.0617 11.2968 7.78968C11.3299 6.2581 10.3856 4.99653 8.61098 4.86355C8.3511 4.84465 8.3241 5.25303 8.5833 5.27193C10.1223 5.3887 10.933 6.439 10.9019 7.78023Z" fill="#414141"/>
<path d="M10.4767 9.52255C10.1432 9.3295 9.80372 9.44965 9.66332 9.63932L9.36969 10.0193C9.22052 10.2124 8.94174 10.1867 8.94174 10.1867C6.9073 9.64877 6.36325 7.51982 6.36325 7.51982C6.36325 7.51982 6.33827 7.2316 6.52457 7.07702L6.89177 6.77327C7.07537 6.62747 7.19147 6.27647 7.0045 5.93154C6.505 5.02907 6.16952 4.71789 5.99875 4.47894C5.8192 4.25417 5.5492 4.20354 5.2684 4.35542H5.26232C4.67845 4.69697 4.03923 5.33619 4.24375 5.99432C4.59272 6.68822 5.23397 8.9002 7.27787 10.5715C8.23839 11.3619 9.75849 12.1719 10.4038 12.3589L10.4099 12.3683C11.0457 12.5803 11.664 11.9161 11.9941 11.3147V11.3099C12.1406 11.019 12.092 10.7436 11.878 10.5634C11.4986 10.1935 10.9262 9.78512 10.4767 9.52255Z" fill="#414141"/>
<path d="M8.88911 6.37023C9.53779 6.40803 9.85234 6.74689 9.88609 7.44281C9.89824 7.71484 10.2931 7.69594 10.281 7.42391C10.2378 6.51536 9.76392 6.00911 8.91071 5.96186C8.65083 5.94633 8.62653 6.35471 8.88911 6.37023Z" fill="#414141"/>
</g>
<defs>
<clipPath id="clip0_1337_12582">
<rect width="16.2" height="16.2" fill="white" transform="translate(0 0.900024)"/>
</clipPath>
</defs>
</svg>
