<svg width="17" height="10" viewBox="0 0 17 10" fill="none" xmlns="http://www.w3.org/2000/svg">
<path d="M14.0433 5.69144C13.7814 5.36205 13.8562 5.21525 14.0433 4.92078C14.0466 4.91747 16.2088 1.94117 16.4316 0.931747L16.433 0.931083C16.5437 0.563218 16.433 0.292847 15.8977 0.292847H14.1263C13.6754 0.292847 13.4674 0.524752 13.356 0.784512C13.356 0.784512 12.4541 2.93511 11.1783 4.32897C10.7666 4.73177 10.5762 4.86087 10.3514 4.86087C10.2407 4.86087 10.0685 4.73177 10.0685 4.3639V0.931083C10.0685 0.490043 9.94221 0.292847 9.56894 0.292847H6.78383C6.50088 0.292847 6.33289 0.498665 6.33289 0.690335C6.33289 1.1086 6.97069 1.20477 7.03704 2.38154V4.93493C7.03704 5.49447 6.93518 5.59727 6.70904 5.59727C6.10697 5.59727 4.6454 3.43805 3.77947 0.966676C3.60459 0.487169 3.43394 0.29351 2.97966 0.29351H1.20763C0.70209 0.29351 0.600006 0.525415 0.600006 0.785175C0.600006 1.24368 1.20208 3.52405 3.39998 6.53661C4.86488 8.59303 6.92764 9.70723 8.8042 9.70723C9.93222 9.70723 10.0698 9.45985 10.0698 9.03407C10.0698 7.06917 9.96795 6.88347 10.533 6.88347C10.7948 6.88347 11.2458 7.01257 12.2988 8.00453C13.5023 9.18064 13.7002 9.70723 14.3737 9.70723H16.1451C16.65 9.70723 16.9059 9.45985 16.7587 8.9715C16.4221 7.94484 14.1458 5.83271 14.0433 5.69144Z" fill="#414141"/>
</svg>
