<svg width="60" height="60" viewBox="0 0 60 60" fill="none" xmlns="http://www.w3.org/2000/svg">
<path fill-rule="evenodd" clip-rule="evenodd" d="M16.7959 31.7161L35.5416 16.1174V8.83132L35.1652 9.03656C32.4466 10.5915 29.437 11.5701 26.3238 11.9114C23.2106 12.2528 20.0604 11.9495 17.0695 11.0205L15.3591 10.4732L15.1197 12.2862C14.3195 18.1163 14.6916 24.0476 16.2143 29.732C16.3853 30.382 16.5906 31.0662 16.7959 31.7161ZM35.5416 30.211L19.0877 37.3944C19.4982 38.2154 19.9429 39.0365 20.4218 39.8232C22.1686 42.8166 24.36 45.527 26.9212 47.8619C29.3973 50.0954 32.2608 51.8576 35.3705 53.0615H35.5416V30.211ZM46.5221 21.2828L54.4583 34.3843L39.1333 34.0422L41.4594 30.0399L35.5416 26.6191L18.6089 34.1106L35.5416 20.4276L44.196 25.4218L46.5221 21.2828ZM35.9178 56.5165L34.2074 56.0375C30.7584 54.6949 27.5824 52.736 24.8346 50.2565C22.0324 47.7153 19.6332 44.7624 17.7194 41.4994C17.2063 40.61 16.6932 39.6864 16.2143 38.7628L0 45.7753L14.4013 33.8027C13.9908 32.7423 13.683 31.6134 13.3751 30.382C12.3071 26.3875 11.7666 22.2705 11.7674 18.1357C11.7622 15.9956 11.9108 13.8577 12.2121 11.7389L12.9304 6.36838L18.0958 7.97613C19.9865 8.57925 21.9607 8.87936 23.9452 8.86546C27.3876 8.86373 30.7706 7.96797 33.7627 6.26576L36.0204 5L38.2781 6.26576C41.2043 7.86962 44.4851 8.71629 47.822 8.7287C49.8178 8.74278 51.8033 8.44261 53.7057 7.83928L58.871 6.23152L59.5894 11.6021C59.8623 13.7235 59.9994 15.8601 59.9999 17.9989C60.0099 22.0982 59.4808 26.1811 58.4262 30.1425C57.4475 33.9167 55.9632 37.5412 54.0136 40.9178C52.124 44.1588 49.7603 47.099 47.001 49.6408C44.2991 52.1301 41.1704 54.1116 37.765 55.4902H37.4572L35.9178 56.5165Z" fill="#FF671D"/>
</svg>
