<svg width="60" height="60" viewBox="0 0 60 60" fill="none" xmlns="http://www.w3.org/2000/svg">
<path fill-rule="evenodd" clip-rule="evenodd" d="M43.85 29.5922C42.7439 29.2793 41.6549 28.909 40.5873 28.4829C37.5405 26.9293 34.588 25.1971 31.7455 23.2953C30.3099 22.4471 22.7406 17.7163 21.2072 19.0539C20.3589 19.7717 21.5008 22.4797 21.8271 23.2301C22.3317 24.3543 22.9093 25.4441 23.5563 26.4928C24.6656 28.4177 24.111 27.6999 26.0033 28.8744C27.8956 30.049 37.1289 36.5417 39.0539 34.3231C40.2284 33.0507 42.7406 31.0604 43.8173 29.5922M59.9674 13.279C56.2253 12.0714 52.6843 10.3119 49.4617 8.05874C46.9553 6.42078 44.3633 4.91791 41.6966 3.55637C40.5221 3.00172 36.9658 1.37035 37.031 3.91521C37.4621 6.1292 38.327 8.23599 39.5759 10.1142C39.8497 10.6997 40.2129 11.2392 40.6525 11.713L46.1991 15.1387C48.1567 16.248 52.0392 18.8255 54.323 18.4014C55.1713 18.4014 56.7374 16.4438 57.3573 15.7913C57.9772 15.1388 59.1191 14.2252 60 13.3769L59.9674 13.279ZM19.1517 21.1093L14.5187 25.8402C12.8548 27.5041 15.1713 31.0931 15.9869 32.6918C17.0962 34.8125 18.5318 36.9006 19.8042 38.9234C21.0766 40.9463 20.4241 40.3916 22.1533 41.403C33.442 48.124 30.2121 41.0115 25.9706 34.1599C23.4081 30.5884 21.2214 26.7616 19.4453 22.7406C19.4127 22.2186 19.3149 21.6966 19.1844 21.2072L19.1517 21.1093ZM35.3018 4.79609L30.7341 9.36388C29.5921 10.4405 30.0164 11.4193 30.5058 12.6265C31.9773 16.0695 33.8033 19.3498 35.9543 22.4145C36.9657 23.9805 36.6395 23.8826 38.3034 24.894C39.3465 25.5602 40.4369 26.1491 41.5661 26.6559C50.3752 30.4079 43.6542 20.4242 42.0229 17.6509C39.1877 13.792 36.9342 9.53786 35.3344 5.0245L35.3018 4.79609ZM6.62317 30.31C6.68505 30.5109 6.70302 30.7228 6.67594 30.9313C6.64886 31.1398 6.57731 31.34 6.46615 31.5185C6.35498 31.6969 6.20683 31.8494 6.03163 31.9656C5.85644 32.0818 5.65828 32.1591 5.45065 32.1921C5.24302 32.2252 5.03077 32.2132 4.82815 32.1571C4.62554 32.101 4.4373 32.002 4.27625 31.8669C4.11519 31.7317 3.98505 31.5636 3.8946 31.3738C3.80416 31.184 3.75555 30.977 3.75202 30.7668C3.75202 30.049 3.55621 29.3638 3.49095 28.6787C3.4257 27.9935 3.49095 27.2758 3.49095 26.5906C3.49959 19.541 6.3039 12.7826 11.2887 7.79777C16.2736 2.81294 23.032 0.00863394 30.0816 0C30.471 0 30.8444 0.154695 31.1197 0.430034C31.395 0.705374 31.5497 1.07884 31.5497 1.46823C31.5497 1.85762 31.395 2.23109 31.1197 2.50643C30.8444 2.78177 30.471 2.93646 30.0816 2.93646C23.8164 2.95371 17.8132 5.4524 13.3861 9.88561C8.95902 14.3188 6.46858 20.3255 6.45997 26.5906C6.42623 27.2101 6.42623 27.8308 6.45997 28.4503C6.48037 29.1498 6.54575 29.8473 6.65573 30.5384L6.62317 30.31ZM53.4095 23.2301C53.3772 23.0389 53.384 22.8431 53.4294 22.6546C53.4748 22.4661 53.558 22.2887 53.6738 22.1332C53.7897 21.9777 53.9358 21.8473 54.1035 21.7498C54.2711 21.6524 54.4568 21.5899 54.6493 21.5661C54.8405 21.5338 55.0363 21.5406 55.2248 21.5861C55.4133 21.6315 55.5907 21.7146 55.7462 21.8305C55.9017 21.9464 56.0321 22.0925 56.1296 22.2601C56.227 22.4278 56.2895 22.6135 56.3132 22.806C56.4867 24.0601 56.574 25.3246 56.5743 26.5906C56.5829 30.085 55.9009 33.5466 54.5677 36.7766C53.2344 40.0066 51.2761 42.9413 48.8053 45.4122C46.3344 47.8831 43.3996 49.8413 40.1696 51.1746C36.9396 52.5078 33.4781 53.1898 29.9837 53.1812C29.1143 53.2283 28.2429 53.2283 27.3735 53.1812C27.0201 53.1055 26.707 52.9021 26.4943 52.61C26.2815 52.3178 26.184 51.9574 26.2203 51.5979C26.2567 51.2383 26.4244 50.9047 26.6914 50.661C26.9584 50.4174 27.3058 50.2808 27.6672 50.2774C28.4176 50.2774 29.2007 50.2774 29.9837 50.2774C33.0912 50.2817 36.169 49.6728 39.0408 48.4856C41.9126 47.2983 44.522 45.5561 46.7193 43.3588C48.9167 41.1614 50.6589 38.5522 51.8461 35.6804C53.0333 32.8086 53.6422 29.7307 53.6379 26.6232C53.6711 26.0582 53.6711 25.4917 53.6379 24.9267C53.5726 24.5678 53.5074 24.0131 53.4422 23.4584L53.4095 23.2301ZM0 40.0653C1.83533 40.5267 3.60155 41.2289 5.25281 42.1534C7.50404 43.4585 9.72263 44.8941 11.9739 46.2644C14.3305 47.8278 16.8196 49.1815 19.4127 50.31C20.2484 50.6605 21.1496 50.8274 22.0554 50.7994L27.6672 45.5466H26.982C23.3592 44.2535 19.9333 42.4637 16.8026 40.2285C14.9755 39.0866 7.30835 33.9642 5.22025 35.0409C4.22091 35.8982 3.28323 36.8249 2.41433 37.8142C1.66299 38.6806 0.868019 39.5081 0.0325588 40.2937L0 40.0653Z" fill="#FF671D"/>
</svg>
