<svg width="60" height="60" viewBox="0 0 60 60" fill="none" xmlns="http://www.w3.org/2000/svg">
<path d="M59.9683 19.1949C59.7782 20.3986 59.6199 21.6022 59.3665 22.7425C58.683 26.6966 56.6312 30.2845 53.5699 32.8787C50.7713 35.1486 47.2197 36.2797 43.6239 36.0463C41.8651 35.9767 40.1915 35.27 38.9152 34.0578C37.6389 32.8457 36.847 31.2106 36.6869 29.4577C36.6592 29.2976 36.6703 29.1333 36.7193 28.9784C36.7684 28.8235 36.8539 28.6827 36.9688 28.5678C37.0837 28.4529 37.2246 28.3673 37.3795 28.3182C37.5344 28.2691 37.6988 28.258 37.8589 28.2857C38.5875 28.2857 39.316 28.5393 40.0445 28.6026H42.2618C42.2979 29.1351 42.372 29.6644 42.4835 30.1864C42.6533 30.7211 42.9101 31.224 43.2437 31.675C43.3132 31.799 43.4087 31.9064 43.5237 31.9898C43.6387 32.0732 43.7705 32.1306 43.9099 32.1582C44.0493 32.1857 44.193 32.1827 44.3311 32.1493C44.4692 32.1159 44.5983 32.053 44.7097 31.9648C44.8211 31.8766 44.912 31.7652 44.9762 31.6385C45.0404 31.5117 45.0763 31.3725 45.0815 31.2306C45.0867 31.0886 45.061 30.9471 45.0062 30.8161C44.9514 30.685 44.8688 30.5674 44.7641 30.4713C44.5837 30.253 44.451 29.9992 44.3746 29.7264C44.2982 29.4537 44.2798 29.1679 44.3206 28.8876C44.3348 28.7327 44.4028 28.5879 44.5127 28.4779C44.6227 28.368 44.7676 28.2999 44.9225 28.2857L46.6013 27.8422C47.2981 27.6205 47.5832 27.1455 47.4249 26.5753C47.2665 26.0052 46.7281 25.7518 45.9995 25.9735C44.4544 26.5155 42.8211 26.7626 41.1848 26.702C40.0246 26.6214 38.8711 26.4628 37.7322 26.2269C37.5746 26.219 37.4212 26.173 37.2851 26.0932C37.149 26.0133 37.0342 25.902 36.9503 25.7684C36.8664 25.6347 36.8159 25.4829 36.8031 25.3256C36.7904 25.1684 36.8157 25.0101 36.877 24.8647C37.1304 23.8828 37.4788 22.9326 37.7639 21.9824C37.9919 21.1915 38.1716 20.3876 38.3023 19.575C36.6601 20.6424 35.3879 22.1914 34.6597 24.0096C34.1166 25.3367 33.8368 26.7569 33.8361 28.1908V50.997C33.8666 51.2494 33.8666 51.5048 33.8361 51.7573C33.7832 51.9783 33.6503 52.1717 33.4631 52.3004C33.2759 52.4291 33.0478 52.4838 32.8225 52.4541C32.5843 52.4542 32.3553 52.3619 32.1839 52.1964C32.0125 52.0309 31.9121 51.8054 31.9039 51.5673V51.1555V28.7609C31.778 26.1958 32.4344 23.653 33.7864 21.4694C35.1384 19.2859 37.122 17.5649 39.4743 16.5343C39.6916 16.4718 39.9222 16.4718 40.1396 16.5343C41.5248 16.8632 42.8161 17.5053 43.9144 18.4113C45.0126 19.3174 45.8885 20.4631 46.4746 21.7606C46.7914 22.4258 47.3299 22.6793 47.8684 22.4259C47.999 22.361 48.1141 22.2686 48.2058 22.1552C48.2976 22.0418 48.3637 21.9099 48.3998 21.7685C48.4359 21.6272 48.441 21.4798 48.4149 21.3362C48.3888 21.1927 48.332 21.0566 48.2485 20.937C48.0901 20.5569 47.9 20.2402 47.7733 19.9551L49.8005 18.4347C49.9635 18.3711 50.1444 18.3711 50.3073 18.4347C50.963 18.5106 51.6272 18.4453 52.2555 18.2431C52.8838 18.041 53.4616 17.7067 53.95 17.2628C54.0768 17.1293 54.1713 16.9685 54.2263 16.7928C54.2812 16.617 54.295 16.431 54.2668 16.2491C54.2176 16.0877 54.1275 15.9417 54.0055 15.8251C53.8834 15.7086 53.7334 15.6255 53.5699 15.5839C53.2434 15.5578 52.9182 15.6475 52.6513 15.8373C52.3955 16.0569 52.0984 16.2233 51.7775 16.3266C51.4566 16.43 51.1183 16.4682 50.7824 16.4392C50.7824 16.0274 50.7824 15.6156 50.7824 15.2355C50.7824 14.8554 50.3707 14.0635 49.7372 14.0952C49.5946 14.106 49.4558 14.1469 49.3301 14.2151C49.2045 14.2833 49.0946 14.3773 49.0079 14.491C48.9211 14.6046 48.8594 14.7355 48.8268 14.8747C48.7942 15.014 48.7914 15.1585 48.8186 15.2989C48.8881 15.7006 48.8515 16.1135 48.7126 16.4968C48.5738 16.8801 48.3374 17.2205 48.0267 17.4845C47.636 17.7381 47.2087 17.9304 46.7597 18.0546C46.5769 18.1286 46.3724 18.1286 46.1896 18.0546C45.1314 16.9683 43.8728 16.097 42.4835 15.4889C43.2401 14.8293 43.7808 13.9573 44.0356 12.9865C44.0867 12.8683 44.1133 12.7411 44.1137 12.6124C44.1141 12.4836 44.0883 12.3562 44.038 12.2377C43.9876 12.1192 43.9138 12.012 43.8208 11.9229C43.7278 11.8339 43.6177 11.7648 43.4971 11.7196C43.3647 11.6654 43.222 11.6409 43.0792 11.6476C42.9363 11.6544 42.7966 11.6922 42.6699 11.7586C42.5432 11.825 42.4325 11.9182 42.3456 12.0318C42.2587 12.1454 42.1976 12.2766 42.1667 12.4163C42.0619 12.8837 41.8283 13.3124 41.4924 13.6538C41.1565 13.9953 40.7318 14.2361 40.2662 14.3487L38.9359 14.8554C38.8282 14.9181 38.7077 14.9556 38.5835 14.965C38.4593 14.9745 38.3346 14.9556 38.2187 14.9099C38.1028 14.8642 37.9989 14.7929 37.9146 14.7011C37.8303 14.6094 37.7679 14.4995 37.7322 14.3802C37.0481 12.9802 36.6509 11.4576 36.5639 9.90185C36.4769 8.3461 36.7017 6.78862 37.2254 5.32106C37.7055 3.90013 38.6162 2.66407 39.8309 1.78425C41.0456 0.904438 42.5042 0.424567 44.004 0.411406C46.5273 0.168853 49.0695 0.608171 51.3651 1.68353C53.6606 2.75888 55.6254 4.43081 57.0542 6.52474C58.7732 9.07761 59.7892 12.0384 60 15.1088C60 15.2989 60 15.4889 60 15.679L59.9683 19.1949Z" fill="#FF671D"/>
<path d="M21.7994 19.67L22.5595 22.3623C22.8129 23.2492 23.0981 24.1045 23.3198 24.9914C23.5415 25.8783 23.3198 26.1317 22.4962 26.3218C19.875 27.0049 17.1112 26.9059 14.5457 26.0368L13.9755 25.8467C13.7473 25.8146 13.515 25.8637 13.3195 25.9855C13.1239 26.1074 12.9774 26.2943 12.9056 26.5133C12.8339 26.7324 12.8415 26.9696 12.9271 27.1836C13.0127 27.3976 13.1707 27.5746 13.3737 27.6838L14.9257 28.1907C15.125 28.2123 15.3154 28.2845 15.4787 28.4006C15.642 28.5168 15.7728 28.6729 15.8586 28.854C15.9444 29.0351 15.9824 29.2352 15.9688 29.4352C15.9552 29.6351 15.8905 29.8284 15.781 29.9962C15.6654 30.1934 15.5385 30.3837 15.401 30.5663C15.2248 30.7493 15.1264 30.9933 15.1264 31.2473C15.1264 31.5012 15.2248 31.7454 15.401 31.9284C15.4895 32.0194 15.5953 32.0916 15.7123 32.141C15.8293 32.1904 15.955 32.2158 16.082 32.2158C16.2089 32.2158 16.3345 32.1904 16.4515 32.141C16.5685 32.0916 16.6744 32.0194 16.763 31.9284C17.3313 31.2992 17.6666 30.4942 17.7132 29.6476V28.9509L22.2112 28.5391C22.3711 28.5135 22.5349 28.5279 22.688 28.581C22.8411 28.6341 22.9786 28.7242 23.0884 28.8434C23.1982 28.9625 23.2767 29.1072 23.3171 29.2641C23.3575 29.421 23.3584 29.5854 23.3198 29.7428C23.109 31.5034 22.255 33.1241 20.922 34.2934C19.589 35.4627 17.8709 36.0982 16.0978 36.0778C13.1375 36.2062 10.2098 35.4169 7.71507 33.818C5.22035 32.2191 3.28036 29.8887 2.16056 27.1453C0.853509 24.3874 0.123221 21.3917 0.0142897 18.3416C-0.0946413 15.2915 0.420136 12.2514 1.52711 9.40719C2.40369 6.97828 3.9364 4.83986 5.95498 3.22948C7.97355 1.61909 10.3989 0.599749 12.9619 0.284652C14.5871 -0.094884 16.278 -0.094884 17.9032 0.284652C19.4066 0.722536 20.7457 1.59798 21.7498 2.79951C22.7539 4.00104 23.3775 5.47429 23.5415 7.03153C23.7838 9.3244 23.4575 11.6415 22.5912 13.7782C22.2745 14.5701 21.8627 14.7285 21.1025 14.4118C20.3423 14.095 20.3423 14.095 19.9622 14C19.4843 13.8843 19.049 13.6356 18.7069 13.2823C18.3649 12.9291 18.1301 12.4858 18.03 12.0044C17.9842 11.7836 17.8589 11.5874 17.6778 11.453C17.4967 11.3187 17.2726 11.2557 17.048 11.2759C16.8413 11.2621 16.6363 11.3211 16.4685 11.4426C16.3007 11.5641 16.1808 11.7405 16.1294 11.9412C16.0975 12.1299 16.0975 12.3226 16.1294 12.5113C16.3523 13.5288 16.9237 14.4363 17.7449 15.077L17.2698 15.3305C16.2245 16.059 15.1792 16.7874 14.1023 17.5476C13.9801 17.6697 13.8279 17.7573 13.6611 17.8018C13.4942 17.8463 13.3186 17.8461 13.1519 17.8011C12.5912 17.6676 12.096 17.3398 11.7539 16.876C11.4118 16.4121 11.245 15.8422 11.2831 15.2671C11.3148 15.0571 11.3148 14.8435 11.2831 14.6335C11.2304 14.4018 11.0954 14.197 10.9032 14.0572C10.711 13.9174 10.4746 13.8521 10.2378 13.8733C10.0023 13.889 9.78101 13.9916 9.61706 14.1614C9.45311 14.3312 9.35829 14.5559 9.35094 14.7919C9.33505 15.0239 9.33505 15.2568 9.35094 15.4888V16.2173C8.99322 16.243 8.63402 16.1943 8.29603 16.0744C7.95803 15.9545 7.64858 15.766 7.38708 15.5205C7.29813 15.4246 7.19031 15.348 7.0704 15.2957C6.95049 15.2433 6.82106 15.2162 6.69022 15.2162C6.55938 15.2162 6.42994 15.2433 6.31003 15.2957C6.19012 15.348 6.08231 15.4246 5.99335 15.5205C5.83686 15.7233 5.76579 15.9793 5.79538 16.2337C5.82497 16.4882 5.95284 16.721 6.15169 16.8825L6.50017 17.1675C7.46908 17.8471 8.64742 18.1614 9.82605 18.0545C10.0754 18.0814 10.3145 18.1684 10.5229 18.308L12.36 19.6066L11.8849 20.6519C11.5999 21.2854 11.7266 21.8556 12.2334 22.0774C12.3648 22.1439 12.5091 22.1809 12.6562 22.186C12.8034 22.1911 12.95 22.164 13.0856 22.1067C13.2213 22.0495 13.3428 21.9633 13.4418 21.8542C13.5408 21.7452 13.6148 21.6161 13.6587 21.4755C14.2237 20.167 15.0936 19.0126 16.1956 18.1088C17.2977 17.2051 18.6 16.5784 19.9938 16.2807C20.2603 16.1865 20.551 16.1865 20.8174 16.2807C23.0609 17.2808 24.9552 18.9269 26.2585 21.0088C27.5619 23.0907 28.215 25.514 28.1344 27.9689C28.1344 35.6344 28.1344 43.2999 28.1344 50.9653C28.1474 51.1052 28.1321 51.2462 28.0894 51.38C28.0467 51.5138 27.9774 51.6376 27.8857 51.7441C27.7941 51.8505 27.6819 51.9373 27.5559 51.9994C27.4299 52.0616 27.2927 52.0977 27.1525 52.1056C26.5507 52.1056 26.1706 51.6304 26.1706 50.8385C26.1706 43.6165 26.1706 36.3629 26.1706 29.1409C26.2823 27.0651 25.9024 24.9921 25.0619 23.0908C24.3529 21.5362 23.2635 20.1854 21.8944 19.1631L21.7994 19.67Z" fill="#FF671D"/>
</svg>
